<svg width="3840" height="3744" viewBox="0 0 3840 3744" fill="none" xmlns="http://www.w3.org/2000/svg">
<path d="M302.933 1472.54H400.256V1570.65L467.999 1638.4L400.256 1706.14V1804.26H302.14L234.396 1872L166.652 1804.26H68.5361V1706.93L0 1638.4L68.5361 1569.86V1472.54H165.859L234.396 1404L302.933 1472.54Z" fill="#BD6F31"/>
<path d="M199 1553.5H149.5L166 1473L234 1518.5L199 1553.5Z" fill="white"/>
<path d="M199 1723H149.5L166 1803.5L234 1758L199 1723Z" fill="white"/>
<path d="M149.5 1602.5L149.5 1553L69 1569.5L114.5 1637.5L149.5 1602.5Z" fill="white"/>
<path d="M319 1602.5L319 1553L399.5 1569.5L354 1637.5L319 1602.5Z" fill="white"/>
<path d="M269 1553.5H318.5L302 1473L234 1518.5L269 1553.5Z" fill="white"/>
<path d="M269 1723H318.5L302 1803.5L234 1758L269 1723Z" fill="white"/>
<path d="M149.5 1672.5L149.5 1722L69 1705.5L114.5 1637.5L149.5 1672.5Z" fill="white"/>
<path d="M319 1672.5L319 1722L399.5 1705.5L354 1637.5L319 1672.5Z" fill="white"/>
<path d="M269.351 1553.15H319.26V1603.46L354 1638.2L319.26 1672.94V1723.26H268.944L234.203 1758L199.463 1723.26H149.147V1673.35L114 1638.2L149.147 1603.06V1553.15H199.057L234.203 1518L269.351 1553.15Z" fill="black"/>
<path d="M302.933 3344.54H400.256V3442.65L467.999 3510.4L400.256 3578.14V3676.26H302.14L234.396 3744L166.652 3676.26H68.5361V3578.93L0 3510.4L68.5361 3441.86V3344.54H165.859L234.396 3276L302.933 3344.54Z" fill="#BD6F31"/>
<path d="M199 3425.5H149.5L166 3345L234 3390.5L199 3425.5Z" fill="white"/>
<path d="M199 3595H149.5L166 3675.5L234 3630L199 3595Z" fill="white"/>
<path d="M149.5 3474.5L149.5 3425L69 3441.5L114.5 3509.5L149.5 3474.5Z" fill="white"/>
<path d="M319 3474.5L319 3425L399.5 3441.5L354 3509.5L319 3474.5Z" fill="white"/>
<path d="M269 3425.5H318.5L302 3345L234 3390.5L269 3425.5Z" fill="white"/>
<path d="M269 3595H318.5L302 3675.5L234 3630L269 3595Z" fill="white"/>
<path d="M149.5 3544.5L149.5 3594L69 3577.5L114.5 3509.5L149.5 3544.5Z" fill="white"/>
<path d="M319 3544.5L319 3594L399.5 3577.5L354 3509.5L319 3544.5Z" fill="white"/>
<path d="M269.351 3425.15H319.26V3475.46L354 3510.21L319.26 3544.95V3595.26H268.944L234.203 3630L199.463 3595.26H149.147V3545.35L114 3510.21L149.147 3475.06V3425.15H199.057L234.203 3390L269.351 3425.15Z" fill="black"/>
<path d="M1238.93 1472.54H1336.26V1570.65L1404 1638.4L1336.26 1706.14V1804.26H1238.14L1170.4 1872L1102.65 1804.26H1004.54V1706.93L936 1638.4L1004.54 1569.86V1472.54H1101.86L1170.4 1404L1238.93 1472.54Z" fill="#BD6F31"/>
<path d="M1135 1553.5H1085.5L1102 1473L1170 1518.5L1135 1553.5Z" fill="white"/>
<path d="M1135 1723H1085.5L1102 1803.5L1170 1758L1135 1723Z" fill="white"/>
<path d="M1085.5 1602.5L1085.5 1553L1005 1569.5L1050.5 1637.5L1085.5 1602.5Z" fill="white"/>
<path d="M1255 1602.5L1255 1553L1335.5 1569.5L1290 1637.5L1255 1602.5Z" fill="white"/>
<path d="M1205 1553.5H1254.5L1238 1473L1170 1518.5L1205 1553.5Z" fill="white"/>
<path d="M1205 1723H1254.5L1238 1803.5L1170 1758L1205 1723Z" fill="white"/>
<path d="M1085.5 1672.5L1085.5 1722L1005 1705.5L1050.5 1637.5L1085.5 1672.5Z" fill="white"/>
<path d="M1255 1672.5L1255 1722L1335.5 1705.5L1290 1637.5L1255 1672.5Z" fill="white"/>
<path d="M1205.35 1553.15H1255.26V1603.46L1290 1638.2L1255.26 1672.94V1723.26H1204.94L1170.2 1758L1135.46 1723.26H1085.15V1673.35L1050 1638.2L1085.15 1603.06V1553.15H1135.06L1170.2 1518L1205.35 1553.15Z" fill="black"/>
<path d="M1238.93 3344.54H1336.26V3442.66L1404 3510.4L1336.26 3578.14V3676.26H1238.14L1170.4 3744L1102.65 3676.26H1004.54V3578.93L936 3510.4L1004.54 3441.86V3344.54H1101.86L1170.4 3276L1238.93 3344.54Z" fill="#BD6F31"/>
<path d="M1135 3425.5H1085.5L1102 3345L1170 3390.5L1135 3425.5Z" fill="white"/>
<path d="M1135 3595H1085.5L1102 3675.5L1170 3630L1135 3595Z" fill="white"/>
<path d="M1085.5 3474.5L1085.5 3425L1005 3441.5L1050.5 3509.5L1085.5 3474.5Z" fill="white"/>
<path d="M1255 3474.5L1255 3425L1335.5 3441.5L1290 3509.5L1255 3474.5Z" fill="white"/>
<path d="M1205 3425.5H1254.5L1238 3345L1170 3390.5L1205 3425.5Z" fill="white"/>
<path d="M1205 3595H1254.5L1238 3675.5L1170 3630L1205 3595Z" fill="white"/>
<path d="M1085.5 3544.5L1085.5 3594L1005 3577.5L1050.5 3509.5L1085.5 3544.5Z" fill="white"/>
<path d="M1255 3544.5L1255 3594L1335.5 3577.5L1290 3509.5L1255 3544.5Z" fill="white"/>
<path d="M1205.35 3425.15H1255.26V3475.47L1290 3510.21L1255.26 3544.95V3595.26H1204.94L1170.2 3630L1135.46 3595.26H1085.15V3545.35L1050 3510.21L1085.15 3475.06V3425.15H1135.06L1170.2 3390L1205.35 3425.15Z" fill="black"/>
<path d="M2174.93 1472.54H2272.26V1570.65L2340 1638.4L2272.26 1706.14V1804.26H2174.14L2106.4 1872L2038.65 1804.26H1940.54V1706.93L1872 1638.4L1940.54 1569.86V1472.54H2037.86L2106.4 1404L2174.93 1472.54Z" fill="#BD6F31"/>
<path d="M2071 1553.5H2021.5L2038 1473L2106 1518.5L2071 1553.5Z" fill="white"/>
<path d="M2071 1723H2021.5L2038 1803.5L2106 1758L2071 1723Z" fill="white"/>
<path d="M2021.5 1602.5L2021.5 1553L1941 1569.5L1986.5 1637.5L2021.5 1602.5Z" fill="white"/>
<path d="M2191 1602.5L2191 1553L2271.5 1569.5L2226 1637.5L2191 1602.5Z" fill="white"/>
<path d="M2141 1553.5H2190.5L2174 1473L2106 1518.5L2141 1553.5Z" fill="white"/>
<path d="M2141 1723H2190.5L2174 1803.5L2106 1758L2141 1723Z" fill="white"/>
<path d="M2021.5 1672.5L2021.5 1722L1941 1705.5L1986.5 1637.5L2021.5 1672.5Z" fill="white"/>
<path d="M2191 1672.5L2191 1722L2271.5 1705.5L2226 1637.5L2191 1672.5Z" fill="white"/>
<path d="M2141.35 1553.15H2191.26V1603.46L2226 1638.2L2191.26 1672.94V1723.26H2140.94L2106.2 1758L2071.46 1723.26H2021.15V1673.35L1986 1638.2L2021.15 1603.06V1553.15H2071.06L2106.2 1518L2141.35 1553.15Z" fill="black"/>
<path d="M2174.93 3344.54H2272.26V3442.65L2340 3510.4L2272.26 3578.14V3676.26H2174.14L2106.4 3744L2038.65 3676.26H1940.54V3578.93L1872 3510.4L1940.54 3441.86V3344.54H2037.86L2106.4 3276L2174.93 3344.54Z" fill="#BD6F31"/>
<path d="M2071 3425.5H2021.5L2038 3345L2106 3390.5L2071 3425.5Z" fill="white"/>
<path d="M2071 3595H2021.5L2038 3675.5L2106 3630L2071 3595Z" fill="white"/>
<path d="M2021.5 3474.5L2021.5 3425L1941 3441.5L1986.5 3509.5L2021.5 3474.5Z" fill="white"/>
<path d="M2191 3474.5L2191 3425L2271.5 3441.5L2226 3509.5L2191 3474.5Z" fill="white"/>
<path d="M2141 3425.5H2190.5L2174 3345L2106 3390.5L2141 3425.5Z" fill="white"/>
<path d="M2141 3595H2190.5L2174 3675.5L2106 3630L2141 3595Z" fill="white"/>
<path d="M2021.5 3544.5L2021.5 3594L1941 3577.5L1986.5 3509.5L2021.5 3544.5Z" fill="white"/>
<path d="M2191 3544.5L2191 3594L2271.5 3577.5L2226 3509.5L2191 3544.5Z" fill="white"/>
<path d="M2141.35 3425.15H2191.26V3475.46L2226 3510.2L2191.26 3544.94V3595.26H2140.94L2106.2 3630L2071.46 3595.26H2021.15V3545.35L1986 3510.2L2021.15 3475.06V3425.15H2071.06L2106.2 3390L2141.35 3425.15Z" fill="black"/>
<path d="M3110.93 1472.54H3208.26V1570.65L3276 1638.4L3208.26 1706.14V1804.26H3110.14L3042.4 1872L2974.65 1804.26H2876.54V1706.93L2808 1638.4L2876.54 1569.86V1472.54H2973.86L3042.4 1404L3110.93 1472.54Z" fill="#BD6F31"/>
<path d="M3007 1553.5H2957.5L2974 1473L3042 1518.5L3007 1553.5Z" fill="white"/>
<path d="M3007 1723H2957.5L2974 1803.5L3042 1758L3007 1723Z" fill="white"/>
<path d="M2957.5 1602.5L2957.5 1553L2877 1569.5L2922.5 1637.5L2957.5 1602.5Z" fill="white"/>
<path d="M3127 1602.5L3127 1553L3207.5 1569.5L3162 1637.5L3127 1602.5Z" fill="white"/>
<path d="M3077 1553.5H3126.5L3110 1473L3042 1518.5L3077 1553.5Z" fill="white"/>
<path d="M3077 1723H3126.5L3110 1803.5L3042 1758L3077 1723Z" fill="white"/>
<path d="M2957.5 1672.5L2957.5 1722L2877 1705.5L2922.5 1637.5L2957.5 1672.5Z" fill="white"/>
<path d="M3127 1672.5L3127 1722L3207.5 1705.5L3162 1637.5L3127 1672.5Z" fill="white"/>
<path d="M3077.35 1553.15H3127.26V1603.46L3162 1638.2L3127.26 1672.94V1723.26H3076.94L3042.2 1758L3007.46 1723.26H2957.15V1673.35L2922 1638.2L2957.15 1603.06V1553.15H3007.06L3042.2 1518L3077.35 1553.15Z" fill="black"/>
<path d="M3110.93 3344.54H3208.26V3442.66L3276 3510.4L3208.26 3578.14V3676.26H3110.14L3042.4 3744L2974.65 3676.26H2876.54V3578.93L2808 3510.4L2876.54 3441.86V3344.54H2973.86L3042.4 3276L3110.93 3344.54Z" fill="#BD6F31"/>
<path d="M3007 3425.5H2957.5L2974 3345L3042 3390.5L3007 3425.5Z" fill="white"/>
<path d="M3007 3595H2957.5L2974 3675.5L3042 3630L3007 3595Z" fill="white"/>
<path d="M2957.5 3474.5L2957.5 3425L2877 3441.5L2922.5 3509.5L2957.5 3474.5Z" fill="white"/>
<path d="M3127 3474.5L3127 3425L3207.5 3441.5L3162 3509.5L3127 3474.5Z" fill="white"/>
<path d="M3077 3425.5H3126.5L3110 3345L3042 3390.5L3077 3425.5Z" fill="white"/>
<path d="M3077 3595H3126.5L3110 3675.5L3042 3630L3077 3595Z" fill="white"/>
<path d="M2957.5 3544.5L2957.5 3594L2877 3577.5L2922.5 3509.5L2957.5 3544.5Z" fill="white"/>
<path d="M3127 3544.5L3127 3594L3207.5 3577.5L3162 3509.5L3127 3544.5Z" fill="white"/>
<path d="M3077.35 3425.15H3127.26V3475.47L3162 3510.21L3127.26 3544.95V3595.26H3076.94L3042.2 3630L3007.46 3595.26H2957.15V3545.35L2922 3510.21L2957.15 3475.06V3425.15H3007.06L3042.2 3390L3077.35 3425.15Z" fill="black"/>
<path d="M302.933 536.537H400.256V634.653L467.999 702.396L400.256 770.14V868.257H302.14L234.396 936L166.652 868.257H68.5361V770.933L0 702.396L68.5361 633.86V536.537H165.859L234.396 468.001L302.933 536.537Z" fill="#BD6F31"/>
<path d="M199 617.501H149.5L166 537.001L234 582.501L199 617.501Z" fill="white"/>
<path d="M199 787.001H149.5L166 867.501L234 822.001L199 787.001Z" fill="white"/>
<path d="M149.5 666.501L149.5 617.001L69 633.501L114.5 701.501L149.5 666.501Z" fill="white"/>
<path d="M319 666.501L319 617.001L399.5 633.501L354 701.501L319 666.501Z" fill="white"/>
<path d="M269 617.501H318.5L302 537.001L234 582.501L269 617.501Z" fill="white"/>
<path d="M269 787.001H318.5L302 867.501L234 822.001L269 787.001Z" fill="white"/>
<path d="M149.5 736.501L149.5 786.001L69 769.501L114.5 701.501L149.5 736.501Z" fill="white"/>
<path d="M319 736.501L319 786.001L399.5 769.501L354 701.501L319 736.501Z" fill="white"/>
<path d="M269.351 617.148H319.26V667.464L354 702.204L319.26 736.944V787.261H268.944L234.203 822.001L199.463 787.261H149.147V737.352L114 702.204L149.147 667.057V617.148H199.057L234.203 582.001L269.351 617.148Z" fill="black"/>
<path d="M302.933 2408.54H400.256V2506.66L467.999 2574.4L400.256 2642.14V2740.26H302.14L234.396 2808L166.652 2740.26H68.5361V2642.93L0 2574.4L68.5361 2505.86V2408.54H165.859L234.396 2340L302.933 2408.54Z" fill="#BD6F31"/>
<path d="M199 2489.5H149.5L166 2409L234 2454.5L199 2489.5Z" fill="white"/>
<path d="M199 2659H149.5L166 2739.5L234 2694L199 2659Z" fill="white"/>
<path d="M149.5 2538.5L149.5 2489L69 2505.5L114.5 2573.5L149.5 2538.5Z" fill="white"/>
<path d="M319 2538.5L319 2489L399.5 2505.5L354 2573.5L319 2538.5Z" fill="white"/>
<path d="M269 2489.5H318.5L302 2409L234 2454.5L269 2489.5Z" fill="white"/>
<path d="M269 2659H318.5L302 2739.5L234 2694L269 2659Z" fill="white"/>
<path d="M149.5 2608.5L149.5 2658L69 2641.5L114.5 2573.5L149.5 2608.5Z" fill="white"/>
<path d="M319 2608.5L319 2658L399.5 2641.5L354 2573.5L319 2608.5Z" fill="white"/>
<path d="M269.351 2489.15H319.26V2539.47L354 2574.21L319.26 2608.95V2659.26H268.944L234.203 2694L199.463 2659.26H149.147V2609.35L114 2574.21L149.147 2539.06V2489.15H199.057L234.203 2454L269.351 2489.15Z" fill="black"/>
<path d="M1238.93 536.538H1336.26V634.654L1404 702.397L1336.26 770.141V868.258H1238.14L1170.4 936.001L1102.65 868.258H1004.54V770.934L936 702.397L1004.54 633.861V536.538H1101.86L1170.4 468.001L1238.93 536.538Z" fill="#BD6F31"/>
<path d="M1135 617.502H1085.5L1102 537.002L1170 582.502L1135 617.502Z" fill="white"/>
<path d="M1135 787.002H1085.5L1102 867.502L1170 822.002L1135 787.002Z" fill="white"/>
<path d="M1085.5 666.502L1085.5 617.002L1005 633.502L1050.5 701.502L1085.5 666.502Z" fill="white"/>
<path d="M1255 666.502L1255 617.002L1335.5 633.502L1290 701.502L1255 666.502Z" fill="white"/>
<path d="M1205 617.502H1254.5L1238 537.002L1170 582.502L1205 617.502Z" fill="white"/>
<path d="M1205 787.002H1254.5L1238 867.502L1170 822.002L1205 787.002Z" fill="white"/>
<path d="M1085.5 736.502L1085.5 786.002L1005 769.502L1050.5 701.502L1085.5 736.502Z" fill="white"/>
<path d="M1255 736.502L1255 786.002L1335.5 769.502L1290 701.502L1255 736.502Z" fill="white"/>
<path d="M1205.35 617.149H1255.26V667.465L1290 702.205L1255.26 736.945V787.262H1204.94L1170.2 822.002L1135.46 787.262H1085.15V737.353L1050 702.205L1085.15 667.058V617.149H1135.06L1170.2 582.002L1205.35 617.149Z" fill="black"/>
<path d="M1238.93 2408.54H1336.26V2506.65L1404 2574.4L1336.26 2642.14V2740.26H1238.14L1170.4 2808L1102.65 2740.26H1004.54V2642.93L936 2574.4L1004.54 2505.86V2408.54H1101.86L1170.4 2340L1238.93 2408.54Z" fill="#BD6F31"/>
<path d="M1135 2489.5H1085.5L1102 2409L1170 2454.5L1135 2489.5Z" fill="white"/>
<path d="M1135 2659H1085.5L1102 2739.5L1170 2694L1135 2659Z" fill="white"/>
<path d="M1085.5 2538.5L1085.5 2489L1005 2505.5L1050.5 2573.5L1085.5 2538.5Z" fill="white"/>
<path d="M1255 2538.5L1255 2489L1335.5 2505.5L1290 2573.5L1255 2538.5Z" fill="white"/>
<path d="M1205 2489.5H1254.5L1238 2409L1170 2454.5L1205 2489.5Z" fill="white"/>
<path d="M1205 2659H1254.5L1238 2739.5L1170 2694L1205 2659Z" fill="white"/>
<path d="M1085.5 2608.5L1085.5 2658L1005 2641.5L1050.5 2573.5L1085.5 2608.5Z" fill="white"/>
<path d="M1255 2608.5L1255 2658L1335.5 2641.5L1290 2573.5L1255 2608.5Z" fill="white"/>
<path d="M1205.35 2489.15H1255.26V2539.46L1290 2574.21L1255.26 2608.95V2659.26H1204.94L1170.2 2694L1135.46 2659.26H1085.15V2609.35L1050 2574.21L1085.15 2539.06V2489.15H1135.06L1170.2 2454L1205.35 2489.15Z" fill="black"/>
<path d="M2174.93 536.538H2272.26V634.654L2340 702.397L2272.26 770.141V868.258H2174.14L2106.4 936.001L2038.65 868.258H1940.54V770.934L1872 702.397L1940.54 633.861V536.538H2037.86L2106.4 468.002L2174.93 536.538Z" fill="#BD6F31"/>
<path d="M2071 617.502H2021.5L2038 537.002L2106 582.502L2071 617.502Z" fill="white"/>
<path d="M2071 787.002H2021.5L2038 867.502L2106 822.002L2071 787.002Z" fill="white"/>
<path d="M2021.5 666.502L2021.5 617.002L1941 633.502L1986.5 701.502L2021.5 666.502Z" fill="white"/>
<path d="M2191 666.502L2191 617.002L2271.5 633.502L2226 701.502L2191 666.502Z" fill="white"/>
<path d="M2141 617.502H2190.5L2174 537.002L2106 582.502L2141 617.502Z" fill="white"/>
<path d="M2141 787.002H2190.5L2174 867.502L2106 822.002L2141 787.002Z" fill="white"/>
<path d="M2021.5 736.502L2021.5 786.002L1941 769.502L1986.5 701.502L2021.5 736.502Z" fill="white"/>
<path d="M2191 736.502L2191 786.002L2271.5 769.502L2226 701.502L2191 736.502Z" fill="white"/>
<path d="M2141.35 617.149H2191.26V667.465L2226 702.205L2191.26 736.945V787.262H2140.94L2106.2 822.002L2071.46 787.262H2021.15V737.353L1986 702.205L2021.15 667.058V617.149H2071.06L2106.2 582.002L2141.35 617.149Z" fill="black"/>
<path d="M2174.93 2408.54H2272.26V2506.66L2340 2574.4L2272.26 2642.14V2740.26H2174.14L2106.4 2808L2038.65 2740.26H1940.54V2642.94L1872 2574.4L1940.54 2505.86V2408.54H2037.86L2106.4 2340L2174.93 2408.54Z" fill="#BD6F31"/>
<path d="M2071 2489.5H2021.5L2038 2409L2106 2454.5L2071 2489.5Z" fill="white"/>
<path d="M2071 2659H2021.5L2038 2739.5L2106 2694L2071 2659Z" fill="white"/>
<path d="M2021.5 2538.5L2021.5 2489L1941 2505.5L1986.5 2573.5L2021.5 2538.5Z" fill="white"/>
<path d="M2191 2538.5L2191 2489L2271.5 2505.5L2226 2573.5L2191 2538.5Z" fill="white"/>
<path d="M2141 2489.5H2190.5L2174 2409L2106 2454.5L2141 2489.5Z" fill="white"/>
<path d="M2141 2659H2190.5L2174 2739.5L2106 2694L2141 2659Z" fill="white"/>
<path d="M2021.5 2608.5L2021.5 2658L1941 2641.5L1986.5 2573.5L2021.5 2608.5Z" fill="white"/>
<path d="M2191 2608.5L2191 2658L2271.5 2641.5L2226 2573.5L2191 2608.5Z" fill="white"/>
<path d="M2141.35 2489.15H2191.26V2539.47L2226 2574.21L2191.26 2608.95V2659.26H2140.94L2106.2 2694L2071.46 2659.26H2021.15V2609.35L1986 2574.21L2021.15 2539.06V2489.15H2071.06L2106.2 2454L2141.35 2489.15Z" fill="black"/>
<path d="M3110.93 536.538H3208.26V634.654L3276 702.397L3208.26 770.141V868.258H3110.14L3042.4 936.001L2974.65 868.258H2876.54V770.934L2808 702.397L2876.54 633.861V536.538H2973.86L3042.4 468.001L3110.93 536.538Z" fill="#BD6F31"/>
<path d="M3007 617.502H2957.5L2974 537.002L3042 582.502L3007 617.502Z" fill="white"/>
<path d="M3007 787.002H2957.5L2974 867.502L3042 822.002L3007 787.002Z" fill="white"/>
<path d="M2957.5 666.502L2957.5 617.002L2877 633.502L2922.5 701.502L2957.5 666.502Z" fill="white"/>
<path d="M3127 666.502L3127 617.002L3207.5 633.502L3162 701.502L3127 666.502Z" fill="white"/>
<path d="M3077 617.502H3126.5L3110 537.002L3042 582.502L3077 617.502Z" fill="white"/>
<path d="M3077 787.002H3126.5L3110 867.502L3042 822.002L3077 787.002Z" fill="white"/>
<path d="M2957.5 736.502L2957.5 786.002L2877 769.502L2922.5 701.502L2957.5 736.502Z" fill="white"/>
<path d="M3127 736.502L3127 786.002L3207.5 769.502L3162 701.502L3127 736.502Z" fill="white"/>
<path d="M3077.35 617.149H3127.26V667.465L3162 702.205L3127.26 736.945V787.262H3076.94L3042.2 822.002L3007.46 787.262H2957.15V737.353L2922 702.205L2957.15 667.058V617.149H3007.06L3042.2 582.002L3077.35 617.149Z" fill="black"/>
<path d="M3110.93 2408.54H3208.26V2506.65L3276 2574.4L3208.26 2642.14V2740.26H3110.14L3042.4 2808L2974.65 2740.26H2876.54V2642.93L2808 2574.4L2876.54 2505.86V2408.54H2973.86L3042.4 2340L3110.93 2408.54Z" fill="#BD6F31"/>
<path d="M3007 2489.5H2957.5L2974 2409L3042 2454.5L3007 2489.5Z" fill="white"/>
<path d="M3007 2659H2957.5L2974 2739.5L3042 2694L3007 2659Z" fill="white"/>
<path d="M2957.5 2538.5L2957.5 2489L2877 2505.5L2922.5 2573.5L2957.5 2538.5Z" fill="white"/>
<path d="M3127 2538.5L3127 2489L3207.5 2505.5L3162 2573.5L3127 2538.5Z" fill="white"/>
<path d="M3077 2489.5H3126.5L3110 2409L3042 2454.5L3077 2489.5Z" fill="white"/>
<path d="M3077 2659H3126.5L3110 2739.5L3042 2694L3077 2659Z" fill="white"/>
<path d="M2957.5 2608.5L2957.5 2658L2877 2641.5L2922.5 2573.5L2957.5 2608.5Z" fill="white"/>
<path d="M3127 2608.5L3127 2658L3207.5 2641.5L3162 2573.5L3127 2608.5Z" fill="white"/>
<path d="M3077.35 2489.15H3127.26V2539.46L3162 2574.21L3127.26 2608.95V2659.26H3076.94L3042.2 2694L3007.46 2659.26H2957.15V2609.35L2922 2574.21L2957.15 2539.06V2489.15H3007.06L3042.2 2454L3077.35 2489.15Z" fill="black"/>
<path d="M496.281 1336.12H536.208V1376.37L564 1404.16L536.208 1431.96V1472.21H495.955L468.163 1500L440.371 1472.21H400.118V1432.28L372 1404.16L400.118 1376.05V1336.12H440.045L468.163 1308L496.281 1336.12Z" fill="black"/>
<path d="M496.281 3208.12H536.208V3248.37L564 3276.17L536.208 3303.96V3344.21H495.955L468.163 3372L440.371 3344.21H400.118V3304.28L372 3276.17L400.118 3248.05V3208.12H440.045L468.163 3180L496.281 3208.12Z" fill="black"/>
<path d="M1432.28 1336.12H1472.21V1376.37L1500 1404.16L1472.21 1431.96V1472.21H1431.96L1404.16 1500L1376.37 1472.21H1336.12V1432.28L1308 1404.16L1336.12 1376.05V1336.12H1376.04L1404.16 1308L1432.28 1336.12Z" fill="black"/>
<path d="M1432.28 3208.12H1472.21V3248.37L1500 3276.17L1472.21 3303.96V3344.21H1431.96L1404.16 3372L1376.37 3344.21H1336.12V3304.28L1308 3276.17L1336.12 3248.05V3208.12H1376.04L1404.16 3180L1432.28 3208.12Z" fill="black"/>
<path d="M2368.28 1336.12H2408.21V1376.37L2436 1404.16L2408.21 1431.96V1472.21H2367.96L2340.16 1500L2312.37 1472.21H2272.12V1432.28L2244 1404.16L2272.12 1376.05V1336.12H2312.04L2340.16 1308L2368.28 1336.12Z" fill="black"/>
<path d="M2368.28 3208.12H2408.21V3248.37L2436 3276.17L2408.21 3303.96V3344.21H2367.96L2340.16 3372L2312.37 3344.21H2272.12V3304.28L2244 3276.17L2272.12 3248.05V3208.12H2312.04L2340.16 3180L2368.28 3208.12Z" fill="black"/>
<path d="M3304.28 1336.12H3344.21V1376.37L3372 1404.16L3344.21 1431.96V1472.21H3303.96L3276.16 1500L3248.37 1472.21H3208.12V1432.28L3180 1404.16L3208.12 1376.05V1336.12H3248.04L3276.16 1308L3304.28 1336.12Z" fill="black"/>
<path d="M3304.28 3208.12H3344.21V3248.37L3372 3276.17L3344.21 3303.96V3344.21H3303.96L3276.16 3372L3248.37 3344.21H3208.12V3304.28L3180 3276.17L3208.12 3248.05V3208.12H3248.04L3276.16 3180L3304.28 3208.12Z" fill="black"/>
<path d="M964.281 1336.12H1004.21V1376.37L1032 1404.16L1004.21 1431.96V1472.21H963.955L936.163 1500L908.371 1472.21H868.118V1432.28L840 1404.16L868.118 1376.05V1336.12H908.045L936.163 1308L964.281 1336.12Z" fill="black"/>
<path d="M964.281 3208.12H1004.21V3248.37L1032 3276.17L1004.21 3303.96V3344.21H963.955L936.163 3372L908.371 3344.21H868.118V3304.28L840 3276.17L868.118 3248.05V3208.12H908.045L936.163 3180L964.281 3208.12Z" fill="black"/>
<path d="M1900.28 1336.12H1940.21V1376.37L1968 1404.16L1940.21 1431.96V1472.21H1899.96L1872.16 1500L1844.37 1472.21H1804.12V1432.28L1776 1404.16L1804.12 1376.05V1336.12H1844.04L1872.16 1308L1900.28 1336.12Z" fill="black"/>
<path d="M1900.28 3208.12H1940.21V3248.37L1968 3276.17L1940.21 3303.96V3344.21H1899.96L1872.16 3372L1844.37 3344.21H1804.12V3304.28L1776 3276.17L1804.12 3248.05V3208.12H1844.04L1872.16 3180L1900.28 3208.12Z" fill="black"/>
<path d="M2836.28 1336.12H2876.21V1376.37L2904 1404.16L2876.21 1431.96V1472.21H2835.96L2808.16 1500L2780.37 1472.21H2740.12V1432.28L2712 1404.16L2740.12 1376.05V1336.12H2780.04L2808.16 1308L2836.28 1336.12Z" fill="black"/>
<path d="M2836.28 3208.12H2876.21V3248.37L2904 3276.17L2876.21 3303.96V3344.21H2835.96L2808.16 3372L2780.37 3344.21H2740.12V3304.28L2712 3276.17L2740.12 3248.05V3208.12H2780.04L2808.16 3180L2836.28 3208.12Z" fill="black"/>
<path d="M3772.28 1336.12H3812.21V1376.37L3840 1404.16L3812.21 1431.96V1472.21H3771.96L3744.16 1500L3716.37 1472.21H3676.12V1432.28L3648 1404.16L3676.12 1376.05V1336.12H3716.04L3744.16 1308L3772.28 1336.12Z" fill="black"/>
<path d="M3772.28 3208.12H3812.21V3248.37L3840 3276.17L3812.21 3303.96V3344.21H3771.96L3744.16 3372L3716.37 3344.21H3676.12V3304.28L3648 3276.17L3676.12 3248.05V3208.12H3716.04L3744.16 3180L3772.28 3208.12Z" fill="black"/>
<path d="M496.281 400.119H536.208V440.372L564 468.164L536.208 495.956V536.209H495.955L468.163 564.001L440.371 536.209H400.118V496.282L372 468.164L400.118 440.046V400.119H440.045L468.163 372.001L496.281 400.119Z" fill="black"/>
<path d="M496.281 2272.12H536.208V2312.37L564 2340.17L536.208 2367.96V2408.21H495.955L468.163 2436L440.371 2408.21H400.118V2368.28L372 2340.17L400.118 2312.05V2272.12H440.045L468.163 2244L496.281 2272.12Z" fill="black"/>
<path d="M1432.28 400.119H1472.21V440.372L1500 468.164L1472.21 495.956V536.209H1431.96L1404.16 564.001L1376.37 536.209H1336.12V496.282L1308 468.164L1336.12 440.046V400.119H1376.04L1404.16 372.001L1432.28 400.119Z" fill="black"/>
<path d="M1432.28 2272.12H1472.21V2312.37L1500 2340.17L1472.21 2367.96V2408.21H1431.96L1404.16 2436L1376.37 2408.21H1336.12V2368.28L1308 2340.17L1336.12 2312.05V2272.12H1376.04L1404.16 2244L1432.28 2272.12Z" fill="black"/>
<path d="M2368.28 400.119H2408.21V440.372L2436 468.164L2408.21 495.956V536.209H2367.96L2340.16 564.001L2312.37 536.209H2272.12V496.282L2244 468.164L2272.12 440.046V400.119H2312.04L2340.16 372.001L2368.28 400.119Z" fill="black"/>
<path d="M2368.28 2272.12H2408.21V2312.37L2436 2340.17L2408.21 2367.96V2408.21H2367.96L2340.16 2436L2312.37 2408.21H2272.12V2368.28L2244 2340.17L2272.12 2312.05V2272.12H2312.04L2340.16 2244L2368.28 2272.12Z" fill="black"/>
<path d="M3304.28 400.119H3344.21V440.372L3372 468.164L3344.21 495.956V536.209H3303.96L3276.16 564.001L3248.37 536.209H3208.12V496.282L3180 468.164L3208.12 440.046V400.119H3248.04L3276.16 372.001L3304.28 400.119Z" fill="black"/>
<path d="M3304.28 2272.12H3344.21V2312.37L3372 2340.17L3344.21 2367.96V2408.21H3303.96L3276.16 2436L3248.37 2408.21H3208.12V2368.28L3180 2340.17L3208.12 2312.05V2272.12H3248.04L3276.16 2244L3304.28 2272.12Z" fill="black"/>
<path d="M964.281 400.119H1004.21V440.372L1032 468.164L1004.21 495.956V536.209H963.955L936.163 564.001L908.371 536.209H868.118V496.282L840 468.164L868.118 440.046V400.119H908.045L936.163 372.001L964.281 400.119Z" fill="black"/>
<path d="M964.281 2272.12H1004.21V2312.37L1032 2340.17L1004.21 2367.96V2408.21H963.955L936.163 2436L908.371 2408.21H868.118V2368.28L840 2340.17L868.118 2312.05V2272.12H908.045L936.163 2244L964.281 2272.12Z" fill="black"/>
<path d="M1900.28 400.119H1940.21V440.372L1968 468.164L1940.21 495.956V536.209H1899.96L1872.16 564.001L1844.37 536.209H1804.12V496.282L1776 468.164L1804.12 440.046V400.119H1844.04L1872.16 372.001L1900.28 400.119Z" fill="black"/>
<path d="M1900.28 2272.12H1940.21V2312.37L1968 2340.17L1940.21 2367.96V2408.21H1899.96L1872.16 2436L1844.37 2408.21H1804.12V2368.28L1776 2340.17L1804.12 2312.05V2272.12H1844.04L1872.16 2244L1900.28 2272.12Z" fill="black"/>
<path d="M2836.28 400.119H2876.21V440.372L2904 468.164L2876.21 495.956V536.209H2835.96L2808.16 564.001L2780.37 536.209H2740.12V496.282L2712 468.164L2740.12 440.046V400.119H2780.04L2808.16 372.001L2836.28 400.119Z" fill="black"/>
<path d="M2836.28 2272.12H2876.21V2312.37L2904 2340.17L2876.21 2367.96V2408.21H2835.96L2808.16 2436L2780.37 2408.21H2740.12V2368.28L2712 2340.17L2740.12 2312.05V2272.12H2780.04L2808.16 2244L2836.28 2272.12Z" fill="black"/>
<path d="M3772.28 400.119H3812.21V440.372L3840 468.164L3812.21 495.956V536.209H3771.96L3744.16 564.001L3716.37 536.209H3676.12V496.282L3648 468.164L3676.12 440.046V400.119H3716.04L3744.16 372.001L3772.28 400.119Z" fill="black"/>
<path d="M3772.28 2272.12H3812.21V2312.37L3840 2340.17L3812.21 2367.96V2408.21H3771.96L3744.16 2436L3716.37 2408.21H3676.12V2368.28L3648 2340.17L3676.12 2312.05V2272.12H3716.04L3744.16 2244L3772.28 2272.12Z" fill="black"/>
<path d="M496.281 868.119H536.208V908.372L564 936.164L536.208 963.956V1004.21H495.955L468.163 1032L440.371 1004.21H400.118V964.282L372 936.164L400.118 908.046V868.119H440.045L468.163 840.001L496.281 868.119Z" fill="black"/>
<path d="M496.281 2740.12H536.208V2780.37L564 2808.17L536.208 2835.96V2876.21H495.955L468.163 2904L440.371 2876.21H400.118V2836.28L372 2808.17L400.118 2780.05V2740.12H440.045L468.163 2712L496.281 2740.12Z" fill="black"/>
<path d="M1432.28 868.119H1472.21V908.372L1500 936.164L1472.21 963.956V1004.21H1431.96L1404.16 1032L1376.37 1004.21H1336.12V964.282L1308 936.164L1336.12 908.046V868.119H1376.04L1404.16 840.001L1432.28 868.119Z" fill="black"/>
<path d="M1432.28 2740.12H1472.21V2780.37L1500 2808.17L1472.21 2835.96V2876.21H1431.96L1404.16 2904L1376.37 2876.21H1336.12V2836.28L1308 2808.17L1336.12 2780.05V2740.12H1376.04L1404.16 2712L1432.28 2740.12Z" fill="black"/>
<path d="M2368.28 868.119H2408.21V908.372L2436 936.164L2408.21 963.956V1004.21H2367.96L2340.16 1032L2312.37 1004.21H2272.12V964.282L2244 936.164L2272.12 908.046V868.119H2312.04L2340.16 840.001L2368.28 868.119Z" fill="black"/>
<path d="M2368.28 2740.12H2408.21V2780.37L2436 2808.17L2408.21 2835.96V2876.21H2367.96L2340.16 2904L2312.37 2876.21H2272.12V2836.28L2244 2808.17L2272.12 2780.05V2740.12H2312.04L2340.16 2712L2368.28 2740.12Z" fill="black"/>
<path d="M3304.28 868.119H3344.21V908.372L3372 936.164L3344.21 963.956V1004.21H3303.96L3276.16 1032L3248.37 1004.21H3208.12V964.282L3180 936.164L3208.12 908.046V868.119H3248.04L3276.16 840.001L3304.28 868.119Z" fill="black"/>
<path d="M3304.28 2740.12H3344.21V2780.37L3372 2808.17L3344.21 2835.96V2876.21H3303.96L3276.16 2904L3248.37 2876.21H3208.12V2836.28L3180 2808.17L3208.12 2780.05V2740.12H3248.04L3276.16 2712L3304.28 2740.12Z" fill="black"/>
<path d="M964.281 868.119H1004.21V908.372L1032 936.164L1004.21 963.956V1004.21H963.955L936.163 1032L908.371 1004.21H868.118V964.282L840 936.164L868.118 908.046V868.119H908.045L936.163 840.001L964.281 868.119Z" fill="black"/>
<path d="M964.281 2740.12H1004.21V2780.37L1032 2808.17L1004.21 2835.96V2876.21H963.955L936.163 2904L908.371 2876.21H868.118V2836.28L840 2808.17L868.118 2780.05V2740.12H908.045L936.163 2712L964.281 2740.12Z" fill="black"/>
<path d="M1900.28 868.119H1940.21V908.372L1968 936.164L1940.21 963.956V1004.21H1899.96L1872.16 1032L1844.37 1004.21H1804.12V964.282L1776 936.164L1804.12 908.046V868.119H1844.04L1872.16 840.001L1900.28 868.119Z" fill="black"/>
<path d="M1900.28 2740.12H1940.21V2780.37L1968 2808.17L1940.21 2835.96V2876.21H1899.96L1872.16 2904L1844.37 2876.21H1804.12V2836.28L1776 2808.17L1804.12 2780.05V2740.12H1844.04L1872.16 2712L1900.28 2740.12Z" fill="black"/>
<path d="M2836.28 868.119H2876.21V908.372L2904 936.164L2876.21 963.956V1004.21H2835.96L2808.16 1032L2780.37 1004.21H2740.12V964.282L2712 936.164L2740.12 908.046V868.119H2780.04L2808.16 840.001L2836.28 868.119Z" fill="black"/>
<path d="M2836.28 2740.12H2876.21V2780.37L2904 2808.17L2876.21 2835.96V2876.21H2835.96L2808.16 2904L2780.37 2876.21H2740.12V2836.28L2712 2808.17L2740.12 2780.05V2740.12H2780.04L2808.16 2712L2836.28 2740.12Z" fill="black"/>
<path d="M3772.28 868.119H3812.21V908.372L3840 936.164L3812.21 963.956V1004.21H3771.96L3744.16 1032L3716.37 1004.21H3676.12V964.282L3648 936.164L3676.12 908.046V868.119H3716.04L3744.16 840.001L3772.28 868.119Z" fill="black"/>
<path d="M3772.28 2740.12H3812.21V2780.37L3840 2808.17L3812.21 2835.96V2876.21H3771.96L3744.16 2904L3716.37 2876.21H3676.12V2836.28L3648 2808.17L3676.12 2780.05V2740.12H3716.04L3744.16 2712L3772.28 2740.12Z" fill="black"/>
<path d="M496.281 1804.12H536.208V1844.37L564 1872.16L536.208 1899.96V1940.21H495.955L468.163 1968L440.371 1940.21H400.118V1900.28L372 1872.16L400.118 1844.05V1804.12H440.045L468.163 1776L496.281 1804.12Z" fill="black"/>
<path d="M1432.28 1804.12H1472.21V1844.37L1500 1872.16L1472.21 1899.96V1940.21H1431.96L1404.16 1968L1376.37 1940.21H1336.12V1900.28L1308 1872.16L1336.12 1844.05V1804.12H1376.04L1404.16 1776L1432.28 1804.12Z" fill="black"/>
<path d="M2368.28 1804.12H2408.21V1844.37L2436 1872.16L2408.21 1899.96V1940.21H2367.96L2340.16 1968L2312.37 1940.21H2272.12V1900.28L2244 1872.16L2272.12 1844.05V1804.12H2312.04L2340.16 1776L2368.28 1804.12Z" fill="black"/>
<path d="M3304.28 1804.12H3344.21V1844.37L3372 1872.16L3344.21 1899.96V1940.21H3303.96L3276.16 1968L3248.37 1940.21H3208.12V1900.28L3180 1872.16L3208.12 1844.05V1804.12H3248.04L3276.16 1776L3304.28 1804.12Z" fill="black"/>
<path d="M964.281 1804.12H1004.21V1844.37L1032 1872.16L1004.21 1899.96V1940.21H963.955L936.163 1968L908.371 1940.21H868.118V1900.28L840 1872.16L868.118 1844.05V1804.12H908.045L936.163 1776L964.281 1804.12Z" fill="black"/>
<path d="M1900.28 1804.12H1940.21V1844.37L1968 1872.16L1940.21 1899.96V1940.21H1899.96L1872.16 1968L1844.37 1940.21H1804.12V1900.28L1776 1872.16L1804.12 1844.05V1804.12H1844.04L1872.16 1776L1900.28 1804.12Z" fill="black"/>
<path d="M2836.28 1804.12H2876.21V1844.37L2904 1872.16L2876.21 1899.96V1940.21H2835.96L2808.16 1968L2780.37 1940.21H2740.12V1900.28L2712 1872.16L2740.12 1844.05V1804.12H2780.04L2808.16 1776L2836.28 1804.12Z" fill="black"/>
<path d="M3772.28 1804.12H3812.21V1844.37L3840 1872.16L3812.21 1899.96V1940.21H3771.96L3744.16 1968L3716.37 1940.21H3676.12V1900.28L3648 1872.16L3676.12 1844.05V1804.12H3716.04L3744.16 1776L3772.28 1804.12Z" fill="black"/>
<path d="M302.933 1004.54H400.256V1102.65L467.999 1170.4L400.256 1238.14V1336.26H302.14L234.396 1404L166.652 1336.26H68.5361V1238.93L0 1170.4L68.5361 1101.86V1004.54H165.859L234.396 936.001L302.933 1004.54Z" fill="black"/>
<path d="M199 1085.5H149.5L166 1005L234 1050.5L199 1085.5Z" fill="white"/>
<path d="M199 1255H149.5L166 1335.5L234 1290L199 1255Z" fill="white"/>
<path d="M149.5 1134.5L149.5 1085L69 1101.5L114.5 1169.5L149.5 1134.5Z" fill="white"/>
<path d="M319 1134.5L319 1085L399.5 1101.5L354 1169.5L319 1134.5Z" fill="white"/>
<path d="M269 1085.5H318.5L302 1005L234 1050.5L269 1085.5Z" fill="white"/>
<path d="M269 1255H318.5L302 1335.5L234 1290L269 1255Z" fill="white"/>
<path d="M149.5 1204.5L149.5 1254L69 1237.5L114.5 1169.5L149.5 1204.5Z" fill="white"/>
<path d="M319 1204.5L319 1254L399.5 1237.5L354 1169.5L319 1204.5Z" fill="white"/>
<path d="M269.351 1085.15H319.26V1135.46L354 1170.2L319.26 1204.94V1255.26H268.944L234.203 1290L199.463 1255.26H149.147V1205.35L114 1170.2L149.147 1135.06V1085.15H199.057L234.203 1050L269.351 1085.15Z" fill="#C15330"/>
<path d="M302.933 2876.54H400.256V2974.66L467.999 3042.4L400.256 3110.14V3208.26H302.14L234.396 3276L166.652 3208.26H68.5361V3110.93L0 3042.4L68.5361 2973.86V2876.54H165.859L234.396 2808L302.933 2876.54Z" fill="black"/>
<path d="M199 2957.5H149.5L166 2877L234 2922.5L199 2957.5Z" fill="white"/>
<path d="M199 3127H149.5L166 3207.5L234 3162L199 3127Z" fill="white"/>
<path d="M149.5 3006.5L149.5 2957L69 2973.5L114.5 3041.5L149.5 3006.5Z" fill="white"/>
<path d="M319 3006.5L319 2957L399.5 2973.5L354 3041.5L319 3006.5Z" fill="white"/>
<path d="M269 2957.5H318.5L302 2877L234 2922.5L269 2957.5Z" fill="white"/>
<path d="M269 3127H318.5L302 3207.5L234 3162L269 3127Z" fill="white"/>
<path d="M149.5 3076.5L149.5 3126L69 3109.5L114.5 3041.5L149.5 3076.5Z" fill="white"/>
<path d="M319 3076.5L319 3126L399.5 3109.5L354 3041.5L319 3076.5Z" fill="white"/>
<path d="M269.351 2957.15H319.26V3007.47L354 3042.21L319.26 3076.95V3127.26H268.944L234.203 3162L199.463 3127.26H149.147V3077.35L114 3042.21L149.147 3007.06V2957.15H199.057L234.203 2922L269.351 2957.15Z" fill="#C15330"/>
<path d="M1238.93 1004.54H1336.26V1102.65L1404 1170.4L1336.26 1238.14V1336.26H1238.14L1170.4 1404L1102.65 1336.26H1004.54V1238.93L936 1170.4L1004.54 1101.86V1004.54H1101.86L1170.4 936.001L1238.93 1004.54Z" fill="black"/>
<path d="M1135 1085.5H1085.5L1102 1005L1170 1050.5L1135 1085.5Z" fill="white"/>
<path d="M1135 1255H1085.5L1102 1335.5L1170 1290L1135 1255Z" fill="white"/>
<path d="M1085.5 1134.5L1085.5 1085L1005 1101.5L1050.5 1169.5L1085.5 1134.5Z" fill="white"/>
<path d="M1255 1134.5L1255 1085L1335.5 1101.5L1290 1169.5L1255 1134.5Z" fill="white"/>
<path d="M1205 1085.5H1254.5L1238 1005L1170 1050.5L1205 1085.5Z" fill="white"/>
<path d="M1205 1255H1254.5L1238 1335.5L1170 1290L1205 1255Z" fill="white"/>
<path d="M1085.5 1204.5L1085.5 1254L1005 1237.5L1050.5 1169.5L1085.5 1204.5Z" fill="white"/>
<path d="M1255 1204.5L1255 1254L1335.5 1237.5L1290 1169.5L1255 1204.5Z" fill="white"/>
<path d="M1205.35 1085.15H1255.26V1135.46L1290 1170.21L1255.26 1204.95V1255.26H1204.94L1170.2 1290L1135.46 1255.26H1085.15V1205.35L1050 1170.21L1085.15 1135.06V1085.15H1135.06L1170.2 1050L1205.35 1085.15Z" fill="#C15330"/>
<path d="M1238.93 2876.54H1336.26V2974.65L1404 3042.4L1336.26 3110.14V3208.26H1238.14L1170.4 3276L1102.65 3208.26H1004.54V3110.93L936 3042.4L1004.54 2973.86V2876.54H1101.86L1170.4 2808L1238.93 2876.54Z" fill="black"/>
<path d="M1135 2957.5H1085.5L1102 2877L1170 2922.5L1135 2957.5Z" fill="white"/>
<path d="M1135 3127H1085.5L1102 3207.5L1170 3162L1135 3127Z" fill="white"/>
<path d="M1085.5 3006.5L1085.5 2957L1005 2973.5L1050.5 3041.5L1085.5 3006.5Z" fill="white"/>
<path d="M1255 3006.5L1255 2957L1335.5 2973.5L1290 3041.5L1255 3006.5Z" fill="white"/>
<path d="M1205 2957.5H1254.5L1238 2877L1170 2922.5L1205 2957.5Z" fill="white"/>
<path d="M1205 3127H1254.5L1238 3207.5L1170 3162L1205 3127Z" fill="white"/>
<path d="M1085.5 3076.5L1085.5 3126L1005 3109.5L1050.5 3041.5L1085.5 3076.5Z" fill="white"/>
<path d="M1255 3076.5L1255 3126L1335.5 3109.5L1290 3041.5L1255 3076.5Z" fill="white"/>
<path d="M1205.35 2957.15H1255.26V3007.46L1290 3042.21L1255.26 3076.95V3127.26H1204.94L1170.2 3162L1135.46 3127.26H1085.15V3077.35L1050 3042.21L1085.15 3007.06V2957.15H1135.06L1170.2 2922L1205.35 2957.15Z" fill="#C15330"/>
<path d="M2174.93 1004.54H2272.26V1102.65L2340 1170.4L2272.26 1238.14V1336.26H2174.14L2106.4 1404L2038.65 1336.26H1940.54V1238.93L1872 1170.4L1940.54 1101.86V1004.54H2037.86L2106.4 936.002L2174.93 1004.54Z" fill="black"/>
<path d="M2071 1085.5H2021.5L2038 1005L2106 1050.5L2071 1085.5Z" fill="white"/>
<path d="M2071 1255H2021.5L2038 1335.5L2106 1290L2071 1255Z" fill="white"/>
<path d="M2021.5 1134.5L2021.5 1085L1941 1101.5L1986.5 1169.5L2021.5 1134.5Z" fill="white"/>
<path d="M2191 1134.5L2191 1085L2271.5 1101.5L2226 1169.5L2191 1134.5Z" fill="white"/>
<path d="M2141 1085.5H2190.5L2174 1005L2106 1050.5L2141 1085.5Z" fill="white"/>
<path d="M2141 1255H2190.5L2174 1335.5L2106 1290L2141 1255Z" fill="white"/>
<path d="M2021.5 1204.5L2021.5 1254L1941 1237.5L1986.5 1169.5L2021.5 1204.5Z" fill="white"/>
<path d="M2191 1204.5L2191 1254L2271.5 1237.5L2226 1169.5L2191 1204.5Z" fill="white"/>
<path d="M2141.35 1085.15H2191.26V1135.46L2226 1170.21L2191.26 1204.95V1255.26H2140.94L2106.2 1290L2071.46 1255.26H2021.15V1205.35L1986 1170.21L2021.15 1135.06V1085.15H2071.06L2106.2 1050L2141.35 1085.15Z" fill="#C15330"/>
<path d="M2174.93 2876.54H2272.26V2974.66L2340 3042.4L2272.26 3110.14V3208.26H2174.14L2106.4 3276L2038.65 3208.26H1940.54V3110.94L1872 3042.4L1940.54 2973.86V2876.54H2037.86L2106.4 2808L2174.93 2876.54Z" fill="black"/>
<path d="M2071 2957.5H2021.5L2038 2877L2106 2922.5L2071 2957.5Z" fill="white"/>
<path d="M2071 3127H2021.5L2038 3207.5L2106 3162L2071 3127Z" fill="white"/>
<path d="M2021.5 3006.5L2021.5 2957L1941 2973.5L1986.5 3041.5L2021.5 3006.5Z" fill="white"/>
<path d="M2191 3006.5L2191 2957L2271.5 2973.5L2226 3041.5L2191 3006.5Z" fill="white"/>
<path d="M2141 2957.5H2190.5L2174 2877L2106 2922.5L2141 2957.5Z" fill="white"/>
<path d="M2141 3127H2190.5L2174 3207.5L2106 3162L2141 3127Z" fill="white"/>
<path d="M2021.5 3076.5L2021.5 3126L1941 3109.5L1986.5 3041.5L2021.5 3076.5Z" fill="white"/>
<path d="M2191 3076.5L2191 3126L2271.5 3109.5L2226 3041.5L2191 3076.5Z" fill="white"/>
<path d="M2141.35 2957.15H2191.26V3007.47L2226 3042.21L2191.26 3076.95V3127.26H2140.94L2106.2 3162L2071.46 3127.26H2021.15V3077.35L1986 3042.21L2021.15 3007.06V2957.15H2071.06L2106.2 2922L2141.35 2957.15Z" fill="#C15330"/>
<path d="M3110.93 1004.54H3208.26V1102.65L3276 1170.4L3208.26 1238.14V1336.26H3110.14L3042.4 1404L2974.65 1336.26H2876.54V1238.93L2808 1170.4L2876.54 1101.86V1004.54H2973.86L3042.4 936.001L3110.93 1004.54Z" fill="black"/>
<path d="M3007 1085.5H2957.5L2974 1005L3042 1050.5L3007 1085.5Z" fill="white"/>
<path d="M3007 1255H2957.5L2974 1335.5L3042 1290L3007 1255Z" fill="white"/>
<path d="M2957.5 1134.5L2957.5 1085L2877 1101.5L2922.5 1169.5L2957.5 1134.5Z" fill="white"/>
<path d="M3127 1134.5L3127 1085L3207.5 1101.5L3162 1169.5L3127 1134.5Z" fill="white"/>
<path d="M3077 1085.5H3126.5L3110 1005L3042 1050.5L3077 1085.5Z" fill="white"/>
<path d="M3077 1255H3126.5L3110 1335.5L3042 1290L3077 1255Z" fill="white"/>
<path d="M2957.5 1204.5L2957.5 1254L2877 1237.5L2922.5 1169.5L2957.5 1204.5Z" fill="white"/>
<path d="M3127 1204.5L3127 1254L3207.5 1237.5L3162 1169.5L3127 1204.5Z" fill="white"/>
<path d="M3077.35 1085.15H3127.26V1135.46L3162 1170.21L3127.26 1204.95V1255.26H3076.94L3042.2 1290L3007.46 1255.26H2957.15V1205.35L2922 1170.21L2957.15 1135.06V1085.15H3007.06L3042.2 1050L3077.35 1085.15Z" fill="#C15330"/>
<path d="M3110.93 2876.54H3208.26V2974.65L3276 3042.4L3208.26 3110.14V3208.26H3110.14L3042.4 3276L2974.65 3208.26H2876.54V3110.93L2808 3042.4L2876.54 2973.86V2876.54H2973.86L3042.4 2808L3110.93 2876.54Z" fill="black"/>
<path d="M3007 2957.5H2957.5L2974 2877L3042 2922.5L3007 2957.5Z" fill="white"/>
<path d="M3007 3127H2957.5L2974 3207.5L3042 3162L3007 3127Z" fill="white"/>
<path d="M2957.5 3006.5L2957.5 2957L2877 2973.5L2922.5 3041.5L2957.5 3006.5Z" fill="white"/>
<path d="M3127 3006.5L3127 2957L3207.5 2973.5L3162 3041.5L3127 3006.5Z" fill="white"/>
<path d="M3077 2957.5H3126.5L3110 2877L3042 2922.5L3077 2957.5Z" fill="white"/>
<path d="M3077 3127H3126.5L3110 3207.5L3042 3162L3077 3127Z" fill="white"/>
<path d="M2957.5 3076.5L2957.5 3126L2877 3109.5L2922.5 3041.5L2957.5 3076.5Z" fill="white"/>
<path d="M3127 3076.5L3127 3126L3207.5 3109.5L3162 3041.5L3127 3076.5Z" fill="white"/>
<path d="M3077.35 2957.15H3127.26V3007.46L3162 3042.21L3127.26 3076.95V3127.26H3076.94L3042.2 3162L3007.46 3127.26H2957.15V3077.35L2922 3042.21L2957.15 3007.06V2957.15H3007.06L3042.2 2922L3077.35 2957.15Z" fill="#C15330"/>
<path d="M302.933 68.5381H400.256V166.654L467.999 234.397L400.256 302.141V400.258H302.14L234.396 468.001L166.652 400.258H68.5361V302.934L0 234.397L68.5361 165.861V68.5381H165.859L234.396 0.000976562L302.933 68.5381Z" fill="black"/>
<path d="M199 149.502H149.5L166 69.002L234 114.502L199 149.502Z" fill="white"/>
<path d="M199 319.002H149.5L166 399.502L234 354.002L199 319.002Z" fill="white"/>
<path d="M149.5 198.502L149.5 149.002L69 165.502L114.5 233.502L149.5 198.502Z" fill="white"/>
<path d="M319 198.502L319 149.002L399.5 165.502L354 233.502L319 198.502Z" fill="white"/>
<path d="M269 149.502H318.5L302 69.002L234 114.502L269 149.502Z" fill="white"/>
<path d="M269 319.002H318.5L302 399.502L234 354.002L269 319.002Z" fill="white"/>
<path d="M149.5 268.502L149.5 318.002L69 301.502L114.5 233.502L149.5 268.502Z" fill="white"/>
<path d="M319 268.502L319 318.002L399.5 301.502L354 233.502L319 268.502Z" fill="white"/>
<path d="M269.351 149.149H319.26V199.465L354 234.205L319.26 268.945V319.262H268.944L234.203 354.002L199.463 319.262H149.147V269.353L114 234.205L149.147 199.058V149.149H199.057L234.203 114.002L269.351 149.149Z" fill="#C15330"/>
<path d="M302.933 1940.54H400.256V2038.65L467.999 2106.4L400.256 2174.14V2272.26H302.14L234.396 2340L166.652 2272.26H68.5361V2174.93L0 2106.4L68.5361 2037.86V1940.54H165.859L234.396 1872L302.933 1940.54Z" fill="black"/>
<path d="M199 2021.5H149.5L166 1941L234 1986.5L199 2021.5Z" fill="white"/>
<path d="M199 2191H149.5L166 2271.5L234 2226L199 2191Z" fill="white"/>
<path d="M149.5 2070.5L149.5 2021L69 2037.5L114.5 2105.5L149.5 2070.5Z" fill="white"/>
<path d="M319 2070.5L319 2021L399.5 2037.5L354 2105.5L319 2070.5Z" fill="white"/>
<path d="M269 2021.5H318.5L302 1941L234 1986.5L269 2021.5Z" fill="white"/>
<path d="M269 2191H318.5L302 2271.5L234 2226L269 2191Z" fill="white"/>
<path d="M149.5 2140.5L149.5 2190L69 2173.5L114.5 2105.5L149.5 2140.5Z" fill="white"/>
<path d="M319 2140.5L319 2190L399.5 2173.5L354 2105.5L319 2140.5Z" fill="white"/>
<path d="M269.351 2021.15H319.26V2071.46L354 2106.21L319.26 2140.95V2191.26H268.944L234.203 2226L199.463 2191.26H149.147V2141.35L114 2106.21L149.147 2071.06V2021.15H199.057L234.203 1986L269.351 2021.15Z" fill="#C15330"/>
<path d="M1238.93 68.5371H1336.26V166.653L1404 234.396L1336.26 302.14V400.257H1238.14L1170.4 468L1102.65 400.257H1004.54V302.933L936 234.396L1004.54 165.86V68.5371H1101.86L1170.4 0.000976562L1238.93 68.5371Z" fill="black"/>
<path d="M1135 149.501H1085.5L1102 69.001L1170 114.501L1135 149.501Z" fill="white"/>
<path d="M1135 319.001H1085.5L1102 399.501L1170 354.001L1135 319.001Z" fill="white"/>
<path d="M1085.5 198.501L1085.5 149.001L1005 165.501L1050.5 233.501L1085.5 198.501Z" fill="white"/>
<path d="M1255 198.501L1255 149.001L1335.5 165.501L1290 233.501L1255 198.501Z" fill="white"/>
<path d="M1205 149.501H1254.5L1238 69.001L1170 114.501L1205 149.501Z" fill="white"/>
<path d="M1205 319.001H1254.5L1238 399.501L1170 354.001L1205 319.001Z" fill="white"/>
<path d="M1085.5 268.501L1085.5 318.001L1005 301.501L1050.5 233.501L1085.5 268.501Z" fill="white"/>
<path d="M1255 268.501L1255 318.001L1335.5 301.501L1290 233.501L1255 268.501Z" fill="white"/>
<path d="M1205.35 149.148H1255.26V199.464L1290 234.204L1255.26 268.944V319.261H1204.94L1170.2 354.001L1135.46 319.261H1085.15V269.352L1050 234.204L1085.15 199.057V149.148H1135.06L1170.2 114.001L1205.35 149.148Z" fill="#C15330"/>
<path d="M1238.93 1940.54H1336.26V2038.66L1404 2106.4L1336.26 2174.14V2272.26H1238.14L1170.4 2340L1102.65 2272.26H1004.54V2174.93L936 2106.4L1004.54 2037.86V1940.54H1101.86L1170.4 1872L1238.93 1940.54Z" fill="black"/>
<path d="M1135 2021.5H1085.5L1102 1941L1170 1986.5L1135 2021.5Z" fill="white"/>
<path d="M1135 2191H1085.5L1102 2271.5L1170 2226L1135 2191Z" fill="white"/>
<path d="M1085.5 2070.5L1085.5 2021L1005 2037.5L1050.5 2105.5L1085.5 2070.5Z" fill="white"/>
<path d="M1255 2070.5L1255 2021L1335.5 2037.5L1290 2105.5L1255 2070.5Z" fill="white"/>
<path d="M1205 2021.5H1254.5L1238 1941L1170 1986.5L1205 2021.5Z" fill="white"/>
<path d="M1205 2191H1254.5L1238 2271.5L1170 2226L1205 2191Z" fill="white"/>
<path d="M1085.5 2140.5L1085.5 2190L1005 2173.5L1050.5 2105.5L1085.5 2140.5Z" fill="white"/>
<path d="M1255 2140.5L1255 2190L1335.5 2173.5L1290 2105.5L1255 2140.5Z" fill="white"/>
<path d="M1205.35 2021.15H1255.26V2071.47L1290 2106.21L1255.26 2140.95V2191.26H1204.94L1170.2 2226L1135.46 2191.26H1085.15V2141.35L1050 2106.21L1085.15 2071.06V2021.15H1135.06L1170.2 1986L1205.35 2021.15Z" fill="#C15330"/>
<path d="M2174.93 68.5371H2272.26V166.653L2340 234.396L2272.26 302.14V400.257H2174.14L2106.4 468L2038.65 400.257H1940.54V302.933L1872 234.396L1940.54 165.86V68.5371H2037.86L2106.4 0L2174.93 68.5371Z" fill="black"/>
<path d="M2071 149.501H2021.5L2038 69.001L2106 114.501L2071 149.501Z" fill="white"/>
<path d="M2071 319.001H2021.5L2038 399.501L2106 354.001L2071 319.001Z" fill="white"/>
<path d="M2021.5 198.501L2021.5 149.001L1941 165.501L1986.5 233.501L2021.5 198.501Z" fill="white"/>
<path d="M2191 198.501L2191 149.001L2271.5 165.501L2226 233.501L2191 198.501Z" fill="white"/>
<path d="M2141 149.501H2190.5L2174 69.001L2106 114.501L2141 149.501Z" fill="white"/>
<path d="M2141 319.001H2190.5L2174 399.501L2106 354.001L2141 319.001Z" fill="white"/>
<path d="M2021.5 268.501L2021.5 318.001L1941 301.501L1986.5 233.501L2021.5 268.501Z" fill="white"/>
<path d="M2191 268.501L2191 318.001L2271.5 301.501L2226 233.501L2191 268.501Z" fill="white"/>
<path d="M2141.35 149.148H2191.26V199.464L2226 234.204L2191.26 268.944V319.261H2140.94L2106.2 354.001L2071.46 319.261H2021.15V269.352L1986 234.204L2021.15 199.057V149.148H2071.06L2106.2 114.001L2141.35 149.148Z" fill="#C15330"/>
<path d="M2174.93 1940.54H2272.26V2038.65L2340 2106.4L2272.26 2174.14V2272.26H2174.14L2106.4 2340L2038.65 2272.26H1940.54V2174.93L1872 2106.4L1940.54 2037.86V1940.54H2037.86L2106.4 1872L2174.93 1940.54Z" fill="black"/>
<path d="M2071 2021.5H2021.5L2038 1941L2106 1986.5L2071 2021.5Z" fill="white"/>
<path d="M2071 2191H2021.5L2038 2271.5L2106 2226L2071 2191Z" fill="white"/>
<path d="M2021.5 2070.5L2021.5 2021L1941 2037.5L1986.5 2105.5L2021.5 2070.5Z" fill="white"/>
<path d="M2191 2070.5L2191 2021L2271.5 2037.5L2226 2105.5L2191 2070.5Z" fill="white"/>
<path d="M2141 2021.5H2190.5L2174 1941L2106 1986.5L2141 2021.5Z" fill="white"/>
<path d="M2141 2191H2190.5L2174 2271.5L2106 2226L2141 2191Z" fill="white"/>
<path d="M2021.5 2140.5L2021.5 2190L1941 2173.5L1986.5 2105.5L2021.5 2140.5Z" fill="white"/>
<path d="M2191 2140.5L2191 2190L2271.5 2173.5L2226 2105.5L2191 2140.5Z" fill="white"/>
<path d="M2141.35 2021.15H2191.26V2071.46L2226 2106.2L2191.26 2140.94V2191.26H2140.94L2106.2 2226L2071.46 2191.26H2021.15V2141.35L1986 2106.2L2021.15 2071.06V2021.15H2071.06L2106.2 1986L2141.35 2021.15Z" fill="#C15330"/>
<path d="M3110.93 68.5371H3208.26V166.653L3276 234.396L3208.26 302.14V400.257H3110.14L3042.4 468L2974.65 400.257H2876.54V302.933L2808 234.396L2876.54 165.86V68.5371H2973.86L3042.4 0.000976562L3110.93 68.5371Z" fill="black"/>
<path d="M3007 149.501H2957.5L2974 69.001L3042 114.501L3007 149.501Z" fill="white"/>
<path d="M3007 319.001H2957.5L2974 399.501L3042 354.001L3007 319.001Z" fill="white"/>
<path d="M2957.5 198.501L2957.5 149.001L2877 165.501L2922.5 233.501L2957.5 198.501Z" fill="white"/>
<path d="M3127 198.501L3127 149.001L3207.5 165.501L3162 233.501L3127 198.501Z" fill="white"/>
<path d="M3077 149.501H3126.5L3110 69.001L3042 114.501L3077 149.501Z" fill="white"/>
<path d="M3077 319.001H3126.5L3110 399.501L3042 354.001L3077 319.001Z" fill="white"/>
<path d="M2957.5 268.501L2957.5 318.001L2877 301.501L2922.5 233.501L2957.5 268.501Z" fill="white"/>
<path d="M3127 268.501L3127 318.001L3207.5 301.501L3162 233.501L3127 268.501Z" fill="white"/>
<path d="M3077.35 149.148H3127.26V199.464L3162 234.204L3127.26 268.944V319.261H3076.94L3042.2 354.001L3007.46 319.261H2957.15V269.352L2922 234.204L2957.15 199.057V149.148H3007.06L3042.2 114.001L3077.35 149.148Z" fill="#C15330"/>
<path d="M3110.93 1940.54H3208.26V2038.66L3276 2106.4L3208.26 2174.14V2272.26H3110.14L3042.4 2340L2974.65 2272.26H2876.54V2174.93L2808 2106.4L2876.54 2037.86V1940.54H2973.86L3042.4 1872L3110.93 1940.54Z" fill="black"/>
<path d="M3007 2021.5H2957.5L2974 1941L3042 1986.5L3007 2021.5Z" fill="white"/>
<path d="M3007 2191H2957.5L2974 2271.5L3042 2226L3007 2191Z" fill="white"/>
<path d="M2957.5 2070.5L2957.5 2021L2877 2037.5L2922.5 2105.5L2957.5 2070.5Z" fill="white"/>
<path d="M3127 2070.5L3127 2021L3207.5 2037.5L3162 2105.5L3127 2070.5Z" fill="white"/>
<path d="M3077 2021.5H3126.5L3110 1941L3042 1986.5L3077 2021.5Z" fill="white"/>
<path d="M3077 2191H3126.5L3110 2271.5L3042 2226L3077 2191Z" fill="white"/>
<path d="M2957.5 2140.5L2957.5 2190L2877 2173.5L2922.5 2105.5L2957.5 2140.5Z" fill="white"/>
<path d="M3127 2140.5L3127 2190L3207.5 2173.5L3162 2105.5L3127 2140.5Z" fill="white"/>
<path d="M3077.35 2021.15H3127.26V2071.47L3162 2106.21L3127.26 2140.95V2191.26H3076.94L3042.2 2226L3007.46 2191.26H2957.15V2141.35L2922 2106.21L2957.15 2071.06V2021.15H3007.06L3042.2 1986L3077.35 2021.15Z" fill="#C15330"/>
<path d="M770.933 1004.54H868.256V1102.65L935.999 1170.4L868.256 1238.14V1336.26H770.14L702.396 1404L634.652 1336.26H536.536V1238.93L468 1170.4L536.536 1101.86V1004.54H633.859L702.396 936.001L770.933 1004.54Z" fill="#C15330"/>
<path d="M667 1085.5H617.5L634 1005L702 1050.5L667 1085.5Z" fill="white"/>
<path d="M667 1255H617.5L634 1335.5L702 1290L667 1255Z" fill="white"/>
<path d="M617.5 1134.5L617.5 1085L537 1101.5L582.5 1169.5L617.5 1134.5Z" fill="white"/>
<path d="M787 1134.5L787 1085L867.5 1101.5L822 1169.5L787 1134.5Z" fill="white"/>
<path d="M737 1085.5H786.5L770 1005L702 1050.5L737 1085.5Z" fill="white"/>
<path d="M737 1255H786.5L770 1335.5L702 1290L737 1255Z" fill="white"/>
<path d="M617.5 1204.5L617.5 1254L537 1237.5L582.5 1169.5L617.5 1204.5Z" fill="white"/>
<path d="M787 1204.5L787 1254L867.5 1237.5L822 1169.5L787 1204.5Z" fill="white"/>
<path d="M737.351 1085.15H787.26V1135.46L822 1170.21L787.26 1204.95V1255.26H736.944L702.203 1290L667.463 1255.26H617.147V1205.35L582 1170.21L617.147 1135.06V1085.15H667.057L702.203 1050L737.351 1085.15Z" fill="black"/>
<path d="M770.933 2876.54H868.256V2974.65L935.999 3042.4L868.256 3110.14V3208.26H770.14L702.396 3276L634.652 3208.26H536.536V3110.93L468 3042.4L536.536 2973.86V2876.54H633.859L702.396 2808L770.933 2876.54Z" fill="#C15330"/>
<path d="M667 2957.5H617.5L634 2877L702 2922.5L667 2957.5Z" fill="white"/>
<path d="M667 3127H617.5L634 3207.5L702 3162L667 3127Z" fill="white"/>
<path d="M617.5 3006.5L617.5 2957L537 2973.5L582.5 3041.5L617.5 3006.5Z" fill="white"/>
<path d="M787 3006.5L787 2957L867.5 2973.5L822 3041.5L787 3006.5Z" fill="white"/>
<path d="M737 2957.5H786.5L770 2877L702 2922.5L737 2957.5Z" fill="white"/>
<path d="M737 3127H786.5L770 3207.5L702 3162L737 3127Z" fill="white"/>
<path d="M617.5 3076.5L617.5 3126L537 3109.5L582.5 3041.5L617.5 3076.5Z" fill="white"/>
<path d="M787 3076.5L787 3126L867.5 3109.5L822 3041.5L787 3076.5Z" fill="white"/>
<path d="M737.351 2957.15H787.26V3007.46L822 3042.21L787.26 3076.95V3127.26H736.944L702.203 3162L667.463 3127.26H617.147V3077.35L582 3042.21L617.147 3007.06V2957.15H667.057L702.203 2922L737.351 2957.15Z" fill="black"/>
<path d="M1706.93 1004.54H1804.26V1102.65L1872 1170.4L1804.26 1238.14V1336.26H1706.14L1638.4 1404L1570.65 1336.26H1472.54V1238.93L1404 1170.4L1472.54 1101.86V1004.54H1569.86L1638.4 936.001L1706.93 1004.54Z" fill="#C15330"/>
<path d="M1603 1085.5H1553.5L1570 1005L1638 1050.5L1603 1085.5Z" fill="white"/>
<path d="M1603 1255H1553.5L1570 1335.5L1638 1290L1603 1255Z" fill="white"/>
<path d="M1553.5 1134.5L1553.5 1085L1473 1101.5L1518.5 1169.5L1553.5 1134.5Z" fill="white"/>
<path d="M1723 1134.5L1723 1085L1803.5 1101.5L1758 1169.5L1723 1134.5Z" fill="white"/>
<path d="M1673 1085.5H1722.5L1706 1005L1638 1050.5L1673 1085.5Z" fill="white"/>
<path d="M1673 1255H1722.5L1706 1335.5L1638 1290L1673 1255Z" fill="white"/>
<path d="M1553.5 1204.5L1553.5 1254L1473 1237.5L1518.5 1169.5L1553.5 1204.5Z" fill="white"/>
<path d="M1723 1204.5L1723 1254L1803.5 1237.5L1758 1169.5L1723 1204.5Z" fill="white"/>
<path d="M1673.35 1085.15H1723.26V1135.46L1758 1170.2L1723.26 1204.94V1255.26H1672.94L1638.2 1290L1603.46 1255.26H1553.15V1205.35L1518 1170.2L1553.15 1135.06V1085.15H1603.06L1638.2 1050L1673.35 1085.15Z" fill="black"/>
<path d="M1706.93 2876.54H1804.26V2974.66L1872 3042.4L1804.26 3110.14V3208.26H1706.14L1638.4 3276L1570.65 3208.26H1472.54V3110.93L1404 3042.4L1472.54 2973.86V2876.54H1569.86L1638.4 2808L1706.93 2876.54Z" fill="#C15330"/>
<path d="M1603 2957.5H1553.5L1570 2877L1638 2922.5L1603 2957.5Z" fill="white"/>
<path d="M1603 3127H1553.5L1570 3207.5L1638 3162L1603 3127Z" fill="white"/>
<path d="M1553.5 3006.5L1553.5 2957L1473 2973.5L1518.5 3041.5L1553.5 3006.5Z" fill="white"/>
<path d="M1723 3006.5L1723 2957L1803.5 2973.5L1758 3041.5L1723 3006.5Z" fill="white"/>
<path d="M1673 2957.5H1722.5L1706 2877L1638 2922.5L1673 2957.5Z" fill="white"/>
<path d="M1673 3127H1722.5L1706 3207.5L1638 3162L1673 3127Z" fill="white"/>
<path d="M1553.5 3076.5L1553.5 3126L1473 3109.5L1518.5 3041.5L1553.5 3076.5Z" fill="white"/>
<path d="M1723 3076.5L1723 3126L1803.5 3109.5L1758 3041.5L1723 3076.5Z" fill="white"/>
<path d="M1673.35 2957.15H1723.26V3007.47L1758 3042.21L1723.26 3076.95V3127.26H1672.94L1638.2 3162L1603.46 3127.26H1553.15V3077.35L1518 3042.21L1553.15 3007.06V2957.15H1603.06L1638.2 2922L1673.35 2957.15Z" fill="black"/>
<path d="M2642.93 1004.54H2740.26V1102.65L2808 1170.4L2740.26 1238.14V1336.26H2642.14L2574.4 1404L2506.65 1336.26H2408.54V1238.93L2340 1170.4L2408.54 1101.86V1004.54H2505.86L2574.4 936L2642.93 1004.54Z" fill="#C15330"/>
<path d="M2539 1085.5H2489.5L2506 1005L2574 1050.5L2539 1085.5Z" fill="white"/>
<path d="M2539 1255H2489.5L2506 1335.5L2574 1290L2539 1255Z" fill="white"/>
<path d="M2489.5 1134.5L2489.5 1085L2409 1101.5L2454.5 1169.5L2489.5 1134.5Z" fill="white"/>
<path d="M2659 1134.5L2659 1085L2739.5 1101.5L2694 1169.5L2659 1134.5Z" fill="white"/>
<path d="M2609 1085.5H2658.5L2642 1005L2574 1050.5L2609 1085.5Z" fill="white"/>
<path d="M2609 1255H2658.5L2642 1335.5L2574 1290L2609 1255Z" fill="white"/>
<path d="M2489.5 1204.5L2489.5 1254L2409 1237.5L2454.5 1169.5L2489.5 1204.5Z" fill="white"/>
<path d="M2659 1204.5L2659 1254L2739.5 1237.5L2694 1169.5L2659 1204.5Z" fill="white"/>
<path d="M2609.35 1085.15H2659.26V1135.46L2694 1170.2L2659.26 1204.94V1255.26H2608.94L2574.2 1290L2539.46 1255.26H2489.15V1205.35L2454 1170.2L2489.15 1135.06V1085.15H2539.06L2574.2 1050L2609.35 1085.15Z" fill="black"/>
<path d="M2642.93 2876.54H2740.26V2974.65L2808 3042.4L2740.26 3110.14V3208.26H2642.14L2574.4 3276L2506.65 3208.26H2408.54V3110.93L2340 3042.4L2408.54 2973.86V2876.54H2505.86L2574.4 2808L2642.93 2876.54Z" fill="#C15330"/>
<path d="M2539 2957.5H2489.5L2506 2877L2574 2922.5L2539 2957.5Z" fill="white"/>
<path d="M2539 3127H2489.5L2506 3207.5L2574 3162L2539 3127Z" fill="white"/>
<path d="M2489.5 3006.5L2489.5 2957L2409 2973.5L2454.5 3041.5L2489.5 3006.5Z" fill="white"/>
<path d="M2659 3006.5L2659 2957L2739.5 2973.5L2694 3041.5L2659 3006.5Z" fill="white"/>
<path d="M2609 2957.5H2658.5L2642 2877L2574 2922.5L2609 2957.5Z" fill="white"/>
<path d="M2609 3127H2658.5L2642 3207.5L2574 3162L2609 3127Z" fill="white"/>
<path d="M2489.5 3076.5L2489.5 3126L2409 3109.5L2454.5 3041.5L2489.5 3076.5Z" fill="white"/>
<path d="M2659 3076.5L2659 3126L2739.5 3109.5L2694 3041.5L2659 3076.5Z" fill="white"/>
<path d="M2609.35 2957.15H2659.26V3007.46L2694 3042.2L2659.26 3076.94V3127.26H2608.94L2574.2 3162L2539.46 3127.26H2489.15V3077.35L2454 3042.2L2489.15 3007.06V2957.15H2539.06L2574.2 2922L2609.35 2957.15Z" fill="black"/>
<path d="M3578.93 1004.54H3676.26V1102.65L3744 1170.4L3676.26 1238.14V1336.26H3578.14L3510.4 1404L3442.65 1336.26H3344.54V1238.93L3276 1170.4L3344.54 1101.86V1004.54H3441.86L3510.4 936.001L3578.93 1004.54Z" fill="#C15330"/>
<path d="M3475 1085.5H3425.5L3442 1005L3510 1050.5L3475 1085.5Z" fill="white"/>
<path d="M3475 1255H3425.5L3442 1335.5L3510 1290L3475 1255Z" fill="white"/>
<path d="M3425.5 1134.5L3425.5 1085L3345 1101.5L3390.5 1169.5L3425.5 1134.5Z" fill="white"/>
<path d="M3595 1134.5L3595 1085L3675.5 1101.5L3630 1169.5L3595 1134.5Z" fill="white"/>
<path d="M3545 1085.5H3594.5L3578 1005L3510 1050.5L3545 1085.5Z" fill="white"/>
<path d="M3545 1255H3594.5L3578 1335.5L3510 1290L3545 1255Z" fill="white"/>
<path d="M3425.5 1204.5L3425.5 1254L3345 1237.5L3390.5 1169.5L3425.5 1204.5Z" fill="white"/>
<path d="M3595 1204.5L3595 1254L3675.5 1237.5L3630 1169.5L3595 1204.5Z" fill="white"/>
<path d="M3545.35 1085.15H3595.26V1135.46L3630 1170.2L3595.26 1204.94V1255.26H3544.94L3510.2 1290L3475.46 1255.26H3425.15V1205.35L3390 1170.2L3425.15 1135.06V1085.15H3475.06L3510.2 1050L3545.35 1085.15Z" fill="black"/>
<path d="M3578.93 2876.54H3676.26V2974.66L3744 3042.4L3676.26 3110.14V3208.26H3578.14L3510.4 3276L3442.65 3208.26H3344.54V3110.93L3276 3042.4L3344.54 2973.86V2876.54H3441.86L3510.4 2808L3578.93 2876.54Z" fill="#C15330"/>
<path d="M3475 2957.5H3425.5L3442 2877L3510 2922.5L3475 2957.5Z" fill="white"/>
<path d="M3475 3127H3425.5L3442 3207.5L3510 3162L3475 3127Z" fill="white"/>
<path d="M3425.5 3006.5L3425.5 2957L3345 2973.5L3390.5 3041.5L3425.5 3006.5Z" fill="white"/>
<path d="M3595 3006.5L3595 2957L3675.5 2973.5L3630 3041.5L3595 3006.5Z" fill="white"/>
<path d="M3545 2957.5H3594.5L3578 2877L3510 2922.5L3545 2957.5Z" fill="white"/>
<path d="M3545 3127H3594.5L3578 3207.5L3510 3162L3545 3127Z" fill="white"/>
<path d="M3425.5 3076.5L3425.5 3126L3345 3109.5L3390.5 3041.5L3425.5 3076.5Z" fill="white"/>
<path d="M3595 3076.5L3595 3126L3675.5 3109.5L3630 3041.5L3595 3076.5Z" fill="white"/>
<path d="M3545.35 2957.15H3595.26V3007.47L3630 3042.21L3595.26 3076.95V3127.26H3544.94L3510.2 3162L3475.46 3127.26H3425.15V3077.35L3390 3042.21L3425.15 3007.06V2957.15H3475.06L3510.2 2922L3545.35 2957.15Z" fill="black"/>
<path d="M770.933 68.5371H868.256V166.653L935.999 234.396L868.256 302.14V400.257H770.14L702.396 468L634.652 400.257H536.536V302.933L468 234.396L536.536 165.86V68.5371H633.859L702.396 0.000976562L770.933 68.5371Z" fill="#C15330"/>
<path d="M667 149.501H617.5L634 69.001L702 114.501L667 149.501Z" fill="white"/>
<path d="M667 319.001H617.5L634 399.501L702 354.001L667 319.001Z" fill="white"/>
<path d="M617.5 198.501L617.5 149.001L537 165.501L582.5 233.501L617.5 198.501Z" fill="white"/>
<path d="M787 198.501L787 149.001L867.5 165.501L822 233.501L787 198.501Z" fill="white"/>
<path d="M737 149.501H786.5L770 69.001L702 114.501L737 149.501Z" fill="white"/>
<path d="M737 319.001H786.5L770 399.501L702 354.001L737 319.001Z" fill="white"/>
<path d="M617.5 268.501L617.5 318.001L537 301.501L582.5 233.501L617.5 268.501Z" fill="white"/>
<path d="M787 268.501L787 318.001L867.5 301.501L822 233.501L787 268.501Z" fill="white"/>
<path d="M737.351 149.148H787.26V199.464L822 234.204L787.26 268.944V319.261H736.944L702.203 354.001L667.463 319.261H617.147V269.352L582 234.204L617.147 199.057V149.148H667.057L702.203 114.001L737.351 149.148Z" fill="black"/>
<path d="M770.933 1940.54H868.256V2038.66L935.999 2106.4L868.256 2174.14V2272.26H770.14L702.396 2340L634.652 2272.26H536.536V2174.93L468 2106.4L536.536 2037.86V1940.54H633.859L702.396 1872L770.933 1940.54Z" fill="#C15330"/>
<path d="M667 2021.5H617.5L634 1941L702 1986.5L667 2021.5Z" fill="white"/>
<path d="M667 2191H617.5L634 2271.5L702 2226L667 2191Z" fill="white"/>
<path d="M617.5 2070.5L617.5 2021L537 2037.5L582.5 2105.5L617.5 2070.5Z" fill="white"/>
<path d="M787 2070.5L787 2021L867.5 2037.5L822 2105.5L787 2070.5Z" fill="white"/>
<path d="M737 2021.5H786.5L770 1941L702 1986.5L737 2021.5Z" fill="white"/>
<path d="M737 2191H786.5L770 2271.5L702 2226L737 2191Z" fill="white"/>
<path d="M617.5 2140.5L617.5 2190L537 2173.5L582.5 2105.5L617.5 2140.5Z" fill="white"/>
<path d="M787 2140.5L787 2190L867.5 2173.5L822 2105.5L787 2140.5Z" fill="white"/>
<path d="M737.351 2021.15H787.26V2071.47L822 2106.21L787.26 2140.95V2191.26H736.944L702.203 2226L667.463 2191.26H617.147V2141.35L582 2106.21L617.147 2071.06V2021.15H667.057L702.203 1986L737.351 2021.15Z" fill="black"/>
<path d="M1706.93 68.5381H1804.26V166.654L1872 234.397L1804.26 302.141V400.258H1706.14L1638.4 468.001L1570.65 400.258H1472.54V302.934L1404 234.397L1472.54 165.861V68.5381H1569.86L1638.4 0.000976562L1706.93 68.5381Z" fill="#C15330"/>
<path d="M1603 149.502H1553.5L1570 69.002L1638 114.502L1603 149.502Z" fill="white"/>
<path d="M1603 319.002H1553.5L1570 399.502L1638 354.002L1603 319.002Z" fill="white"/>
<path d="M1553.5 198.502L1553.5 149.002L1473 165.502L1518.5 233.502L1553.5 198.502Z" fill="white"/>
<path d="M1723 198.502L1723 149.002L1803.5 165.502L1758 233.502L1723 198.502Z" fill="white"/>
<path d="M1673 149.502H1722.5L1706 69.002L1638 114.502L1673 149.502Z" fill="white"/>
<path d="M1673 319.002H1722.5L1706 399.502L1638 354.002L1673 319.002Z" fill="white"/>
<path d="M1553.5 268.502L1553.5 318.002L1473 301.502L1518.5 233.502L1553.5 268.502Z" fill="white"/>
<path d="M1723 268.502L1723 318.002L1803.5 301.502L1758 233.502L1723 268.502Z" fill="white"/>
<path d="M1673.35 149.149H1723.26V199.465L1758 234.205L1723.26 268.945V319.262H1672.94L1638.2 354.002L1603.46 319.262H1553.15V269.353L1518 234.205L1553.15 199.058V149.149H1603.06L1638.2 114.002L1673.35 149.149Z" fill="black"/>
<path d="M1706.93 1940.54H1804.26V2038.65L1872 2106.4L1804.26 2174.14V2272.26H1706.14L1638.4 2340L1570.65 2272.26H1472.54V2174.93L1404 2106.4L1472.54 2037.86V1940.54H1569.86L1638.4 1872L1706.93 1940.54Z" fill="#C15330"/>
<path d="M1603 2021.5H1553.5L1570 1941L1638 1986.5L1603 2021.5Z" fill="white"/>
<path d="M1603 2191H1553.5L1570 2271.5L1638 2226L1603 2191Z" fill="white"/>
<path d="M1553.5 2070.5L1553.5 2021L1473 2037.5L1518.5 2105.5L1553.5 2070.5Z" fill="white"/>
<path d="M1723 2070.5L1723 2021L1803.5 2037.5L1758 2105.5L1723 2070.5Z" fill="white"/>
<path d="M1673 2021.5H1722.5L1706 1941L1638 1986.5L1673 2021.5Z" fill="white"/>
<path d="M1673 2191H1722.5L1706 2271.5L1638 2226L1673 2191Z" fill="white"/>
<path d="M1553.5 2140.5L1553.5 2190L1473 2173.5L1518.5 2105.5L1553.5 2140.5Z" fill="white"/>
<path d="M1723 2140.5L1723 2190L1803.5 2173.5L1758 2105.5L1723 2140.5Z" fill="white"/>
<path d="M1673.35 2021.15H1723.26V2071.46L1758 2106.21L1723.26 2140.95V2191.26H1672.94L1638.2 2226L1603.46 2191.26H1553.15V2141.35L1518 2106.21L1553.15 2071.06V2021.15H1603.06L1638.2 1986L1673.35 2021.15Z" fill="black"/>
<path d="M2642.93 68.5381H2740.26V166.654L2808 234.397L2740.26 302.141V400.258H2642.14L2574.4 468.001L2506.65 400.258H2408.54V302.934L2340 234.397L2408.54 165.861V68.5381H2505.86L2574.4 0.00195312L2642.93 68.5381Z" fill="#C15330"/>
<path d="M2539 149.502H2489.5L2506 69.002L2574 114.502L2539 149.502Z" fill="white"/>
<path d="M2539 319.002H2489.5L2506 399.502L2574 354.002L2539 319.002Z" fill="white"/>
<path d="M2489.5 198.502L2489.5 149.002L2409 165.502L2454.5 233.502L2489.5 198.502Z" fill="white"/>
<path d="M2659 198.502L2659 149.002L2739.5 165.502L2694 233.502L2659 198.502Z" fill="white"/>
<path d="M2609 149.502H2658.5L2642 69.002L2574 114.502L2609 149.502Z" fill="white"/>
<path d="M2609 319.002H2658.5L2642 399.502L2574 354.002L2609 319.002Z" fill="white"/>
<path d="M2489.5 268.502L2489.5 318.002L2409 301.502L2454.5 233.502L2489.5 268.502Z" fill="white"/>
<path d="M2659 268.502L2659 318.002L2739.5 301.502L2694 233.502L2659 268.502Z" fill="white"/>
<path d="M2609.35 149.149H2659.26V199.465L2694 234.205L2659.26 268.945V319.262H2608.94L2574.2 354.002L2539.46 319.262H2489.15V269.353L2454 234.205L2489.15 199.058V149.149H2539.06L2574.2 114.002L2609.35 149.149Z" fill="black"/>
<path d="M2642.93 1940.54H2740.26V2038.66L2808 2106.4L2740.26 2174.14V2272.26H2642.14L2574.4 2340L2506.65 2272.26H2408.54V2174.94L2340 2106.4L2408.54 2037.86V1940.54H2505.86L2574.4 1872L2642.93 1940.54Z" fill="#C15330"/>
<path d="M2539 2021.5H2489.5L2506 1941L2574 1986.5L2539 2021.5Z" fill="white"/>
<path d="M2539 2191H2489.5L2506 2271.5L2574 2226L2539 2191Z" fill="white"/>
<path d="M2489.5 2070.5L2489.5 2021L2409 2037.5L2454.5 2105.5L2489.5 2070.5Z" fill="white"/>
<path d="M2659 2070.5L2659 2021L2739.5 2037.5L2694 2105.5L2659 2070.5Z" fill="white"/>
<path d="M2609 2021.5H2658.5L2642 1941L2574 1986.5L2609 2021.5Z" fill="white"/>
<path d="M2609 2191H2658.5L2642 2271.5L2574 2226L2609 2191Z" fill="white"/>
<path d="M2489.5 2140.5L2489.5 2190L2409 2173.5L2454.5 2105.5L2489.5 2140.5Z" fill="white"/>
<path d="M2659 2140.5L2659 2190L2739.5 2173.5L2694 2105.5L2659 2140.5Z" fill="white"/>
<path d="M2609.35 2021.15H2659.26V2071.47L2694 2106.21L2659.26 2140.95V2191.26H2608.94L2574.2 2226L2539.46 2191.26H2489.15V2141.35L2454 2106.21L2489.15 2071.06V2021.15H2539.06L2574.2 1986L2609.35 2021.15Z" fill="black"/>
<path d="M3578.93 68.5381H3676.26V166.654L3744 234.397L3676.26 302.141V400.258H3578.14L3510.4 468.001L3442.65 400.258H3344.54V302.934L3276 234.397L3344.54 165.861V68.5381H3441.86L3510.4 0.000976562L3578.93 68.5381Z" fill="#C15330"/>
<path d="M3475 149.502H3425.5L3442 69.002L3510 114.502L3475 149.502Z" fill="white"/>
<path d="M3475 319.002H3425.5L3442 399.502L3510 354.002L3475 319.002Z" fill="white"/>
<path d="M3425.5 198.502L3425.5 149.002L3345 165.502L3390.5 233.502L3425.5 198.502Z" fill="white"/>
<path d="M3595 198.502L3595 149.002L3675.5 165.502L3630 233.502L3595 198.502Z" fill="white"/>
<path d="M3545 149.502H3594.5L3578 69.002L3510 114.502L3545 149.502Z" fill="white"/>
<path d="M3545 319.002H3594.5L3578 399.502L3510 354.002L3545 319.002Z" fill="white"/>
<path d="M3425.5 268.502L3425.5 318.002L3345 301.502L3390.5 233.502L3425.5 268.502Z" fill="white"/>
<path d="M3595 268.502L3595 318.002L3675.5 301.502L3630 233.502L3595 268.502Z" fill="white"/>
<path d="M3545.35 149.149H3595.26V199.465L3630 234.205L3595.26 268.945V319.262H3544.94L3510.2 354.002L3475.46 319.262H3425.15V269.353L3390 234.205L3425.15 199.058V149.149H3475.06L3510.2 114.002L3545.35 149.149Z" fill="black"/>
<path d="M3578.93 1940.54H3676.26V2038.65L3744 2106.4L3676.26 2174.14V2272.26H3578.14L3510.4 2340L3442.65 2272.26H3344.54V2174.93L3276 2106.4L3344.54 2037.86V1940.54H3441.86L3510.4 1872L3578.93 1940.54Z" fill="#C15330"/>
<path d="M3475 2021.5H3425.5L3442 1941L3510 1986.5L3475 2021.5Z" fill="white"/>
<path d="M3475 2191H3425.5L3442 2271.5L3510 2226L3475 2191Z" fill="white"/>
<path d="M3425.5 2070.5L3425.5 2021L3345 2037.5L3390.5 2105.5L3425.5 2070.5Z" fill="white"/>
<path d="M3595 2070.5L3595 2021L3675.5 2037.5L3630 2105.5L3595 2070.5Z" fill="white"/>
<path d="M3545 2021.5H3594.5L3578 1941L3510 1986.5L3545 2021.5Z" fill="white"/>
<path d="M3545 2191H3594.5L3578 2271.5L3510 2226L3545 2191Z" fill="white"/>
<path d="M3425.5 2140.5L3425.5 2190L3345 2173.5L3390.5 2105.5L3425.5 2140.5Z" fill="white"/>
<path d="M3595 2140.5L3595 2190L3675.5 2173.5L3630 2105.5L3595 2140.5Z" fill="white"/>
<path d="M3545.35 2021.15H3595.26V2071.46L3630 2106.21L3595.26 2140.95V2191.26H3544.94L3510.2 2226L3475.46 2191.26H3425.15V2141.35L3390 2106.21L3425.15 2071.06V2021.15H3475.06L3510.2 1986L3545.35 2021.15Z" fill="black"/>
<path d="M770.933 1472.54H868.256V1570.65L935.999 1638.4L868.256 1706.14V1804.26H770.14L702.396 1872L634.652 1804.26H536.536V1706.93L468 1638.4L536.536 1569.86V1472.54H633.859L702.396 1404L770.933 1472.54Z" fill="black"/>
<path d="M667 1553.5H617.5L634 1473L702 1518.5L667 1553.5Z" fill="white"/>
<path d="M667 1723H617.5L634 1803.5L702 1758L667 1723Z" fill="white"/>
<path d="M617.5 1602.5L617.5 1553L537 1569.5L582.5 1637.5L617.5 1602.5Z" fill="white"/>
<path d="M787 1602.5L787 1553L867.5 1569.5L822 1637.5L787 1602.5Z" fill="white"/>
<path d="M737 1553.5H786.5L770 1473L702 1518.5L737 1553.5Z" fill="white"/>
<path d="M737 1723H786.5L770 1803.5L702 1758L737 1723Z" fill="white"/>
<path d="M617.5 1672.5L617.5 1722L537 1705.5L582.5 1637.5L617.5 1672.5Z" fill="white"/>
<path d="M787 1672.5L787 1722L867.5 1705.5L822 1637.5L787 1672.5Z" fill="white"/>
<path d="M737.351 1553.15H787.26V1603.46L822 1638.2L787.26 1672.94V1723.26H736.944L702.203 1758L667.463 1723.26H617.147V1673.35L582 1638.2L617.147 1603.06V1553.15H667.057L702.203 1518L737.351 1553.15Z" fill="#06554C"/>
<path d="M770.933 3344.54H868.256V3442.66L935.999 3510.4L868.256 3578.14V3676.26H770.14L702.396 3744L634.652 3676.26H536.536V3578.93L468 3510.4L536.536 3441.86V3344.54H633.859L702.396 3276L770.933 3344.54Z" fill="black"/>
<path d="M667 3425.5H617.5L634 3345L702 3390.5L667 3425.5Z" fill="white"/>
<path d="M667 3595H617.5L634 3675.5L702 3630L667 3595Z" fill="white"/>
<path d="M617.5 3474.5L617.5 3425L537 3441.5L582.5 3509.5L617.5 3474.5Z" fill="white"/>
<path d="M787 3474.5L787 3425L867.5 3441.5L822 3509.5L787 3474.5Z" fill="white"/>
<path d="M737 3425.5H786.5L770 3345L702 3390.5L737 3425.5Z" fill="white"/>
<path d="M737 3595H786.5L770 3675.5L702 3630L737 3595Z" fill="white"/>
<path d="M617.5 3544.5L617.5 3594L537 3577.5L582.5 3509.5L617.5 3544.5Z" fill="white"/>
<path d="M787 3544.5L787 3594L867.5 3577.5L822 3509.5L787 3544.5Z" fill="white"/>
<path d="M737.351 3425.15H787.26V3475.47L822 3510.21L787.26 3544.95V3595.26H736.944L702.203 3630L667.463 3595.26H617.147V3545.35L582 3510.21L617.147 3475.06V3425.15H667.057L702.203 3390L737.351 3425.15Z" fill="#06554C"/>
<path d="M1706.93 1472.54H1804.26V1570.65L1872 1638.4L1804.26 1706.14V1804.26H1706.14L1638.4 1872L1570.65 1804.26H1472.54V1706.93L1404 1638.4L1472.54 1569.86V1472.54H1569.86L1638.4 1404L1706.93 1472.54Z" fill="black"/>
<path d="M1603 1553.5H1553.5L1570 1473L1638 1518.5L1603 1553.5Z" fill="white"/>
<path d="M1603 1723H1553.5L1570 1803.5L1638 1758L1603 1723Z" fill="white"/>
<path d="M1553.5 1602.5L1553.5 1553L1473 1569.5L1518.5 1637.5L1553.5 1602.5Z" fill="white"/>
<path d="M1723 1602.5L1723 1553L1803.5 1569.5L1758 1637.5L1723 1602.5Z" fill="white"/>
<path d="M1673 1553.5H1722.5L1706 1473L1638 1518.5L1673 1553.5Z" fill="white"/>
<path d="M1673 1723H1722.5L1706 1803.5L1638 1758L1673 1723Z" fill="white"/>
<path d="M1553.5 1672.5L1553.5 1722L1473 1705.5L1518.5 1637.5L1553.5 1672.5Z" fill="white"/>
<path d="M1723 1672.5L1723 1722L1803.5 1705.5L1758 1637.5L1723 1672.5Z" fill="white"/>
<path d="M1673.35 1553.15H1723.26V1603.46L1758 1638.21L1723.26 1672.95V1723.26H1672.94L1638.2 1758L1603.46 1723.26H1553.15V1673.35L1518 1638.21L1553.15 1603.06V1553.15H1603.06L1638.2 1518L1673.35 1553.15Z" fill="#06554C"/>
<path d="M1706.93 3344.54H1804.26V3442.65L1872 3510.4L1804.26 3578.14V3676.26H1706.14L1638.4 3744L1570.65 3676.26H1472.54V3578.93L1404 3510.4L1472.54 3441.86V3344.54H1569.86L1638.4 3276L1706.93 3344.54Z" fill="black"/>
<path d="M1603 3425.5H1553.5L1570 3345L1638 3390.5L1603 3425.5Z" fill="white"/>
<path d="M1603 3595H1553.5L1570 3675.5L1638 3630L1603 3595Z" fill="white"/>
<path d="M1553.5 3474.5L1553.5 3425L1473 3441.5L1518.5 3509.5L1553.5 3474.5Z" fill="white"/>
<path d="M1723 3474.5L1723 3425L1803.5 3441.5L1758 3509.5L1723 3474.5Z" fill="white"/>
<path d="M1673 3425.5H1722.5L1706 3345L1638 3390.5L1673 3425.5Z" fill="white"/>
<path d="M1673 3595H1722.5L1706 3675.5L1638 3630L1673 3595Z" fill="white"/>
<path d="M1553.5 3544.5L1553.5 3594L1473 3577.5L1518.5 3509.5L1553.5 3544.5Z" fill="white"/>
<path d="M1723 3544.5L1723 3594L1803.5 3577.5L1758 3509.5L1723 3544.5Z" fill="white"/>
<path d="M1673.35 3425.15H1723.26V3475.46L1758 3510.21L1723.26 3544.95V3595.26H1672.94L1638.2 3630L1603.46 3595.26H1553.15V3545.35L1518 3510.21L1553.15 3475.06V3425.15H1603.06L1638.2 3390L1673.35 3425.15Z" fill="#06554C"/>
<path d="M2642.93 1472.54H2740.26V1570.65L2808 1638.4L2740.26 1706.14V1804.26H2642.14L2574.4 1872L2506.65 1804.26H2408.54V1706.93L2340 1638.4L2408.54 1569.86V1472.54H2505.86L2574.4 1404L2642.93 1472.54Z" fill="black"/>
<path d="M2539 1553.5H2489.5L2506 1473L2574 1518.5L2539 1553.5Z" fill="white"/>
<path d="M2539 1723H2489.5L2506 1803.5L2574 1758L2539 1723Z" fill="white"/>
<path d="M2489.5 1602.5L2489.5 1553L2409 1569.5L2454.5 1637.5L2489.5 1602.5Z" fill="white"/>
<path d="M2659 1602.5L2659 1553L2739.5 1569.5L2694 1637.5L2659 1602.5Z" fill="white"/>
<path d="M2609 1553.5H2658.5L2642 1473L2574 1518.5L2609 1553.5Z" fill="white"/>
<path d="M2609 1723H2658.5L2642 1803.5L2574 1758L2609 1723Z" fill="white"/>
<path d="M2489.5 1672.5L2489.5 1722L2409 1705.5L2454.5 1637.5L2489.5 1672.5Z" fill="white"/>
<path d="M2659 1672.5L2659 1722L2739.5 1705.5L2694 1637.5L2659 1672.5Z" fill="white"/>
<path d="M2609.35 1553.15H2659.26V1603.46L2694 1638.21L2659.26 1672.95V1723.26H2608.94L2574.2 1758L2539.46 1723.26H2489.15V1673.35L2454 1638.21L2489.15 1603.06V1553.15H2539.06L2574.2 1518L2609.35 1553.15Z" fill="#06554C"/>
<path d="M2642.93 3344.54H2740.26V3442.66L2808 3510.4L2740.26 3578.14V3676.26H2642.14L2574.4 3744L2506.65 3676.26H2408.54V3578.94L2340 3510.4L2408.54 3441.86V3344.54H2505.86L2574.4 3276L2642.93 3344.54Z" fill="black"/>
<path d="M2539 3425.5H2489.5L2506 3345L2574 3390.5L2539 3425.5Z" fill="white"/>
<path d="M2539 3595H2489.5L2506 3675.5L2574 3630L2539 3595Z" fill="white"/>
<path d="M2489.5 3474.5L2489.5 3425L2409 3441.5L2454.5 3509.5L2489.5 3474.5Z" fill="white"/>
<path d="M2659 3474.5L2659 3425L2739.5 3441.5L2694 3509.5L2659 3474.5Z" fill="white"/>
<path d="M2609 3425.5H2658.5L2642 3345L2574 3390.5L2609 3425.5Z" fill="white"/>
<path d="M2609 3595H2658.5L2642 3675.5L2574 3630L2609 3595Z" fill="white"/>
<path d="M2489.5 3544.5L2489.5 3594L2409 3577.5L2454.5 3509.5L2489.5 3544.5Z" fill="white"/>
<path d="M2659 3544.5L2659 3594L2739.5 3577.5L2694 3509.5L2659 3544.5Z" fill="white"/>
<path d="M2609.35 3425.15H2659.26V3475.47L2694 3510.21L2659.26 3544.95V3595.26H2608.94L2574.2 3630L2539.46 3595.26H2489.15V3545.35L2454 3510.21L2489.15 3475.06V3425.15H2539.06L2574.2 3390L2609.35 3425.15Z" fill="#06554C"/>
<path d="M3578.93 1472.54H3676.26V1570.65L3744 1638.4L3676.26 1706.14V1804.26H3578.14L3510.4 1872L3442.65 1804.26H3344.54V1706.93L3276 1638.4L3344.54 1569.86V1472.54H3441.86L3510.4 1404L3578.93 1472.54Z" fill="black"/>
<path d="M3475 1553.5H3425.5L3442 1473L3510 1518.5L3475 1553.5Z" fill="white"/>
<path d="M3475 1723H3425.5L3442 1803.5L3510 1758L3475 1723Z" fill="white"/>
<path d="M3425.5 1602.5L3425.5 1553L3345 1569.5L3390.5 1637.5L3425.5 1602.5Z" fill="white"/>
<path d="M3595 1602.5L3595 1553L3675.5 1569.5L3630 1637.5L3595 1602.5Z" fill="white"/>
<path d="M3545 1553.5H3594.5L3578 1473L3510 1518.5L3545 1553.5Z" fill="white"/>
<path d="M3545 1723H3594.5L3578 1803.5L3510 1758L3545 1723Z" fill="white"/>
<path d="M3425.5 1672.5L3425.5 1722L3345 1705.5L3390.5 1637.5L3425.5 1672.5Z" fill="white"/>
<path d="M3595 1672.5L3595 1722L3675.5 1705.5L3630 1637.5L3595 1672.5Z" fill="white"/>
<path d="M3545.35 1553.15H3595.26V1603.46L3630 1638.21L3595.26 1672.95V1723.26H3544.94L3510.2 1758L3475.46 1723.26H3425.15V1673.35L3390 1638.21L3425.15 1603.06V1553.15H3475.06L3510.2 1518L3545.35 1553.15Z" fill="#06554C"/>
<path d="M3578.93 3344.54H3676.26V3442.65L3744 3510.4L3676.26 3578.14V3676.26H3578.14L3510.4 3744L3442.65 3676.26H3344.54V3578.93L3276 3510.4L3344.54 3441.86V3344.54H3441.86L3510.4 3276L3578.93 3344.54Z" fill="black"/>
<path d="M3475 3425.5H3425.5L3442 3345L3510 3390.5L3475 3425.5Z" fill="white"/>
<path d="M3475 3595H3425.5L3442 3675.5L3510 3630L3475 3595Z" fill="white"/>
<path d="M3425.5 3474.5L3425.5 3425L3345 3441.5L3390.5 3509.5L3425.5 3474.5Z" fill="white"/>
<path d="M3595 3474.5L3595 3425L3675.5 3441.5L3630 3509.5L3595 3474.5Z" fill="white"/>
<path d="M3545 3425.5H3594.5L3578 3345L3510 3390.5L3545 3425.5Z" fill="white"/>
<path d="M3545 3595H3594.5L3578 3675.5L3510 3630L3545 3595Z" fill="white"/>
<path d="M3425.5 3544.5L3425.5 3594L3345 3577.5L3390.5 3509.5L3425.5 3544.5Z" fill="white"/>
<path d="M3595 3544.5L3595 3594L3675.5 3577.5L3630 3509.5L3595 3544.5Z" fill="white"/>
<path d="M3545.35 3425.15H3595.26V3475.46L3630 3510.21L3595.26 3544.95V3595.26H3544.94L3510.2 3630L3475.46 3595.26H3425.15V3545.35L3390 3510.21L3425.15 3475.06V3425.15H3475.06L3510.2 3390L3545.35 3425.15Z" fill="#06554C"/>
<path d="M770.933 536.538H868.256V634.654L935.999 702.397L868.256 770.141V868.258H770.14L702.396 936.001L634.652 868.258H536.536V770.934L468 702.397L536.536 633.861V536.538H633.859L702.396 468.001L770.933 536.538Z" fill="black"/>
<path d="M667 617.502H617.5L634 537.002L702 582.502L667 617.502Z" fill="white"/>
<path d="M667 787.002H617.5L634 867.502L702 822.002L667 787.002Z" fill="white"/>
<path d="M617.5 666.502L617.5 617.002L537 633.502L582.5 701.502L617.5 666.502Z" fill="white"/>
<path d="M787 666.502L787 617.002L867.5 633.502L822 701.502L787 666.502Z" fill="white"/>
<path d="M737 617.502H786.5L770 537.002L702 582.502L737 617.502Z" fill="white"/>
<path d="M737 787.002H786.5L770 867.502L702 822.002L737 787.002Z" fill="white"/>
<path d="M617.5 736.502L617.5 786.002L537 769.502L582.5 701.502L617.5 736.502Z" fill="white"/>
<path d="M787 736.502L787 786.002L867.5 769.502L822 701.502L787 736.502Z" fill="white"/>
<path d="M737.351 617.149H787.26V667.465L822 702.205L787.26 736.945V787.262H736.944L702.203 822.002L667.463 787.262H617.147V737.353L582 702.205L617.147 667.058V617.149H667.057L702.203 582.002L737.351 617.149Z" fill="#06554C"/>
<path d="M770.933 2408.54H868.256V2506.65L935.999 2574.4L868.256 2642.14V2740.26H770.14L702.396 2808L634.652 2740.26H536.536V2642.93L468 2574.4L536.536 2505.86V2408.54H633.859L702.396 2340L770.933 2408.54Z" fill="black"/>
<path d="M667 2489.5H617.5L634 2409L702 2454.5L667 2489.5Z" fill="white"/>
<path d="M667 2659H617.5L634 2739.5L702 2694L667 2659Z" fill="white"/>
<path d="M617.5 2538.5L617.5 2489L537 2505.5L582.5 2573.5L617.5 2538.5Z" fill="white"/>
<path d="M787 2538.5L787 2489L867.5 2505.5L822 2573.5L787 2538.5Z" fill="white"/>
<path d="M737 2489.5H786.5L770 2409L702 2454.5L737 2489.5Z" fill="white"/>
<path d="M737 2659H786.5L770 2739.5L702 2694L737 2659Z" fill="white"/>
<path d="M617.5 2608.5L617.5 2658L537 2641.5L582.5 2573.5L617.5 2608.5Z" fill="white"/>
<path d="M787 2608.5L787 2658L867.5 2641.5L822 2573.5L787 2608.5Z" fill="white"/>
<path d="M737.351 2489.15H787.26V2539.46L822 2574.21L787.26 2608.95V2659.26H736.944L702.203 2694L667.463 2659.26H617.147V2609.35L582 2574.21L617.147 2539.06V2489.15H667.057L702.203 2454L737.351 2489.15Z" fill="#06554C"/>
<path d="M1706.93 536.537H1804.26V634.653L1872 702.396L1804.26 770.14V868.257H1706.14L1638.4 936L1570.65 868.257H1472.54V770.933L1404 702.396L1472.54 633.86V536.537H1569.86L1638.4 468.001L1706.93 536.537Z" fill="black"/>
<path d="M1603 617.501H1553.5L1570 537.001L1638 582.501L1603 617.501Z" fill="white"/>
<path d="M1603 787.001H1553.5L1570 867.501L1638 822.001L1603 787.001Z" fill="white"/>
<path d="M1553.5 666.501L1553.5 617.001L1473 633.501L1518.5 701.501L1553.5 666.501Z" fill="white"/>
<path d="M1723 666.501L1723 617.001L1803.5 633.501L1758 701.501L1723 666.501Z" fill="white"/>
<path d="M1673 617.501H1722.5L1706 537.001L1638 582.501L1673 617.501Z" fill="white"/>
<path d="M1673 787.001H1722.5L1706 867.501L1638 822.001L1673 787.001Z" fill="white"/>
<path d="M1553.5 736.501L1553.5 786.001L1473 769.501L1518.5 701.501L1553.5 736.501Z" fill="white"/>
<path d="M1723 736.501L1723 786.001L1803.5 769.501L1758 701.501L1723 736.501Z" fill="white"/>
<path d="M1673.35 617.148H1723.26V667.464L1758 702.204L1723.26 736.944V787.261H1672.94L1638.2 822.001L1603.46 787.261H1553.15V737.352L1518 702.204L1553.15 667.057V617.148H1603.06L1638.2 582.001L1673.35 617.148Z" fill="#06554C"/>
<path d="M1706.93 2408.54H1804.26V2506.66L1872 2574.4L1804.26 2642.14V2740.26H1706.14L1638.4 2808L1570.65 2740.26H1472.54V2642.93L1404 2574.4L1472.54 2505.86V2408.54H1569.86L1638.4 2340L1706.93 2408.54Z" fill="black"/>
<path d="M1603 2489.5H1553.5L1570 2409L1638 2454.5L1603 2489.5Z" fill="white"/>
<path d="M1603 2659H1553.5L1570 2739.5L1638 2694L1603 2659Z" fill="white"/>
<path d="M1553.5 2538.5L1553.5 2489L1473 2505.5L1518.5 2573.5L1553.5 2538.5Z" fill="white"/>
<path d="M1723 2538.5L1723 2489L1803.5 2505.5L1758 2573.5L1723 2538.5Z" fill="white"/>
<path d="M1673 2489.5H1722.5L1706 2409L1638 2454.5L1673 2489.5Z" fill="white"/>
<path d="M1673 2659H1722.5L1706 2739.5L1638 2694L1673 2659Z" fill="white"/>
<path d="M1553.5 2608.5L1553.5 2658L1473 2641.5L1518.5 2573.5L1553.5 2608.5Z" fill="white"/>
<path d="M1723 2608.5L1723 2658L1803.5 2641.5L1758 2573.5L1723 2608.5Z" fill="white"/>
<path d="M1673.35 2489.15H1723.26V2539.47L1758 2574.21L1723.26 2608.95V2659.26H1672.94L1638.2 2694L1603.46 2659.26H1553.15V2609.35L1518 2574.21L1553.15 2539.06V2489.15H1603.06L1638.2 2454L1673.35 2489.15Z" fill="#06554C"/>
<path d="M2642.93 536.537H2740.26V634.653L2808 702.396L2740.26 770.14V868.257H2642.14L2574.4 936L2506.65 868.257H2408.54V770.933L2340 702.396L2408.54 633.86V536.537H2505.86L2574.4 468L2642.93 536.537Z" fill="black"/>
<path d="M2539 617.501H2489.5L2506 537.001L2574 582.501L2539 617.501Z" fill="white"/>
<path d="M2539 787.001H2489.5L2506 867.501L2574 822.001L2539 787.001Z" fill="white"/>
<path d="M2489.5 666.501L2489.5 617.001L2409 633.501L2454.5 701.501L2489.5 666.501Z" fill="white"/>
<path d="M2659 666.501L2659 617.001L2739.5 633.501L2694 701.501L2659 666.501Z" fill="white"/>
<path d="M2609 617.501H2658.5L2642 537.001L2574 582.501L2609 617.501Z" fill="white"/>
<path d="M2609 787.001H2658.5L2642 867.501L2574 822.001L2609 787.001Z" fill="white"/>
<path d="M2489.5 736.501L2489.5 786.001L2409 769.501L2454.5 701.501L2489.5 736.501Z" fill="white"/>
<path d="M2659 736.501L2659 786.001L2739.5 769.501L2694 701.501L2659 736.501Z" fill="white"/>
<path d="M2609.35 617.148H2659.26V667.464L2694 702.204L2659.26 736.944V787.261H2608.94L2574.2 822.001L2539.46 787.261H2489.15V737.352L2454 702.204L2489.15 667.057V617.148H2539.06L2574.2 582.001L2609.35 617.148Z" fill="#06554C"/>
<path d="M2642.93 2408.54H2740.26V2506.65L2808 2574.4L2740.26 2642.14V2740.26H2642.14L2574.4 2808L2506.65 2740.26H2408.54V2642.93L2340 2574.4L2408.54 2505.86V2408.54H2505.86L2574.4 2340L2642.93 2408.54Z" fill="black"/>
<path d="M2539 2489.5H2489.5L2506 2409L2574 2454.5L2539 2489.5Z" fill="white"/>
<path d="M2539 2659H2489.5L2506 2739.5L2574 2694L2539 2659Z" fill="white"/>
<path d="M2489.5 2538.5L2489.5 2489L2409 2505.5L2454.5 2573.5L2489.5 2538.5Z" fill="white"/>
<path d="M2659 2538.5L2659 2489L2739.5 2505.5L2694 2573.5L2659 2538.5Z" fill="white"/>
<path d="M2609 2489.5H2658.5L2642 2409L2574 2454.5L2609 2489.5Z" fill="white"/>
<path d="M2609 2659H2658.5L2642 2739.5L2574 2694L2609 2659Z" fill="white"/>
<path d="M2489.5 2608.5L2489.5 2658L2409 2641.5L2454.5 2573.5L2489.5 2608.5Z" fill="white"/>
<path d="M2659 2608.5L2659 2658L2739.5 2641.5L2694 2573.5L2659 2608.5Z" fill="white"/>
<path d="M2609.35 2489.15H2659.26V2539.46L2694 2574.2L2659.26 2608.94V2659.26H2608.94L2574.2 2694L2539.46 2659.26H2489.15V2609.35L2454 2574.2L2489.15 2539.06V2489.15H2539.06L2574.2 2454L2609.35 2489.15Z" fill="#06554C"/>
<path d="M3578.93 536.537H3676.26V634.653L3744 702.396L3676.26 770.14V868.257H3578.14L3510.4 936L3442.65 868.257H3344.54V770.933L3276 702.396L3344.54 633.86V536.537H3441.86L3510.4 468.001L3578.93 536.537Z" fill="black"/>
<path d="M3475 617.501H3425.5L3442 537.001L3510 582.501L3475 617.501Z" fill="white"/>
<path d="M3475 787.001H3425.5L3442 867.501L3510 822.001L3475 787.001Z" fill="white"/>
<path d="M3425.5 666.501L3425.5 617.001L3345 633.501L3390.5 701.501L3425.5 666.501Z" fill="white"/>
<path d="M3595 666.501L3595 617.001L3675.5 633.501L3630 701.501L3595 666.501Z" fill="white"/>
<path d="M3545 617.501H3594.5L3578 537.001L3510 582.501L3545 617.501Z" fill="white"/>
<path d="M3545 787.001H3594.5L3578 867.501L3510 822.001L3545 787.001Z" fill="white"/>
<path d="M3425.5 736.501L3425.5 786.001L3345 769.501L3390.5 701.501L3425.5 736.501Z" fill="white"/>
<path d="M3595 736.501L3595 786.001L3675.5 769.501L3630 701.501L3595 736.501Z" fill="white"/>
<path d="M3545.35 617.148H3595.26V667.464L3630 702.204L3595.26 736.944V787.261H3544.94L3510.2 822.001L3475.46 787.261H3425.15V737.352L3390 702.204L3425.15 667.057V617.148H3475.06L3510.2 582.001L3545.35 617.148Z" fill="#06554C"/>
<path d="M3578.93 2408.54H3676.26V2506.66L3744 2574.4L3676.26 2642.14V2740.26H3578.14L3510.4 2808L3442.65 2740.26H3344.54V2642.93L3276 2574.4L3344.54 2505.86V2408.54H3441.86L3510.4 2340L3578.93 2408.54Z" fill="black"/>
<path d="M3475 2489.5H3425.5L3442 2409L3510 2454.5L3475 2489.5Z" fill="white"/>
<path d="M3475 2659H3425.5L3442 2739.5L3510 2694L3475 2659Z" fill="white"/>
<path d="M3425.5 2538.5L3425.5 2489L3345 2505.5L3390.5 2573.5L3425.5 2538.5Z" fill="white"/>
<path d="M3595 2538.5L3595 2489L3675.5 2505.5L3630 2573.5L3595 2538.5Z" fill="white"/>
<path d="M3545 2489.5H3594.5L3578 2409L3510 2454.5L3545 2489.5Z" fill="white"/>
<path d="M3545 2659H3594.5L3578 2739.5L3510 2694L3545 2659Z" fill="white"/>
<path d="M3425.5 2608.5L3425.5 2658L3345 2641.5L3390.5 2573.5L3425.5 2608.5Z" fill="white"/>
<path d="M3595 2608.5L3595 2658L3675.5 2641.5L3630 2573.5L3595 2608.5Z" fill="white"/>
<path d="M3545.35 2489.15H3595.26V2539.47L3630 2574.21L3595.26 2608.95V2659.26H3544.94L3510.2 2694L3475.46 2659.26H3425.15V2609.35L3390 2574.21L3425.15 2539.06V2489.15H3475.06L3510.2 2454L3545.35 2489.15Z" fill="#06554C"/>
</svg>
