<svg width="129" height="91" viewBox="0 0 129 91" fill="none" xmlns="http://www.w3.org/2000/svg">
<path d="M127.45 46.95L127.95 47.85L128.55 48.55L128.45 48.75L128.35 49.15L128.05 49.45L128.35 50.05L128.15 51.05L128.05 51.25V51.35L127.95 52.15L127.85 53.45L127.95 53.65L128.15 54.65L128.05 54.75V54.85V54.95L128.15 55.05V55.15V55.25V55.35V55.45V55.55V55.65V55.75V55.85V55.95V56.15L128.05 56.25V56.35L127.95 56.55H127.85V56.65V56.85L127.75 56.95V57.15V57.25L127.85 57.35V57.45V57.55L127.75 57.75V57.95V58.15V58.35V58.55H127.85V58.65V58.85V58.95V59.05H127.95L128.05 59.15V59.25L128.15 59.35V59.45V59.55V59.65H128.05V59.75V59.85V59.95V60.05H128.15V60.15V60.25V60.35H128.25V60.45V60.55L128.35 60.65L128.15 61.65L127.95 62.35L127.85 62.55L127.35 63.95L127.65 64.25L127.15 64.95V65.45L127.35 65.85L127.45 66.15L127.55 66.35L127.65 66.65V66.95L127.45 67.25L127.15 68.15L126.05 68.55L124.85 68.85L123.55 69.25L123.15 69.35L122.65 69.25H122.35L122.25 69.35L122.15 69.45L122.05 69.55H121.85L121.95 69.75V69.85H121.65L121.55 70.05L121.25 69.95L121.05 70.05L120.85 70.15H120.75L120.35 70.25L119.95 70.35L119.65 70.45L118.15 70.85H117.65L117.45 71.05H117.15L116.85 70.95H116.65L116.35 70.85V70.95L116.25 71.15L115.85 71.75L115.05 72.65L113.95 73.65L113.55 74.15L112.95 74.85L111.95 75.35L110.65 76.15L110.05 75.25L109.15 75.65L107.05 74.65L106.55 74.15L106.35 73.85L105.75 72.85L105.15 72.15L104.45 72.95L103.05 74.05L102.15 74.95L102.75 75.65L102.55 76.45L101.75 76.95L101.55 77.45L101.15 77.85L100.75 78.05L100.15 78.25L99.5501 78.15L98.6501 78.35L98.1501 78.55L97.1501 78.35L96.25 78.25L96.0501 79.45L95.4501 79.95L95.1501 80.75L95.3501 80.95L95.0501 80.85L94.8501 80.75L94.6501 80.65L94.1501 80.35L93.5501 80.15L92.25 79.45L91.5501 78.85L90.8501 79.15L89.75 78.85L88.0501 80.05L87.75 78.95L87.25 77.95L85.9501 77.55L85.1501 77.45H83.5501L83.1501 77.75H82.0501H81.6501H81.4501H81.25H81.0501H80.8501H80.4501H80.1501L79.9501 77.65L79.8501 77.55L79.5501 77.35L79.3501 77.15L79.1501 77.05L78.9501 76.95V76.85L78.8501 76.75H78.5501L78.25 76.55L77.9501 76.35L77.75 76.15L77.5501 75.95L77.3501 75.85L77.25 75.75L77.1501 75.45V75.15L77.0501 74.95L76.9501 74.65L76.8501 74.55L76.75 74.25L76.8501 73.75L76.75 72.45L76.5501 71.05L76.6501 69.85L75.75 70.35L74.5501 70.65L72.75 70.95H72.4501H72.1501L71.6501 70.45L71.3501 70.55L70.4501 71.05L70.0501 71.45L69.75 71.65L69.25 71.75L68.9501 71.85L68.1501 72.05L66.8501 72.95L66.75 73.15H66.5501L66.4501 72.95H66.25H65.8501H65.3501H65.1501H64.9501L64.6501 73.05V72.95L64.75 72.85L64.8501 72.65L64.75 72.55L64.4501 72.45L64.25 72.65L61.3501 73.65L61.1501 74.15L60.8501 73.85L59.6501 74.05L59.0501 74.65L57.9501 74.75L57.5501 75.05L56.8501 75.75L56.0501 76.45L55.8501 77.65V78.15L56.0501 78.35L55.8501 78.55L55.9501 78.95L56.0501 79.45L55.9501 79.65L55.8501 79.85L55.75 80.45L55.6501 80.85L55.8501 81.15L55.9501 81.55L56.0501 82.25V83.35V84.45V84.85L55.5501 85.35L55.25 85.45L55.6501 85.55L55.9501 85.75L56.0501 85.95L55.9501 86.35L55.8501 86.45L55.4501 87.25L55.25 87.95H54.75L52.0501 88.15L51.9501 88.25L51.6501 88.55L51.5501 89.05L51.6501 89.35L51.9501 89.55L52.1501 89.65L51.9501 89.75L50.8501 90.75L49.0501 90.65L48.4501 90.55L48.0501 90.25L47.75 90.15L47.5501 89.95H47.25L46.75 89.75L46.4501 89.65L46.0501 89.55L45.6501 89.45L45.1501 89.35L44.9501 89.45L45.25 89.75V90.25L44.8501 90.35L44.75 90.25L44.6501 89.95L44.1501 89.55L43.5501 89.35H43.25H43.1501L43.0501 89.25L42.9501 89.15H43.0501V89.05L42.9501 88.95V88.85L43.0501 88.75V88.65V88.45H42.9501L42.8501 88.35L42.75 88.15V87.95V87.85L42.9501 87.75V87.65L42.8501 87.55L42.9501 87.35V87.15L43.0501 87.05L43.1501 86.85L43.3501 86.75L43.4501 86.65L43.5501 86.55L43.75 86.35L43.9501 86.15L43.75 85.95L43.8501 85.65L43.6501 85.45L43.5501 85.15L43.4501 84.75L43.1501 84.55L42.75 84.25L42.5501 84.15L42.25 84.05V83.85H41.9501L41.8501 83.95H41.5501L41.4501 83.75L41.3501 83.55L41.1501 83.45H40.8501H40.6501L40.4501 83.35L40.1501 83.25H39.9501L39.8501 83.35L39.75 83.25V83.05L39.6501 82.85L39.3501 82.65L39.0501 82.45H38.75H38.5501L38.4501 82.55L38.1501 82.85H37.9501H37.8501L37.75 82.65L37.6501 82.35L37.3501 81.65L37.25 81.25L37.1501 81.15V80.95H37.0501H36.8501H36.75L36.6501 81.05L36.5501 80.95V80.75L36.75 80.65V80.55L36.6501 80.25V79.85L36.5501 79.65V79.35H36.1501H35.75H35.3501V79.15V78.95L35.1501 78.65V78.45L34.9501 78.25L34.6501 77.95L34.5501 77.65V77.55L34.4501 77.65L34.1501 77.85H33.8501V77.65V77.45L33.6501 77.65L33.3501 77.55L33.0501 77.45L32.75 77.35H32.4501L32.25 77.25V77.15L32.3501 76.95L32.4501 76.75L32.5501 76.65L32.3501 76.55L32.1501 76.45H31.9501L31.75 76.35L31.4501 76.45L31.3501 76.65H30.75L30.5501 76.75V77.05L30.4501 77.25L30.25 77.35L30.1501 77.65L29.8501 77.95L29.75 78.15H28.9501L28.5501 78.25L28.0501 78.65L28.25 78.05V77.75L27.9501 77.65L27.75 77.25L27.3501 76.95L26.8501 77.05L26.4501 77.25L26.1501 77.05L25.9501 76.65L25.6501 76.55L24.75 76.75L24.1501 75.95L23.8501 75.65L24.25 74.95L24.4501 74.35L24.5501 73.95L24.4501 73.75V73.65L24.25 73.25L24.1501 72.95L24.25 72.65L24.3501 72.45V72.25L24.25 72.15V71.95L24.3501 71.75V71.55V71.35V70.95L24.25 70.55L24.0501 70.25L24.25 69.95L24.0501 69.25L24.3501 69.15L24.5501 68.65L24.8501 67.75L24.3501 67.55L24.0501 66.95L24.25 66.15L24.1501 65.55L24.4501 65.25L24.5501 64.95V64.75V64.35L24.25 64.15L23.1501 63.75L21.8501 63.35L20.5501 63.75L19.4501 63.95H19.1501L17.25 63.55L16.3501 62.95L15.0501 61.65L14.75 61.45L12.6501 60.25L11.6501 61.25H10.25L9.85008 60.75L9.55009 60.35L9.95006 59.85L9.15007 59.25L8.55009 59.05L8.25005 58.95L7.75005 58.75L7.15007 58.95L6.35008 59.05L5.75005 59.95L5.05009 60.05L4.35008 60.25L3.45006 60.45H3.25005L3.05009 60.35L2.85008 60.25H2.75005H2.35008L2.15007 60.05L1.75005 59.95L1.55009 60.05L0.750046 59.85L0.250046 59.65L0.450058 58.95L0.65007 58.55V58.45L0.750046 58.15V57.95L0.850082 57.85V57.75V57.65L0.950058 57.55V57.45V57.35L1.05009 57.15L1.35008 56.35V56.05V55.95V55.85L1.45006 55.75V55.65V55.55V55.45L1.55009 55.35V55.15V55.05H1.65007L1.55009 54.95L1.65007 54.85V54.75V54.65L1.75005 54.45V54.35V54.25V54.15V54.05H1.85008V53.95V53.85L1.95006 53.65L2.05009 53.55V53.45L2.35008 52.75L2.45006 52.35V52.05H2.55009L2.65007 51.85L2.75005 51.65V51.55V51.25H2.85008V51.15L2.95006 51.25V51.15V51.05L3.05009 50.65V50.55H3.15007L3.25005 50.35V50.25V50.15V50.05L3.35008 49.95V49.85L3.45006 49.75L3.25005 49.65L3.35008 49.55L3.55009 49.45L3.75005 48.55V48.45L3.85008 48.35L3.95006 47.95L4.05009 47.45H4.15007V47.35V47.25H4.25005L4.35008 47.15L4.45006 47.25H4.55009L4.65007 47.15V47.05H4.75005L4.85008 47.15V47.05H4.95006V46.85V46.75L5.05009 46.85L5.25005 46.95L5.35008 46.85V46.75H5.25005V46.65H4.85008H5.05009H5.15007V46.45V46.35L5.25005 46.25V46.05L5.35008 45.85L5.65007 45.15V44.95V44.85H5.75005V44.65L5.85008 44.35L5.95006 44.15V43.95V43.85L6.05009 43.65V43.55L6.25005 43.05V42.95L6.35008 42.75V42.65L6.45006 42.55L6.55009 42.25V42.05L6.65007 41.95V41.85V41.75L6.75005 41.55V41.45L6.85008 41.15L6.95006 40.95V40.85L7.05009 40.75V40.65V40.55L7.15007 40.45V40.35L7.25005 40.15V40.05V39.85L7.35008 39.75V39.65V39.55V39.45H7.45006V39.25L7.55009 39.05V38.95V38.85L7.65007 38.65L7.95006 37.35L8.25005 36.65V36.55V36.45L8.35008 36.25V36.05L8.55009 35.35V35.25L8.65007 35.15V35.05L8.75005 34.65V34.25H8.85008L8.95006 34.05L9.05009 33.95L9.15007 33.85V33.65L9.35008 33.45V33.35L9.65007 32.65L9.75005 32.55L9.85008 32.05V31.85V31.75H9.95006L9.85008 31.65H9.95006V31.55H10.0501V31.45L9.95006 31.35H10.0501V31.15H10.1501V31.05L10.25 30.95V30.85H10.3501V30.75H10.25L10.4501 30.45V30.35L10.5501 30.25H10.6501V30.15V30.05H10.75V29.95V29.85H10.8501V29.75H10.9501V29.65V29.55L11.0501 29.45V29.55H10.9501V29.65H11.0501H11.1501V29.55H11.0501L11.1501 29.45H11.25H11.3501V29.35L11.25 29.25H11.3501V29.35L11.4501 29.25H11.5501V29.15V29.05L11.75 28.65V28.35L11.8501 28.05L12.0501 27.65L12.1501 27.15V27.05L12.25 26.75L12.3501 26.55L12.4501 26.35V26.25L12.5501 25.95V25.75V25.65V25.55H12.6501V25.45V25.15L12.75 24.85L12.8501 24.45L12.9501 23.95V23.65L13.0501 23.55V23.35V23.25L13.1501 23.05V22.95L13.25 22.75V22.65V22.55L13.3501 22.35L13.4501 22.15L13.5501 21.55V21.25L13.75 20.55L13.8501 20.15L13.9501 19.75V19.65L14.0501 19.55V19.35L14.25 18.55L14.3501 18.35V18.15L14.4501 17.95V17.85V17.75L14.5501 17.65V17.45V17.25L14.6501 16.45L14.8501 16.05L14.9501 15.65L15.0501 15.25L15.1501 15.05V14.95L15.25 14.85V14.65V14.55L15.3501 14.45V14.35V14.25L15.4501 14.15V14.05V13.95L15.5501 13.75L15.6501 13.15L15.75 12.85L15.8501 12.55L15.9501 12.25V11.95L16.0501 11.65L16.1501 11.45V11.35V11.25L16.25 11.15V10.95H16.3501L16.25 10.85V10.75V10.65V10.55H16.3501V10.45V10.35L16.4501 10.25V9.95L16.5501 9.85V9.75V9.65H16.6501V9.55V9.45V9.35L16.5501 9.25H16.6501V9.15L16.75 9.05V8.95V8.85H16.8501V8.75H16.9501V8.65H17.0501H17.1501L17.25 8.55L17.3501 8.45H17.4501V8.35H17.5501H17.6501V8.25H17.75V8.15H17.8501V8.05H17.9501L18.0501 8.15H18.1501H18.25H18.3501H18.4501H18.5501H18.6501H18.75V8.05H18.8501V8.15H18.9501H19.0501H19.1501V8.25H19.25H19.3501H19.4501V8.35H19.5501H19.6501H19.75V8.25H19.8501H19.9501H20.0501V8.35H20.1501L20.25 8.45V8.35H20.3501V8.25H20.4501V8.35H20.5501V8.25L20.6501 8.35H20.75H20.8501V8.25H20.9501V8.15H21.0501V8.05L21.1501 8.15V8.25H21.25V8.35H21.3501H21.4501H21.5501L21.6501 8.45L21.75 8.55H21.8501V8.45H21.9501H22.0501H22.1501H22.25V8.55H22.3501V8.65H22.4501H22.5501H22.6501L22.75 8.75H22.8501V8.65L22.9501 8.55H23.0501L22.9501 8.65V8.75H23.0501L23.1501 8.85L23.25 8.75H23.3501V8.65H23.4501H23.5501L23.8501 8.75H23.9501H23.6501H23.5501H23.4501H23.3501V8.85L23.4501 8.95H23.3501H23.25H23.1501V9.05H23.25H23.3501H23.4501L23.6501 8.85V8.95H23.75V9.15L23.8501 9.25L23.75 9.05H23.5501L23.25 9.35H23.3501H23.4501H23.5501L23.6501 9.25H23.5501L23.75 9.15V9.25L23.5501 9.35L23.6501 9.45L23.75 9.55L24.0501 9.65H24.1501H24.3501H24.4501H24.5501L24.6501 9.55H24.75H24.8501L24.9501 9.45L25.1501 9.35V9.25H25.25L25.3501 9.15H25.25L25.3501 9.05L25.4501 8.95H25.5501H25.6501V8.85L25.75 8.75V8.65L25.8501 8.55L25.9501 8.35H26.0501V8.25L26.1501 8.05V7.95H26.25V7.85V7.75V7.65V7.55V7.45V7.35H26.1501V7.25V7.15V7.05V6.95H26.25H26.3501L26.4501 6.85V6.95L26.5501 6.85V6.95H26.6501H26.75V6.85H26.8501H26.9501L27.1501 6.75L27.4501 6.55H27.5501H27.6501V6.45V6.35V6.25H27.75V6.15H27.8501V6.25H27.9501H28.0501H28.1501H28.25V6.15H28.3501L28.25 6.25H28.3501H28.4501V6.15H28.5501V6.05H28.6501H28.75H28.8501L28.9501 5.95L29.1501 5.85L29.25 5.75L29.3501 5.65H29.5501L29.6501 5.75H29.8501H29.9501V5.85L30.0501 5.95L30.25 6.05H30.3501L30.4501 6.15H30.8501V6.25H30.9501V6.35H31.1501H31.4501L31.6501 6.25L31.75 6.15H31.8501L31.9501 6.05H32.0501H32.25L32.3501 5.95L32.5501 5.85H32.6501H32.75H33.0501V5.95V6.05H33.25H33.5501H33.6501V6.15H33.8501H33.9501H34.0501H34.1501H34.25L34.6501 6.05L34.75 5.95H34.8501L34.9501 5.85H35.0501V5.75H35.1501V5.65V5.55L35.25 5.65H35.3501L35.25 5.55V5.45V5.35L35.4501 5.25L35.3501 5.35H35.25V5.45V5.55L35.3501 5.45V5.55H35.4501H35.5501V5.45L35.4501 5.55L35.6501 5.45H35.75V5.35H35.8501V5.25V5.15H35.9501L36.0501 5.05H36.1501V5.15V5.25H36.25H36.3501H36.4501H36.5501L36.6501 5.15V5.05H36.75V4.95L36.8501 4.85H36.9501V4.75H37.0501L37.1501 4.65L36.8501 4.25V4.15L37.0501 3.55L37.1501 3.45V3.35H37.25L37.1501 3.45V3.55V3.65L37.0501 3.75V3.85L36.9501 4.05V4.15H36.8501V4.25L37.1501 4.45V4.55L37.25 4.45L37.0501 4.25L37.1501 4.15L37.25 4.05L37.3501 3.95L37.5501 3.75V3.85H37.6501L37.75 3.95V3.85V3.75H37.8501L37.9501 3.65V3.55H38.0501L38.1501 3.45H38.0501L38.1501 3.35H38.25L38.1501 3.25V3.15V3.05L38.0501 2.85L37.9501 2.95L38.1501 2.75V2.65V3.05V3.15H38.25H38.3501H38.4501V3.05H38.5501V2.95V2.85H38.4501H38.3501L38.4501 2.75L38.75 2.85V2.75H38.8501L38.9501 2.65V2.55V2.35V2.25L39.0501 2.15V2.05H39.1501L39.5501 1.65L39.4501 1.75L39.25 1.95V2.05L39.0501 2.25L39.1501 2.35L39.25 2.45H39.3501L39.6501 2.15L39.9501 1.75L40.0501 1.65V1.55V1.45H40.1501V1.35L40.25 1.25V1.15H40.3501V1.25H40.4501H40.5501H40.6501H40.75L40.8501 1.15L40.9501 0.950001H41.0501V0.849998L41.1501 0.75H41.25H41.3501H41.4501H41.5501H41.6501H41.75V0.849998H41.8501V0.950001V1.05V1.15V1.25H41.9501L42.0501 1.35H42.1501H42.25H42.3501L42.4501 1.25V1.15V1.05H42.5501H42.6501L42.75 1.15H42.8501H42.9501H43.0501H43.1501H43.25V1.05H43.3501H43.4501H43.5501H43.6501H43.75V0.950001H43.8501L43.9501 0.849998L44.0501 0.75V0.650002H44.1501V0.549999H44.25V0.450001H44.3501V0.349998V0.25H44.4501H44.5501V0.349998V0.450001H44.6501V0.549999H44.75V0.650002H44.6501V0.75H44.5501V0.849998H44.6501V0.950001H44.75H44.8501V1.05H44.9501H45.0501H45.1501H45.25V0.950001H45.3501H45.4501V0.849998H45.5501V0.950001H45.6501V1.05V1.15H45.75V1.25V1.35V1.45V1.65V1.75L45.8501 1.95V2.05V2.15V2.25L45.9501 2.55V2.65L46.0501 2.75V2.85H46.1501V2.95H46.25H46.3501H46.4501V3.05H46.5501H46.6501L46.8501 3.25L47.0501 3.45H47.1501V3.35V3.25H47.25V3.35L47.3501 3.45H47.4501V3.55H47.5501V3.75L47.4501 3.85V4.05V4.15V4.25L47.3501 4.35V4.45V4.55V4.65H47.25V4.75H47.1501V4.85L47.0501 4.95V5.05V5.15V5.35L47.1501 5.45H47.0501V5.55V5.65V5.75V5.95V6.05V6.15V6.25V6.45V6.55L47.1501 6.75V6.95V7.05V7.25V7.35V7.45V7.75V8.05L47.25 8.25V8.35V8.55V8.85V9.05V9.25V9.35L47.3501 9.55V9.75H47.4501V9.85L47.3501 9.95L47.4501 10.15V10.25V10.35V10.45V10.65V10.75L47.5501 10.85V10.95H47.6501H47.75V11.05L47.8501 11.15V11.35L47.75 11.15V11.05H47.6501V10.95H47.5501V11.05H47.6501V11.15H47.5501L47.6501 11.25V11.15H47.75V11.25V11.35L47.6501 11.25V11.35V11.45V11.55V11.75L47.75 12.15L47.8501 12.65L47.9501 13.25V13.35H47.8501V13.45H47.9501V13.35H48.0501V13.45H47.9501V13.55L48.0501 13.65L48.1501 14.15L48.25 14.45L48.3501 14.75L48.4501 15.05L48.6501 15.45L48.75 15.65L48.8501 15.75H48.9501H49.0501L49.25 15.85V15.75V15.65H49.1501V15.55L49.25 15.65L49.3501 15.75H49.4501H49.5501V15.65H49.6501H49.8501L49.9501 15.55H50.0501L50.1501 15.45H50.25H50.3501H50.4501H50.5501H50.6501V15.55H50.75H50.8501H50.9501H51.0501H51.25V15.45V15.65V15.75L51.1501 15.95L50.8501 16.15V16.35V16.45H50.75V16.55V16.65V16.75H50.6501V16.85L51.0501 18.35V18.45V18.55V18.65L51.25 19.35L51.3501 19.55L51.4501 20.15V20.25L51.5501 20.35V20.45V20.55V20.65H51.6501V20.75V20.85V20.95L51.75 21.05V21.15V21.25L51.8501 21.35V21.45V21.55L51.9501 21.65V21.85L52.0501 21.95L52.1501 22.25V22.35H52.25V22.65L52.75 24.05L52.8501 24.15L52.9501 24.25V24.35L53.0501 24.45H53.1501L53.25 24.55H53.3501V24.45H53.4501V24.35H53.5501H53.6501V24.25H53.75V24.35H53.8501V24.45V24.55L53.9501 24.75H54.0501V24.85H54.1501V24.95H54.25V25.05H54.3501L54.4501 25.15H54.5501H54.6501V25.05L54.75 24.95H54.8501V24.85H54.9501H55.0501L55.1501 24.95L55.3501 25.15V25.25H55.4501H55.5501H55.75V25.15L55.8501 25.25H55.9501H56.0501V25.35H56.1501H56.25L56.3501 25.45H56.4501V25.55L56.5501 25.75L56.6501 26.05H56.75V26.15H56.9501V26.25L57.0501 26.35V26.45L57.25 26.65L57.3501 26.95L57.4501 27.05L57.5501 27.25L57.6501 27.35H57.75V27.45H57.8501L58.0501 27.75L58.25 27.85H58.4501V27.95L58.5501 28.05L58.6501 27.95L58.75 28.15H58.8501V28.25L58.9501 28.15V28.25L59.0501 28.35H59.1501V28.45H59.25L59.4501 28.75H59.5501V28.85L59.75 29.05H59.8501H59.9501L60.25 29.55L60.8501 30.85L61.0501 31.05L61.1501 31.25L61.3501 31.65V31.75L61.4501 31.85L61.5501 32.05L61.6501 32.25L61.75 32.45L61.8501 32.75L62.0501 33.05L62.25 33.45L62.4501 33.55L62.5501 33.65H62.6501H62.75L63.1501 33.75H63.25L63.9501 34.05H64.0501L64.25 33.95L64.3501 33.85L64.75 33.75V33.85L65.3501 34.75H65.5501L65.75 35.05V35.15H65.8501V35.25L65.9501 35.35L66.0501 35.45L66.1501 35.55L66.25 35.65V35.75L66.4501 35.85L66.6501 35.95V36.05H66.8501L66.9501 36.15L67.0501 36.25L67.1501 36.35V36.45H67.25V36.55L67.3501 36.65H67.4501V36.75V36.85H67.5501L67.75 37.15L67.8501 37.25L67.9501 37.35H68.0501V37.45L68.1501 37.55V37.65H68.25V37.75H68.3501L68.4501 37.85L68.5501 37.95L68.6501 38.05L68.75 38.15V38.25H68.8501V38.35V38.45L68.9501 38.55V38.65V38.75H69.0501V38.85L69.25 39.05L69.4501 39.25L69.5501 39.35L69.75 39.45L70.25 39.65L70.3501 39.75L70.4501 39.85L70.6501 39.95L70.75 40.05H70.8501H70.9501L71.0501 40.15H71.1501H71.3501L71.6501 40.35H71.75H71.8501L71.9501 40.45H72.0501L72.3501 40.35H72.4501H72.5501L72.6501 40.55H72.75V40.65L73.0501 40.95H73.1501V41.05L73.25 41.15L73.75 41.75L73.8501 41.85L73.9501 41.95L74.0501 42.05L74.25 42.25L74.3501 42.35L74.4501 42.55H74.5501V42.65H74.6501L74.75 42.75L74.8501 42.85L74.9501 42.95H75.0501V43.05L75.1501 43.15H75.25L75.3501 43.25L75.75 43.35H75.8501V43.45H75.9501H76.0501H76.1501V43.55H76.25L76.3501 43.65H76.4501V43.75L76.6501 44.05H76.75V44.15L76.8501 44.25L76.9501 44.35L77.0501 44.45L77.25 44.55H77.3501H77.4501H77.5501L77.6501 44.65H77.75H77.8501H77.9501V44.75L78.1501 44.85L78.3501 45.05L78.4501 45.15H78.5501L78.75 45.35H78.9501L79.3501 45.25H79.4501L79.5501 45.35L79.75 45.55L79.9501 45.65L80.0501 45.75H80.1501H80.25L80.4501 45.85L80.75 45.95H80.8501L81.4501 46.25L82.0501 46.35L82.1501 46.45H82.25L82.4501 46.55H82.5501H82.6501H82.75L82.8501 46.45H83.0501V46.35H83.1501V46.25L83.25 46.15L83.3501 46.05H83.4501V46.15V46.25H83.5501H83.6501V46.15H83.75H83.8501V46.05H83.9501V45.95H84.0501V46.05V46.15L84.1501 46.35L84.25 46.45H84.3501V46.55L84.4501 46.65V46.75H84.5501L84.6501 46.85L84.75 47.05H84.8501L84.9501 47.15L85.0501 47.25H85.1501L85.5501 47.35V47.45H85.75V47.55H85.8501H85.9501L86.25 47.65H86.3501H86.4501H86.5501H86.6501L87.0501 47.45L87.6501 47.55H87.75H87.8501V47.65H87.9501L88.0501 47.75H88.1501H88.25H88.3501H88.5501V47.85H88.6501H88.75V47.95H88.8501H88.9501H89.0501H89.1501L89.6501 48.15H89.9501V48.25H90.0501H90.1501L90.3501 48.35L90.8501 48.45H90.9501H91.1501V48.35H91.25H91.3501H91.8501H91.9501H92.0501V48.45H92.25H92.4501L92.5501 48.55L92.75 48.65L92.9501 48.75H93.0501L93.25 48.85V48.95H93.3501L93.4501 49.05H93.5501V49.15H93.6501L93.8501 49.25H93.9501H94.0501L94.1501 49.35H94.25H94.3501L94.75 49.55L94.8501 49.65L95.4501 49.75H95.5501L95.75 49.85L96.25 49.75L96.3501 49.65L96.6501 49.55H96.9501H97.0501V49.65H97.1501L97.5501 49.85L98.0501 49.95L98.1501 49.85L98.25 49.75V49.85H98.3501V49.95V50.05V50.15H98.4501L98.5501 50.25H98.6501V50.15V50.05H98.75H98.8501V50.15H98.9501H99.0501L99.1501 50.25V50.15H99.25V50.25H99.3501H99.4501H99.5501V50.15H99.6501V50.05H99.75H99.8501L99.9501 49.95H100.05L100.15 49.85V49.75L100.25 49.65H100.35L100.45 49.55L100.55 49.65H100.65L101.05 49.55H101.15V49.45H101.25V49.35L101.35 49.25L101.45 49.15H101.65V49.05H101.75H101.85V48.95L102.05 48.85V48.95H102.15V49.05L102.35 48.95V48.85H102.45V48.75H102.55H102.65H102.75L102.85 48.65H102.95L102.85 48.55H102.95V48.45V48.35V48.25H103.05V48.15V48.05L103.15 48.15V48.25H103.25L103.45 48.15L103.55 48.25H103.65V48.15L103.85 48.05H103.95L104.05 47.95H104.15H104.25H104.35H104.45L104.55 47.85L104.65 47.75H104.75H104.85V47.65H104.95H105.05H105.15H105.25V47.75H105.35L105.45 47.85H105.55H105.75H105.85H105.95H106.05L106.25 47.75L106.35 47.85L106.65 47.95L106.85 47.85L106.95 47.75V47.65L106.85 47.55H106.95V47.65H107.05H107.25V47.55H107.35L107.45 47.45H107.55L107.65 47.35H107.75V47.15H107.95H108.05V47.05H108.15V46.95L108.35 47.05V46.95L108.45 47.05H108.55H108.75H108.85L109.05 46.95L109.15 46.85H109.25H109.35L109.45 46.75H109.55H109.75V46.85L109.95 46.95V47.05H110.05H110.15H110.25L110.35 46.85V46.95H110.45H110.55H110.75L110.95 46.85H111.05V46.75H111.15V46.65L111.45 46.75L111.65 46.65L111.75 46.55H111.95V46.65H112.05L112.15 46.55H112.25V46.45H112.35V46.35H112.45V46.25H112.55L112.85 46.05L112.95 45.95L113.05 45.85L113.15 45.75L113.35 45.65V45.55H113.45H113.55V45.65H113.65H113.75L113.85 45.55V45.45H113.95H114.05H114.15H114.25L114.35 45.35H114.45H114.55L114.75 45.25V45.15V45.05H114.85V44.95H114.95V45.05H115.05H115.15H115.25H115.45V44.95H115.55V44.85L115.85 44.75V44.65V44.55H115.95V44.65H116.05V44.75H116.15H116.25H116.35L116.45 44.65H116.55V44.55H116.65H116.75H116.85V44.45L116.95 44.35H117.05L117.25 44.25H117.35L117.25 44.45V44.55L117.35 44.65L117.45 44.75H117.55L117.75 44.85L117.95 44.75H118.05V44.65L118.25 44.55L118.45 44.45V44.55H118.55L118.45 44.65H118.55H118.75L118.95 44.55H119.05H119.15L119.45 44.45L119.65 44.25L119.75 44.15H119.85L119.95 44.05V43.95H120.05H120.15V43.85H120.25H120.35V43.75H120.45H120.55L120.65 43.65H120.75V43.55H120.85V43.45H120.95V43.35H121.05V43.25H121.15V43.15H121.25L121.45 43.05V42.95H121.55L121.65 43.05V42.95H121.75L121.85 42.85L121.95 42.95H122.05L122.15 43.05H122.25H122.35V43.15H122.45V43.25H122.55V43.35H122.65V43.45H122.55V43.55H122.45H122.35V43.65H122.25L122.15 43.75V43.85L122.25 43.75V43.85H122.15V43.95H122.05V44.05V44.15L122.15 44.25H122.25H122.35L122.45 44.35H122.35L122.25 44.45L122.15 44.55H122.25H122.35L122.25 44.65V44.75V44.85H122.35H122.45H122.55V44.95H122.45V45.05V45.15H122.55V45.25L122.65 45.15V45.25V45.35V45.45V45.55L122.75 45.65H122.85V45.55L122.95 45.65V45.75V45.85L123.05 45.95L123.15 46.05H123.25H123.35V46.15L123.55 46.25L123.75 46.35L123.95 46.45L124.25 46.55L124.55 46.65L124.85 46.75H124.95H125.05H125.15L125.25 46.85H125.35L125.45 46.95L125.75 47.05H125.95H126.25H126.65H126.85L127.15 46.95H127.35H127.45Z" fill="#6F9C76"/>
<path d="M122.95 45.75V45.85L123.05 45.95L123.15 46.05H123.25H123.35V46.15L123.55 46.25L123.75 46.35L123.95 46.45L124.25 46.55L124.55 46.65L124.85 46.75H124.95H125.05H125.15L125.25 46.85H125.35L125.45 46.95L125.75 47.05H125.95H126.25H126.65H126.85L127.15 46.95H127.35H127.45L127.95 47.85L128.55 48.55L128.45 48.75L128.35 49.15L128.05 49.45L128.35 50.05L128.15 51.05L128.05 51.25V51.35L127.95 52.15L127.85 53.45L127.95 53.65L128.15 54.65L128.05 54.75V54.85V54.95L128.15 55.05V55.15V55.25V55.35V55.45V55.55V55.65V55.75V55.85V55.95V56.15L128.05 56.25V56.35L127.95 56.55H127.85V56.65V56.85L127.75 56.95V57.15V57.25L127.85 57.35V57.45V57.55L127.75 57.75V57.95V58.15V58.35V58.55H127.85V58.65V58.85V58.95V59.05H127.95L128.05 59.15V59.25L128.15 59.35V59.45V59.55V59.65H128.05V59.75V59.85V59.95V60.05H128.15V60.15V60.25V60.35H128.25V60.45V60.55L128.35 60.65L128.15 61.65L127.95 62.35L127.85 62.55L127.35 63.95L127.65 64.25L127.15 64.95V65.45L127.35 65.85L127.45 66.15L127.55 66.35L127.65 66.65V66.95L127.45 67.25L127.15 68.15L126.05 68.55L124.85 68.85L123.55 69.25L123.15 69.35L122.65 69.25H122.35L122.25 69.35L122.15 69.45L122.05 69.55H121.85L121.95 69.75V69.85H121.65L121.55 70.05L121.25 69.95L121.05 70.05L120.85 70.15H120.75L120.35 70.25L119.95 70.35L119.65 70.45L118.15 70.85H117.65L117.45 71.05H117.15L116.85 70.95H116.65L116.35 70.85V70.95L116.25 71.15L115.85 71.75L115.05 72.65L113.95 73.65L113.55 74.15L112.95 74.85L111.95 75.35L110.65 76.15L110.05 75.25L109.15 75.65L107.05 74.65L106.55 74.15L106.35 73.85L105.75 72.85L105.15 72.15L104.45 72.95L103.05 74.05L102.15 74.95L102.75 75.65L102.55 76.45L101.75 76.95L101.55 77.45L101.15 77.85L100.75 78.05L100.15 78.25L99.5501 78.15L98.6501 78.35L98.1501 78.55L97.1501 78.35L96.25 78.25L96.0501 79.45L95.4501 79.95L95.1501 80.75L95.3501 80.95L95.0501 80.85L94.8501 80.75L94.6501 80.65L94.1501 80.35L93.5501 80.15L92.25 79.45L91.5501 78.85L90.8501 79.15L89.75 78.85L88.0501 80.05L87.75 78.95L87.25 77.95L85.9501 77.55L85.1501 77.45H83.5501L83.1501 77.75H82.0501H81.6501H81.4501H81.25H81.0501H80.8501H80.4501H80.1501L79.9501 77.65L79.8501 77.55L79.5501 77.35L79.3501 77.15L79.1501 77.05L78.9501 76.95V76.85L78.8501 76.75H78.5501L78.25 76.55L77.9501 76.35L77.75 76.15L77.5501 75.95L77.3501 75.85L77.25 75.75L77.1501 75.45V75.15L77.0501 74.95L76.9501 74.65L76.8501 74.55L76.75 74.25L76.8501 73.75L76.75 72.45L76.5501 71.05L76.6501 69.85L75.75 70.35L74.5501 70.65L72.75 70.95H72.4501H72.1501L71.6501 70.45L71.3501 70.55L70.4501 71.05L70.0501 71.45L69.75 71.65L69.25 71.75L68.9501 71.85L68.1501 72.05L66.8501 72.95L66.75 73.15H66.5501L66.4501 72.95H66.25H65.8501H65.3501H65.1501H64.9501L64.6501 73.05V72.95L64.75 72.85L64.8501 72.65L64.75 72.55L64.4501 72.45L64.25 72.65L61.3501 73.65L61.1501 74.15L60.8501 73.85L59.6501 74.05L59.0501 74.65L57.9501 74.75L57.5501 75.05L56.8501 75.75L56.0501 76.45L55.8501 77.65V78.15L56.0501 78.35L55.8501 78.55L55.9501 78.95L56.0501 79.45L55.9501 79.65L55.8501 79.85L55.75 80.45L55.6501 80.85L55.8501 81.15L55.9501 81.55L56.0501 82.25V83.35V84.45V84.85L55.5501 85.35L55.25 85.45L55.6501 85.55L55.9501 85.75L56.0501 85.95L55.9501 86.35L55.8501 86.45L55.4501 87.25L55.25 87.95H54.75L52.0501 88.15L51.9501 88.25L51.6501 88.55L51.5501 89.05L51.6501 89.35L51.9501 89.55L52.1501 89.65L51.9501 89.75L50.8501 90.75L49.0501 90.65L48.4501 90.55L48.0501 90.25L47.75 90.15L47.5501 89.95H47.25L46.75 89.75L46.4501 89.65L46.0501 89.55L45.6501 89.45L45.1501 89.35L44.9501 89.45L45.25 89.75V90.25L44.8501 90.35L44.75 90.25L44.6501 89.95L44.1501 89.55L43.5501 89.35H43.25H43.1501L43.0501 89.25L42.9501 89.15H43.0501V89.05L42.9501 88.95V88.85L43.0501 88.75V88.65V88.45H42.9501L42.8501 88.35L42.75 88.15V87.95V87.85L42.9501 87.75V87.65L42.8501 87.55L42.9501 87.35V87.15L43.0501 87.05L43.1501 86.85L43.3501 86.75L43.4501 86.65L43.5501 86.55L43.75 86.35L43.9501 86.15L43.75 85.95L43.8501 85.65L43.6501 85.45L43.5501 85.15L43.4501 84.75L43.1501 84.55L42.75 84.25L42.5501 84.15L42.25 84.05V83.85H41.9501L41.8501 83.95H41.5501L41.4501 83.75L41.3501 83.55L41.1501 83.45H40.8501H40.6501L40.4501 83.35L40.1501 83.25H39.9501L39.8501 83.35L39.75 83.25V83.05L39.6501 82.85L39.3501 82.65L39.0501 82.45H38.75H38.5501L38.4501 82.55L38.1501 82.85H37.9501H37.8501L37.75 82.65L37.6501 82.35L37.3501 81.65L37.25 81.25L37.1501 81.15V80.95H37.0501H36.8501H36.75L36.6501 81.05L36.5501 80.95V80.75L36.75 80.65V80.55L36.6501 80.25V79.85L36.5501 79.65V79.35H36.1501H35.75H35.3501V79.15V78.95L35.1501 78.65V78.45L34.9501 78.25L34.6501 77.95L34.5501 77.65V77.55L34.4501 77.65L34.1501 77.85H33.8501V77.65V77.45L33.6501 77.65L33.3501 77.55L33.0501 77.45L32.75 77.35H32.4501L32.25 77.25V77.15L32.3501 76.95L32.4501 76.75L32.5501 76.65L32.3501 76.55L32.1501 76.45H31.9501L31.75 76.35L31.4501 76.45L31.3501 76.65H30.75L30.5501 76.75V77.05L30.4501 77.25L30.25 77.35L30.1501 77.65L29.8501 77.95L29.75 78.15H28.9501L28.5501 78.25L28.0501 78.65L28.25 78.05V77.75L27.9501 77.65L27.75 77.25L27.3501 76.95L26.8501 77.05L26.4501 77.25L26.1501 77.05L25.9501 76.65L25.6501 76.55L24.75 76.75L24.1501 75.95L23.8501 75.65L24.25 74.95L24.4501 74.35L24.5501 73.95L24.4501 73.75V73.65L24.25 73.25L24.1501 72.95L24.25 72.65L24.3501 72.45V72.25L24.25 72.15V71.95L24.3501 71.75V71.55V71.35V70.95L24.25 70.55L24.0501 70.25L24.25 69.95L24.0501 69.25L24.3501 69.15L24.5501 68.65L24.8501 67.75L24.3501 67.55L24.0501 66.95L24.25 66.15L24.1501 65.55L24.4501 65.25L24.5501 64.95V64.75V64.35L24.25 64.15L23.1501 63.75L21.8501 63.35L20.5501 63.75L19.4501 63.95H19.1501L17.25 63.55L16.3501 62.95L15.0501 61.65L14.75 61.45L12.6501 60.25L11.6501 61.25H10.25L9.85008 60.75L9.55009 60.35L9.95006 59.85L9.15007 59.25L8.55009 59.05L8.25005 58.95L7.75005 58.75L7.15007 58.95L6.35008 59.05L5.75005 59.95L5.05009 60.05L4.35008 60.25L3.45006 60.45H3.25005L3.05009 60.35L2.85008 60.25H2.75005H2.35008L2.15007 60.05L1.75005 59.95L1.55009 60.05L0.750046 59.85L0.250046 59.65L0.450058 58.95L0.65007 58.55V58.45L0.750046 58.15V57.95L0.850082 57.85V57.75V57.65L0.950058 57.55V57.45V57.35L1.05009 57.15L1.35008 56.35V56.05V55.95V55.85L1.45006 55.75V55.65V55.55V55.45L1.55009 55.35V55.15V55.05H1.65007L1.55009 54.95L1.65007 54.85V54.75V54.65L1.75005 54.45V54.35V54.25V54.15V54.05H1.85008V53.95V53.85L1.95006 53.65L2.05009 53.55V53.45L2.35008 52.75L2.45006 52.35V52.05H2.55009L2.65007 51.85L2.75005 51.65V51.55V51.25H2.85008V51.15L2.95006 51.25V51.15V51.05L3.05009 50.65V50.55H3.15007L3.25005 50.35V50.25V50.15V50.05L3.35008 49.95V49.85L3.45006 49.75L3.25005 49.65L3.35008 49.55L3.55009 49.45L3.75005 48.55V48.45L3.85008 48.35L3.95006 47.95L4.05009 47.45H4.15007V47.35V47.25H4.25005L4.35008 47.15L4.45006 47.25H4.55009L4.65007 47.15V47.05H4.75005L4.85008 47.15V47.05H4.95006V46.85M4.95006 46.85H5.05009M4.95006 46.85V46.75L5.05009 46.85M5.05009 46.85L5.25005 46.95L5.35008 46.85V46.75M5.35008 46.75V46.65M10.9501 29.65V29.75H10.8501V29.85H10.75V29.95V30.05H10.6501V30.15V30.25H10.5501L10.4501 30.35V30.45L10.25 30.75H10.3501V30.85H10.25V30.95L10.1501 31.05V31.15H10.0501V31.35H9.95006L10.0501 31.45V31.55H9.95006V31.65H9.85008L9.95006 31.75H9.85008V31.85V32.05L9.75005 32.55L9.65007 32.65L9.35008 33.35V33.45L9.15007 33.65V33.85L9.05009 33.95L8.95006 34.05L8.85008 34.25H8.75005V34.65L8.65007 35.05V35.15L8.55009 35.25V35.35L8.35008 36.05V36.25L8.25005 36.45V36.55V36.65L7.95006 37.35L7.65007 38.65L7.55009 38.85V38.95V39.05L7.45006 39.25V39.45H7.35008V39.55V39.65V39.75L7.25005 39.85V40.05V40.15L7.15007 40.35V40.45L7.05009 40.55V40.65V40.75L6.95006 40.85V40.95L6.85008 41.15L6.75005 41.45V41.55L6.65007 41.75V41.85V41.95L6.55009 42.05V42.25L6.45006 42.55L6.35008 42.65V42.75L6.25005 42.95V43.05L6.05009 43.55V43.65L5.95006 43.85V43.95V44.15L5.85008 44.35L5.75005 44.65V44.85H5.65007V44.95V45.15L5.35008 45.85L5.25005 46.05V46.25L5.15007 46.35V46.45V46.65H5.05009H4.85008H5.25005V46.75H5.35008M10.4501 30.35H10.5501M11.0501 29.45L10.9501 29.55V29.65M10.9501 29.65H11.0501H11.1501V29.55H11.0501M10.9501 29.55H11.0501M11.0501 29.45L11.1501 29.35H11.25M11.0501 29.45V29.55M11.0501 29.55L11.1501 29.45H11.25H11.3501V29.35M11.3501 29.35L11.25 29.25H11.3501V29.35ZM11.3501 29.35L11.4501 29.25H11.5501V29.15V29.05L11.75 28.65V28.35L11.8501 28.05L12.0501 27.65L12.1501 27.15V27.05L12.25 26.75L12.3501 26.55L12.4501 26.35V26.25L12.5501 25.95V25.75V25.65V25.55H12.6501V25.45V25.15L12.75 24.85L12.8501 24.45L12.9501 23.95V23.65L13.0501 23.55V23.35V23.25L13.1501 23.05V22.95L13.25 22.75V22.65V22.55L13.3501 22.35L13.4501 22.15L13.5501 21.55V21.25L13.75 20.55L13.8501 20.15L13.9501 19.75V19.65L14.0501 19.55V19.35L14.25 18.55L14.3501 18.35V18.15L14.4501 17.95V17.85V17.75L14.5501 17.65V17.45V17.25L14.6501 16.45L14.8501 16.05L14.9501 15.65L15.0501 15.25L15.1501 15.05V14.95L15.25 14.85V14.65V14.55L15.3501 14.45V14.35V14.25L15.4501 14.15V14.05V13.95L15.5501 13.75L15.6501 13.15L15.75 12.85L15.8501 12.55L15.9501 12.25V11.95L16.0501 11.65L16.1501 11.45V11.35V11.25L16.25 11.15V10.95H16.3501L16.25 10.85V10.75M16.25 10.75H16.1501M16.25 10.75V10.65V10.55H16.3501V10.45V10.35L16.4501 10.25V9.95L16.5501 9.85V9.75M16.5501 9.75H16.4501M16.5501 9.75V9.65H16.6501V9.55V9.45V9.35L16.5501 9.25H16.6501V9.15L16.75 9.05V8.95M16.75 8.95H16.6501M16.75 8.95V8.85H16.8501V8.75H16.9501V8.65H17.0501H17.1501L17.25 8.55L17.3501 8.45H17.4501V8.35H17.5501H17.6501V8.25H17.75V8.15H17.8501V8.05H17.9501L18.0501 8.15H18.1501H18.25H18.3501H18.4501H18.5501H18.6501H18.75V8.05H18.8501V8.15H18.9501H19.0501H19.1501V8.25H19.25H19.3501H19.4501V8.35H19.5501H19.6501H19.75V8.25H19.8501H19.9501H20.0501V8.35H20.1501L20.25 8.45V8.35H20.3501V8.25H20.4501V8.35H20.5501V8.25L20.6501 8.35H20.75H20.8501V8.25H20.9501V8.15H21.0501V8.05L21.1501 8.15V8.25H21.25V8.35H21.3501M21.3501 8.35V8.25M21.3501 8.35H21.4501H21.5501L21.6501 8.45L21.75 8.55H21.8501V8.45H21.9501H22.0501H22.1501H22.25V8.55H22.3501V8.65H22.4501H22.5501H22.6501L22.75 8.75H22.8501V8.65L22.9501 8.55H23.0501L22.9501 8.65V8.75H23.0501L23.1501 8.85L23.25 8.75H23.3501M23.3501 8.75V8.65H23.4501H23.5501L23.8501 8.75H23.9501H23.6501H23.5501H23.4501H23.3501ZM23.3501 8.95H23.4501L23.3501 8.85V8.75M23.3501 8.85H23.4501M23.3501 8.95H23.25H23.1501V9.05H23.25M23.3501 8.95V9.05M23.25 9.05V9.15M23.25 9.05H23.3501M23.3501 9.05H23.4501L23.6501 8.85V8.95H23.75V9.15M23.75 9.15L23.8501 9.25L23.75 9.05H23.5501L23.25 9.35H23.3501H23.4501H23.5501M23.75 9.15L23.5501 9.25H23.6501L23.5501 9.35M23.75 9.15V9.25L23.5501 9.35M23.5501 9.35L23.6501 9.45L23.75 9.55L24.0501 9.65H24.1501H24.3501H24.4501H24.5501L24.6501 9.55H24.75H24.8501L24.9501 9.45L25.1501 9.35V9.25M25.1501 9.25V9.15M25.1501 9.25H25.25L25.3501 9.15H25.25L25.3501 9.05L25.4501 8.95H25.5501M25.5501 8.95L25.4501 8.85M25.5501 8.95H25.6501V8.85L25.75 8.75V8.65L25.8501 8.55L25.9501 8.35H26.0501V8.25L26.1501 8.05V7.95H26.25V7.85V7.75V7.65V7.55V7.45V7.35H26.1501V7.25V7.15V7.05V6.95H26.25H26.3501L26.4501 6.85V6.95L26.5501 6.85V6.95H26.6501H26.75V6.85H26.8501H26.9501L27.1501 6.75L27.4501 6.55H27.5501H27.6501V6.45V6.35V6.25H27.75V6.15H27.8501V6.25H27.9501H28.0501H28.1501M28.1501 6.25V6.15M28.1501 6.25H28.25M28.3501 6.25V6.15H28.25V6.25M28.25 6.25L28.3501 6.15M28.25 6.25H28.3501M35.4501 5.25L35.25 5.35V5.45V5.55L35.3501 5.65H35.25L35.1501 5.55V5.65V5.75H35.0501V5.85H34.9501L34.8501 5.95H34.75L34.6501 6.05L34.25 6.15H34.1501H34.0501H33.9501H33.8501H33.6501V6.05H33.5501H33.25H33.0501V5.95V5.85H32.75H32.6501H32.5501L32.3501 5.95L32.25 6.05H32.0501H31.9501L31.8501 6.15H31.75L31.6501 6.25L31.4501 6.35H31.1501H30.9501V6.25H30.8501V6.15H30.4501L30.3501 6.05H30.25L30.0501 5.95L29.9501 5.85V5.75H29.8501H29.6501L29.5501 5.65H29.3501L29.25 5.75L29.1501 5.85L28.9501 5.95L28.8501 6.05H28.75H28.6501H28.5501V6.15H28.4501V6.25H28.3501M29.5501 5.65V5.75M35.4501 5.45H35.3501L35.25 5.55M35.25 5.35H35.3501L35.4501 5.25M35.4501 5.25L35.6501 5.15M35.3501 5.45V5.55H35.4501M35.4501 5.55H35.5501V5.45L35.4501 5.55ZM35.4501 5.55L35.6501 5.45M35.6501 5.45L35.5501 5.35M37.1501 3.45L37.0501 3.55L36.8501 4.15V4.25L37.1501 4.65L37.0501 4.75H36.9501V4.85H36.8501L36.75 4.95V5.05H36.6501V5.15L36.5501 5.25H36.4501H36.3501H36.25H36.1501V5.15V5.05H36.0501L35.9501 5.15H35.8501V5.25V5.35H35.75V5.45H35.6501M37.1501 4.65H37.0501M36.8501 4.25L37.1501 4.45V4.55L37.25 4.45L37.0501 4.25L37.1501 4.15L37.25 4.05L37.3501 3.95L37.5501 3.75V3.85H37.6501M36.8501 4.15H36.9501V4.05L37.0501 3.85V3.75L37.1501 3.65V3.55V3.45M37.1501 3.45V3.35H37.25L37.1501 3.45ZM37.6501 3.85V3.75M37.6501 3.85L37.75 3.95V3.85V3.75H37.8501L37.9501 3.65V3.55H38.0501L38.1501 3.45H38.0501L38.1501 3.35H38.25L38.1501 3.25V3.15M38.1501 3.15V3.05M38.1501 3.15H38.25H38.3501H38.4501V3.05H38.5501V2.95V2.85H38.4501H38.3501L38.4501 2.75L38.75 2.85V2.75H38.8501L38.9501 2.65V2.55V2.35V2.25L39.0501 2.15V2.05H39.1501L39.5501 1.65M38.1501 3.05L38.0501 2.85L37.9501 2.95L38.1501 2.75V2.65V3.05ZM39.1501 2.35L39.0501 2.25L39.25 2.05V1.95L39.4501 1.75L39.5501 1.65H39.6501M39.1501 2.35L39.25 2.25M39.1501 2.35L39.25 2.45H39.3501L39.6501 2.15L39.9501 1.75M39.9501 1.75H39.8501L39.75 1.85M40.25 1.15V1.25L40.1501 1.35V1.45H40.0501V1.55V1.65L39.9501 1.75M40.25 1.25H40.1501M40.25 1.15V1.05M45.8501 2.15V2.05V1.95L45.75 1.75V1.65V1.45V1.35V1.25V1.15H45.6501V1.05V0.950001H45.5501V0.849998H45.4501V0.950001H45.3501H45.25V1.05H45.1501H45.0501H44.9501H44.8501V0.950001H44.75H44.6501V0.849998H44.5501V0.75H44.6501V0.650002H44.75V0.549999H44.6501V0.450001H44.5501V0.349998V0.25H44.4501H44.3501V0.349998V0.450001H44.25V0.549999H44.1501V0.650002H44.0501V0.75L43.9501 0.849998L43.8501 0.950001H43.75V1.05H43.6501H43.5501H43.4501H43.3501H43.25V1.15H43.1501H43.0501H42.9501H42.8501H42.75L42.6501 1.05H42.5501H42.4501V1.15V1.25L42.3501 1.35H42.25H42.1501H42.0501L41.9501 1.25H41.8501V1.15V1.05V0.950001V0.849998H41.75V0.75H41.6501H41.5501H41.4501H41.3501H41.25H41.1501L41.0501 0.849998V0.950001H40.9501L40.8501 1.15L40.75 1.25H40.6501H40.5501H40.4501H40.3501V1.15H40.25M45.75 1.75H45.8501M45.8501 2.15H45.9501M45.8501 2.15V2.25L45.9501 2.55V2.65L46.0501 2.75V2.85H46.1501V2.95H46.25H46.3501H46.4501V3.05H46.5501H46.6501L46.8501 3.25L47.0501 3.45H47.1501V3.35V3.25H47.25V3.35L47.3501 3.45H47.4501V3.55H47.5501V3.75L47.4501 3.85V4.05V4.15V4.25L47.3501 4.35V4.45V4.55V4.65H47.25V4.75H47.1501V4.85L47.0501 4.95V5.05V5.15V5.35M47.0501 5.35L47.1501 5.45H47.0501M47.0501 5.35V5.45M47.0501 5.45V5.55V5.65V5.75V5.95V6.05V6.15V6.25V6.45V6.55L47.1501 6.75V6.95V7.05V7.25V7.35V7.45V7.75V8.05L47.25 8.25V8.35V8.55V8.85V9.05V9.25V9.35L47.3501 9.55V9.75H47.4501V9.85L47.3501 9.95L47.4501 10.15V10.25V10.35V10.45V10.65V10.75L47.5501 10.85V10.95M47.5501 10.95H47.6501M47.5501 10.95V11.05H47.6501M47.6501 10.95H47.75V11.05M47.6501 10.95V11.05M47.75 11.05L47.8501 11.15V11.35L47.75 11.15M47.75 11.05V11.15M47.75 11.05H47.6501M47.75 11.15H47.6501M47.75 11.15V11.25V11.35L47.6501 11.25M47.6501 11.05V11.15M47.6501 11.15H47.5501L47.6501 11.25M47.6501 11.15V11.25M47.6501 11.25V11.35V11.45V11.55V11.75L47.75 12.15L47.8501 12.65L47.9501 13.25V13.35M47.9501 13.35H47.8501V13.45H47.9501M47.9501 13.35V13.45M47.9501 13.35H48.0501M47.9501 13.45H48.0501V13.35M47.9501 13.45V13.55L48.0501 13.65L48.1501 14.15L48.25 14.45L48.3501 14.75L48.4501 15.05L48.6501 15.45L48.75 15.65L48.8501 15.75H48.9501M48.0501 13.35V13.25M48.9501 15.75V15.65H49.0501M48.9501 15.75H49.0501M49.0501 15.65H49.1501M49.0501 15.65V15.75M49.1501 15.65H49.25M49.1501 15.65V15.55L49.25 15.65M49.0501 15.75H49.1501M49.0501 15.75L49.25 15.85V15.75V15.65M49.25 15.65L49.3501 15.75H49.4501H49.5501V15.65H49.6501H49.8501L49.9501 15.55H50.0501L50.1501 15.45H50.25H50.3501H50.4501H50.5501H50.6501V15.55H50.75H50.8501H50.9501H51.0501H51.25V15.45V15.65V15.75L51.1501 15.95L50.8501 16.15V16.35V16.45H50.75V16.55V16.65V16.75H50.6501V16.85L51.0501 18.35V18.45V18.55V18.65L51.25 19.35L51.3501 19.55L51.4501 20.15V20.25L51.5501 20.35M51.5501 20.35H51.6501M51.5501 20.35V20.45V20.55V20.65H51.6501V20.75V20.85V20.95L51.75 21.05V21.15V21.25L51.8501 21.35V21.45V21.55L51.9501 21.65V21.85L52.0501 21.95L52.1501 22.25V22.35H52.25V22.65L52.75 24.05L52.8501 24.15L52.9501 24.25V24.35L53.0501 24.45H53.1501L53.25 24.55H53.3501V24.45H53.4501V24.35H53.5501H53.6501V24.25H53.75V24.35H53.8501V24.45V24.55L53.9501 24.75H54.0501V24.85H54.1501V24.95H54.25V25.05H54.3501L54.4501 25.15H54.5501H54.6501V25.05L54.75 24.95H54.8501V24.85H54.9501H55.0501L55.1501 24.95L55.3501 25.15V25.25H55.4501H55.5501H55.75V25.15L55.8501 25.25H55.9501H56.0501V25.35H56.1501H56.25L56.3501 25.45H56.4501V25.55L56.5501 25.75L56.6501 26.05H56.75V26.15H56.9501V26.25L57.0501 26.35V26.45L57.25 26.65L57.3501 26.95L57.4501 27.05L57.5501 27.25L57.6501 27.35H57.75V27.45H57.8501L58.0501 27.75L58.25 27.85H58.4501V27.95L58.5501 28.05L58.6501 27.95L58.75 28.15H58.8501V28.25L58.9501 28.15V28.25L59.0501 28.35H59.1501V28.45H59.25L59.4501 28.75H59.5501V28.85L59.75 29.05H59.8501H59.9501L60.25 29.55L60.8501 30.85L61.0501 31.05L61.1501 31.25L61.3501 31.65V31.75L61.4501 31.85L61.5501 32.05L61.6501 32.25L61.75 32.45L61.8501 32.75L62.0501 33.05L62.25 33.45L62.4501 33.55L62.5501 33.65H62.6501H62.75L63.1501 33.75H63.25L63.9501 34.05H64.0501L64.25 33.95L64.3501 33.85L64.75 33.75V33.85L65.3501 34.75H65.5501L65.75 35.05V35.15H65.8501V35.25L65.9501 35.35L66.0501 35.45L66.1501 35.55L66.25 35.65V35.75L66.4501 35.85L66.6501 35.95V36.05H66.8501L66.9501 36.15L67.0501 36.25L67.1501 36.35V36.45H67.25V36.55L67.3501 36.65H67.4501V36.75V36.85H67.5501L67.75 37.15L67.8501 37.25L67.9501 37.35H68.0501V37.45L68.1501 37.55V37.65H68.25V37.75H68.3501L68.4501 37.85L68.5501 37.95L68.6501 38.05L68.75 38.15V38.25H68.8501V38.35V38.45L68.9501 38.55V38.65M68.9501 38.65H69.0501V38.75M68.9501 38.65V38.75H69.0501M69.0501 38.75V38.85L69.25 39.05L69.4501 39.25L69.5501 39.35L69.75 39.45L70.25 39.65L70.3501 39.75L70.4501 39.85L70.6501 39.95L70.75 40.05H70.8501H70.9501L71.0501 40.15H71.1501H71.3501L71.6501 40.35H71.75H71.8501L71.9501 40.45H72.0501L72.3501 40.35H72.4501H72.5501L72.6501 40.55H72.75V40.65L73.0501 40.95H73.1501V41.05L73.25 41.15L73.75 41.75L73.8501 41.85L73.9501 41.95L74.0501 42.05L74.25 42.25L74.3501 42.35L74.4501 42.55H74.5501V42.65H74.6501L74.75 42.75L74.8501 42.85L74.9501 42.95H75.0501V43.05L75.1501 43.15H75.25L75.3501 43.25L75.75 43.35H75.8501V43.45H75.9501H76.0501H76.1501V43.55H76.25L76.3501 43.65H76.4501V43.75L76.6501 44.05H76.75V44.15L76.8501 44.25L76.9501 44.35L77.0501 44.45L77.25 44.55H77.3501H77.4501H77.5501L77.6501 44.65H77.75H77.8501H77.9501V44.75L78.1501 44.85L78.3501 45.05L78.4501 45.15H78.5501L78.75 45.35H78.9501L79.3501 45.25H79.4501L79.5501 45.35L79.75 45.55L79.9501 45.65L80.0501 45.75H80.1501H80.25L80.4501 45.85L80.75 45.95H80.8501L81.4501 46.25L82.0501 46.35L82.1501 46.45H82.25L82.4501 46.55H82.5501H82.6501H82.75L82.8501 46.45H83.0501V46.35H83.1501V46.25L83.25 46.15L83.3501 46.05H83.4501V46.15V46.25H83.5501H83.6501V46.15H83.75M83.75 46.15V46.05H83.6501M83.75 46.15H83.8501V46.05H83.9501V45.95H84.0501V46.05V46.15L84.1501 46.35L84.25 46.45H84.3501V46.55L84.4501 46.65V46.75H84.5501L84.6501 46.85L84.75 47.05H84.8501L84.9501 47.15L85.0501 47.25H85.1501L85.5501 47.35V47.45H85.75V47.55H85.8501H85.9501L86.25 47.65H86.3501H86.4501H86.5501H86.6501L87.0501 47.45L87.6501 47.55H87.75H87.8501V47.65H87.9501L88.0501 47.75H88.1501H88.25H88.3501H88.5501V47.85H88.6501H88.75V47.95H88.8501H88.9501H89.0501H89.1501L89.6501 48.15H89.9501V48.25H90.0501H90.1501L90.3501 48.35L90.8501 48.45H90.9501H91.1501V48.35H91.25H91.3501H91.8501H91.9501H92.0501V48.45H92.25H92.4501L92.5501 48.55L92.75 48.65L92.9501 48.75H93.0501L93.25 48.85V48.95H93.3501L93.4501 49.05H93.5501V49.15H93.6501L93.8501 49.25H93.9501H94.0501L94.1501 49.35H94.25H94.3501L94.75 49.55L94.8501 49.65L95.4501 49.75H95.5501L95.75 49.85L96.25 49.75L96.3501 49.65L96.6501 49.55H96.9501H97.0501V49.65H97.1501L97.5501 49.85L98.0501 49.95L98.1501 49.85L98.25 49.75V49.85H98.3501V49.95V50.05V50.15H98.4501L98.5501 50.25H98.6501V50.15M98.6501 50.15H98.75V50.05M98.6501 50.15V50.05H98.75M98.75 50.05H98.8501M98.8501 50.05H98.9501V49.95M98.8501 50.05V50.15H98.9501H99.0501L99.1501 50.25V50.15H99.25V50.25H99.3501H99.4501H99.5501V50.15H99.6501V50.05H99.75H99.8501L99.9501 49.95H100.05L100.15 49.85V49.75L100.25 49.65H100.35L100.45 49.55L100.55 49.65H100.65L101.05 49.55H101.15V49.45H101.25V49.35L101.35 49.25L101.45 49.15H101.65V49.05H101.75H101.85V48.95L102.05 48.85V48.95H102.15V49.05L102.35 48.95V48.85H102.45V48.75H102.55H102.65H102.75L102.85 48.65H102.95L102.85 48.55H102.95V48.45M102.95 48.45H102.85M102.95 48.45V48.35M102.95 48.35H103.05M102.95 48.35V48.25H103.05V48.15V48.05L103.15 48.15V48.25H103.25L103.45 48.15L103.55 48.25H103.65V48.15L103.85 48.05H103.95L104.05 47.95H104.15H104.25M104.25 47.95V47.85M104.25 47.95H104.35H104.45L104.55 47.85L104.65 47.75H104.75H104.85V47.65H104.95H105.05H105.15H105.25V47.75H105.35L105.45 47.85H105.55H105.75H105.85H105.95H106.05L106.25 47.75L106.35 47.85L106.65 47.95L106.85 47.85L106.95 47.75V47.65M106.95 47.65L106.85 47.55H106.95V47.65ZM106.95 47.65H107.05M107.05 47.65V47.55M107.05 47.65H107.25V47.55H107.35L107.45 47.45H107.55L107.65 47.35H107.75V47.15H107.95H108.05V47.05H108.15V46.95L108.35 47.05V46.95L108.45 47.05H108.55H108.75H108.85L109.05 46.95L109.15 46.85H109.25H109.35L109.45 46.75H109.55H109.75V46.85L109.95 46.95V47.05H110.05H110.15H110.25L110.35 46.85V46.95H110.45H110.55H110.75L110.95 46.85H111.05V46.75H111.15V46.65L111.45 46.75L111.65 46.65L111.75 46.55H111.95V46.65H112.05L112.15 46.55H112.25V46.45H112.35V46.35H112.45V46.25H112.55L112.85 46.05L112.95 45.95L113.05 45.85L113.15 45.75L113.35 45.65V45.55H113.45H113.55V45.65H113.65M113.65 45.65V45.55M113.65 45.65H113.75L113.85 45.55V45.45H113.95H114.05H114.15M114.15 45.45V45.35M114.15 45.45H114.25L114.35 45.35H114.45H114.55L114.75 45.25V45.15V45.05H114.85V44.95H114.95V45.05H115.05H115.15H115.25H115.45V44.95H115.55V44.85L115.85 44.75V44.65V44.55M115.85 44.55H115.75M115.85 44.55H115.95V44.65H116.05M116.05 44.65V44.55M116.05 44.65V44.75H116.15H116.25H116.35L116.45 44.65H116.55V44.55M116.55 44.55V44.45M122.35 43.65V43.55H122.45H122.55V43.45H122.65V43.35H122.55V43.25H122.45V43.15H122.35V43.05H122.25H122.15L122.05 42.95H121.95L121.85 42.85L121.75 42.95H121.65V43.05L121.55 42.95H121.45V43.05L121.25 43.15H121.15V43.25H121.05V43.35H120.95V43.45H120.85V43.55H120.75V43.65H120.65L120.55 43.75H120.45H120.35V43.85H120.25H120.15V43.95H120.05H119.95V44.05L119.85 44.15H119.75L119.65 44.25L119.45 44.45L119.15 44.55H119.05H118.95L118.75 44.65H118.55H118.45L118.55 44.55H118.45V44.45L118.25 44.55L118.05 44.65V44.75H117.95L117.75 44.85L117.55 44.75H117.45L117.35 44.65L117.25 44.55V44.45L117.35 44.25H117.25L117.05 44.35H116.95L116.85 44.45V44.55H116.75H116.65H116.55M116.85 44.45H116.95V44.35M122.35 43.65V43.75H122.45V43.85M122.35 43.65H122.25L122.15 43.75V43.85M122.15 43.85L122.25 43.75V43.85H122.15ZM122.15 43.85V43.95M122.15 43.95H122.25H122.35V43.85M122.15 43.95H122.05V44.05V44.15L122.15 44.25H122.25H122.35L122.45 44.35H122.35L122.25 44.45L122.15 44.55H122.25H122.35L122.25 44.65V44.75M122.25 44.75H122.15M122.25 44.75V44.85H122.35H122.45H122.55V44.95H122.45V45.05V45.15H122.55V45.25L122.65 45.15V45.25V45.35V45.45V45.55L122.75 45.65H122.85V45.55L122.95 45.65V45.75M122.95 45.75H122.85M123.05 45.95V46.05M123.15 46.05V45.95" stroke="white" stroke-width="0.5" stroke-linecap="round" stroke-linejoin="round"/>
</svg>
