<svg width="165" height="236" viewBox="0 0 165 236" fill="none" xmlns="http://www.w3.org/2000/svg">
<path d="M46.05 235.35V235.25V235.05L45.85 234.45L47.05 233.35L47.85 232.65L48.95 231.75L51.05 230.25L53.35 227.55L49.75 228.05L49.65 229.15L49.15 229.25L48.75 228.35L48.05 226.75L46.45 223.45L45.15 219.45L45.05 216.95L45.55 211.95L49.15 206.65L47.05 207.65L45.25 208.55L43.95 209.35L43.05 209.85L41.75 211.05L39.45 210.85L36.85 209.75L33.85 208.75L32.45 208.55L30.85 208.85L29.55 209.75L26.95 210.85L25.95 210.15L25.35 209.15L25.85 208.15L26.95 206.95L28.65 205.35L27.75 204.95L26.15 205.25L23.95 205.45L19.65 205.15L19.85 203.65L20.05 202.55L19.65 201.45L18.65 201.25L17.85 201.45L17.35 201.55L16.55 201.75L16.35 201.25L16.85 200.15L16.75 198.05L16.15 196.25L16.05 195.85L15.15 194.05L14.35 192.65L12.55 191.05L11.15 189.65L10.75 188.85L10.25 187.85L9.95001 186.15L10.95 184.45L9.65002 183.75L8.84998 183.25L8.65002 183.15L7.45001 182.25L6.54999 181.65L5.75 179.85L5.95001 179.15V177.75L6.65002 176.65L7.84998 174.85L9.54999 172.95L11.45 170.15L13.65 166.35L15.65 163.65L17.35 161.85L19.85 159.95L21.05 158.65L21.85 156.65L23.45 153.65L25.15 151.75L26.85 150.45L27.55 149.45L28.15 149.15L28.55 148.95L29.05 148.55H29.45L29.85 149.25L30.45 149.45L30.95 149.55L31.35 149.75L32.25 149.95L33.65 150.55L36.45 151.75L41.35 151.55L47.05 150.45L51.75 149.45L57.85 148.15L60.45 147.05L62.35 145.75L64.15 144.25L64.65 142.85L64.25 141.75L63.25 140.25L62.75 139.25L61.55 138.05L60.35 136.45L59.35 135.35L57.15 133.75L56.85 133.45L55.65 132.15L52.95 129.85L49.35 126.35L48.95 125.95L48.35 125.35L47.75 124.75L47.25 124.25L46.65 123.65L46.15 123.15L45.75 122.85L46.05 122.55L46.45 122.15L46.75 121.95L47.35 121.75V121.05V120.55L47.75 120.25L48.05 119.75L48.85 119.55L49.25 119.45L50.15 118.15L51.25 117.45L52.05 116.55L52.95 115.45L52.85 113.85L54.55 111.95L55.85 111.15L56.25 110.85L57.65 109.25L56.95 107.15L54.35 107.35L52.65 107.25H51.25L49.25 107.45L47.95 107.35L46.95 107.25L44.75 106.55L43.45 106.35L41.95 105.75L40.15 104.15L39.35 102.95L37.25 101.95L36.75 101.05L34.75 100.05L33.35 98.25L32.15 98.05L31.35 98.95L30.85 100.65L29.95 101.95L29.05 103.15L28.45 104.15L27.15 105.75L26.35 106.95L25.15 108.75L22.85 109.55L21.95 111.15L20.55 112.65L17.15 114.05L14.25 118.05L16.05 119.45H16.75L17.55 120.25L17.05 120.85L16.75 121.25L16.25 121.85L15.95 122.25L15.65 122.65L15.45 122.95L15.25 123.15L14.95 123.35L14.75 122.55L14.85 122.15V121.65L14.75 121.25L14.15 120.35L13.35 119.45H12.55L12.05 120.75L10.45 121.05L10.25 122.15L9.54999 122.95L8.75 123.05H7.65002L6.25 122.45L5.15002 122.85L3.65002 122.25L2.65002 121.15L1.95001 120.45L0.950012 120.05V119.15L1.45001 118.45L1.84998 117.35L2.25 116.05V115.15H1.04999L0.849976 114.65L0.450012 114.45L0.25 113.55H2.15002L2.54999 112.85L1.34998 112.35L5.25 110.45L6.25 110.05L6.75 109.95L7.34998 110.05L8.15002 109.45L8.84998 109.15V108.65L8.75 108.25L8.54999 107.45L8.45001 106.95L8.34998 106.45L8.45001 106.25L8.54999 106.15H8.15002L8.04999 106.05L8.25 105.65L8.65002 104.95L9.15002 104.35L9.34998 104.15L9.45001 103.95L9.54999 103.85L9.75 103.75L9.84998 103.65L9.95001 103.55L10.05 103.45L10.15 103.35L10.35 103.25L10.45 103.15L10.55 102.95L10.65 102.75L10.75 102.55L10.85 102.25L11.05 101.95L11.15 101.55L11.35 101.25L11.55 100.55L11.65 100.25L11.85 99.75L11.95 99.45V99.15L11.75 98.65V98.15L11.55 97.75L11.45 97.55L11.65 97.25L11.85 96.55V96.15L12.05 95.55V95.35L12.15 94.85L12.35 94.25L12.45 94.05H12.75L12.95 93.85L13.05 93.55L13.25 93.35L13.55 93.45L13.75 93.25V92.95L14.15 92.75L14.55 92.65L14.95 92.35L15.45 91.95L15.95 91.85L15.55 91.55L15.35 91.35L14.85 90.95L14.55 90.85V90.75L14.45 90.45L14.55 89.95L14.75 89.55L14.85 89.25L15.05 88.85L15.15 88.35L15.25 87.75L15.35 87.05L15.25 86.35L15.35 85.85L15.45 85.45L15.55 84.95L15.65 84.85L15.25 84.25L15.55 83.65L15.65 83.05V82.65L15.75 81.95L15.95 81.45L16.05 80.65L16.15 79.95L16.35 79.45L16.45 78.95L15.75 78.75L15.15 78.95L14.45 78.55L13.65 78.35L13.15 78.15H12.85L12.25 78.05L12.45 77.75H12.75L12.85 77.85L13.05 77.75L13.15 77.65L12.95 77.35L12.65 77.15L12.55 76.95L12.65 76.75L12.85 76.65V76.45V76.15L12.75 75.95L12.55 75.85H12.25H11.95H11.75L11.55 75.75L11.45 75.55L11.35 75.25L11.25 74.95H11.35L11.55 74.85V74.65V74.25L11.35 73.95L11.25 73.65L11.15 73.35V73.15L11.25 73.05L11.35 72.85H11.65H12.05H12.25L12.45 72.95L12.65 73.15L12.85 73.05L13.05 72.95H13.25H13.65L13.95 72.85L14.35 72.45L14.65 72.15L14.85 71.85L15.05 71.45L15.25 71.05L15.45 70.85L15.25 70.65L14.95 70.55V70.35V69.65V69.45L15.15 69.15V68.85L14.95 68.75L14.65 69.05L14.35 68.85L14.15 68.75L14.25 68.45L14.45 68.25L14.55 68.05L14.85 67.85V67.65L14.95 67.45L15.25 67.25H14.95L14.85 66.95V66.55L15.05 66.45L15.35 66.25L15.45 66.05H15.05H14.75L14.35 66.15L14.65 65.45L14.95 64.75L15.05 64.35L14.85 64.15L14.55 63.95L14.75 63.65L14.95 63.35L15.65 63.05L16.25 62.75L16.85 62.35L17.15 62.25L17.45 62.05V61.85L17.65 61.75L18.05 61.25L18.25 61.05L18.35 60.85L18.55 60.65L18.75 59.85L18.95 59.45L19.15 58.85L19.25 58.55H19.55L19.75 58.45V58.25L19.65 58.15L19.55 58.05L19.65 57.85L19.85 57.65L20.15 57.55L20.05 57.45L19.85 57.35L19.75 57.15L19.65 57.05L19.55 56.85L19.45 56.75L19.55 56.55H19.45L19.35 56.35L19.25 56.15L19.15 56.05H19.05L18.95 55.95L18.85 55.75L18.95 55.55L19.05 55.35L19.15 55.15L19.25 54.95L19.45 54.85V54.75L19.35 54.45L19.05 54.05L18.85 53.55L18.75 53.25L18.65 53.05V52.85L18.75 52.75H18.85L19.25 52.95L19.75 53.05L20.25 52.85L20.75 52.45V52.35V52.05L20.85 51.85L21.05 51.65L21.25 51.55L21.55 51.65L21.65 51.85V52.15L22.05 52.35L22.35 52.45L22.85 52.55H23.55H24.15L24.95 52.35L25.35 52.15L25.65 52.05L25.55 50.35L25.95 49.45L26.95 48.35L28.25 47.65L27.15 46.35L26.75 45.15L27.15 44.15L27.85 42.65L28.15 42.05V40.85V39.45L27.55 38.55L26.35 38.25L25.25 38.35L24.15 38.45L22.75 38.25L21.45 38.35L19.75 38.55L19.15 37.35L19.35 36.15L18.85 35.75L17.65 36.15L16.45 35.85L16.25 35.75V35.45L16.15 35.15L16.05 34.95L15.95 34.65L15.75 34.25V33.75L16.25 33.05L15.95 32.75L16.45 31.35L16.55 31.15L16.75 30.45L16.95 29.45L16.85 29.35V29.25V29.15H16.75V29.05V28.95V28.85H16.65V28.75V28.65V28.55V28.45H16.75V28.35V28.25V28.15L16.65 28.05V27.95L16.55 27.85H16.45V27.75V27.65V27.45V27.35H16.35V27.15V26.95V26.75V26.55L16.45 26.35V26.25V26.15L16.35 26.05V25.95V25.75L16.45 25.65V25.45V25.35H16.55L16.65 25.15V25.05L16.75 24.95V24.75V24.65V24.55V24.45V24.35V24.25V24.15V24.05V23.95V23.85L16.65 23.75V23.65V23.55L16.75 23.45L16.55 22.45L16.45 22.25L16.55 20.95L16.65 20.15V20.05L16.75 19.85L16.95 18.85L16.65 18.25L16.95 17.95L17.05 17.55L17.15 17.35L16.55 16.65L16.05 15.75L16.15 15.65H16.25H16.35H16.55L16.75 15.55L16.95 15.45L17.35 15.35L17.75 15.05L18.05 14.95L18.15 14.85L18.25 14.75L18.35 14.65L18.45 14.55H18.55V14.45H18.65V14.35L18.75 14.25V14.05L18.85 13.85L19.05 13.75L19.15 13.55V13.25L19.25 12.75V12.55L19.35 12.35V12.15V12.05L19.45 11.95V11.75V11.65V11.55V11.45H19.55V11.35L19.65 11.25L19.75 11.05H19.85V10.95L19.95 10.85V10.95H20.05H20.15H20.25L20.35 10.85H20.45L20.55 10.75L20.65 10.45H20.85L20.95 10.35H21.05H21.15L21.35 10.25L21.45 10.15L21.55 10.25V10.35H21.75V10.25H21.85V10.15L21.95 10.05H22.05H22.15L22.25 9.95V10.05H22.35L22.45 10.15L22.65 10.05L22.85 10.15H22.95L23.25 10.25H23.35L23.55 10.15V10.25H23.65H23.75V10.35V10.55V10.65H23.85L23.95 10.85H24.05L24.15 10.95H24.05L24.15 11.05L24.35 11.25L24.45 11.35L24.55 11.45L24.75 11.55L24.85 11.65H24.95L25.15 11.75L25.25 11.85L25.45 12.05H25.55H25.65L25.85 12.15L26.05 12.35L26.15 12.45L26.25 12.55H26.35V12.65H26.45H26.55L26.65 12.75L26.75 12.85H26.85V12.95L26.95 13.05L27.05 13.15L27.15 13.25H27.35L27.45 13.35L27.55 13.45L27.65 13.55L27.85 13.65H27.95L28.05 13.75L28.15 13.85L28.25 13.95L28.45 14.05L28.65 14.15L29.05 14.25L29.25 14.35H29.45L29.55 14.45L29.65 14.35H29.75H29.85V14.25H29.95L30.15 14.35H30.25H30.35L30.45 14.45V14.35L30.55 14.45H30.65L30.85 14.55H31.05H31.25L31.35 14.65L31.55 14.75L31.75 14.95H31.85L31.95 15.05H32.05L32.15 15.15H32.25L32.35 15.25H32.45H32.55V15.35L32.85 15.45H32.95L33.15 15.55L33.65 15.75H33.95H34.35L34.65 15.65H34.75L35.25 15.45H35.35H35.45L35.55 15.35H35.65L35.55 15.25H35.65V15.35V15.45L35.75 15.35V15.55V15.65H35.85V15.75L36.05 15.85H36.25V15.95L36.95 16.15H37.25H37.35V16.25H37.45V16.15H37.65L38.15 16.25H38.25H38.35H38.45H38.55V16.35L38.75 16.25L38.85 16.35L39.05 16.45L39.25 16.35L39.45 16.45V16.35H39.65H39.75L39.85 16.45V16.35H39.95H40.15H40.25H40.35V16.45H40.45H40.55H40.65V16.55H40.75H40.95V16.65H41.45H41.65L42.25 16.35L42.35 16.25L42.75 15.95L42.85 15.85L42.95 15.75V15.65H43.05H43.15V15.55H43.25V15.45L43.45 15.35H43.55H43.65V15.25H43.75H43.85H44.05L44.15 15.15L44.35 15.05L44.45 15.15L44.65 15.05L44.75 14.95L44.85 15.05H44.95V14.95H45.05H45.15L45.65 14.85H45.75L45.85 14.75H45.95L46.05 14.65V14.55H46.15H46.25V14.45H46.35V14.55H46.45V14.45H46.55V14.55L46.65 14.45H46.75V14.35V14.25H46.85H46.95H47.05H47.15L47.25 14.35H47.35V14.25H47.45L47.55 14.15H47.65L47.75 13.95H47.85H47.95H48.15H48.25V14.15H48.35H48.65L48.85 14.05L48.95 13.95H49.05H49.15L49.25 13.85H49.35L49.45 13.75L49.55 13.65H49.65L49.75 13.55L49.85 13.45L50.05 13.35L50.15 13.15L50.35 13.05V12.95L50.45 12.85H50.55L50.65 12.75L50.75 12.55L50.85 12.45L50.95 12.35V12.25H51.05L51.25 11.95L51.35 11.85L51.45 11.75L51.55 11.65V11.55L51.65 11.45V11.35H51.75V11.25H51.85V11.15V11.05V10.95H51.95V10.85L52.05 10.75H52.15V10.65V10.55H52.25V10.45V10.35V10.25H52.35H52.45V10.35H52.55H52.65H52.75H52.85V10.45V10.55H52.95V10.65H53.05V10.75H53.15V10.85H53.25H53.35V10.95H53.45L53.55 11.05L53.95 10.95H54.05V10.85H54.35L54.45 10.75V10.65H54.55L54.75 10.55H54.85V10.45H54.95V10.35H55.05V10.25H55.15V10.15H55.25V10.05H55.35V9.95H55.45V9.85001V9.75H55.55H55.65V9.65H55.75V9.55V9.45H55.85V9.35001L55.95 9.25V9.15H56.05V9.05H56.15V8.95V8.85001H56.25V8.75H56.35V8.65V8.55H56.45V8.45H56.55V8.35001H56.65V8.25V8.15H56.75V8.05V7.95V7.85001H56.85V7.75V7.65H56.95V7.55V7.45H57.05V7.35001V7.25H57.15V7.15H57.25V7.05V6.95V6.85001H57.35H57.45V6.75V6.65V6.55H57.55V6.45H57.65V6.35001V6.25V6.15H57.75V6.05V5.95H57.85V5.85001V5.75V5.65V5.55H57.95V5.45H58.05V5.35001V5.25H58.15V5.15V5.05H58.25V4.95V4.85001H58.35V4.75V4.65H58.45V4.55V4.45H58.55V4.35001H58.65V4.25V4.15V4.05V3.95H58.75V3.85001H58.85V3.75V3.65H58.75V3.55H58.85L58.75 3.45H58.85L58.95 3.35001H58.85H58.75V3.25L58.65 3.15H58.75H58.85H58.95V3.25H59.05V3.15V3.05H59.15V2.95V2.85001H59.05V2.75H58.95V2.85001H58.85V2.75H58.75V2.65H58.85V2.55H58.95H59.05V2.45H58.95V2.35001V2.25H59.05H59.15V2.15H59.05V2.05H59.15H59.25V1.95H59.35V1.85001H59.45V1.75V1.65H59.55V1.55H59.45V1.45H59.55V1.35001V1.25V1.15V1.05V0.950005V0.850006V0.75H59.65V0.650002V0.550003H59.75V0.650002H59.85V0.550003H59.95V0.650002H60.05H60.15H60.25V0.550003H60.35V0.450005H60.45V0.350006L60.55 0.450005V0.25V0.350006L60.75 0.25V0.350006L60.85 0.550003H60.95L61.05 0.450005H61.15V0.350006H61.25L61.35 0.450005L61.55 0.550003V0.450005H61.65V0.550003V0.650002H61.75L61.85 0.950005L61.95 1.05V1.25L61.75 1.35001L61.65 1.45L61.35 1.55V1.65V1.85001H61.25V1.95L61.15 2.05V2.15L61.25 2.35001H61.35V2.45H61.45V2.55H61.55V2.65V2.75V2.85001H61.45V2.95L61.35 3.15H61.25V3.35001V3.55L61.35 3.75H61.45V3.85001H61.35V3.95L61.15 4.05V4.15H61.05L61.15 4.35001L61.05 4.45L60.95 4.75V4.85001L60.85 4.95V5.15V5.45L60.95 5.55H61.15V5.65H61.25V5.75V5.85001H61.35V5.95V6.05H61.45V6.15H61.55V6.25V6.35001V6.45V6.55L61.45 6.65V6.75H61.35L61.45 6.85001V6.95H61.35V7.05V7.15V7.25V7.35001H61.45L61.35 7.45H61.45V7.55H61.55V7.65H61.65L61.75 7.75V7.85001L61.85 7.95V8.05L61.55 8.15L61.35 8.45L61.15 8.85001V9.95L61.25 10.15L61.55 10.45L62.35 11.25L63.05 11.05L63.15 10.95V11.05L63.45 10.85V10.75L63.55 10.85H63.65L63.45 10.65L63.55 10.55H63.65L63.75 10.75H63.85V10.65H63.75V10.55L63.85 10.65V10.75L63.75 10.85L63.65 11.05L63.45 11.45L63.35 11.55L63.45 11.65L63.55 11.75L64.15 12.45L64.25 12.65L64.35 12.75L64.55 12.85V12.95L64.65 13.05L64.75 13.15V13.25H64.85L64.95 13.35V13.45H65.05L65.15 13.55V13.65H65.25L65.35 13.75L65.45 13.85L65.55 14.05L65.65 14.15L65.85 14.35L65.95 14.45L66.15 14.65L66.25 14.75L66.35 14.85L66.45 14.95L66.55 15.05H66.65H66.75L66.65 15.15V15.25L66.35 15.05H66.15H66.05L65.95 15.15V15.05V14.95V14.85H65.85V14.95L65.75 14.65V14.55V14.45H65.65L65.55 14.25L65.45 14.15H65.35V14.05V13.95H65.25V13.85H65.15V13.75L65.05 13.65H64.95V13.55H64.85V13.45H64.55H64.65V13.25H64.55V13.35H64.45H64.35L64.45 13.45H64.35V13.35V12.95L64.25 12.85L64.15 12.75H64.05H63.95V12.65H63.85H63.75V12.45V12.35L63.65 12.25V12.15H63.55V12.25L63.45 12.15H63.55V12.05H63.45V11.95H63.35V12.05H63.25V12.15V12.25H63.15V12.35H63.05V12.45H62.95L63.05 12.55V12.65L62.95 12.75V12.85V12.95V13.05V13.15L63.05 13.35V13.45H63.15V13.55L63.25 13.65V13.95V14.05H63.35V14.15H63.45V14.25H63.55V14.35V14.45V14.55H63.65H63.75L63.95 14.45L64.05 14.55H64.15H64.25H64.35L64.25 14.65H64.35H64.45H64.55V14.75L64.65 14.85V15.05H64.55V15.15L64.45 15.25H64.35L64.25 15.15H64.15V15.05H64.05V14.95H63.95V15.05V15.15V15.25V15.35H63.85V15.45H63.75H63.65H63.55V15.55H63.65L63.55 15.65L63.45 15.75H63.35H63.25V15.85V15.95V16.05H63.15V16.15V16.25H63.25V16.35V16.45V16.55V16.65L63.35 16.85L63.45 17.05L63.55 17.15V17.25H63.65V17.35V17.45L63.75 17.35V17.45H63.85V17.55H63.75L63.85 17.65L63.95 17.95L64.05 18.05H64.15H64.25L64.35 18.15V18.25H64.25V18.35H64.35V18.45V18.55V18.65V18.75H64.45V18.65V18.55V18.75L64.35 18.65L64.25 18.55V18.65H64.35V18.75V18.85L64.45 18.95L64.65 19.25L64.75 19.45H64.85L64.95 19.55L65.05 19.65L65.15 19.75L65.25 19.85H65.35V19.95H65.45V20.05H65.55L65.65 20.15H65.75L65.85 20.25H65.95L66.15 20.35L66.25 20.45H66.35L66.45 20.55H66.65H66.75V20.65V20.75H66.85H66.95V20.85L67.25 20.95L67.35 21.05H67.45L67.55 21.15L67.75 21.25L68.05 21.45L68.15 21.55H68.25L68.45 21.65L68.65 21.75H68.85H68.95L69.05 21.85L69.15 21.95H69.25H69.55H69.85H69.95H70.15V21.85L70.25 21.95H70.35H70.45H70.65L70.85 22.05L71.45 22.15L71.75 22.25H71.85H71.95H72.15L72.25 22.15L72.35 22.05L72.45 21.95V21.75L72.55 21.65L72.65 21.45L72.75 21.25H72.65V21.15H72.55L72.45 20.95L72.35 20.85L72.15 20.75V20.65L72.05 20.55H71.75L71.85 20.65H71.95L71.85 20.75H72.05V20.85L71.85 20.75L71.65 20.45H71.55V20.35L71.25 19.85L71.15 19.75L70.95 19.65H70.85V19.75L70.75 19.65L70.65 19.55L70.55 19.45V19.35V19.25V19.15L70.45 18.95V18.85V18.75H70.35H70.25V18.65H70.15H70.05V18.55H69.95L69.85 18.45H69.75V18.35H69.65V18.25H69.55H69.45V18.15H69.35V18.05H69.25V17.95H69.15V17.85H69.05V17.75V17.65H68.95V17.55H68.85V17.45H68.75L68.65 17.35H68.55V17.25H68.45V17.15H68.35V17.05L68.25 16.95V16.85H68.15V16.75V16.65H68.05V16.55L67.95 16.45H67.85V16.35H67.75H67.65V16.25H67.55V16.15L67.45 16.05H67.35H67.25H67.15H67.05L66.95 15.95V15.85V15.75H66.85H66.75V15.65H66.65V15.55L66.55 15.65V15.75L66.85 15.35V15.15H66.95L66.85 15.25L66.95 15.35V15.45H67.05V15.55H67.15V15.65L67.25 15.75H67.35V15.85H67.45V15.95H67.55L67.65 15.85V15.95H67.55H67.45V16.05L67.55 16.15L67.65 16.05V16.15H67.75L67.85 16.25V16.35H67.95V16.45H68.05L68.15 16.55V16.65L68.35 16.75H68.45V16.85H68.55V16.95H68.65V17.05H68.75V17.15H68.85V17.25H68.95V17.35H69.05V17.45H69.15V17.55H69.25L69.35 17.65L69.45 17.75L69.55 17.85L69.65 17.95H69.75V18.05L69.85 18.15H69.95V18.25H70.05V18.35H70.15L70.25 18.45L70.35 18.55L70.45 18.65H70.55V18.75V18.85H70.65V18.95H70.75V19.05H70.85V19.15H70.95V19.25H71.05V19.35H71.15L71.25 19.45V19.55H71.35L71.45 19.65L71.55 19.75L71.65 19.85H71.75V19.95H71.85L71.95 20.05H72.05V20.15H72.15H72.25V20.25H72.35L72.45 20.35H72.55V20.45H72.65V20.55H72.75V20.65H72.85H72.95L73.05 20.75H73.15L73.25 20.65L73.35 20.75L73.45 20.85H73.55L73.65 20.95L73.75 20.85L73.85 20.95L73.95 21.05L74.15 21.15L74.25 21.25L74.45 21.35H74.55V21.45H74.65L74.75 21.55H74.85H74.95V21.65H75.05V21.75H75.15L75.25 21.85H75.35V21.95H75.45H75.55V22.05H75.65V21.95H75.75V22.05H75.85V22.15H75.95H76.05H76.15H76.25V22.25H76.35V22.15H76.45H76.55V22.25H76.65H76.75L76.85 22.35H76.95V22.45H77.05H77.15L77.25 22.55H77.35H77.45V22.65H77.55H77.65L77.75 22.75H77.85H77.95H78.05H78.15H78.25H78.35V22.85H78.45H78.55H78.65H78.75V22.95H78.85H78.95H79.05H79.15H79.25H79.35H79.45H79.55H79.65L79.75 23.05H79.85H79.95H80.05H80.15V22.95H80.25H80.35H80.45L80.55 23.05H80.75H80.85H80.95H81.05V23.15H81.15H81.25H81.35L82.15 23.35L82.25 23.25H82.55L82.65 23.15H82.95H83.05H83.15H83.25H83.35V23.05H83.45H83.55H83.65H83.75H83.85L83.95 22.95H84.05V22.85H83.95L84.05 22.75V22.85H84.15H84.25H84.35V22.75L84.45 22.85L84.55 22.75L84.65 22.65H84.75L84.85 22.55V22.65L85.05 22.55H85.15L85.25 22.45H85.35V22.35V22.25H85.45H85.55V22.15H85.65H85.75V22.25H85.85V22.15H85.95V22.05L86.05 22.15L86.15 22.05L86.25 21.95H86.35V21.85L86.45 21.95V21.85H86.55L86.65 21.75V21.65H86.75L86.85 21.55L86.95 21.45L87.05 21.35H87.15V21.25L87.45 21.05V20.95L87.75 20.85V20.65H87.95V20.55H88.15L88.35 20.25V20.15H88.45V20.05H88.55L88.65 19.95V19.85H88.75V19.75H88.85V19.65H88.95V19.55L89.05 19.45L89.15 19.35H89.25V19.25H89.35L89.45 19.05H89.55H89.65H89.75H89.85V19.15L89.75 19.05H89.65V19.15V19.25H89.75L89.85 19.35L90.25 19.55L90.45 19.65L90.55 19.75L91.15 19.95L91.75 20.15L92.55 20.35H92.65H92.75L92.85 20.45H92.95H93.05L93.15 20.55H93.25H93.35H93.45H93.55H93.65H93.75H93.85H93.95H94.05H94.15L94.35 20.65L94.55 20.75L94.85 20.85L95.05 20.95L95.35 21.05L95.65 21.15H95.75L95.95 21.25H96.05L96.15 21.15V20.95H96.25L96.45 21.05L96.35 20.95H96.25L96.15 21.05V21.15V21.25H96.35V21.35H96.45V21.45H96.35H96.25V21.35L96.15 21.55H96.25H96.35L96.45 21.65V21.55V21.45V21.35V21.25V21.45H96.55L96.65 21.55H96.75V21.65H96.85H96.95V21.75H97.05H97.15V21.85H97.25L97.45 21.95H97.55V22.05H97.65H97.75V22.15H97.85H97.95L98.15 22.25L98.25 22.35H98.35H98.45V22.45H98.65H98.75V22.55H98.85H98.95H99.05L99.15 22.65H99.25H99.35V22.75H99.45H99.55H99.65V22.85H99.75H99.85H99.95L100.05 22.95H100.15H100.25H100.35V23.05H100.45H100.55H100.65H100.75V23.15V23.25V23.35V23.45H100.65V23.75V23.85V23.95V24.05H100.55V24.15H100.65V24.25V24.35V24.45L100.75 24.55V24.65V24.75V24.85H100.65V24.95V25.05V25.15V25.25H100.55V25.35H100.45H100.35V25.45H100.45V25.55H100.55H100.65V25.65V25.75H100.75V25.65H100.85V25.75H100.95V25.85V25.95H101.05H101.15H101.25L101.15 26.05V26.15H101.25V26.05H101.35H101.45V26.15H101.55H101.65V26.25V26.35L101.75 26.45V26.55H101.85H101.95H102.05H102.15H102.25V26.65H102.15V26.75V26.85H102.05V26.95H102.15H102.25V27.05V27.15V27.25H102.35V27.35H102.45L102.55 27.45L102.45 27.55H102.55H102.65H102.75H102.85L102.75 27.65V27.75H102.85L102.95 27.85V27.95H103.05V28.05L103.15 28.15H103.25V28.05H103.35L103.45 27.95L103.55 28.05L103.45 28.15V28.25H103.55L103.65 28.15L103.75 28.25L103.95 28.35L104.05 28.45L104.15 28.55H104.25H104.35H104.45H104.55H104.65H104.75V28.65H104.85V28.75H104.95H105.05H105.15V28.85L105.25 28.95L105.35 28.85V28.95L105.25 29.05H105.35V29.15H105.45V29.25H105.35V29.35H105.45L105.35 29.45V29.55H105.45V29.65L105.55 29.75V29.65L105.65 29.75V29.85H105.75V29.95V30.05H105.85L105.95 30.15L106.05 30.05V30.15V30.25L106.15 30.35V30.45H106.25H106.35V30.55V30.65H106.45L106.55 30.75H106.65H106.75V30.85V30.95H106.85V31.05V31.15H106.95V31.25H107.05V31.35H107.15V31.45H107.25L107.35 31.55V31.65L107.45 31.75H107.55L107.65 31.85H107.75V31.95H107.85L107.95 32.05H108.05H108.15V32.15H108.25V32.25H108.35V32.35H108.45V32.45H108.55H108.65H108.75V32.55H108.85V32.65H108.95V32.75H109.05V32.85H109.15L109.25 32.95V33.05H109.35V33.15H109.45V33.25H109.55H109.65V33.35H109.75H109.85H109.95H110.05H110.15L110.25 33.25H110.35H110.45V33.15H110.55H110.65H110.75V33.05H110.85H110.95L111.05 32.95H111.15H111.25H111.35H111.45H111.55V33.05H111.65H111.75H112.05V32.95H112.15L112.25 33.05V32.95H112.35H112.45H112.55V32.85H112.65H112.75V32.75H112.85H112.95V32.65H113.05H113.15H113.25V32.75V32.85V32.95V33.05V33.15V33.25V33.35V33.45V33.55V33.65V33.75V33.85V33.95V34.05L113.35 34.45V34.55V34.65H113.25V34.75V35.15V35.25V35.35V35.45V35.55L113.35 36.05L113.65 36.35H113.75V36.45H113.85V36.55H113.95H114.05V36.65H114.15V36.75H114.25H114.35H114.45V36.85L114.55 36.95L116.75 38.05L116.95 38.15L117.15 38.35L117.25 38.55L117.45 38.65V38.85L117.55 39.35V39.45V39.55H117.65V39.65V39.75V39.85V39.95V40.05V40.15V40.25V40.35V40.55V40.65L117.75 40.85V40.95H117.85H117.95H118.05L118.25 41.05H118.35H118.45H118.55H118.65L118.85 41.15H118.95H119.05H119.15H119.25V41.25H119.35V41.35H119.45L119.55 41.45L119.65 41.55L119.75 41.65H119.85V41.75H119.95L120.05 41.85V41.95L120.15 42.05V42.15H120.25H120.35L120.65 42.25L120.95 42.35L121.25 42.45L121.45 42.55V42.45H121.55L121.65 42.55L121.75 42.65V42.75L121.65 42.85H121.75L121.85 42.95L121.95 43.05H122.05L122.25 43.15H122.35H122.45H122.55V43.25H122.65V43.35H122.75V43.45H122.85V43.55H122.95H123.05H123.15H123.25L123.35 43.65H123.45V43.75H123.55H123.65L123.75 43.85H123.85V43.95H123.95L124.05 44.05H124.15V44.15H124.25V44.25H124.35H124.45L124.55 44.35H124.65H124.75V44.45H124.85H124.95V44.55V44.65H125.05H125.15L125.25 44.75L125.45 44.85L125.55 44.95V45.05H125.45H125.35V45.15H125.25L125.05 45.25L124.95 45.35H124.85V45.45H124.75V45.55H124.65L124.55 45.65H124.45V45.75H124.35V45.85H124.25V45.95H124.15V46.05H124.05V46.15H123.95H123.85V46.25V46.35L123.95 46.45H123.85V46.55V46.65V46.75L123.75 46.85L123.85 46.95L123.75 47.45V47.55V47.65H123.65V47.75V47.85H123.55V47.95V48.05H123.45L123.35 48.15H123.25V48.25H123.15V48.35H123.05V48.45L122.95 48.55L122.85 48.65V48.75H122.75V48.85H122.65V48.95L122.55 49.05V49.15H122.45V49.25V49.35L122.35 49.45V49.55H122.25V49.65H122.15V49.75V49.85H122.05V49.95H121.95V50.05H121.85V50.15H121.75L121.65 50.25H121.55V50.35V50.45V50.55L121.35 50.75L121.25 50.95L121.05 51.25L120.95 51.45H120.85V51.55L120.75 51.75L120.65 51.95L120.55 52.05V52.15L120.45 52.25V52.35L120.35 52.25V52.35H120.25V52.45H120.15V52.55H120.05V52.65H119.95V52.75H120.45L121.15 53.05L122.35 55.15H122.45V55.25L122.55 55.55V55.65L122.65 55.75L122.75 55.85L122.95 55.95V56.05V56.35L122.85 56.45V56.65L123.05 56.75V56.85L123.25 57.15L123.45 57.35L123.75 57.55L123.95 57.75L124.05 57.85L124.15 58.05V58.25L124.25 58.55L124.45 58.75L124.65 58.65L124.75 58.75L124.65 59.05L124.35 59.15L124.75 59.25L125.35 59.65L125.45 60.05L125.85 60.25H125.95L126.25 60.05L126.55 60.15L126.85 60.45H126.95L127.25 60.55H127.35V60.65L127.45 60.75L127.75 60.85H127.85H127.95L128.25 60.95L128.35 61.15L127.95 61.55L127.85 61.65L127.75 61.75V61.85V61.95H127.65L127.55 62.05L127.35 62.35L126.65 63.05L125.95 64.05L125.45 64.75L124.65 65.65L124.35 66.05L123.45 67.15L123.35 67.25L123.65 68.05L123.85 68.45L124.15 68.75L124.55 69.05L124.65 69.15L124.75 69.25H124.85V69.35H124.95V69.45L125.05 69.55L125.15 69.65L125.25 69.75L125.35 69.85V69.95L125.45 70.05L125.55 70.15H125.65L125.75 70.25V70.35H125.85V70.45L125.95 70.55V70.65L126.05 70.75L126.15 70.95H126.25V71.05L126.35 71.15V71.35L126.45 71.45L126.55 71.65L126.65 71.75L126.75 71.85L126.85 72.05L126.95 72.15L127.05 72.35L127.15 72.55L127.25 72.65L127.35 72.85V72.95V73.05L127.25 73.15V73.25L127.15 73.45V73.65L127.05 73.85L127.25 75.05L127.05 75.75L127.35 76.35L127.25 77.65L127.45 78.35L127.75 78.95L127.95 79.55L129.45 83.15L130.55 85.55L130.45 85.75L128.75 95.45L127.75 100.55L129.35 106.65L126.15 109.15L125.85 110.45L125.65 111.25L126.45 111.65L126.55 111.75L127.15 112.05L127.25 112.35L127.35 112.65L127.55 112.75L127.85 112.85H128.05H128.35H128.75L129.05 112.55L129.85 112.45L130.15 112.55L130.45 112.85V113.25L130.55 113.75L130.85 114.45L130.95 114.95L131.25 115.65L131.55 116.05H131.65L131.75 116.15L132.05 116.25L132.45 116.35L132.95 116.65L133.15 117.25L132.95 117.45L133.05 117.65V117.85L132.95 117.95V118.05V118.25L133.05 118.35V118.45V118.65L132.95 118.75L132.85 119.15V119.25L132.95 119.35L133.15 119.25L133.25 119.35V119.45V119.55L133.15 119.65L133.25 119.75V119.85L133.15 119.95V120.25L132.75 120.35L132.85 120.45V120.55L132.95 120.75V120.85V120.95L133.25 121.45L133.55 121.85V122.05L133.25 122.55L132.95 123.15L132.85 123.55L132.65 123.85L132.55 123.95V124.05H132.45L132.35 124.15L132.25 124.25L131.85 124.65V124.75V125.35L131.95 125.45H132.05V125.75L131.95 125.95L131.85 126.05L131.65 126.45H131.75L131.85 126.65V127.25L131.45 127.85V128.25L131.15 128.45L130.65 128.75L130.55 128.95L130.45 129.05V129.75L130.05 130.25L129.75 131.45L129.65 131.65V132.35V133.35V133.55L129.75 133.65V133.75L129.95 134.15L129.75 135.25L129.85 135.65V135.75V136.05V136.45L129.55 136.85V137.35L129.25 137.65L129.45 138.35L129.55 138.45L129.65 138.65L129.75 138.85L129.85 138.95L129.95 139.25L130.25 139.45L130.45 139.55L130.55 139.65L130.65 139.85L130.85 140.15L130.95 140.45L131.45 141.35L131.65 141.55L131.95 141.65L132.15 141.75L132.35 141.85L132.55 141.95V142.05L132.65 142.15L132.95 142.55L133.05 142.65V142.75V143.15L133.45 143.65V143.75L133.85 144.45V144.65H133.95L134.05 145.15L134.15 145.45L134.25 145.65L134.15 145.75L134.25 145.95L134.35 146.15L134.75 146.45L135.15 147.15L135.45 147.35L135.55 147.45L135.95 147.85L136.25 148.15V148.25V148.35L136.35 148.55L137.25 149.15L137.45 149.45L137.75 149.55H138.25L138.65 149.95H138.75L138.95 150.15V150.25H139.05L139.15 150.35H139.25L139.45 150.55L139.55 150.65L139.65 150.95L139.85 151.45V151.55L139.95 151.85V151.95L140.05 152.15L140.15 152.55L140.05 153.05L139.75 153.35L139.55 154.05V154.95L139.65 155.15L139.55 155.35L139.45 155.55L139.25 156.05L139.05 156.45L138.85 156.85L138.55 157.25L138.35 157.35L138.05 157.25H137.55L137.25 157.35L136.85 157.55L136.45 157.75V157.85L136.15 157.95H135.95L136.05 158.15L137.45 160.45L137.65 160.65L138.25 161.65L138.75 162.45L139.25 163.35L144.35 171.45L145.25 171.85L146.85 172.65L149.25 173.85L149.95 174.25L150.15 174.35H150.25V174.45L158.85 181.05L162.35 183.75L163.85 184.55L164.15 184.95L164.25 185.15V185.25H164.35L164.45 185.35V185.45V185.55V185.65L164.55 185.75H164.45V185.95V186.05L164.35 186.25L163.55 186.75L163.05 187.35L162.65 187.65L162.35 187.95L162.05 188.15L161.95 188.75L161.35 189.15L161.15 189.55L160.55 189.95L160.45 190.05L160.25 190.15H160.15L159.75 190.35L159.35 190.65L158.95 190.85L158.85 191.05L158.75 191.15L158.55 191.45L158.25 191.35L158.05 191.55V191.75V191.85H157.95L157.45 192.05L157.25 191.95L157.05 191.85L156.95 191.75H156.75L156.05 191.85L155.15 192.05L155.05 192.25L154.45 192.45L154.25 192.65L153.95 192.95L153.65 193.25V193.35V193.45L153.85 193.55L153.55 194.05V194.75L153.25 195.05L152.75 196.45L152.35 196.75L151.95 196.95L151.45 197.15L151.35 197.45V197.55V197.85H151.45V197.95V198.05H151.55L151.75 198.15H151.85L151.95 198.25H152.05V198.35V198.45V199.25V199.45V199.55V199.65L151.65 200.95V201.05L151.75 201.15V201.35V201.45V201.55V201.65L151.65 201.75L151.55 201.85L151.45 201.95V202.25V202.35V202.45V202.55L151.55 203.15L151.65 203.65V203.75V203.95V204.15V204.45L151.75 204.55V204.65V204.85V204.95L151.65 205.05H151.45L151.25 205.15L150.95 205.35L150.85 205.45L150.75 205.55V205.65V205.75H150.65L150.55 205.85H150.45V205.95L150.15 206.05L149.75 206.55H149.65L149.55 206.65L149.45 206.75L149.15 206.95H149.05L148.95 207.05L148.85 207.15H148.75L148.65 207.25V207.35H148.75V207.45H148.85L148.95 207.55H149.05V207.65L149.15 207.75H149.35L149.55 207.65L149.85 207.55V207.45H150.05L150.15 207.55V207.45L150.45 207.55V207.65L150.65 207.55L150.75 207.35L150.95 207.25L151.15 207.35H151.25H151.45L151.55 207.25L151.65 207.15H151.85H151.95L152.05 206.95L152.15 206.85H152.45H152.55H152.65L152.75 206.75H152.85H153.05H153.15L153.25 206.85H153.35L153.55 206.95L153.75 207.05H153.95L154.15 207.15H154.35L154.55 207.25L154.65 207.35L154.75 207.45L154.85 207.65L154.95 207.75L155.15 207.95V208.05L155.25 208.15L155.35 208.25V208.35L155.55 208.65L155.65 208.85V208.95V209.05L155.75 209.25L155.85 209.35L155.95 209.45L156.05 209.55H156.15V209.65H156.25H156.35V209.75V209.85V210.05L156.25 210.15V210.25V210.35L156.35 210.65L156.45 210.75H156.35V210.85H156.05H155.95L155.65 211.05V211.15H155.55V211.05L155.15 211.15V211.25H155.05H154.95H154.85L154.75 211.35V211.45H154.65L154.55 211.55L154.25 211.75V211.85L154.15 211.95V212.05L153.85 212.25V212.35H153.75V212.45H153.65L153.55 212.35V212.45H153.45L153.25 212.55L152.95 212.65H152.75L152.65 212.75H152.45H152.35V212.85H152.25V212.75L151.75 212.95H150.85L150.65 212.75H150.55L150.45 212.65L150.25 212.45L150.15 212.35L149.85 212.45H148.95L147.75 212.65L146.75 212.55L146.65 212.45L146.35 212.35L146.15 212.15H146.05L145.95 212.05L145.65 211.95H145.45H145.25L145.05 212.05L144.85 212.15L144.55 212.25H144.35H144.15H143.85H143.65H143.35H143.15H142.85L142.55 212.15H142.35H142.25H142.15L141.95 212.05H141.65H141.55H141.45L141.35 211.95H141.15H140.95L140.75 211.85H140.65H140.45H140.35H140.15H140.05L139.25 211.75H139.05L138.85 211.65L138.55 211.45L138.25 211.25H137.85H137.65H137.55L137.35 211.35H137.05L136.85 211.45H136.55L136.35 211.55H136.15L135.85 211.65H135.55L135.25 211.75L134.95 211.85H134.65H134.35L134.25 211.95H134.15H133.95L133.75 211.85H133.55L133.25 211.75L132.95 211.65L132.65 211.55L132.35 211.45H132.15L131.95 211.35H131.75L131.45 211.25L131.25 211.15L130.55 210.95H130.45H130.35H129.75L129.05 210.75H128.85L128.75 210.65L128.25 210.45H127.65L127.25 210.55H127.05H126.95H126.85L126.55 210.25H126.45L126.25 210.15H126.15H125.95L125.85 210.25L125.75 210.15L125.55 210.05H125.45V210.15H125.35H125.25H125.05L124.95 210.05L124.55 209.95L124.45 209.85H124.35L124.25 209.75H124.15L124.05 209.65L123.75 209.55H123.65H123.55L123.45 209.45L123.25 209.35V209.25L123.15 209.15L123.05 209.25H122.85H122.55H122.45L122.25 209.15L122.15 209.05L121.95 208.95H121.65L121.35 208.85H121.15L121.05 208.65L120.85 208.55L120.55 208.75H120.45H120.35H120.25L120.15 208.65L120.05 208.55L119.95 208.45H119.85L119.75 208.55H119.65L119.55 208.45H119.35L119.25 208.55L118.95 208.65L118.75 208.75L118.65 208.55H118.45L118.55 208.45L118.35 208.25H118.15H118.05L117.95 208.15L117.75 208.05L117.65 207.95V207.85H117.55L117.45 207.75L117.25 207.65L116.55 207.45L116.35 207.55H116.05L115.95 207.75L115.85 207.85L115.75 207.95V208.15V208.25H115.65L115.45 208.15H115.35L115.15 207.95L114.95 207.85H114.85H114.65H114.55H114.45H114.25H114.05H113.95H113.75H113.55H113.25V207.75L113.15 207.65H113.05V207.55L112.75 207.05L112.65 206.95L112.45 206.85L112.25 206.75H112.15H112.05L111.85 206.65L111.55 206.55L111.05 206.35H110.85L110.65 206.45L110.35 206.55L110.05 206.65L109.65 206.85L109.25 206.95L108.85 207.15H108.55L108.15 207.35L107.75 207.55L107.25 207.65L106.85 207.95L106.45 208.15L106.05 208.25L105.25 208.45L104.95 208.55L104.45 208.65L103.95 208.75H103.45L102.85 208.85H102.45H102.35L101.85 208.75L101.65 208.65L99.55 207.95L98.95 207.85L98.45 207.95L98.05 207.85L97.75 207.55L97.25 207.65L97.05 207.95L96.75 208.05V208.15L96.55 208.25L96.35 208.15H96.25H96.15V208.25L95.95 208.15H95.75L94.65 208.05L94.55 207.95H94.35H94.25L94.05 208.05H93.45L93.35 208.15L92.95 207.95L92.85 208.05H92.65H92.55H92.45H92.35V207.95H92.15H92.05H91.95H91.85H91.75H91.65V208.05H91.45V207.95L91.35 208.05L91.15 207.95L90.75 207.85H90.55L90.25 208.05H90.05L89.85 208.15L89.25 208.35L88.95 207.75H88.35L86.95 208.15L86.25 208.25L84.75 208.45H84.35H84.25L83.65 208.55H83.55L83.15 208.65L82.95 208.75L82.65 208.95L82.45 209.05L82.15 209.25L81.75 209.55L81.45 209.85L81.25 210.05L81.05 210.25L80.75 210.45L80.55 210.55L80.35 210.65H80.15H80.05H79.85H79.55L79.15 210.55H78.85L78.45 210.45H78.15L77.75 210.35H77.45L75.75 210.55H74.65L74.25 210.65L73.55 210.75H73.15H72.75H72.55H72.35H72.05L71.75 210.65H71.25H70.75H70.25H69.85H69.55L69.15 210.55H68.75H68.45H68.35H67.85H67.45L67.05 210.65H66.65L66.25 210.75H65.95L65.65 211.05L65.45 211.25L65.25 211.35L65.05 211.55V211.65L64.85 211.75L64.75 211.85L64.65 211.95L64.55 212.05L64.45 212.15L64.35 212.25L64.25 212.35V212.45L64.15 212.55L64.05 212.65V212.75L63.85 212.85V212.95H63.75L63.55 213.15L63.45 213.25V213.35V213.45V213.65L63.35 213.85L63.05 215.15V215.85L63.65 216.55L63.95 217.55L64.25 217.85L64.65 219.15L64.85 219.35L64.95 219.45L65.25 219.55L65.35 219.75V219.85L65.45 219.95L65.55 220.45V220.95L65.75 221.65L66.05 222.35L66.45 222.95H66.55V223.05L66.85 223.55L66.95 223.65V223.85L67.05 224.25L67.35 224.55L67.55 224.65V224.85L67.65 225.05V225.25V225.55L67.75 225.95L67.85 226.05V226.15V226.55V226.85L67.75 226.95L67.65 227.75V227.85L67.85 228.25L68.05 228.35H68.15V228.45L68.35 228.55L68.55 228.85L68.65 229.15V229.45V229.65V229.75V229.95L68.75 230.45L67.85 230.55L66.15 230.75L64.95 231.05L63.85 231.25L62.85 231.45L62.15 231.65L61.45 231.75L60.25 231.95L59.65 232.15L59.25 232.25L59.15 232.45L59.25 232.55L52.35 234.05L50.95 234.35L46.05 235.35Z" fill="#6F9C76"/>
<path d="M23.65 10.25H23.55V10.15L23.35 10.25H23.25L22.95 10.15H22.85L22.65 10.05L22.45 10.15L22.35 10.05H22.25V9.95L22.15 10.05H22.05H21.95L21.85 10.15V10.25H21.75V10.35H21.55V10.25L21.45 10.15L21.35 10.25L21.15 10.35H21.05H20.95L20.85 10.45H20.65L20.55 10.75L20.45 10.85H20.35L20.25 10.95H20.15H20.05H19.95V10.85L19.85 10.95V11.05H19.75L19.65 11.25L19.55 11.35V11.45H19.45V11.55V11.65V11.75V11.95L19.35 12.05V12.15V12.35L19.25 12.55V12.75L19.15 13.25V13.55L19.05 13.75L18.85 13.85L18.75 14.05V14.25L18.65 14.35V14.45H18.55V14.55H18.45L18.35 14.65L18.25 14.75L18.15 14.85L18.05 14.95L17.75 15.05L17.35 15.35L16.95 15.45L16.75 15.55L16.55 15.65H16.35H16.25H16.15L16.05 15.75L16.55 16.65L17.15 17.35L17.05 17.55L16.95 17.95L16.65 18.25L16.95 18.85L16.75 19.85L16.65 20.05V20.15L16.55 20.95L16.45 22.25L16.55 22.45L16.75 23.45L16.65 23.55V23.65V23.75L16.75 23.85V23.95V24.05V24.15V24.25V24.35V24.45V24.55V24.65V24.75V24.95L16.65 25.05V25.15L16.55 25.35H16.45V25.45V25.65L16.35 25.75V25.95V26.05L16.45 26.15V26.25V26.35L16.35 26.55V26.75V26.95V27.15V27.35H16.45V27.45V27.65V27.75V27.85H16.55L16.65 27.95V28.05L16.75 28.15V28.25V28.35V28.45H16.65V28.55V28.65V28.75V28.85H16.75V28.95V29.05V29.15H16.85V29.25V29.35L16.95 29.45L16.75 30.45L16.55 31.15L16.45 31.35L15.95 32.75L16.25 33.05L15.75 33.75V34.25L15.95 34.65L16.05 34.95L16.15 35.15L16.25 35.45V35.75L16.45 35.85L17.65 36.15L18.85 35.75L19.35 36.15L19.15 37.35L19.75 38.55L21.45 38.35L22.75 38.25L24.15 38.45L25.25 38.35L26.35 38.25L27.55 38.55L28.15 39.45V40.85V42.05L27.85 42.65L27.15 44.15L26.75 45.15L27.15 46.35L28.25 47.65L26.95 48.35L25.95 49.45L25.55 50.35L25.65 52.05L25.35 52.15L24.95 52.35L24.15 52.55H23.55H22.85L22.35 52.45L22.05 52.35L21.65 52.15V51.85L21.55 51.65L21.25 51.55L21.05 51.65L20.85 51.85L20.75 52.05V52.35V52.45L20.25 52.85L19.75 53.05L19.25 52.95L18.85 52.75H18.75L18.65 52.85V53.05L18.75 53.25L18.85 53.55L19.05 54.05L19.35 54.45L19.45 54.75V54.85L19.25 54.95L19.15 55.15L19.05 55.35L18.95 55.55L18.85 55.75L18.95 55.95L19.05 56.05H19.15L19.25 56.15L19.35 56.35L19.45 56.55H19.55L19.45 56.75L19.55 56.85L19.65 57.05L19.75 57.15L19.85 57.35L20.05 57.45L20.15 57.55L19.85 57.65L19.65 57.85L19.55 58.05L19.65 58.15L19.75 58.25V58.45L19.55 58.55H19.25L19.15 58.85L18.95 59.45L18.75 59.85L18.55 60.65L18.35 60.85L18.25 61.05L18.05 61.25L17.65 61.75L17.45 61.85V62.05L17.15 62.25L16.85 62.35L16.25 62.75L15.65 63.05L14.95 63.35L14.75 63.65L14.55 63.95L14.85 64.15L15.05 64.35L14.95 64.75L14.65 65.45L14.35 66.15L14.75 66.05H15.05H15.45L15.35 66.25L15.05 66.45L14.85 66.55V66.95L14.95 67.25H15.25L14.95 67.45L14.85 67.65V67.85L14.55 68.05L14.45 68.25L14.25 68.45L14.15 68.75L14.35 68.85L14.65 69.05L14.95 68.75L15.15 68.85V69.15L14.95 69.45V69.65V70.35V70.55L15.25 70.65L15.45 70.85L15.25 71.05L15.05 71.45L14.85 71.85L14.65 72.15L14.35 72.45L13.95 72.85L13.65 72.95H13.25H13.05L12.85 73.05L12.65 73.15L12.45 72.95L12.25 72.85H12.05H11.65H11.35L11.25 73.05L11.15 73.15V73.35L11.25 73.65L11.35 73.95L11.55 74.25V74.65V74.85L11.35 74.95H11.25L11.35 75.25L11.45 75.55L11.55 75.75L11.75 75.85H11.95H12.25H12.55L12.75 75.95L12.85 76.15V76.45V76.65L12.65 76.75L12.55 76.95L12.65 77.15L12.95 77.35L13.15 77.65L13.05 77.75L12.85 77.85L12.75 77.75H12.45L12.25 78.05L12.85 78.15H13.15L13.65 78.35L14.45 78.55L15.15 78.95L15.75 78.75L16.45 78.95L16.35 79.45L16.15 79.95L16.05 80.65L15.95 81.45L15.75 81.95L15.65 82.65V83.05L15.55 83.65L15.25 84.25L15.65 84.85L15.55 84.95L15.45 85.45L15.35 85.85L15.25 86.35L15.35 87.05L15.25 87.75L15.15 88.35L15.05 88.85L14.85 89.25L14.75 89.55L14.55 89.95L14.45 90.45L14.55 90.75V90.85L14.85 90.95L15.35 91.35L15.55 91.55L15.95 91.85L15.45 91.95L14.95 92.35L14.55 92.65L14.15 92.75L13.75 92.95V93.25L13.55 93.45L13.25 93.35L13.05 93.55L12.95 93.85L12.75 94.05H12.45L12.35 94.25L12.15 94.85L12.05 95.35V95.55L11.85 96.15V96.55L11.65 97.25L11.45 97.55L11.55 97.75L11.75 98.15V98.65L11.95 99.15V99.45L11.85 99.75L11.65 100.25L11.55 100.55L11.35 101.25L11.15 101.55L11.05 101.95L10.85 102.25L10.75 102.55L10.65 102.75L10.55 102.95L10.45 103.15L10.35 103.25L10.15 103.35L10.05 103.45L9.95001 103.55L9.84998 103.65L9.75 103.75L9.54999 103.85L9.45001 103.95L9.34998 104.15L9.15002 104.35L8.65002 104.95L8.25 105.65L8.04999 106.05L8.15002 106.15H8.54999L8.45001 106.25L8.34998 106.45L8.45001 106.95L8.54999 107.45L8.75 108.25L8.84998 108.65V109.15L8.15002 109.45L7.34998 110.05L6.75 109.95L6.25 110.05L5.25 110.45L1.34998 112.35L2.54999 112.85L2.15002 113.55H0.25L0.450012 114.45L0.849976 114.65L1.04999 115.15H2.25V116.05L1.84998 117.35L1.45001 118.45L0.950012 119.15V120.05L1.95001 120.45L2.65002 121.15L3.65002 122.25L5.15002 122.85L6.25 122.45L7.65002 123.05H8.75L9.54999 122.95L10.25 122.15L10.45 121.05L12.05 120.75L12.55 119.45H13.35L14.15 120.35L14.75 121.25L14.85 121.65V122.15L14.75 122.55L14.95 123.35L15.25 123.15L15.45 122.95L15.65 122.65L15.95 122.25L16.25 121.85L16.75 121.25L17.05 120.85L17.55 120.25L16.75 119.45H16.05L14.25 118.05L17.15 114.05L20.55 112.65L21.95 111.15L22.85 109.55L25.15 108.75L26.35 106.95L27.15 105.75L28.45 104.15L29.05 103.15L29.95 101.95L30.85 100.65L31.35 98.95L32.15 98.05L33.35 98.25L34.75 100.05L36.75 101.05L37.25 101.95L39.35 102.95L40.15 104.15L41.95 105.75L43.45 106.35L44.75 106.55L46.95 107.25L47.95 107.35L49.25 107.45L51.25 107.25H52.65L54.35 107.35L56.95 107.15L57.65 109.25L56.25 110.85L55.85 111.15L54.55 111.95L52.85 113.85L52.95 115.45L52.05 116.55L51.25 117.45L50.15 118.15L49.25 119.45L48.85 119.55L48.05 119.75L47.75 120.25L47.35 120.55V121.05V121.75L46.75 121.95L46.45 122.15L46.05 122.55L45.75 122.85L46.15 123.15L46.65 123.65L47.25 124.25L47.75 124.75L48.35 125.35L48.95 125.95L49.35 126.35L52.95 129.85L55.65 132.15L56.85 133.45L57.15 133.75L59.35 135.35L60.35 136.45L61.55 138.05L62.75 139.25L63.25 140.25L64.25 141.75L64.65 142.85L64.15 144.25L62.35 145.75L60.45 147.05L57.85 148.15L51.75 149.45L47.05 150.45L41.35 151.55L36.45 151.75L33.65 150.55L32.25 149.95L31.35 149.75L30.95 149.55L30.45 149.45L29.85 149.25L29.45 148.55H29.05L28.55 148.95L28.15 149.15L27.55 149.45L26.85 150.45L25.15 151.75L23.45 153.65L21.85 156.65L21.05 158.65L19.85 159.95L17.35 161.85L15.65 163.65L13.65 166.35L11.45 170.15L9.54999 172.95L7.84998 174.85L6.65002 176.65L5.95001 177.75V179.15L5.75 179.85L6.54999 181.65L7.45001 182.25L8.65002 183.15L8.84998 183.25L9.65002 183.75L10.95 184.45L9.95001 186.15L10.25 187.85L10.75 188.85L11.15 189.65L12.55 191.05L14.35 192.65L15.15 194.05L16.05 195.85L16.15 196.25L16.75 198.05L16.85 200.15L16.35 201.25L16.55 201.75L17.35 201.55L17.85 201.45L18.65 201.25L19.65 201.45L20.05 202.55L19.85 203.65L19.65 205.15L23.95 205.45L26.15 205.25L27.75 204.95L28.65 205.35L26.95 206.95L25.85 208.15L25.35 209.15L25.95 210.15L26.95 210.85L29.55 209.75L30.85 208.85L32.45 208.55L33.85 208.75L36.85 209.75L39.45 210.85L41.75 211.05L43.05 209.85L43.95 209.35L45.25 208.55L47.05 207.65L49.15 206.65L45.55 211.95L45.05 216.95L45.15 219.45L46.45 223.45L48.05 226.75L48.75 228.35L49.15 229.25L49.65 229.15L49.75 228.05L53.35 227.55L51.05 230.25L48.95 231.75L47.85 232.65L47.05 233.35L45.85 234.45L46.05 235.05V235.25V235.35L50.95 234.35L52.35 234.05L59.25 232.55L59.15 232.45L59.25 232.25L59.65 232.15L60.25 231.95L61.45 231.75L62.15 231.65L62.85 231.45L63.85 231.25L64.95 231.05L66.15 230.75L67.85 230.55L68.75 230.45L68.65 229.95V229.75V229.65V229.45V229.15L68.55 228.85L68.35 228.55L68.15 228.45V228.35H68.05L67.85 228.25L67.65 227.85V227.75L67.75 226.95L67.85 226.85V226.55V226.15V226.05L67.75 225.95L67.65 225.55V225.25V225.05L67.55 224.85V224.65L67.35 224.55L67.05 224.25L66.95 223.85V223.65L66.85 223.55L66.55 223.05V222.95H66.45L66.05 222.35L65.75 221.65L65.55 220.95V220.45L65.45 219.95L65.35 219.85V219.75L65.25 219.55L64.95 219.45L64.85 219.35L64.65 219.15L64.25 217.85L63.95 217.55L63.65 216.55L63.05 215.85V215.15L63.35 213.85L63.45 213.65V213.45V213.35V213.25L63.55 213.15L63.75 212.95H63.85V212.85L64.05 212.75V212.65L64.15 212.55L64.25 212.45V212.35L64.35 212.25L64.45 212.15L64.55 212.05L64.65 211.95L64.75 211.85L64.85 211.75L65.05 211.65V211.55L65.25 211.35L65.45 211.25L65.65 211.05L65.95 210.75H66.25L66.65 210.65H67.05L67.45 210.55H67.85H68.35H68.45H68.75H69.15L69.55 210.65H69.85H70.25H70.75H71.25H71.75L72.05 210.75H72.35H72.55H72.75H73.15H73.55L74.25 210.65L74.65 210.55H75.75L77.45 210.35H77.75L78.15 210.45H78.45L78.85 210.55H79.15L79.55 210.65H79.85H80.05H80.15H80.35L80.55 210.55L80.75 210.45L81.05 210.25L81.25 210.05L81.45 209.85L81.75 209.55L82.15 209.25L82.45 209.05L82.65 208.95L82.95 208.75L83.15 208.65L83.55 208.55H83.65L84.25 208.45H84.35H84.75L86.25 208.25L86.95 208.15L88.35 207.75H88.95L89.25 208.35L89.85 208.15L90.05 208.05H90.25L90.55 207.85H90.75L91.15 207.95L91.35 208.05L91.45 207.95V208.05H91.65V207.95H91.75H91.85H91.95H92.05H92.15H92.35V208.05H92.45H92.55H92.65H92.85L92.95 207.95L93.35 208.15L93.45 208.05H94.05L94.25 207.95H94.35H94.55L94.65 208.05L95.75 208.15H95.95L96.15 208.25V208.15H96.25H96.35L96.55 208.25L96.75 208.15V208.05L97.05 207.95L97.25 207.65L97.75 207.55L98.05 207.85L98.45 207.95L98.95 207.85L99.55 207.95L101.65 208.65L101.85 208.75L102.35 208.85H102.45H102.85L103.45 208.75H103.95L104.45 208.65L104.95 208.55L105.25 208.45L106.05 208.25L106.45 208.15L106.85 207.95L107.25 207.65L107.75 207.55L108.15 207.35L108.55 207.15H108.85L109.25 206.95L109.65 206.85L110.05 206.65L110.35 206.55L110.65 206.45L110.85 206.35H111.05L111.55 206.55L111.85 206.65L112.05 206.75H112.15H112.25L112.45 206.85L112.65 206.95L112.75 207.05L113.05 207.55V207.65H113.15L113.25 207.75V207.85H113.55H113.75H113.95H114.05H114.25H114.45H114.55H114.65H114.85H114.95L115.15 207.95L115.35 208.15H115.45L115.65 208.25H115.75V208.15V207.95L115.85 207.85L115.95 207.75L116.05 207.55H116.35L116.55 207.45L117.25 207.65L117.45 207.75L117.55 207.85H117.65V207.95L117.75 208.05L117.95 208.15L118.05 208.25H118.15H118.35L118.55 208.45L118.45 208.55H118.65L118.75 208.75L118.95 208.65L119.25 208.55L119.35 208.45H119.55L119.65 208.55H119.75L119.85 208.45H119.95L120.05 208.55L120.15 208.65L120.25 208.75H120.35H120.45H120.55L120.85 208.55L121.05 208.65L121.15 208.85H121.35L121.65 208.95H121.95L122.15 209.05L122.25 209.15L122.45 209.25H122.55H122.85H123.05L123.15 209.15L123.25 209.25V209.35L123.45 209.45L123.55 209.55H123.65H123.75L124.05 209.65L124.15 209.75H124.25L124.35 209.85H124.45L124.55 209.95L124.95 210.05L125.05 210.15H125.25H125.35H125.45V210.05H125.55L125.75 210.15L125.85 210.25L125.95 210.15H126.15H126.25L126.45 210.25H126.55L126.85 210.55H126.95H127.05H127.25L127.65 210.45H128.25L128.75 210.65L128.85 210.75H129.05L129.75 210.95H130.35H130.45H130.55L131.25 211.15L131.45 211.25L131.75 211.35H131.95L132.15 211.45H132.35L132.65 211.55L132.95 211.65L133.25 211.75L133.55 211.85H133.75L133.95 211.95H134.15H134.25L134.35 211.85H134.65H134.95L135.25 211.75L135.55 211.65H135.85L136.15 211.55H136.35L136.55 211.45H136.85L137.05 211.35H137.35L137.55 211.25H137.65H137.85H138.25L138.55 211.45L138.85 211.65L139.05 211.75H139.25L140.05 211.85H140.15H140.35H140.45H140.65H140.75L140.95 211.95H141.15H141.35L141.45 212.05H141.55H141.65H141.95L142.15 212.15H142.25H142.35H142.55L142.85 212.25H143.15H143.35H143.65H143.85H144.15H144.35H144.55L144.85 212.15L145.05 212.05L145.25 211.95H145.45H145.65L145.95 212.05L146.05 212.15H146.15L146.35 212.35L146.65 212.45L146.75 212.55L147.75 212.65L148.95 212.45H149.85L150.15 212.35L150.25 212.45L150.45 212.65L150.55 212.75H150.65L150.85 212.95H151.75L152.25 212.75V212.85H152.35M23.65 10.25V10.15M23.65 10.25H23.75V10.35V10.55V10.65H23.85L23.95 10.85H24.05L24.15 10.95H24.05L24.15 11.05L24.35 11.25L24.45 11.35L24.55 11.45L24.75 11.55L24.85 11.65H24.95L25.15 11.75L25.25 11.85L25.45 12.05H25.55H25.65L25.85 12.15L26.05 12.35L26.15 12.45L26.25 12.55H26.35V12.65H26.45H26.55L26.65 12.75L26.75 12.85H26.85V12.95L26.95 13.05L27.05 13.15L27.15 13.25H27.35L27.45 13.35L27.55 13.45L27.65 13.55L27.85 13.65H27.95L28.05 13.75L28.15 13.85L28.25 13.95L28.45 14.05L28.65 14.15L29.05 14.25L29.25 14.35H29.45L29.55 14.45L29.65 14.35H29.75H29.85V14.25H29.95L30.15 14.35H30.25H30.35L30.45 14.45V14.35L30.55 14.45H30.65L30.85 14.55H31.05H31.25L31.35 14.65L31.55 14.75L31.75 14.95H31.85L31.95 15.05H32.05L32.15 15.15H32.25L32.35 15.25H32.45H32.55V15.35L32.85 15.45H32.95L33.15 15.55L33.65 15.75H33.95H34.35L34.65 15.65H34.75L35.25 15.45H35.35H35.45L35.55 15.35M35.65 15.35V15.25H35.55V15.35M35.55 15.35H35.65M35.55 15.25L35.65 15.35M35.65 15.35V15.45L35.75 15.35V15.55V15.65H35.85V15.75L36.05 15.85H36.25V15.95L36.95 16.15H37.25H37.35V16.25H37.45V16.15H37.65L38.15 16.25H38.25H38.35H38.45H38.55V16.35L38.75 16.25L38.85 16.35L39.05 16.45L39.25 16.35L39.45 16.45V16.35H39.65H39.75L39.85 16.45V16.35H39.95H40.15H40.25H40.35V16.45H40.45H40.55H40.65V16.55H40.75H40.95V16.65H41.45H41.65L42.25 16.35L42.35 16.25L42.75 15.95L42.85 15.85L42.95 15.75V15.65H43.05H43.15V15.55H43.25V15.45L43.45 15.35H43.55H43.65V15.25H43.75H43.85H44.05L44.15 15.15L44.35 15.05L44.45 15.15L44.65 15.05L44.75 14.95L44.85 15.05H44.95V14.95H45.05H45.15L45.65 14.85H45.75L45.85 14.75H45.95L46.05 14.65V14.55H46.15H46.25V14.45H46.35V14.55H46.45V14.45H46.55V14.55L46.65 14.45H46.75V14.35V14.25H46.85H46.95H47.05H47.15L47.25 14.35H47.35V14.25H47.45L47.55 14.15H47.65L47.75 13.95H47.85H47.95H48.15H48.25V14.15H48.35H48.65L48.85 14.05L48.95 13.95H49.05H49.15L49.25 13.85H49.35L49.45 13.75L49.55 13.65H49.65L49.75 13.55L49.85 13.45L50.05 13.35L50.15 13.15L50.35 13.05V12.95L50.45 12.85H50.55L50.65 12.75L50.75 12.55L50.85 12.45L50.95 12.35V12.25H51.05L51.25 11.95L51.35 11.85L51.45 11.75L51.55 11.65V11.55L51.65 11.45V11.35H51.75V11.25H51.85V11.15V11.05M51.85 11.05H51.75M51.85 11.05V10.95M51.85 10.95H51.75M51.85 10.95H51.95V10.85L52.05 10.75H52.15V10.65V10.55H52.25V10.45V10.35M52.25 10.35H52.15M52.25 10.35V10.25H52.35H52.45V10.35H52.55H52.65H52.75M52.75 10.35V10.25M52.75 10.35H52.85V10.45V10.55H52.95V10.65H53.05V10.75H53.15V10.85H53.25H53.35V10.95H53.45M53.45 10.95V10.85M53.45 10.95L53.55 11.05L53.95 10.95H54.05V10.85H54.35L54.45 10.75V10.65H54.55L54.75 10.55H54.85V10.45H54.95V10.35H55.05V10.25H55.15V10.15H55.25V10.05H55.35V9.95H55.45V9.85001V9.75H55.55H55.65V9.65H55.75V9.55M55.75 9.55H55.85M55.75 9.55V9.45H55.85V9.35001L55.95 9.25V9.15H56.05V9.05H56.15V8.95V8.85001H56.25V8.75H56.35V8.65V8.55H56.45V8.45H56.55V8.35001H56.65V8.25M56.65 8.25H56.55M56.65 8.25V8.15H56.75V8.05V7.95V7.85001H56.85V7.75V7.65H56.95V7.55V7.45H57.05V7.35001V7.25H57.15V7.15H57.25V7.05V6.95V6.85001H57.35H57.45V6.75M57.45 6.75H57.35M57.45 6.75V6.65V6.55H57.55V6.45H57.65V6.35001V6.25V6.15H57.75V6.05V5.95H57.85V5.85001V5.75V5.65V5.55H57.95V5.45H58.05V5.35001V5.25H58.15V5.15V5.05H58.25V4.95V4.85001H58.35V4.75V4.65H58.45V4.55V4.45H58.55V4.35001H58.65V4.25V4.15V4.05V3.95H58.75V3.85001H58.85V3.75M58.85 3.75H58.75M58.85 3.75V3.65H58.75V3.55H58.85L58.75 3.45H58.85L58.95 3.35001H58.85H58.75V3.25L58.65 3.15H58.75M58.75 3.15V3.05M58.75 3.15H58.85H58.95V3.25H59.05V3.15V3.05H59.15V2.95V2.85001H59.05V2.75H58.95V2.85001H58.85V2.75H58.75V2.65H58.85V2.55H58.95H59.05V2.45H58.95V2.35001V2.25H59.05H59.15V2.15H59.05V2.05H59.15H59.25V1.95H59.35V1.85001H59.45V1.75V1.65H59.55V1.55H59.45V1.45H59.55V1.35001V1.25V1.15V1.05V0.950005V0.850006M59.55 0.850006H59.65M59.55 0.850006V0.75H59.65V0.650002V0.550003M59.65 0.550003H59.55M59.65 0.550003V0.450005M59.65 0.550003H59.75V0.650002H59.85M59.85 0.650002H59.95M59.85 0.650002V0.550003H59.95V0.650002M59.95 0.650002H60.05M60.05 0.650002V0.550003M60.05 0.650002H60.15H60.25V0.550003H60.35V0.450005H60.45V0.350006L60.55 0.450005V0.25V0.350006L60.75 0.25V0.350006L60.85 0.550003H60.95L61.05 0.450005H61.15V0.350006H61.25M61.25 0.350006V0.25M61.25 0.350006L61.35 0.450005L61.55 0.550003V0.450005H61.65V0.550003V0.650002H61.75L61.85 0.950005L61.95 1.05V1.25L61.75 1.35001L61.65 1.45L61.35 1.55V1.65V1.85001H61.25V1.95L61.15 2.05V2.15L61.25 2.35001H61.35V2.45H61.45V2.55H61.55M61.55 2.55H61.65M61.55 2.55V2.65V2.75V2.85001H61.45V2.95L61.35 3.15H61.25V3.35001V3.55L61.35 3.75H61.45V3.85001H61.35V3.95L61.15 4.05V4.15H61.05L61.15 4.35001L61.05 4.45L60.95 4.75V4.85001L60.85 4.95V5.15V5.45L60.95 5.55H61.15V5.65H61.25V5.75V5.85001H61.35V5.95V6.05H61.45V6.15M61.45 6.15V6.25M61.45 6.15H61.55V6.25M61.55 6.25H61.65M61.55 6.25V6.35001V6.45M61.55 6.45H61.45M61.55 6.45V6.55L61.45 6.65V6.75H61.35L61.45 6.85001V6.95H61.35V7.05V7.15V7.25V7.35001H61.45L61.35 7.45H61.45V7.55H61.55V7.65H61.65L61.75 7.75V7.85001L61.85 7.95V8.05L61.55 8.15L61.35 8.45L61.15 8.85001V9.95L61.25 10.15L61.55 10.45L62.35 11.25L63.05 11.05L63.15 10.95V11.05L63.45 10.85V10.75L63.55 10.85H63.65L63.45 10.65L63.55 10.55H63.65L63.75 10.75H63.85M66.75 15.05H66.65H66.55L66.45 14.95L66.35 14.85L66.25 14.75L66.15 14.65L65.95 14.45L65.85 14.35L65.65 14.15L65.55 14.05L65.45 13.85L65.35 13.75L65.25 13.65H65.15V13.55L65.05 13.45H64.95V13.35L64.85 13.25H64.75V13.15L64.65 13.05L64.55 12.95V12.85L64.35 12.75L64.25 12.65L64.15 12.45L63.55 11.75L63.45 11.65L63.35 11.55L63.45 11.45L63.65 11.05L63.75 10.85L63.85 10.75V10.65L63.75 10.55M63.85 10.65H63.75V10.55M63.75 10.55V10.45V10.35H63.65V10.25H63.55M66.45 15.65L66.65 15.25V15.15L66.75 15.05V14.95M64.55 13.55V13.45H64.85V13.55H64.95V13.65H65.05L65.15 13.75V13.85H65.25V13.95H65.35V14.05V14.15H65.45L65.55 14.25L65.65 14.45H65.75V14.55V14.65L65.85 14.95V14.85H65.95V14.95V15.05V15.15L66.05 15.05H66.15H66.35L66.65 15.25M64.55 13.45H64.65V13.25H64.55M64.35 13.35H64.45H64.55V13.25L64.65 13.15M64.35 13.35L64.45 13.45H64.35V13.35ZM64.35 13.35V12.95L64.25 12.85L64.15 12.75H64.05H63.95V12.65H63.85H63.75V12.45V12.35L63.65 12.25V12.15H63.55M63.55 12.15V12.25L63.45 12.15H63.55ZM63.55 12.15V12.05H63.45V11.95H63.35V12.05H63.25V12.15V12.25H63.15V12.35H63.05V12.45H62.95L63.05 12.55V12.65L62.95 12.75V12.85V12.95V13.05V13.15L63.05 13.35V13.45H63.15V13.55L63.25 13.65V13.95V14.05H63.35V14.15H63.45V14.25H63.55V14.35V14.45V14.55H63.65H63.75L63.95 14.45L64.05 14.55H64.15H64.25H64.35L64.25 14.65H64.35H64.45H64.55V14.75L64.65 14.85V15.05H64.55V15.15L64.45 15.25H64.35L64.25 15.15H64.15V15.05H64.05V14.95H63.95V15.05V15.15V15.25V15.35H63.85V15.45H63.75H63.65H63.55V15.55H63.65L63.55 15.65L63.45 15.75H63.35H63.25V15.85V15.95V16.05H63.15V16.15V16.25H63.25V16.35V16.45V16.55M63.25 16.55H63.35V16.65M63.25 16.55V16.65L63.35 16.85L63.45 17.05L63.55 17.15V17.25H63.65V17.35V17.45L63.75 17.35V17.45H63.85V17.55H63.75L63.85 17.65L63.95 17.95L64.05 18.05H64.15H64.25L64.35 18.15V18.25H64.25V18.35M64.25 18.35H64.35M64.25 18.35V18.45V18.55M64.35 18.35H64.45V18.45M64.35 18.35V18.45V18.55V18.65M64.35 18.65V18.75M64.35 18.65L64.45 18.75M64.35 18.65L64.25 18.55M64.35 18.65H64.25V18.55M64.45 18.75V18.65V18.55V18.75H64.35M64.35 18.75V18.85L64.45 18.95L64.65 19.25L64.75 19.45H64.85L64.95 19.55L65.05 19.65L65.15 19.75L65.25 19.85H65.35V19.95H65.45V20.05H65.55L65.65 20.15H65.75L65.85 20.25H65.95L66.15 20.35L66.25 20.45H66.35L66.45 20.55H66.65M66.65 20.55V20.65M66.65 20.55H66.75V20.65V20.75H66.85H66.95V20.85L67.25 20.95L67.35 21.05H67.45L67.55 21.15L67.75 21.25L68.05 21.45L68.15 21.55H68.25L68.45 21.65L68.65 21.75H68.85H68.95L69.05 21.85L69.15 21.95H69.25H69.55H69.85H69.95H70.15V21.85L70.25 21.95H70.35H70.45H70.65L70.85 22.05L71.45 22.15L71.75 22.25H71.85H71.95H72.15L72.25 22.15L72.35 22.05L72.45 21.95V21.75L72.55 21.65L72.65 21.45L72.75 21.25H72.65V21.15H72.55L72.45 20.95L72.35 20.85L72.15 20.75V20.65L72.05 20.55H71.75L71.85 20.65H71.95L71.85 20.75M70.85 19.65H70.95L71.15 19.75L71.25 19.85L71.55 20.35V20.45H71.65L71.85 20.75H72.05V20.85L71.85 20.75M70.85 19.65L70.65 19.55M70.85 19.65V19.75M70.65 19.55V19.45V19.35H70.55M70.95 19.75H70.85L70.75 19.65L70.65 19.55M70.65 19.55L70.55 19.45V19.35M70.55 19.35V19.25V19.15L70.45 18.95V18.85V18.75H70.35H70.25V18.65H70.15H70.05V18.55H69.95L69.85 18.45H69.75V18.35H69.65V18.25H69.55H69.45V18.15H69.35V18.05H69.25V17.95H69.15V17.85H69.05V17.75V17.65H68.95V17.55H68.85V17.45H68.75L68.65 17.35H68.55V17.25H68.45V17.15H68.35V17.05L68.25 16.95V16.85H68.15V16.75V16.65M68.15 16.65H68.05V16.55L67.95 16.45M68.15 16.65V16.55L68.05 16.45H67.95M68.15 16.65L68.35 16.75H68.45V16.85H68.55V16.95H68.65V17.05H68.75V17.15H68.85V17.25H68.95V17.35H69.05V17.45H69.15V17.55H69.25L69.35 17.65L69.45 17.75L69.55 17.85L69.65 17.95H69.75V18.05L69.85 18.15H69.95V18.25H70.05V18.35H70.15L70.25 18.45L70.35 18.55L70.45 18.65H70.55V18.75V18.85H70.65V18.95H70.75V19.05H70.85V19.15H70.95V19.25H71.05V19.35H71.15L71.25 19.45V19.55H71.35L71.45 19.65L71.55 19.75L71.65 19.85H71.75V19.95H71.85L71.95 20.05H72.05V20.15H72.15H72.25V20.25H72.35L72.45 20.35H72.55V20.45H72.65V20.55H72.75V20.65H72.85H72.95L73.05 20.75H73.15L73.25 20.65L73.35 20.75L73.45 20.85H73.55L73.65 20.95L73.75 20.85L73.85 20.95L73.95 21.05L74.15 21.15L74.25 21.25L74.45 21.35H74.55V21.45H74.65L74.75 21.55H74.85H74.95V21.65H75.05V21.75H75.15L75.25 21.85H75.35V21.95H75.45M67.95 16.45H67.85V16.35M67.95 16.45V16.35H67.85M67.85 16.35H67.75H67.65V16.25H67.55V16.15M67.85 16.35V16.25L67.75 16.15H67.65V16.05M67.55 16.15L67.45 16.05M67.75 15.85V15.95V16.05H67.65L67.55 16.15M67.45 16.05H67.35H67.25H67.15H67.05L66.95 15.95V15.85V15.75H66.85H66.75V15.65H66.65V15.55L66.55 15.65V15.75L66.85 15.35V15.15H66.95M67.45 16.05V15.95M67.45 15.95V15.85H67.35V15.75H67.25L67.15 15.65V15.55H67.05V15.45H66.95V15.35L66.85 15.25L66.95 15.15V15.05V14.95M67.45 15.95H67.55M67.55 15.95L67.65 15.85V15.95H67.55ZM75.45 21.95V21.85M75.45 21.95H75.55V22.05H75.65V21.95H75.75V22.05H75.85V22.15H75.95H76.05H76.15H76.25V22.25H76.35V22.15H76.45H76.55V22.25H76.65H76.75L76.85 22.35H76.95V22.45H77.05H77.15L77.25 22.55H77.35H77.45V22.65H77.55H77.65L77.75 22.75H77.85H77.95H78.05H78.15H78.25H78.35V22.85H78.45H78.55H78.65H78.75V22.95H78.85H78.95H79.05H79.15H79.25H79.35H79.45H79.55H79.65L79.75 23.05H79.85H79.95H80.05H80.15V22.95H80.25H80.35H80.45L80.55 23.05H80.75H80.85H80.95H81.05V23.15H81.15H81.25H81.35L82.15 23.35L82.25 23.25H82.55L82.65 23.15H82.95H83.05H83.15H83.25H83.35V23.05H83.45H83.55H83.65H83.75H83.85L83.95 22.95H84.05V22.85M84.05 22.85H83.95L84.05 22.75V22.85ZM84.05 22.85H84.15H84.25H84.35V22.75L84.45 22.85L84.55 22.75L84.65 22.65H84.75L84.85 22.55V22.65L85.05 22.55H85.15L85.25 22.45H85.35V22.35V22.25H85.45H85.55V22.15H85.65H85.75V22.25H85.85V22.15H85.95V22.05L86.05 22.15L86.15 22.05L86.25 21.95H86.35V21.85L86.45 21.95V21.85H86.55L86.65 21.75V21.65H86.75L86.85 21.55L86.95 21.45L87.05 21.35H87.15V21.25L87.45 21.05V20.95L87.75 20.85V20.65H87.95V20.55H88.15L88.35 20.25V20.15H88.45V20.05H88.55L88.65 19.95V19.85H88.75V19.75H88.85V19.65H88.95V19.55L89.05 19.45L89.15 19.35H89.25V19.25H89.35L89.45 19.05H89.55H89.65M89.65 19.05H89.75M89.65 19.05V19.15V19.25H89.75M89.75 19.05H89.85V19.15L89.75 19.05ZM89.75 19.25V19.15M89.75 19.25L89.85 19.35L90.25 19.55L90.45 19.65L90.55 19.75L91.15 19.95L91.75 20.15L92.55 20.35H92.65H92.75L92.85 20.45H92.95H93.05L93.15 20.55H93.25H93.35H93.45H93.55H93.65H93.75H93.85H93.95H94.05H94.15L94.35 20.65L94.55 20.75L94.85 20.85L95.05 20.95L95.35 21.05L95.65 21.15H95.75L95.95 21.25H96.05L96.15 21.15M96.15 21.15V20.95H96.25M96.15 21.15V21.05L96.25 20.95M96.15 21.15V21.25H96.35V21.35H96.45M96.35 20.95H96.25L96.45 21.05L96.35 20.95ZM96.45 21.35V21.25L96.35 21.15V21.05V20.95M96.45 21.35V21.45M96.45 21.45H96.35H96.25V21.35L96.15 21.55H96.25H96.35M96.45 21.45V21.55M96.45 21.45V21.25M96.45 21.45H96.55L96.65 21.55H96.75V21.65H96.85H96.95V21.75H97.05H97.15V21.85H97.25L97.45 21.95H97.55V22.05H97.65H97.75V22.15H97.85H97.95L98.15 22.25L98.25 22.35H98.35H98.45V22.45H98.65H98.75V22.55H98.85H98.95H99.05L99.15 22.65H99.25H99.35V22.75H99.45H99.55H99.65V22.85H99.75H99.85H99.95L100.05 22.95H100.15H100.25H100.35V23.05H100.45H100.55H100.65H100.75V23.15V23.25V23.35V23.45H100.65V23.75V23.85V23.95V24.05H100.55V24.15H100.65V24.25V24.35V24.45L100.75 24.55V24.65V24.75V24.85H100.65V24.95V25.05V25.15V25.25H100.55V25.35H100.45H100.35V25.45H100.45V25.55H100.55H100.65V25.65V25.75H100.75V25.65H100.85V25.75H100.95V25.85M96.35 21.55H96.45M96.35 21.55L96.45 21.65V21.55M100.95 25.85H100.85M100.95 25.85V25.95H101.05H101.15H101.25L101.15 26.05V26.15H101.25V26.05H101.35H101.45V26.15H101.55H101.65V26.25V26.35L101.75 26.45V26.55H101.85H101.95H102.05H102.15H102.25V26.65H102.15V26.75V26.85H102.05V26.95M102.05 26.95H101.95M102.05 26.95H102.15H102.25V27.05V27.15M102.25 27.15H102.15M102.25 27.15V27.25H102.35V27.35H102.45L102.55 27.45L102.45 27.55H102.55H102.65H102.75H102.85L102.75 27.65V27.75H102.85L102.95 27.85V27.95H103.05V28.05L103.15 28.15H103.25V28.05H103.35L103.45 27.95L103.55 28.05L103.45 28.15V28.25H103.55L103.65 28.15L103.75 28.25L103.95 28.35L104.05 28.45L104.15 28.55H104.25H104.35H104.45H104.55H104.65M104.65 28.55V28.45M111.25 32.95H111.15H111.05L110.95 33.05H110.85H110.75V33.15H110.65H110.55H110.45V33.25H110.35H110.25L110.15 33.35H110.05H109.95H109.85H109.75H109.65V33.25H109.55H109.45V33.15H109.35V33.05H109.25V32.95L109.15 32.85H109.05V32.75H108.95V32.65H108.85V32.55H108.75V32.45H108.65H108.55H108.45V32.35H108.35V32.25H108.25V32.15H108.15V32.05H108.05H107.95L107.85 31.95H107.75V31.85H107.65L107.55 31.75H107.45L107.35 31.65V31.55L107.25 31.45H107.15V31.35H107.05V31.25H106.95V31.15H106.85V31.05V30.95H106.75V30.85V30.75H106.65H106.55L106.45 30.65H106.35V30.55V30.45H106.25H106.15V30.35L106.05 30.25V30.15V30.05L105.95 30.15L105.85 30.05H105.75V29.95V29.85H105.65V29.75L105.55 29.65V29.75L105.45 29.65V29.55H105.35V29.45L105.45 29.35H105.35V29.25H105.45V29.15H105.35V29.05H105.25L105.35 28.95V28.85L105.25 28.95L105.15 28.85V28.75H105.05H104.95H104.85V28.65H104.75V28.55H104.65M105.35 29.45H105.45M111.25 32.95V32.85M111.25 32.95H111.35H111.45H111.55V33.05H111.65H111.75H112.05V32.95H112.15L112.25 33.05V32.95H112.35H112.45H112.55V32.85H112.65H112.75V32.75H112.85H112.95V32.65H113.05H113.15H113.25V32.75V32.85V32.95V33.05V33.15V33.25V33.35V33.45V33.55V33.65V33.75V33.85V33.95V34.05L113.35 34.45V34.55V34.65H113.25V34.75V35.15V35.25V35.35V35.45V35.55L113.35 36.05L113.65 36.35H113.75V36.45H113.85M113.85 36.45H113.95M113.85 36.45V36.55H113.95H114.05V36.65H114.15V36.75H114.25H114.35H114.45V36.85L114.55 36.95L116.75 38.05L116.95 38.15L117.15 38.35L117.25 38.55L117.45 38.65V38.85L117.55 39.35V39.45V39.55H117.65V39.65V39.75V39.85V39.95V40.05V40.15V40.25V40.35V40.55V40.65L117.75 40.85V40.95H117.85H117.95H118.05L118.25 41.05H118.35H118.45H118.55H118.65L118.85 41.15H118.95H119.05H119.15H119.25V41.25H119.35V41.35H119.45L119.55 41.45L119.65 41.55L119.75 41.65H119.85V41.75H119.95L120.05 41.85V41.95L120.15 42.05V42.15H120.25H120.35L120.65 42.25L120.95 42.35L121.25 42.45L121.45 42.55V42.45H121.55L121.65 42.55L121.75 42.65V42.75L121.65 42.85H121.75L121.85 42.95L121.95 43.05H122.05L122.25 43.15H122.35H122.45H122.55V43.25H122.65V43.35H122.75V43.45H122.85V43.55H122.95H123.05H123.15H123.25L123.35 43.65H123.45V43.75H123.55H123.65L123.75 43.85H123.85V43.95H123.95L124.05 44.05H124.15V44.15H124.25V44.25H124.35H124.45L124.55 44.35H124.65H124.75V44.45H124.85H124.95V44.55V44.65H125.05H125.15L125.25 44.75L125.45 44.85L125.55 44.95V45.05H125.45H125.35V45.15H125.25L125.05 45.25L124.95 45.35H124.85V45.45H124.75V45.55H124.65L124.55 45.65H124.45V45.75H124.35V45.85H124.25V45.95H124.15V46.05H124.05V46.15H123.95H123.85V46.25M123.85 46.25H123.95M123.85 46.25V46.35L123.95 46.45H123.85V46.55M123.85 46.55H123.95M152.35 212.85V212.75H152.45H152.65L152.75 212.65H152.95L153.25 212.55L153.45 212.45H153.55V212.35L153.65 212.45H153.75V212.35H153.85V212.25L154.15 212.05V211.95L154.25 211.85V211.75L154.55 211.55L154.65 211.45H154.75V211.35L154.85 211.25H154.95H155.05H155.15V211.15L155.55 211.05V211.15H155.65V211.05L155.95 210.85H156.05H156.35V210.75H156.45L156.35 210.65L156.25 210.35V210.25V210.15L156.35 210.05V209.85V209.75V209.65H156.25H156.15V209.55H156.05L155.95 209.45L155.85 209.35L155.75 209.25L155.65 209.05V208.95V208.85L155.55 208.65L155.35 208.35V208.25L155.25 208.15L155.15 208.05V207.95L154.95 207.75L154.85 207.65L154.75 207.45L154.65 207.35L154.55 207.25L154.35 207.15H154.15L153.95 207.05H153.75L153.55 206.95L153.35 206.85H153.25L153.15 206.75H153.05H152.85H152.75L152.65 206.85H152.55H152.45H152.15L152.05 206.95L151.95 207.15H151.85H151.65L151.55 207.25L151.45 207.35H151.25H151.15L150.95 207.25L150.75 207.35L150.65 207.55L150.45 207.65V207.55L150.15 207.45V207.55L150.05 207.45H149.85V207.55L149.55 207.65L149.35 207.75H149.15L149.05 207.65V207.55H148.95L148.85 207.45H148.75V207.35H148.65V207.25L148.75 207.15H148.85L148.95 207.05L149.05 206.95H149.15L149.45 206.75L149.55 206.65L149.65 206.55H149.75L150.15 206.05L150.45 205.95V205.85H150.55L150.65 205.75H150.75V205.65V205.55L150.85 205.45L150.95 205.35L151.25 205.15L151.45 205.05H151.65L151.75 204.95V204.85V204.65V204.55L151.65 204.45V204.15V203.95V203.75V203.65L151.55 203.15L151.45 202.55V202.45V202.35V202.25V201.95L151.55 201.85L151.65 201.75L151.75 201.65V201.55V201.45V201.35V201.15L151.65 201.05V200.95L152.05 199.65V199.55V199.45V199.25V198.45V198.35V198.25H151.95L151.85 198.15H151.75L151.55 198.05H151.45V197.95V197.85H151.35V197.55V197.45L151.45 197.15L151.95 196.95L152.35 196.75L152.75 196.45L153.25 195.05L153.55 194.75V194.05L153.85 193.55L153.65 193.45V193.35V193.25L153.95 192.95L154.25 192.65L154.45 192.45L155.05 192.25L155.15 192.05L156.05 191.85L156.75 191.75H156.95L157.05 191.85L157.25 191.95L157.45 192.05L157.95 191.85H158.05V191.75V191.55L158.25 191.35L158.55 191.45L158.75 191.15L158.85 191.05L158.95 190.85L159.35 190.65L159.75 190.35L160.15 190.15H160.25L160.45 190.05L160.55 189.95L161.15 189.55L161.35 189.15L161.95 188.75L162.05 188.15L162.35 187.95L162.65 187.65L163.05 187.35L163.55 186.75L164.35 186.25L164.45 186.05V185.95V185.75H164.55L164.45 185.65V185.55V185.45V185.35L164.35 185.25H164.25V185.15L164.15 184.95L163.85 184.55L162.35 183.75L158.85 181.05L150.25 174.45V174.35H150.15L149.95 174.25L149.25 173.85L146.85 172.65L145.25 171.85L144.35 171.45L139.25 163.35L138.75 162.45L138.25 161.65L137.65 160.65L137.45 160.45L136.05 158.15L135.95 157.95H136.15L136.45 157.85V157.75L136.85 157.55L137.25 157.35L137.55 157.25H138.05L138.35 157.35L138.55 157.25L138.85 156.85L139.05 156.45L139.25 156.05L139.45 155.55L139.55 155.35L139.65 155.15L139.55 154.95V154.05L139.75 153.35L140.05 153.05L140.15 152.55L140.05 152.15L139.95 151.95V151.85L139.85 151.55V151.45L139.65 150.95L139.55 150.65L139.45 150.55L139.25 150.35H139.15L139.05 150.25H138.95V150.15L138.75 149.95H138.65L138.25 149.55H137.75L137.45 149.45L137.25 149.15L136.35 148.55L136.25 148.35V148.25V148.15L135.95 147.85L135.55 147.45L135.45 147.35L135.15 147.15L134.75 146.45L134.35 146.15L134.25 145.95L134.15 145.75L134.25 145.65L134.15 145.45L134.05 145.15L133.95 144.65H133.85V144.45L133.45 143.75V143.65L133.05 143.15V142.75V142.65L132.95 142.55L132.65 142.15L132.55 142.05V141.95L132.35 141.85L132.15 141.75L131.95 141.65L131.65 141.55L131.45 141.35L130.95 140.45L130.85 140.15L130.65 139.85L130.55 139.65L130.45 139.55L130.25 139.45L129.95 139.25L129.85 138.95L129.75 138.85L129.65 138.65L129.55 138.45L129.45 138.35L129.25 137.65L129.55 137.35V136.85L129.85 136.45V136.05V135.75V135.65L129.75 135.25L129.95 134.15L129.75 133.75V133.65L129.65 133.55V133.35V132.35V131.65L129.75 131.45L130.05 130.25L130.45 129.75V129.05L130.55 128.95L130.65 128.75L131.15 128.45L131.45 128.25V127.85L131.85 127.25V126.65L131.75 126.45H131.65L131.85 126.05L131.95 125.95L132.05 125.75V125.45H131.95L131.85 125.35V124.75V124.65L132.25 124.25L132.35 124.15L132.45 124.05H132.55V123.95L132.65 123.85L132.85 123.55L132.95 123.15L133.25 122.55L133.55 122.05V121.85L133.25 121.45L132.95 120.95V120.85V120.75L132.85 120.55V120.45L132.75 120.35L133.15 120.25V119.95L133.25 119.85V119.75L133.15 119.65L133.25 119.55V119.45V119.35L133.15 119.25L132.95 119.35L132.85 119.25V119.15L132.95 118.75L133.05 118.65V118.45V118.35L132.95 118.25V118.05V117.95L133.05 117.85V117.65L132.95 117.45L133.15 117.25L132.95 116.65L132.45 116.35L132.05 116.25L131.75 116.15L131.65 116.05H131.55L131.25 115.65L130.95 114.95L130.85 114.45L130.55 113.75L130.45 113.25V112.85L130.15 112.55L129.85 112.45L129.05 112.55L128.75 112.85H128.35H128.05H127.85L127.55 112.75L127.35 112.65L127.25 112.35L127.15 112.05L126.55 111.75L126.45 111.65L125.65 111.25L125.85 110.45L126.15 109.15L129.35 106.65L127.75 100.55L128.75 95.45L130.45 85.75L130.55 85.55L129.45 83.15L127.95 79.55L127.75 78.95L127.45 78.35L127.25 77.65L127.35 76.35L127.05 75.75L127.25 75.05L127.05 73.85L127.15 73.65V73.45L127.25 73.25V73.15L127.35 73.05V72.95V72.85L127.25 72.65L127.15 72.55L127.05 72.35L126.95 72.15L126.85 72.05L126.75 71.85L126.65 71.75L126.55 71.65L126.45 71.45L126.35 71.35V71.15L126.25 71.05V70.95H126.15L126.05 70.75L125.95 70.65V70.55L125.85 70.45V70.35H125.75V70.25L125.65 70.15H125.55L125.45 70.05L125.35 69.95V69.85L125.25 69.75L125.15 69.65L125.05 69.55L124.95 69.45V69.35H124.85V69.25H124.75L124.65 69.15L124.55 69.05L124.15 68.75L123.85 68.45L123.65 68.05L123.35 67.25L123.45 67.15L124.35 66.05L124.65 65.65L125.45 64.75L125.95 64.05L126.65 63.05L127.35 62.35L127.55 62.05L127.65 61.95H127.75V61.85V61.75L127.85 61.65L127.95 61.55L128.35 61.15L128.25 60.95L127.95 60.85H127.85H127.75L127.45 60.75L127.35 60.65V60.55H127.25L126.95 60.45H126.85L126.55 60.15L126.25 60.05L125.95 60.25H125.85L125.45 60.05L125.35 59.65L124.75 59.25L124.35 59.15L124.65 59.05L124.75 58.75L124.65 58.65L124.45 58.75L124.25 58.55L124.15 58.25V58.05L124.05 57.85L123.95 57.75L123.75 57.55L123.45 57.35L123.25 57.15L123.05 56.85V56.75L122.85 56.65V56.45L122.95 56.35V56.05V55.95L122.75 55.85L122.65 55.75L122.55 55.65V55.55L122.45 55.25V55.15H122.35L121.15 53.05L120.45 52.75H119.95V52.65H120.05V52.55H120.15V52.45H120.25V52.35H120.35V52.25L120.45 52.35V52.25L120.55 52.15V52.05L120.65 51.95L120.75 51.75L120.85 51.55V51.45H120.95L121.05 51.25L121.25 50.95L121.35 50.75L121.55 50.55V50.45V50.35V50.25H121.65L121.75 50.15H121.85V50.05H121.95V49.95H122.05V49.85H122.15V49.75V49.65H122.25V49.55H122.35V49.45L122.45 49.35V49.25V49.15H122.55V49.05L122.65 48.95V48.85H122.75V48.75H122.85V48.65L122.95 48.55L123.05 48.45V48.35H123.15V48.25H123.25V48.15H123.35L123.45 48.05H123.55V47.95V47.85H123.65V47.75V47.65H123.75V47.55V47.45L123.85 46.95L123.75 46.85L123.85 46.75V46.65V46.55M123.85 46.75H123.75M152.35 212.85V212.95" stroke="white" stroke-width="0.5" stroke-linecap="round" stroke-linejoin="round"/>
</svg>
