<svg width="158" height="146" viewBox="0 0 158 146" fill="none" xmlns="http://www.w3.org/2000/svg">
<path d="M30.15 23.95L31.95 24.05L33.05 23.05L33.25 22.95L33.05 22.85L32.75 22.65L32.65 22.35L32.75 21.85L33.05 21.55L33.15 21.45L35.85 21.25H36.35L36.55 20.55L36.95 19.75L37.05 19.65L37.15 19.25L37.05 19.05L36.75 18.85L36.35 18.75L36.65 18.65L37.15 18.15V17.75V16.65V15.55L37.05 14.85L36.95 14.45L36.75 14.15L36.85 13.75L36.95 13.15L37.05 12.95L37.15 12.75L37.05 12.25L36.95 11.85L37.15 11.65L36.95 11.45V10.95L37.15 9.75L37.95 9.05L38.65 8.35001L39.05 8.05L40.15 7.95L40.75 7.35001L41.95 7.15L42.25 7.45L42.45 6.95L45.35 5.95L45.55 5.75L45.85 5.85001L45.95 5.95L45.85 6.15L45.75 6.25V6.35001L46.05 6.25H46.25H46.45H46.95H47.35H47.55L47.65 6.45H47.85L47.95 6.25L49.25 5.35001L50.05 5.15L50.35 5.05L50.85 4.95L51.15 4.75L51.55 4.35001L52.45 3.85001L52.75 3.75L53.25 4.25H53.55H53.85L55.65 3.95L56.85 3.65L57.75 3.15L57.65 4.35001L57.85 5.75L57.95 7.05L57.85 7.55L57.95 7.85001L58.05 7.95L58.15 8.25L58.25 8.45V8.75L58.35 9.05L58.45 9.15L58.65 9.25L58.85 9.45L59.05 9.65L59.35 9.85001L59.65 10.05H59.95L60.05 10.15V10.25L60.25 10.35L60.45 10.45L60.65 10.65L60.95 10.85L61.05 10.95L61.25 11.05H61.55H61.95H62.15H62.35H62.55H62.75H63.15H64.25L64.65 10.75H66.25L67.05 10.85L68.35 11.25L68.85 12.25L69.15 13.35L70.85 12.15L71.95 12.45L72.65 12.15L73.35 12.75L74.65 13.45L75.25 13.65L75.75 13.95L75.95 14.05L76.15 14.15L76.45 14.25L76.25 14.05L76.55 13.25L77.15 12.75L77.35 11.55L78.25 11.65L79.25 11.85L79.75 11.65L80.65 11.45L81.25 11.55L81.85 11.35L82.25 11.15L82.65 10.75L82.85 10.25L83.65 9.75L83.85 8.95L83.25 8.25L84.15 7.35001L85.55 6.25L86.25 5.45L86.85 6.15L87.45 7.15L87.65 7.45L88.15 7.95L90.25 8.95L91.15 8.55L91.75 9.45L93.05 8.65L94.05 8.15L94.65 7.45L95.05 6.95L96.15 5.95L96.95 5.05L97.35 4.45L97.45 4.25V4.15L97.75 4.25H97.95L98.25 4.35001H98.55L98.75 4.15H99.25L100.75 3.75L101.05 3.65L101.45 3.55L101.85 3.45H101.95L102.15 3.35001L102.35 3.25L102.65 3.35001L102.75 3.15H103.05V3.05L102.95 2.85001H103.15L103.25 2.75L103.35 2.65L103.45 2.55H103.75L104.25 2.65L104.65 2.55L105.95 2.15L107.15 1.85001L108.25 1.45L108.55 0.550003L108.75 0.25L108.95 0.350006L110.15 0.650002L111.35 0.25L111.85 0.650002L111.65 1.85001L112.25 3.05L113.95 2.85001L115.25 2.75L116.65 2.95L117.75 2.85001L118.85 2.75L120.05 3.05L120.65 3.95V5.35001V6.55L120.35 7.15L119.65 8.65L119.25 9.65L119.65 10.85L120.75 12.15L119.45 12.85L118.45 13.95L118.05 14.85L118.15 16.55L117.85 16.65L117.45 16.85L116.65 17.05H116.05H115.35L114.85 16.95L114.55 16.85L114.15 16.65V16.35L114.05 16.15L113.75 16.05L113.55 16.15L113.35 16.35L113.25 16.55V16.85V16.95L112.75 17.35L112.25 17.55L111.75 17.45L111.35 17.25H111.25L111.15 17.35V17.55L111.25 17.75L111.35 18.05L111.55 18.55L111.85 18.95L111.95 19.25V19.35L111.75 19.45L111.65 19.65L111.55 19.85L111.45 20.05L111.35 20.25L111.45 20.45L111.55 20.55H111.65L111.75 20.65L111.85 20.85L111.95 21.05H112.05L111.95 21.25L112.05 21.35L112.15 21.55L112.25 21.65L112.35 21.85L112.55 21.95L112.65 22.05L112.35 22.15L112.15 22.35L112.05 22.55L112.15 22.65L112.25 22.75V22.95L112.05 23.05H111.75L111.65 23.35L111.45 23.95L111.25 24.35L111.05 25.15L110.85 25.35L110.75 25.55L110.55 25.75L110.15 26.25L109.95 26.35V26.55L109.65 26.75L109.35 26.85L108.75 27.25L108.15 27.55L107.45 27.85L107.25 28.15L107.05 28.45L107.35 28.65L107.55 28.85L107.45 29.25L107.15 29.95L106.85 30.65L107.25 30.55H107.55H107.95L107.85 30.75L107.55 30.95L107.35 31.05V31.45L107.45 31.75H107.75L107.45 31.95L107.35 32.15V32.35L107.05 32.55L106.95 32.75L106.75 32.95L106.65 33.25L106.85 33.35L107.15 33.55L107.45 33.25L107.65 33.35V33.65L107.45 33.95V34.15V34.85V35.05L107.75 35.15L107.95 35.35L107.75 35.55L107.55 35.95L107.35 36.35L107.15 36.65L106.85 36.95L106.45 37.35L106.15 37.45H105.75H105.55L105.35 37.55L105.15 37.65L104.95 37.45L104.75 37.35H104.55H104.15H103.85L103.75 37.55L103.65 37.65V37.85L103.75 38.15L103.85 38.45L104.05 38.75V39.15V39.35L103.85 39.45H103.75L103.85 39.75L103.95 40.05L104.05 40.25L104.25 40.35H104.45H104.75H105.05L105.25 40.45L105.35 40.65V40.95V41.15L105.15 41.25L105.05 41.45L105.15 41.65L105.45 41.85L105.65 42.15L105.55 42.25L105.35 42.35L105.25 42.25H104.95L104.75 42.55L105.35 42.65H105.65L106.15 42.85L106.95 43.05L107.65 43.45L108.25 43.25L108.95 43.45L108.85 43.95L108.65 44.45L108.55 45.15L108.45 45.95L108.25 46.45L108.15 47.15V47.55L108.05 48.15L107.75 48.75L108.15 49.35L108.05 49.45L107.95 49.95L107.85 50.35L107.75 50.85L107.85 51.55L107.75 52.25L107.65 52.85L107.55 53.35L107.35 53.75L107.25 54.05L107.05 54.45L106.95 54.95L107.05 55.25V55.35L107.35 55.45L107.85 55.85L108.05 56.05L108.45 56.35L107.95 56.45L107.45 56.85L107.05 57.15L106.65 57.25L106.25 57.45V57.75L106.05 57.95L105.75 57.85L105.55 58.05L105.45 58.35L105.25 58.55H104.95L104.85 58.75L104.65 59.35L104.55 59.85V60.05L104.35 60.65V61.05L104.15 61.75L103.95 62.05L104.05 62.25L104.25 62.65V63.15L104.45 63.65V63.95L104.35 64.25L104.15 64.75L104.05 65.05L103.85 65.75L103.65 66.05L103.55 66.45L103.35 66.75L103.25 67.05L103.15 67.25L103.05 67.45L102.95 67.65L102.85 67.75L102.65 67.85L102.55 67.95L102.45 68.05L102.35 68.15L102.25 68.25L102.05 68.35L101.95 68.45L101.85 68.65L101.65 68.85L101.15 69.45L100.75 70.15L100.55 70.55L100.65 70.65H101.05L100.95 70.75L100.85 70.95L100.95 71.45L101.05 71.95L101.25 72.75L101.35 73.15V73.65L100.65 73.95L99.85 74.55L99.25 74.45L98.75 74.55L97.75 74.95L93.85 76.85L95.05 77.35L94.65 78.05H92.75L92.95 78.95L93.35 79.15L93.55 79.65H94.75V80.55L94.35 81.85L93.95 82.95L93.45 83.65V84.55L94.45 84.95L95.15 85.65L96.15 86.75L97.65 87.35L98.75 86.95L100.15 87.55H101.25L102.05 87.45L102.75 86.65L102.95 85.55L104.55 85.25L105.05 83.95H105.85L106.65 84.85L107.25 85.75L107.35 86.15V86.65L107.25 87.05L107.45 87.85L107.75 87.65L107.95 87.45L108.15 87.15L108.45 86.75L108.75 86.35L109.25 85.75L109.55 85.35L110.05 84.75L109.25 83.95H108.55L106.75 82.55L109.65 78.55L113.05 77.15L114.45 75.65L115.35 74.05L117.65 73.25L118.85 71.45L119.65 70.25L120.95 68.65L121.55 67.65L122.45 66.45L123.35 65.15L123.85 63.45L124.65 62.55L125.85 62.75L127.25 64.55L129.25 65.55L129.75 66.45L131.85 67.45L132.65 68.65L134.45 70.25L135.95 70.85L137.25 71.05L139.45 71.75L140.45 71.85L141.75 71.95L143.75 71.75H145.15L146.85 71.85L149.45 71.65L150.15 73.75L148.75 75.35L148.35 75.65L147.05 76.45L145.35 78.35L145.45 79.95L144.55 81.05L143.75 81.95L142.65 82.65L141.75 83.95L141.35 84.05L140.55 84.25L140.25 84.75L139.85 85.05V85.55V86.25L139.25 86.45L138.95 86.65L138.55 87.05L138.25 87.35L138.65 87.65L139.15 88.15L139.75 88.75L140.25 89.25L140.85 89.85L141.45 90.45L141.85 90.85L145.45 94.35L148.15 96.65L149.35 97.95L149.65 98.25L151.85 99.85L152.85 100.95L154.05 102.55L155.25 103.75L155.75 104.75L156.75 106.25L157.15 107.35L156.65 108.75L154.85 110.25L152.95 111.55L150.35 112.65L144.25 113.95L139.55 114.95L133.85 116.05L128.95 116.25L126.15 115.05L124.75 114.45L123.85 114.25L123.45 114.05L122.95 113.95L122.35 113.75L121.95 113.05H121.55L121.05 113.45L120.65 113.65L120.05 113.95L119.35 114.95L117.65 116.25L115.95 118.15L114.35 121.15L113.55 123.15L112.35 124.45L109.85 126.35L108.15 128.15L106.15 130.85L103.95 134.65L102.05 137.45L100.35 139.35L99.15 141.15L98.45 142.25V143.65L98.25 144.35L96.25 144.85L95.35 144.35L93.85 143.45L90.15 144.75L87.85 143.95L87.05 142.45L86.55 141.25L85.25 139.35L84.25 137.65L83.25 136.55L82.25 135.45L79.75 133.15L77.95 131.65L77.25 131.35L74.85 129.75L73.65 128.15L74.15 127.15L71.75 126.35H69.95L66.55 127.35H64.75L61.75 126.55L58.75 125.35L58.65 124.35L58.85 123.95L59.55 122.35L58.95 119.85L58.55 118.75L56.75 116.85L56.05 115.25L55.75 113.65L55.35 114.45L54.85 115.05L53.85 115.15L52.35 114.85L50.95 114.75H49.35H47.75H47.45L46.85 114.65L45.75 115.25L45.25 115.65L45.05 115.95L44.75 116.25L44.35 116.95L43.75 117.25L43.45 117.75L43.25 118.15L42.95 118.35L43.05 118.95L43.25 119.35V119.65L43.45 120.05L43.55 120.55L43.75 121.05L43.45 121.15L43.05 121.45L42.75 121.65L42.35 122.05L42.05 122.25L41.85 122.35L39.95 123.25L39.75 124.95L39.25 125.55L38.45 125.65L37.85 125.85L36.65 125.15L35.75 126.05L35.15 126.55L34.65 127.15L34.35 127.35H34.25L33.45 127.95L33.35 128.05L33.05 128.25L32.35 128.55H32.25L32.35 128.25L32.65 127.65L33.05 127.05L33.35 126.35L33.65 125.85L34.05 124.55L33.45 123.55L32.35 121.95L31.85 121.65L31.15 121.15L30.65 120.75L30.55 120.35L31.55 119.55L31.45 119.15V117.95L29.95 117.65L29.35 114.65L30.95 113.75L31.75 111.75L31.95 109.65L31.85 109.25L31.55 108.85H31.05L28.75 109.75L27.35 110.25L26.15 110.15L24.75 110.05L24.55 109.95L24.15 109.85L23.55 109.65L23.15 109.55L22.85 109.15L22.65 109.05L22.05 108.45L21.15 107.65L20.95 105.05L19.75 103.75L20.45 100.75L20.35 100.45L20.05 100.35L19.95 99.95L20.05 99.45L19.55 99.75L19.35 99.45L19.45 99.15L19.15 98.55L18.85 98.45L18.45 98.35L18.15 98.25L18.25 98.05L18.35 97.85L18.25 97.75L18.05 97.55L17.75 97.35L17.65 97.05L17.25 96.95L16.95 96.85L16.65 96.65L16.75 96.25L16.45 95.95L16.25 95.55H16.15L16.05 95.85H15.55L15.35 95.45L15.05 95.55L14.95 95.75L14.75 95.85L14.45 95.55L14.25 95.85L14.05 95.75L13.85 95.35L13.65 95.55H13.35L12.85 95.35L12.65 95.25L12.45 95.35L12.15 95.25L12.35 95.05L12.05 95.25L11.85 95.05H11.65H11.45H11.25L10.95 94.95L8.65002 93.95L8.45001 93.65L7.95001 93.35L7.34998 93.65L7.04999 93.15V92.95L6.65002 92.75L6.45001 92.45L6.15002 92.35L6.04999 92.15L6.25 91.85L6.04999 91.65L5.54999 91.35V91.05L5.34998 90.85L5.45001 90.75L5.65002 90.55L5.54999 90.35L5.34998 90.25H5.25V90.15L5.34998 90.05L5.45001 89.95H5.25L5.34998 89.75H5.25H5.15002H5.04999V89.65L4.95001 89.75H4.75L4.65002 89.85H4.54999L4.45001 89.75H4.34998L4.04999 89.55H3.95001V89.45V89.35L3.84998 89.25H3.75L3.84998 89.15L3.75 89.05H3.65002H3.54999V89.15H3.45001V89.05H3.34998L3.45001 88.85H3.54999H3.65002H3.75L3.84998 88.65V88.55V88.45L5.75 87.45L5.54999 86.15L5.65002 84.95L5.34998 83.85L4.45001 81.75L5.04999 81.45L5.84998 78.85L5.45001 77.85L6.54999 76.35L7.75 75.35L8.04999 73.75L8.25 72.45L8.84998 71.35L9.04999 70.85L9.15002 70.35L8.75 70.05L8.45001 69.55L8.15002 69.15L7.65002 68.95L7.15002 68.65L6.54999 68.55L6.84998 67.95L6.95001 67.45L7.15002 67.05L6.34998 66.25L5.95001 66.05L5.54999 66.15L5.45001 66.05V65.95L5.34998 65.75L5.15002 65.95L5.04999 65.75L4.75 65.45L4.54999 65.35L4.34998 65.05L4.25 64.75L4.34998 64.55L4.54999 64.25L4.65002 64.05L4.75 63.95L4.65002 63.65V63.55L4.84998 63.45H5.15002H5.84998L5.75 63.15L5.65002 62.95V62.85V62.75V62.55V62.45L5.75 62.35L5.84998 62.25V62.05H6.04999V61.75V61.35L6.34998 61.25L6.54999 61.35L6.75 61.15L7.15002 60.75L6.95001 60.55V60.45L7.04999 60.25H7.15002L6.34998 59.05L5.95001 58.05L5.15002 57.35L4.84998 57.15L4.54999 56.65L4.25 56.35L3.95001 55.95L4.15002 55.55L4.75 55.25L4.34998 54.65L4.15002 54.25L4.04999 54.05V53.95L2.95001 53.65L1.75 52.75L0.75 50.95L0.25 50.25L0.450012 49.85V49.15L1.75 47.75L2.45001 47.45L3.84998 46.75L3.34998 45.85L3.04999 44.85L4.95001 44.75V43.45L6.25 46.25L6.34998 46.45H6.54999L6.65002 46.15H6.84998H7.25V46.65H7.54999L8.34998 46.45L9.45001 45.75H9.84998L9.54999 47.65L9.65002 49.15L10.75 49.25H12.45H12.65L12.95 48.85L13.75 49.05H14.55L14.95 49.15L15.05 49.55L15.45 49.95L15.75 50.05L16.15 49.95L17.35 49.15L18.25 48.65L18.55 48.05L18.65 47.45L18.75 46.65L19.15 46.75L19.25 46.85L19.75 47.05L20.25 47.25L20.55 47.05L20.75 46.85H20.85L21.25 47.05L21.75 47.25L22.05 47.45V46.85L22.25 46.35H22.75L23.45 45.05L22.35 44.65L22.05 43.85L21.75 43.35L22.35 42.45L22.95 41.95H23.75L23.95 41.45L24.15 40.95L24.25 41.05H24.45L24.55 40.95V40.75L24.45 40.55L24.25 40.35L24.05 40.15L24.15 39.95V39.85L23.95 39.65L24.05 39.55L23.95 39.45V39.35H23.85V39.15V39.05H23.75H23.65V38.85L23.55 38.65V38.45V38.25L23.35 38.15L23.25 38.25V38.15V38.05L23.15 37.95V37.85H23.25H23.35V37.75L23.45 37.65H23.35L23.15 37.45L22.95 37.35L22.55 37.05L22.45 36.95V36.85V36.75V36.65L22.35 36.55L22.25 36.45V36.55H22.15V36.65V36.75H22.05V36.85H21.95H21.85V36.75L21.65 36.35L21.55 36.25L21.45 36.15H21.35H21.25L21.05 36.25V36.35V36.45V36.65V36.75L21.15 36.85L21.05 36.95H20.95L20.85 36.85V36.75L20.65 36.65H20.55L20.35 36.55V36.45L20.25 36.35L20.15 36.25V35.95V35.65L20.25 35.45L20.35 35.35L20.75 35.25L20.85 35.15V35.05L20.75 34.95L20.55 34.85L20.25 34.65L20.05 34.55L19.95 34.35L19.65 34.15H19.55L19.45 34.05L19.35 33.95L19.45 33.85V33.75V33.65H19.35H18.95L18.65 33.75L18.75 33.65L18.85 33.25V32.95L19.05 32.85L19.35 32.75H19.65L19.85 32.85L20.05 33.25L20.15 33.15H20.25L20.35 33.25L20.45 33.35L20.65 33.25L20.85 33.05L21.25 32.85L21.55 32.75L21.95 32.45L22.35 32.15L22.75 31.75L24.75 31.25L25.95 30.55L26.25 29.75L26.35 29.45L26.55 29.15L26.75 28.85L26.85 28.75L27.05 28.95H27.15H27.45L27.75 28.75L27.95 28.65L28.15 28.35L28.45 28.15L28.65 27.85L28.75 27.55V27.35L28.55 27.15V27.05L28.85 26.65L29.05 26.25L28.65 26.15H28.55L28.65 25.75L28.95 25.35L29.25 24.75L29.65 24.35L29.95 24.15L30.15 23.95Z" fill="#6F9C76" stroke="white" stroke-width="0.5" stroke-linecap="round" stroke-linejoin="round"/>
</svg>
