<svg width="96" height="119" viewBox="0 0 96 119" fill="none" xmlns="http://www.w3.org/2000/svg">
<path d="M46.65 1.15L47.15 1.35L47.95 1.55L48.15 1.45L48.55 1.55L48.75 1.75H49.15H49.25L49.45 1.85L49.65 1.95H49.85L50.75 1.75L51.45 1.55L52.15 1.45L52.75 0.550003L53.55 0.449997L54.15 0.25L54.65 0.449997L54.95 0.550003L55.55 0.75L56.35 1.35L55.95 1.85L56.25 2.25L56.65 2.75H58.05L59.05 1.75L61.15 2.95L61.45 3.15L62.75 4.45L63.65 5.05L65.55 5.45H65.85L66.95 5.25L68.25 4.85L69.55 5.25L70.65 5.65L70.95 5.85V6.25V6.45L70.85 6.75L70.55 7.05L70.65 7.65L70.45 8.45L70.75 9.05L71.25 9.25L70.95 10.15L70.75 10.65L70.45 10.75L70.65 11.45L70.45 11.75L70.65 12.05L70.75 12.45V12.85V13.05V13.25L70.65 13.45V13.65L70.75 13.75V13.95L70.65 14.15L70.55 14.45L70.65 14.75L70.85 15.15V15.25L70.95 15.45L70.85 15.85L70.65 16.45L70.25 17.15L70.55 17.45L71.15 18.25L72.05 18.05L72.35 18.15L72.55 18.55L72.85 18.75L73.25 18.55L73.75 18.45L74.15 18.75L74.35 19.15L74.65 19.25V19.55L74.45 20.15L74.95 19.75L75.35 19.65H76.15L76.25 19.45L76.55 19.15L76.65 18.85L76.85 18.75L76.95 18.55V18.25L77.15 18.15H77.75L77.85 17.95L78.15 17.85L78.35 17.95H78.55L78.75 18.05L78.95 18.15L78.85 18.25L78.75 18.45L78.65 18.65V18.75L78.85 18.85H79.15L79.45 18.95L79.75 19.05L80.05 19.15L80.25 18.95V19.15V19.35H80.55L80.85 19.15L80.95 19.05V19.15L81.05 19.45L81.35 19.75L81.55 19.95V20.15L81.75 20.45V20.65V20.85H82.15H82.55H82.95V21.15L83.05 21.35V21.75L83.15 22.05V22.15L82.95 22.25V22.45L83.05 22.55L83.15 22.45H83.25H83.45H83.55V22.65L83.65 22.75L83.75 23.15L84.05 23.85L84.15 24.15L84.25 24.35H84.35H84.55L84.85 24.05L84.95 23.95H85.15H85.45L85.75 24.15L86.05 24.35L86.15 24.55V24.75L86.25 24.85L86.35 24.75H86.55L86.85 24.85L87.05 24.95H87.25H87.55L87.75 25.05L87.85 25.25L87.95 25.45H88.25L88.35 25.35H88.65V25.55L88.95 25.65L89.15 25.75L89.55 26.05L89.85 26.25L89.95 26.65L90.05 26.95L90.25 27.15L90.15 27.45L90.35 27.65L90.15 27.85L89.95 28.05L89.85 28.15L89.75 28.25L89.55 28.35L89.45 28.55L89.35 28.65V28.85L89.25 29.05L89.35 29.15V29.25L89.15 29.35V29.45V29.65L89.25 29.85L89.35 29.95H89.45V30.15V30.25L89.35 30.35V30.45L89.45 30.55V30.65H89.35L89.45 30.75L89.55 30.85H89.65H89.95L90.55 31.05L91.05 31.45L91.15 31.75L91.25 31.85L91.65 31.75V31.25L91.35 30.95L91.55 30.85L92.05 30.95L92.45 31.05L92.85 31.15L93.15 31.25L93.65 31.45H93.95L94.15 31.65L94.45 31.75L94.85 32.05L95.45 32.15L95.25 32.35L94.95 32.55L94.55 32.95L94.25 33.55L93.95 33.95L93.85 34.35H93.95L94.35 34.45L94.15 34.85L93.85 35.25V35.35L94.05 35.55V35.75L93.95 36.05L93.75 36.35L93.45 36.55L93.25 36.85L93.05 36.95L92.75 37.15H92.45H92.35L92.15 36.95L92.05 37.05L91.85 37.35L91.65 37.65L91.55 37.95L91.25 38.75L90.05 39.45L88.05 39.95L87.65 40.35L87.25 40.65L86.85 40.95L86.55 41.05L86.15 41.25L85.95 41.45L85.75 41.55L85.65 41.45L85.55 41.35H85.45L85.35 41.45L85.15 41.05L84.95 40.95H84.65L84.35 41.05L84.15 41.15V41.45L84.05 41.85L83.95 41.95L84.25 41.85H84.65H84.75V41.95V42.05L84.65 42.15L84.75 42.25L84.85 42.35H84.95L85.25 42.55L85.35 42.75L85.55 42.85L85.85 43.05L86.05 43.15L86.15 43.25V43.35L86.05 43.45L85.65 43.55L85.55 43.65L85.45 43.85V44.15V44.45L85.55 44.55L85.65 44.65V44.75L85.85 44.85H85.95L86.15 44.95V45.05L86.25 45.15H86.35L86.45 45.05L86.35 44.95V44.85V44.65V44.55V44.45L86.55 44.35H86.65H86.75L86.85 44.45L86.95 44.55L87.15 44.95V45.05H87.25H87.35V44.95H87.45V44.85V44.75H87.55V44.65L87.65 44.75L87.75 44.85V44.95V45.05V45.15L87.85 45.25L88.25 45.55L88.45 45.65L88.65 45.85H88.75L88.65 45.95V46.05H88.55H88.45V46.15L88.55 46.25V46.35V46.45L88.65 46.35L88.85 46.45V46.65V46.85L88.95 47.05V47.25H89.05H89.15V47.35V47.55H89.25V47.65L89.35 47.75L89.25 47.85L89.45 48.05V48.15L89.35 48.35L89.55 48.55L89.75 48.75L89.85 48.95V49.15L89.75 49.25H89.55L89.45 49.15L89.25 49.65L89.05 50.15H88.25L87.65 50.65L87.05 51.55L87.35 52.05L87.65 52.85L88.75 53.25L88.05 54.55H87.55L87.35 55.05V55.65L87.05 55.45L86.55 55.25L86.15 55.05H86.05L85.85 55.25L85.55 55.45L85.05 55.25L84.55 55.05L84.45 54.95L84.05 54.85L83.95 55.65L83.85 56.25L83.55 56.85L82.65 57.35L81.45 58.15L81.05 58.25L80.75 58.15L80.35 57.75L80.25 57.35L79.85 57.25H79.05L78.25 57.05L77.95 57.45H77.75H76.05L74.95 57.35L74.85 55.85L75.15 53.95H74.75L73.65 54.65L72.85 54.85H72.55V54.35H72.15H71.95L71.85 54.65H71.65L71.55 54.45L70.25 51.65V52.95L68.35 53.05L68.65 54.05L69.15 54.95L67.75 55.65L67.05 55.95L65.75 57.35V58.05L65.55 58.45L66.05 59.15L67.05 60.95L68.25 61.85L69.35 62.15V62.25L69.45 62.45L69.65 62.85L70.05 63.45L69.45 63.75L69.25 64.15L69.55 64.55L69.85 64.85L70.15 65.35L70.45 65.55L71.25 66.25L71.65 67.25L72.45 68.45H72.35L72.25 68.65V68.75L72.45 68.95L72.05 69.35L71.85 69.55L71.65 69.45L71.35 69.55V69.95V70.25H71.15V70.45L71.05 70.55L70.95 70.65V70.75V70.95V71.05V71.15L71.05 71.35L71.15 71.65H70.45H70.15L69.95 71.75V71.85L70.05 72.15L69.95 72.25L69.85 72.45L69.65 72.75L69.55 72.95L69.65 73.25L69.85 73.55L70.05 73.65L70.35 73.95L70.45 74.15L70.65 73.95L70.75 74.15V74.25L70.85 74.35L71.25 74.25L71.65 74.45L72.45 75.25L72.25 75.65L72.15 76.15L71.85 76.75L72.45 76.85L72.95 77.15L73.45 77.35L73.75 77.75L74.05 78.25L74.45 78.55L74.35 79.05L74.15 79.55L73.55 80.65L73.35 81.95L73.05 83.55L71.85 84.55L70.75 86.05L71.15 87.05L70.35 89.65L69.75 89.95L70.65 92.05L70.95 93.15L70.85 94.35L71.05 95.65L69.15 96.65V96.75V96.85L69.05 97.05H68.95H68.85H68.75L68.65 97.25H68.75V97.35H68.85V97.25H68.95H69.05L69.15 97.35L69.05 97.45H69.15L69.25 97.55V97.65V97.75H69.35L69.65 97.95H69.75L69.85 98.05H69.95L70.05 97.95H70.25L70.35 97.85V97.95H70.45H70.55H70.65L70.55 98.15H70.75L70.65 98.25L70.55 98.35V98.45H70.65L70.55 98.85L70.25 99.25V99.55L69.95 100.15L69.55 100.85L69.05 101.25V101.65L69.45 102.25L69.65 102.95V103.85L69.55 104.45L69.45 104.65L69.35 104.85L69.25 105.15L69.15 105.25L69.05 105.35L69.25 105.65L69.45 105.85L69.75 105.95L69.95 106.25L70.15 106.55L70.25 106.95L70.85 106.75L71.35 107.05L70.55 107.45L70.15 107.85L69.75 108.15L69.35 108.65L68.55 108.85L68.35 108.75L68.25 108.55H68.15H67.95H67.65H67.55L67.35 108.45L67.25 108.55L67.05 108.45L66.95 108.55H66.85H66.75L66.65 108.35H66.55L66.45 108.55L66.35 108.35L66.15 108.45H66.05H65.95H65.85L65.75 108.55L65.45 108.25H65.35L65.15 108.35H64.85L64.55 108.25H64.45H64.35H64.25L64.15 108.35L64.05 108.15H63.85V108.05L64.15 107.35H63.95H63.75L63.55 107.65V107.85V108.05H63.45H63.35V107.55L63.25 107.45H62.95V107.15H62.85L62.75 107.25L62.65 107.45L62.45 107.65L62.25 107.95H62.15H62.05L61.95 107.75L61.75 107.65L61.55 107.45L61.45 107.35V107.25L61.35 107.15L61.25 107.25L61.15 107.45L60.95 107.75L60.75 107.95H60.55L59.85 107.85V108.15L59.75 108.35V108.75H59.35L58.85 108.85H58.65H58.55H58.05H57.75H57.55L57.25 108.95L56.55 108.85H56.15H55.75L55.15 108.65L54.65 108.25L54.45 107.35L54.05 106.85H53.35L53.05 106.75L52.65 106.55L52.25 106.85L51.95 106.95L51.55 106.85H51.25H50.85L50.55 106.45L50.05 106.15L49.75 106.35H49.45H49.15L48.75 106.55L48.45 106.35L48.25 106.05L48.35 105.65V105.25L48.55 105.05L48.15 104.95L48.45 104.45V103.65L48.25 102.85L48.35 102.25L48.45 101.85L48.55 101.15L48.65 100.95L48.95 100.65L49.05 100.45H48.75L48.25 99.95H47.85L47.35 100.05H46.95L46.25 99.65L45.65 99.85L44.75 99.65L43.95 98.95L43.55 98.85H42.85L42.55 98.55L42.05 97.95H41.35L40.85 97.75L40.55 97.85V98.35L40.45 98.85V99.55V99.85V101.75L39.85 102.35L39.55 103.55L38.25 104.85L38.85 106.25L37.75 107.75L38.55 109.55L39.35 110.75L39.25 111.95L38.05 113.85L37.45 114.05L36.75 113.85L35.95 114.15L35.25 114.35L34.55 115.65L33.45 116.35L32.65 116.25L32.05 117.05L31.85 118.15L31.45 118.65H30.95L30.65 118.15L30.55 117.75L30.05 117.05L29.25 116.95L29.45 116.65L28.25 116.05L27.75 115.85H27.25L26.15 115.35L25.75 115.15L25.05 114.95L24.55 114.75L24.15 114.65L23.85 114.75H23.55L22.85 114.65H22.25L21.85 114.55H20.75L19.65 114.65H19.05L18.45 114.55L17.85 114.15L17.55 113.95L17.45 113.65L17.25 113.45L17.15 113.25L17.35 112.95L17.45 112.35V111.65L17.55 110.75L17.35 109.05V107.75L17.05 106.55L16.95 104.95V103.95V103.05L17.05 102.45L17.15 101.95L17.55 101.55V101.15L17.15 100.65L16.85 100.15L16.05 99.55L15.95 98.95V97.95L16.15 97.55L16.85 96.95L17.45 96.65L17.95 96.85L18.35 96.45L18.85 95.75L19.65 93.95L19.45 93.55L19.05 93.45V93.25L18.85 92.95L18.75 92.65H18.25L17.55 92.75L17.25 92.35L16.85 92.15L16.55 92.05L15.95 92.25L14.55 92.05L14.15 92.25H13.55L13.15 92.05L12.55 91.95L11.75 92.05L11.25 91.35H10.75L10.15 91.55L9.54999 92.55L9.45001 92.95L9.75 93.35V93.55V93.75L9.54999 93.85L9.45001 93.95L9.34998 93.85H9.04999L8.95001 93.55L8.75 93.15L8.64996 92.95L8.45001 92.85L8.25 92.75V92.65L8.14996 92.45L7.84998 92.25L7.95001 92.15L8.25 92.05H8.34998V91.95L8.25 91.85L8.04999 91.95V91.75L7.84998 91.65L7.64996 91.45H7.75H7.84998V91.35H7.75H7.64996L7.54999 91.25V91.15V90.85L7.34998 90.95L7.25 90.85V90.75L7.34998 90.55L7.25 90.45V90.25H7.34998L7.45001 90.15V90.05L7.34998 89.95L7.25 89.65L7.04999 89.75H6.95001L6.84998 89.45L6.64996 89.35V88.75L6.75 88.45L6.95001 88.35L6.64996 87.65L6.54999 87.05L6.14996 86.85L6.04999 85.85V85.75L5.84998 85.35L5.34998 85.05L5.54999 84.65L5.34998 84.45L5.75 83.75L5.64996 83.45L5.45001 82.45L5.25 81.85L4.95001 81.25L4.84998 80.65V80.05L4.54999 79.55H4.45001H4.25L4.14996 79.25L3.54999 78.75L3.75 77.85L3.54999 77.75L3.34998 77.65L2.95001 77.95L2.54999 78.15H2.14996L1.64996 77.95L1.14996 76.75L1.04999 76.65L0.25 75.65H0.349976H0.450012H0.549988V75.55L0.649963 75.45L0.75 75.35H0.849976V75.25H0.950012L1.04999 75.15L1.14996 75.05H1.25L1.34998 74.95V74.85L1.45001 74.75H1.54999L1.64996 74.65L1.75 74.55L1.84998 74.45H1.95001L2.14996 74.25L2.25 74.15L2.34998 74.05H2.45001V73.95L2.54999 73.85H2.64996V73.75H2.75H2.84998H2.95001V73.65H3.04999L3.14996 73.55H3.25V73.45H3.34998L3.45001 73.35V73.25H3.54999H3.64996H3.75H3.84998H3.95001H4.14996V73.15V73.05L4.34998 72.95L4.25 73.05H4.14996V73.15V73.25L4.25 73.15H4.34998H4.45001V73.05H4.54999H4.64996V72.95V72.85H4.75H4.84998H4.95001V72.75H5.04999V72.65L5.14996 72.75H5.25H5.34998V72.65L5.45001 72.55H5.34998V72.45H5.45001V72.35H5.54999H5.64996H5.75V72.25H5.84998H5.95001V72.15H6.04999V72.05H6.14996V71.95H6.25L6.34998 71.85L6.45001 71.75H6.54999L6.64996 71.65L6.75 71.55H6.84998L6.75 71.25H6.84998V71.15L6.95001 71.25H7.04999L7.14996 71.15L7.25 71.05H7.34998V70.95L7.45001 70.85V70.75H7.54999H7.64996H7.75L7.84998 70.65L7.95001 70.55V70.35V70.25H8.04999V70.15H8.14996V70.25H8.25H8.34998L8.25 70.15H8.34998H8.45001V70.05V69.95L8.34998 70.05V69.95L8.45001 69.85L8.54999 69.75V69.85L8.64996 69.95H8.75V69.85V69.75L8.84998 69.65V69.55L8.95001 69.45H9.04999L9.14996 69.35L9.34998 69.15V69.25H9.25V69.35H9.34998H9.45001V69.25L9.54999 69.15H9.64996V69.05H9.75V68.95V68.85L9.95001 68.75L10.05 68.65L10.15 68.45H10.25L10.35 68.35H10.25L10.35 68.25L10.45 68.05H10.55V67.95L10.65 67.85L10.75 67.75L10.85 67.65H10.95V67.55H11.05H11.15V67.45H11.25V67.35L11.35 67.25H11.45V67.05H11.55V66.95L11.85 66.65L11.95 66.55V66.45H12.05V66.35H12.15V66.25H12.25V66.15L12.35 66.05V65.95H12.45L12.55 65.85L12.65 65.75L12.75 65.65V65.55V65.45H12.85L12.95 65.35L13.05 65.25L13.15 65.15L13.25 65.05V64.95L13.35 64.85H13.45L13.55 64.75V64.65L13.65 64.55L13.75 64.45L13.85 64.35H13.95V64.15L14.05 64.05L14.15 63.95H14.25V63.85H14.35V63.75L14.45 63.65V63.55H14.55V63.45H14.65V63.35H14.75V63.25H14.85H14.95V63.15V63.05H15.05V62.95L15.15 63.05V62.95H15.25H15.35V62.85H15.45H15.55V62.95V63.05L15.65 63.15H15.75V63.25H15.85H15.95L16.05 63.35H16.15V63.25H16.05H15.95V63.15H15.85H15.75V63.05V62.95H15.65V62.85V62.75V62.65H15.75L15.65 62.55H15.45L15.35 62.45H15.45L15.55 62.55H15.65V62.45V62.35V62.25L15.75 62.05H15.85V61.95H15.95V61.85V61.75H16.05V61.65H16.15V61.55H16.25V61.45L16.35 61.35L16.45 61.25V61.15H16.55V61.05H16.65V60.95L16.75 61.05V60.95H16.85L16.75 60.85H16.85H16.95V60.75H16.85L16.95 60.65V60.55V60.45L17.05 60.55H17.15L17.25 60.45V60.35H17.35V60.25H17.45V60.15H17.55V60.05L17.65 59.95V59.85H17.75V59.75H17.85V59.65H17.95V59.55L18.05 59.45L18.15 59.35V59.25H18.25V59.15V59.05H18.35L18.25 58.95H18.35L18.45 58.85L18.55 58.75V58.65H18.65V58.55V58.45V58.35H18.75H18.85V58.25H18.95L18.85 58.15H18.95V58.05H19.05V57.95H19.15V57.85L19.25 57.75V57.65H19.35V57.55L19.45 57.35V57.25L19.75 56.95L19.85 56.85V56.75H19.95V56.55H20.05L20.15 56.45V56.35L20.25 56.25V56.15H20.35V56.05L20.45 55.95L20.55 55.75V55.65L20.65 55.55L20.75 55.35L20.85 55.25L20.95 55.15V55.05L21.05 54.95L21.15 54.65L21.25 54.55L21.35 54.35L21.45 54.25V54.15L21.65 53.95V53.85L21.85 53.55L21.95 53.25L22.05 53.15L22.15 52.95L22.25 52.75V52.55L22.35 52.35L22.45 52.25V52.15L22.55 52.05V51.85H22.65V51.75L22.75 51.45L22.85 51.25L22.95 50.95L23.05 50.85V50.65L23.25 50.35L23.35 49.95L23.45 49.75V49.65V49.55V49.35L23.55 49.25V49.05L23.65 48.85V48.75L23.75 48.65V48.45H23.65H23.55V48.35H23.45H23.35V48.25L23.45 48.35H23.55L23.65 48.45H23.75H23.85H23.95H24.05H24.15H24.35L24.45 48.35L24.55 48.25H24.65L24.75 48.15L24.85 48.05H24.95H25.05H25.15V47.95H25.25V47.85H25.35V47.75H25.25L25.15 47.65L25.05 47.55L24.95 47.65L24.85 47.75L24.75 47.85V47.95H24.55L24.35 48.05V48.15H24.25H24.15H24.05H23.85H23.75H23.65L23.55 48.05H23.65L23.75 48.15H23.85H23.95V48.05L24.05 47.95V47.85H24.15V47.75V47.65H24.25V47.55L24.35 47.45V47.35V47.25H24.45V47.15L24.55 47.05L24.65 46.95V46.85L24.75 46.75V46.65L24.85 46.55V46.45H24.95V46.35L25.05 46.25L25.15 46.05V45.95H25.25V45.85L25.35 45.75V45.65H25.45V45.55V45.45L25.55 45.35V45.25H25.65V45.15L25.75 45.05V44.95L25.85 44.85V44.75H25.95V44.65L26.05 44.55V44.45L26.15 44.35L26.25 44.25V44.15L26.35 44.05L26.45 43.85L26.55 43.75V43.65H26.65V43.55L26.75 43.45L26.85 43.15H26.95L27.15 42.75V42.65H27.25V42.55L27.35 42.45V42.35H27.45V42.25L27.55 42.15V42.05L27.75 41.85V41.75L28.05 41.35L28.15 41.15L28.25 41.05V40.95V40.85H28.35L28.55 40.55V40.45L28.65 40.35V40.25L28.75 40.15L28.85 40.05V39.95L28.95 39.85L29.05 39.75L29.15 39.55L29.25 39.45L29.35 39.25L29.45 39.15V39.05L29.55 38.95L29.65 38.85V38.75L29.75 38.65L29.85 38.55V38.45V38.35L29.95 38.25L30.05 38.15V38.05H30.15V37.95L30.25 37.85V37.75L30.35 37.65V37.55L30.45 37.45L30.55 37.35V37.25L30.65 37.15V37.05L30.75 36.95L30.85 36.85V36.75H30.95V36.65V36.55L31.05 36.45L31.15 36.35V36.25H31.25V36.15V36.05H31.35V35.95V35.85H31.45V35.75L31.75 35.25V35.15L32.05 34.75L32.15 34.55V34.45L32.25 34.35V34.25L32.35 34.05V33.95V33.85H32.45L32.65 33.55V33.45L32.75 33.35V33.25V33.15H32.85V33.05L32.95 32.95L33.25 32.35V32.25V32.15H33.35V31.95H33.45V31.85L33.55 31.75V31.65L33.65 31.45V31.35H33.75V31.25L33.85 31.05L33.95 30.95V30.85V30.75H34.05L34.25 30.35V30.25L34.35 30.15V29.95L34.45 29.85V29.75H34.55V29.65L34.85 29.05L34.95 28.75L35.05 28.55H35.15L35.25 28.25V28.15L35.35 28.05L35.55 27.55V27.45L35.85 26.95V26.85H35.95L36.15 26.45V26.35L36.25 26.25V26.15L36.45 25.75L36.55 25.65V25.55L36.65 25.45V25.35L36.75 25.15L36.85 24.95L36.95 24.85V24.75L37.05 24.65V24.55V24.45L37.15 24.35V24.25L37.25 24.15V24.05L37.35 23.95V23.85L37.45 23.75V23.65V23.55L37.55 23.45V23.35L37.75 23.05L37.85 22.85V22.75L37.95 22.65L38.05 22.45V22.35L38.15 22.25L38.25 21.95V21.85H38.35V21.75L38.45 21.65V21.55L38.55 21.35V21.25L38.65 21.15V21.05L38.75 20.95L38.85 20.75V20.65L38.95 20.55L39.05 20.15L39.15 20.05L39.25 19.85V19.65L39.45 19.35L39.55 19.25V19.05L39.65 18.85L39.85 18.35L39.95 18.05L40.05 17.95V17.85L40.15 17.75L40.25 17.45V17.25H40.35L40.45 17.05V16.95V16.85L40.65 16.45L40.75 16.25L40.85 15.95V15.85L40.95 15.75L41.05 15.35L41.15 15.25V15.15L41.25 14.95V14.85L41.35 14.75V14.65L41.45 14.45L41.85 13.45H41.95V13.35V13.25V13.15H42.05V12.95L42.55 11.75L42.65 11.65V11.55H42.75V11.45L42.85 11.35V11.25V11.15L43.25 10.25L43.35 10.15V10.05V9.95L43.45 9.85V9.75V9.65H43.55H43.65H43.75V9.55H43.65L43.75 9.45H43.85L43.95 9.35H44.05L44.15 9.55L44.25 9.65L44.35 9.75H44.55V9.85V9.95H44.45H44.35V10.05L44.45 10.15V10.25V10.35H44.35V10.45V10.55V10.65V10.85V10.95V11.05V11.15V11.25H44.25L44.05 11.35L43.85 11.25V11.15V11.05L43.95 10.95V10.85L43.85 11.05V11.15L43.75 11.25L43.85 11.65L43.95 11.75L43.85 11.85V11.95H43.75V12.05V12.15H43.65L43.75 12.25V12.35V12.45L43.85 12.35L43.95 12.25L44.05 12.15L44.25 12.05V11.95H44.15L44.05 12.05H43.95H43.85L43.95 11.95V11.85V11.75V11.65H43.85V11.55V11.35V11.25H43.95V11.45V11.65L44.05 11.75H44.15H44.35L44.45 11.85L44.55 11.95L44.65 12.05H44.75L44.85 12.15L44.95 12.25H45.05H45.15H45.25V12.15L45.35 12.05H45.45V11.85L45.65 11.75L45.75 11.45V11.55L45.65 12.05H45.55L45.45 12.25V12.45L45.35 12.55H45.15V12.65V12.75V12.85H45.05H44.95L44.75 12.95L44.65 13.15L44.75 13.25H44.65L44.75 13.35H44.85V13.25L44.95 13.15L45.05 12.95H45.15V13.05H45.25V12.95H45.35V12.85L45.45 12.75L45.75 12.45L45.85 12.35L45.95 12.15V11.95V11.75H46.05H46.25V11.65H46.35V11.45L46.25 11.35V11.15V10.95V10.85V10.75H46.15V10.65H46.25L46.15 10.55V10.45V10.35L46.25 10.25H46.15H46.05L45.95 10.15V10.25V10.35H45.85L45.75 10.25V10.15H45.65V10.05H45.55H45.45V9.95H45.35H45.25L45.15 9.85H45.25L45.35 9.75L45.15 9.85L45.05 9.75V9.65H44.95H44.75H44.65H44.55L44.45 9.55L44.35 9.45V9.35L44.25 9.15H44.15L44.05 9.25H43.95V9.35H43.85H43.75L43.65 9.45V9.55H43.55V9.45L43.65 9.35V9.25H43.75V9.15V9.05V8.95L43.85 8.85V8.75V8.65L44.15 8.05L44.35 7.45V7.25H44.45L44.55 6.75V6.65H44.65L44.75 6.35V6.15H44.85L44.95 5.75V5.65L45.05 5.55V5.25H45.15V5.05L45.25 4.85L45.35 4.65V4.55V4.45L45.45 4.35V4.25V4.15L45.55 4.05V3.95L45.65 3.75L45.75 3.65L45.85 3.35V3.25V3.15L45.95 2.85H46.05V2.75V2.65L46.15 2.55V2.45L46.25 2.25L46.35 1.95V1.85L46.45 1.75L46.55 1.65V1.45L46.65 1.25V1.15Z" fill="#6F9C76"/>
<path d="M2.84998 73.75H2.75H2.64996V73.85H2.54999L2.45001 73.95V74.05H2.34998L2.25 74.15L2.14996 74.25L1.95001 74.45H1.84998L1.75 74.55L1.64996 74.65L1.54999 74.75H1.45001L1.34998 74.85V74.95L1.25 75.05H1.14996L1.04999 75.15L0.950012 75.25H0.849976V75.35H0.75L0.649963 75.45L0.549988 75.55V75.65H0.450012H0.349976H0.25L1.04999 76.65L1.14996 76.75L1.64996 77.95L2.14996 78.15H2.54999L2.95001 77.95L3.34998 77.65L3.54999 77.75L3.75 77.85L3.54999 78.75L4.14996 79.25L4.25 79.55H4.45001H4.54999L4.84998 80.05V80.65L4.95001 81.25L5.25 81.85L5.45001 82.45L5.64996 83.45L5.75 83.75L5.34998 84.45L5.54999 84.65L5.34998 85.05L5.84998 85.35L6.04999 85.75V85.85L6.14996 86.85L6.54999 87.05L6.64996 87.65L6.95001 88.35L6.75 88.45L6.64996 88.75V89.35L6.84998 89.45L6.95001 89.75H7.04999L7.25 89.65L7.34998 89.95L7.45001 90.05V90.15L7.34998 90.25H7.25V90.45L7.34998 90.55L7.25 90.75V90.85L7.34998 90.95L7.54999 90.85V91.15V91.25L7.64996 91.35H7.75H7.84998V91.45H7.75H7.64996L7.84998 91.65L8.04999 91.75V91.95L8.25 91.85L8.34998 91.95V92.05H8.25L7.95001 92.15L7.84998 92.25L8.14996 92.45L8.25 92.65V92.75L8.45001 92.85L8.64996 92.95L8.75 93.15L8.95001 93.55L9.04999 93.85H9.34998L9.45001 93.95L9.54999 93.85L9.75 93.75V93.55V93.35L9.45001 92.95L9.54999 92.55L10.15 91.55L10.75 91.35H11.25L11.75 92.05L12.55 91.95L13.15 92.05L13.55 92.25H14.15L14.55 92.05L15.95 92.25L16.55 92.05L16.85 92.15L17.25 92.35L17.55 92.75L18.25 92.65H18.75L18.85 92.95L19.05 93.25V93.45L19.45 93.55L19.65 93.95L18.85 95.75L18.35 96.45L17.95 96.85L17.45 96.65L16.85 96.95L16.15 97.55L15.95 97.95V98.95L16.05 99.55L16.85 100.15L17.15 100.65L17.55 101.15V101.55L17.15 101.95L17.05 102.45L16.95 103.05V103.95V104.95L17.05 106.55L17.35 107.75V109.05L17.55 110.75L17.45 111.65V112.35L17.35 112.95L17.15 113.25L17.25 113.45L17.45 113.65L17.55 113.95L17.85 114.15L18.45 114.55L19.05 114.65H19.65L20.75 114.55H21.85L22.25 114.65H22.85L23.55 114.75H23.85L24.15 114.65L24.55 114.75L25.05 114.95L25.75 115.15L26.15 115.35L27.25 115.85H27.75L28.25 116.05L29.45 116.65L29.25 116.95L30.05 117.05L30.55 117.75L30.65 118.15L30.95 118.65H31.45L31.85 118.15L32.05 117.05L32.65 116.25L33.45 116.35L34.55 115.65L35.25 114.35L35.95 114.15L36.75 113.85L37.45 114.05L38.05 113.85L39.25 111.95L39.35 110.75L38.55 109.55L37.75 107.75L38.85 106.25L38.25 104.85L39.55 103.55L39.85 102.35L40.45 101.75V99.85V99.55V98.85L40.55 98.35V97.85L40.85 97.75L41.35 97.95H42.05L42.55 98.55L42.85 98.85H43.55L43.95 98.95L44.75 99.65L45.65 99.85L46.25 99.65L46.95 100.05H47.35L47.85 99.95H48.25L48.75 100.45H49.05L48.95 100.65L48.65 100.95L48.55 101.15L48.45 101.85L48.35 102.25L48.25 102.85L48.45 103.65V104.45L48.15 104.95L48.55 105.05L48.35 105.25V105.65L48.25 106.05L48.45 106.35L48.75 106.55L49.15 106.35H49.45H49.75L50.05 106.15L50.55 106.45L50.85 106.85H51.25H51.55L51.95 106.95L52.25 106.85L52.65 106.55L53.05 106.75L53.35 106.85H54.05L54.45 107.35L54.65 108.25L55.15 108.65L55.75 108.85H56.15H56.55L57.25 108.95L57.55 108.85H57.75H58.05H58.55H58.65H58.85L59.35 108.75H59.75V108.35L59.85 108.15V107.85L60.55 107.95H60.75L60.95 107.75L61.15 107.45L61.25 107.25L61.35 107.15L61.45 107.25V107.35L61.55 107.45L61.75 107.65L61.95 107.75L62.05 107.95H62.15H62.25L62.45 107.65L62.65 107.45L62.75 107.25L62.85 107.15H62.95V107.45H63.25L63.35 107.55V108.05H63.45H63.55V107.85V107.65L63.75 107.35H63.95H64.15L63.85 108.05V108.15H64.05L64.15 108.35L64.25 108.25H64.35H64.45H64.55L64.85 108.35H65.15L65.35 108.25H65.45L65.75 108.55L65.85 108.45H65.95H66.05H66.15L66.35 108.35L66.45 108.55L66.55 108.35H66.65L66.75 108.55H66.85H66.95L67.05 108.45L67.25 108.55L67.35 108.45L67.55 108.55H67.65H67.95H68.15H68.25L68.35 108.75L68.55 108.85L69.35 108.65L69.75 108.15L70.15 107.85L70.55 107.45L71.35 107.05L70.85 106.75L70.25 106.95L70.15 106.55L69.95 106.25L69.75 105.95L69.45 105.85L69.25 105.65L69.05 105.35L69.15 105.25L69.25 105.15L69.35 104.85L69.45 104.65L69.55 104.45L69.65 103.85V102.95L69.45 102.25L69.05 101.65V101.25L69.55 100.85L69.95 100.15L70.25 99.55V99.25L70.55 98.85L70.65 98.45H70.55V98.35L70.65 98.25L70.75 98.15H70.55L70.65 97.95H70.55H70.45H70.35V97.85L70.25 97.95H70.05L69.95 98.05H69.85L69.75 97.95H69.65L69.35 97.75H69.25V97.65V97.55L69.15 97.45H69.05L69.15 97.35L69.05 97.25H68.95H68.85V97.35H68.75V97.25H68.65L68.75 97.05H68.85H68.95H69.05L69.15 96.85V96.75V96.65L71.05 95.65L70.85 94.35L70.95 93.15L70.65 92.05L69.75 89.95L70.35 89.65L71.15 87.05L70.75 86.05L71.85 84.55L73.05 83.55L73.35 81.95L73.55 80.65L74.15 79.55L74.35 79.05L74.45 78.55L74.05 78.25L73.75 77.75L73.45 77.35L72.95 77.15L72.45 76.85L71.85 76.75L72.15 76.15L72.25 75.65L72.45 75.25L71.65 74.45L71.25 74.25L70.85 74.35L70.75 74.25V74.15L70.65 73.95L70.45 74.15L70.35 73.95L70.05 73.65L69.85 73.55L69.65 73.25L69.55 72.95L69.65 72.75L69.85 72.45L69.95 72.25L70.05 72.15L69.95 71.85V71.75L70.15 71.65H70.45H71.15L71.05 71.35L70.95 71.15V71.05V70.95V70.75V70.65L71.05 70.55L71.15 70.45V70.25H71.35V69.95V69.55L71.65 69.45L71.85 69.55L72.05 69.35L72.45 68.95L72.25 68.75V68.65L72.35 68.45H72.45L71.65 67.25L71.25 66.25L70.45 65.55L70.15 65.35L69.85 64.85L69.55 64.55L69.25 64.15L69.45 63.75L70.05 63.45L69.65 62.85L69.45 62.45L69.35 62.25V62.15L68.25 61.85L67.05 60.95L66.05 59.15L65.55 58.45L65.75 58.05V57.35L67.05 55.95L67.75 55.65L69.15 54.95L68.65 54.05L68.35 53.05L70.25 52.95V51.65L71.55 54.45L71.65 54.65H71.85L71.95 54.35H72.15H72.55V54.85H72.85L73.65 54.65L74.75 53.95H75.15L74.85 55.85L74.95 57.35L76.05 57.45H77.75H77.95L78.25 57.05L79.05 57.25H79.85L80.25 57.35L80.35 57.75L80.75 58.15L81.05 58.25L81.45 58.15L82.65 57.35L83.55 56.85L83.85 56.25L83.95 55.65L84.05 54.85L84.45 54.95L84.55 55.05L85.05 55.25L85.55 55.45L85.85 55.25L86.05 55.05H86.15L86.55 55.25L87.05 55.45L87.35 55.65V55.05L87.55 54.55H88.05L88.75 53.25L87.65 52.85L87.35 52.05L87.05 51.55L87.65 50.65L88.25 50.15H89.05L89.25 49.65L89.45 49.15L89.55 49.25H89.75L89.85 49.15V48.95L89.75 48.75L89.55 48.55L89.35 48.35L89.45 48.15V48.05L89.25 47.85L89.35 47.75L89.25 47.65V47.55H89.15V47.35V47.25H89.05H88.95V47.05L88.85 46.85V46.65V46.45L88.65 46.35L88.55 46.45V46.35V46.25L88.45 46.15V46.05H88.55H88.65V45.95L88.75 45.85H88.65L88.45 45.65L88.25 45.55L87.85 45.25L87.75 45.15V45.05V44.95V44.85L87.65 44.75L87.55 44.65V44.75H87.45V44.85V44.95H87.35V45.05H87.25H87.15V44.95L86.95 44.55L86.85 44.45L86.75 44.35H86.65H86.55L86.35 44.45V44.55V44.65V44.85V44.95L86.45 45.05L86.35 45.15H86.25L86.15 45.05V44.95L85.95 44.85H85.85L85.65 44.75V44.65L85.55 44.55L85.45 44.45V44.15V43.85L85.55 43.65L85.65 43.55L86.05 43.45L86.15 43.35V43.25L86.05 43.15L85.85 43.05L85.55 42.85L85.35 42.75L85.25 42.55L84.95 42.35H84.85L84.75 42.25L84.65 42.15L84.75 42.05V41.95V41.85H84.65H84.25L83.95 41.95L84.05 41.85L84.15 41.45V41.15L84.35 41.05L84.65 40.95H84.95L85.15 41.05L85.35 41.45L85.45 41.35H85.55L85.65 41.45L85.75 41.55L85.95 41.45L86.15 41.25L86.55 41.05L86.85 40.95L87.25 40.65L87.65 40.35L88.05 39.95L90.05 39.45L91.25 38.75L91.55 37.95L91.65 37.65L91.85 37.35L92.05 37.05L92.15 36.95L92.35 37.15H92.45H92.75L93.05 36.95L93.25 36.85L93.45 36.55L93.75 36.35L93.95 36.05L94.05 35.75V35.55L93.85 35.35V35.25L94.15 34.85L94.35 34.45L93.95 34.35H93.85L93.95 33.95L94.25 33.55L94.55 32.95L94.95 32.55L95.25 32.35L95.45 32.15L94.85 32.05L94.45 31.75L94.15 31.65L93.95 31.45H93.65L93.15 31.25L92.85 31.15L92.45 31.05L92.05 30.95L91.55 30.85L91.35 30.95L91.65 31.25V31.75L91.25 31.85L91.15 31.75L91.05 31.45L90.55 31.05L89.95 30.85H89.65H89.55L89.45 30.75L89.35 30.65H89.45V30.55L89.35 30.45V30.35L89.45 30.25V30.15V29.95H89.35L89.25 29.85L89.15 29.65V29.45V29.35L89.35 29.25V29.15L89.25 29.05L89.35 28.85V28.65L89.45 28.55L89.55 28.35L89.75 28.25L89.85 28.15L89.95 28.05L90.15 27.85L90.35 27.65L90.15 27.45L90.25 27.15L90.05 26.95L89.95 26.65L89.85 26.25L89.55 26.05L89.15 25.75L88.95 25.65L88.65 25.55V25.35H88.35L88.25 25.45H87.95L87.85 25.25L87.75 25.05L87.55 24.95H87.25H87.05L86.85 24.85L86.55 24.75H86.35L86.25 24.85L86.15 24.75V24.55L86.05 24.35L85.75 24.15L85.45 23.95H85.15H84.95L84.85 24.05L84.55 24.35H84.35H84.25L84.15 24.15L84.05 23.85L83.75 23.15L83.65 22.75L83.55 22.65V22.45H83.45H83.25H83.15L83.05 22.55L82.95 22.45V22.25L83.15 22.15V22.05L83.05 21.75V21.35L82.95 21.15V20.85H82.55H82.15H81.75V20.65V20.45L81.55 20.15V19.95L81.35 19.75L81.05 19.45L80.95 19.15V19.05L80.85 19.15L80.55 19.35H80.25V19.15V18.95L80.05 19.15L79.75 19.05L79.45 18.95L79.15 18.85H78.85L78.65 18.75V18.65L78.75 18.45L78.85 18.25L78.95 18.15L78.75 18.05L78.55 17.95H78.35L78.15 17.85L77.85 17.95L77.75 18.15H77.15L76.95 18.25V18.55L76.85 18.75L76.65 18.85L76.55 19.15L76.25 19.45L76.15 19.65H75.35L74.95 19.75L74.45 20.15L74.65 19.55V19.25L74.35 19.15L74.15 18.75L73.75 18.45L73.25 18.55L72.85 18.75L72.55 18.55L72.35 18.15L72.05 18.05L71.15 18.25L70.55 17.45L70.25 17.15L70.65 16.45L70.85 15.85L70.95 15.45L70.85 15.25V15.15L70.65 14.75L70.55 14.45L70.65 14.15L70.75 13.95V13.75L70.65 13.65V13.45L70.75 13.25V13.05V12.85V12.45L70.65 12.05L70.45 11.75L70.65 11.45L70.45 10.75L70.75 10.65L70.95 10.15L71.25 9.25L70.75 9.05L70.45 8.45L70.65 7.65L70.55 7.05L70.85 6.75L70.95 6.45V6.25V5.85L70.65 5.65L69.55 5.25L68.25 4.85L66.95 5.25L65.85 5.45H65.55L63.65 5.05L62.75 4.45L61.45 3.15L61.15 2.95L59.05 1.75L58.05 2.75H56.65L56.25 2.25L55.95 1.85L56.35 1.35L55.55 0.75L54.95 0.550003L54.65 0.449997L54.15 0.25L53.55 0.449997L52.75 0.550003L52.15 1.45L51.45 1.55L50.75 1.75L49.85 1.95H49.65L49.45 1.85L49.25 1.75H49.15H48.75L48.55 1.55L48.15 1.45L47.95 1.55L47.15 1.35L46.65 1.15V1.25L46.55 1.45V1.65L46.45 1.75L46.35 1.85V1.95L46.25 2.25L46.15 2.45V2.55L46.05 2.65V2.75V2.85H45.95L45.85 3.15V3.25V3.35L45.75 3.65L45.65 3.75L45.55 3.95V4.05L45.45 4.15V4.25V4.35L45.35 4.45V4.55V4.65L45.25 4.85L45.15 5.05V5.25H45.05V5.55L44.95 5.65V5.75L44.85 6.15H44.75V6.35L44.65 6.65H44.55V6.75L44.45 7.25H44.35V7.45L44.15 8.05L43.85 8.65V8.75V8.85L43.75 8.95V9.05V9.15V9.25H43.65V9.35L43.55 9.45V9.55H43.65M2.84998 73.75V73.65M4.34998 73.15H4.25L4.14996 73.25H3.95001H3.84998H3.75H3.64996H3.54999H3.45001V73.35L3.34998 73.45H3.25V73.55H3.14996L3.04999 73.65H2.95001V73.75H2.84998M4.34998 73.15V73.05V72.95L4.14996 73.05V73.15V73.25M4.14996 73.05H4.25L4.34998 72.95M4.34998 73.15H4.45001V73.05M4.45001 73.05V72.95M4.45001 73.05H4.54999H4.64996V72.95V72.85H4.75H4.84998H4.95001V72.75H5.04999V72.65L5.14996 72.75H5.25M5.25 72.75V72.85M5.25 72.75H5.34998V72.65L5.45001 72.55H5.34998V72.45H5.45001V72.35H5.54999H5.64996H5.75V72.25H5.84998H5.95001V72.15H6.04999V72.05H6.14996V71.95H6.25L6.34998 71.85L6.45001 71.75H6.54999L6.64996 71.65L6.75 71.55H6.84998L6.75 71.25H6.84998V71.15L6.95001 71.25H7.04999L7.14996 71.15L7.25 71.05H7.34998V70.95L7.45001 70.85V70.75H7.54999H7.64996H7.75L7.84998 70.65L7.95001 70.55V70.35V70.25H8.04999V70.15H8.14996V70.25M8.14996 70.25V70.35M8.14996 70.25H8.25H8.34998L8.25 70.15H8.34998H8.45001V70.05V69.95L8.34998 70.05V69.95L8.45001 69.85L8.54999 69.75V69.85L8.64996 69.95H8.75V69.85V69.75L8.84998 69.65V69.55L8.95001 69.45H9.04999L9.14996 69.35L9.34998 69.15V69.25H9.25V69.35H9.34998H9.45001V69.25L9.54999 69.15H9.64996V69.05H9.75V68.95V68.85L9.95001 68.75L10.05 68.65L10.15 68.45H10.25L10.35 68.35H10.25L10.35 68.25L10.45 68.05H10.55V67.95L10.65 67.85L10.75 67.75L10.85 67.65H10.95V67.55H11.05H11.15V67.45H11.25V67.35L11.35 67.25H11.45V67.05H11.55V66.95L11.85 66.65L11.95 66.55V66.45H12.05V66.35H12.15V66.25H12.25V66.15L12.35 66.05V65.95H12.45L12.55 65.85L12.65 65.75L12.75 65.65V65.55V65.45H12.85L12.95 65.35L13.05 65.25L13.15 65.15L13.25 65.05V64.95L13.35 64.85H13.45L13.55 64.75V64.65L13.65 64.55L13.75 64.45L13.85 64.35H13.95V64.15L14.05 64.05L14.15 63.95H14.25V63.85H14.35V63.75L14.45 63.65V63.55H14.55V63.45H14.65V63.35H14.75V63.25H14.85M14.85 63.25V63.15M14.85 63.25H14.95V63.15V63.05H15.05V62.95L15.15 63.05V62.95H15.25H15.35V62.85M15.35 62.85V62.75V62.65H15.25M15.35 62.85H15.45H15.55M15.55 62.85V62.75M15.75 63.15H15.65L15.55 63.05V62.95V62.85M15.55 62.75H15.45M15.55 62.75H15.65M15.55 62.75V62.65M15.65 63.15V63.05H15.75M15.75 63.15V63.25H15.85H15.95M15.75 63.15H15.85H15.95V63.25M15.75 63.15V63.05M15.95 63.25L16.05 63.35H16.15V63.25H16.05H15.95ZM15.75 63.05V62.95H15.65V62.85V62.75M15.65 62.75V62.65H15.75L15.65 62.55M15.65 62.55H15.55L15.45 62.45H15.35L15.45 62.55H15.65ZM15.65 62.55V62.45V62.35V62.25L15.75 62.05H15.85V61.95H15.95V61.85V61.75H16.05V61.65H16.15V61.55H16.25V61.45L16.35 61.35L16.45 61.25V61.15H16.55V61.05M16.55 61.05V60.95M16.55 61.05H16.65V60.95L16.75 61.05V60.95H16.85L16.75 60.85H16.85H16.95V60.75M16.95 60.75H16.85L16.95 60.65M16.95 60.75V60.65M16.95 60.65H17.05M16.95 60.65V60.55M16.95 60.55H17.05M16.95 60.55V60.45L17.05 60.55M23.75 48.45V48.65L23.65 48.75V48.85L23.55 49.05V49.25L23.45 49.35V49.55V49.65V49.75L23.35 49.95L23.25 50.35L23.05 50.65V50.85L22.95 50.95L22.85 51.25L22.75 51.45L22.65 51.75V51.85H22.55V52.05L22.45 52.15V52.25L22.35 52.35L22.25 52.55V52.75L22.15 52.95L22.05 53.15L21.95 53.25L21.85 53.55L21.65 53.85V53.95L21.45 54.15V54.25L21.35 54.35L21.25 54.55L21.15 54.65L21.05 54.95L20.95 55.05V55.15L20.85 55.25L20.75 55.35L20.65 55.55L20.55 55.65V55.75L20.45 55.95L20.35 56.05V56.15H20.25V56.25L20.15 56.35V56.45L20.05 56.55H19.95V56.75H19.85V56.85L19.75 56.95L19.45 57.25V57.35L19.35 57.55V57.65H19.25V57.75L19.15 57.85V57.95H19.05V58.05H18.95V58.15H18.85L18.95 58.25H18.85V58.35H18.75H18.65V58.45V58.55V58.65H18.55V58.75L18.45 58.85L18.35 58.95H18.25L18.35 59.05H18.25V59.15V59.25H18.15V59.35L18.05 59.45L17.95 59.55V59.65H17.85V59.75H17.75V59.85H17.65V59.95L17.55 60.05V60.15H17.45V60.25H17.35V60.35H17.25V60.45L17.15 60.55H17.05M17.25 60.45H17.15M23.75 48.45H23.65M23.75 48.45H23.85H23.95H24.05H24.15H24.35L24.45 48.35L24.55 48.25H24.65L24.75 48.15L24.85 48.05H24.95H25.05H25.15V47.95H25.25V47.85H25.35V47.75H25.25L25.15 47.65L25.05 47.55L24.95 47.65L24.85 47.75L24.75 47.85V47.95H24.55L24.35 48.05V48.15H24.25H24.15H24.05H23.85M23.65 48.45H23.55V48.35M23.45 48.35H23.55L23.65 48.45M23.45 48.35H23.35V48.25L23.45 48.35ZM23.85 48.15H23.75M23.85 48.15H23.95V48.05L24.05 47.95V47.85H24.15V47.75V47.65H24.25V47.55L24.35 47.45V47.35V47.25H24.45V47.15L24.55 47.05L24.65 46.95V46.85L24.75 46.75V46.65L24.85 46.55V46.45H24.95V46.35L25.05 46.25L25.15 46.05V45.95H25.25V45.85M23.75 48.15H23.65L23.55 48.05M23.75 48.15L23.65 48.05H23.55M23.55 48.05H23.45M25.25 45.85V45.75M25.25 45.85L25.35 45.75V45.65H25.45V45.55V45.45L25.55 45.35V45.25H25.65V45.15L25.75 45.05V44.95L25.85 44.85V44.75H25.95V44.65L26.05 44.55V44.45L26.15 44.35L26.25 44.25V44.15L26.35 44.05L26.45 43.85L26.55 43.75V43.65H26.65V43.55L26.75 43.45L26.85 43.15H26.95L27.15 42.75V42.65H27.25V42.55L27.35 42.45V42.35H27.45V42.25L27.55 42.15V42.05L27.75 41.85V41.75L28.05 41.35L28.15 41.15L28.25 41.05V40.95V40.85H28.35L28.55 40.55V40.45L28.65 40.35V40.25L28.75 40.15L28.85 40.05V39.95L28.95 39.85L29.05 39.75L29.15 39.55L29.25 39.45L29.35 39.25L29.45 39.15V39.05L29.55 38.95L29.65 38.85V38.75L29.75 38.65L29.85 38.55V38.45V38.35L29.95 38.25L30.05 38.15V38.05H30.15V37.95L30.25 37.85V37.75L30.35 37.65V37.55L30.45 37.45L30.55 37.35V37.25L30.65 37.15V37.05L30.75 36.95L30.85 36.85V36.75H30.95V36.65V36.55L31.05 36.45L31.15 36.35V36.25H31.25V36.15V36.05H31.35V35.95V35.85H31.45V35.75L31.75 35.25V35.15L32.05 34.75L32.15 34.55V34.45L32.25 34.35V34.25L32.35 34.05V33.95V33.85H32.45L32.65 33.55V33.45L32.75 33.35V33.25V33.15H32.85V33.05L32.95 32.95L33.25 32.35V32.25V32.15H33.35V31.95H33.45V31.85L33.55 31.75V31.65L33.65 31.45V31.35H33.75V31.25L33.85 31.05L33.95 30.95V30.85V30.75H34.05L34.25 30.35V30.25L34.35 30.15V29.95L34.45 29.85V29.75H34.55V29.65L34.85 29.05L34.95 28.75L35.05 28.55H35.15L35.25 28.25V28.15L35.35 28.05L35.55 27.55V27.45L35.85 26.95V26.85H35.95L36.15 26.45V26.35L36.25 26.25V26.15L36.45 25.75L36.55 25.65V25.55L36.65 25.45V25.35L36.75 25.15L36.85 24.95L36.95 24.85V24.75L37.05 24.65V24.55V24.45L37.15 24.35V24.25L37.25 24.15V24.05L37.35 23.95V23.85L37.45 23.75V23.65V23.55L37.55 23.45V23.35L37.75 23.05L37.85 22.85V22.75L37.95 22.65L38.05 22.45V22.35L38.15 22.25L38.25 21.95V21.85H38.35V21.75L38.45 21.65V21.55L38.55 21.35V21.25L38.65 21.15V21.05L38.75 20.95L38.85 20.75V20.65L38.95 20.55L39.05 20.15L39.15 20.05L39.25 19.85V19.65L39.45 19.35L39.55 19.25V19.05L39.65 18.85L39.85 18.35L39.95 18.05L40.05 17.95V17.85L40.15 17.75L40.25 17.45V17.25H40.35L40.45 17.05V16.95V16.85L40.65 16.45L40.75 16.25L40.85 15.95V15.85L40.95 15.75L41.05 15.35L41.15 15.25V15.15L41.25 14.95V14.85L41.35 14.75V14.65L41.45 14.45L41.85 13.45H41.95V13.35V13.25V13.15H42.05V12.95L42.55 11.75L42.65 11.65V11.55H42.75V11.45L42.85 11.35V11.25V11.15L43.25 10.25L43.35 10.15V10.05V9.95L43.45 9.85V9.75V9.65H43.55M43.55 9.65V9.75M43.55 9.65H43.65H43.75V9.55H43.65M43.65 9.55L43.75 9.45H43.85L43.95 9.35M43.65 9.55V9.45L43.75 9.35H43.85H43.95M43.95 9.35V9.45V9.55M43.95 9.35H44.05L44.15 9.55L44.25 9.65L44.35 9.75H44.55V9.85V9.95H44.45H44.35V10.05L44.45 10.15V10.25V10.35H44.35V10.45V10.55V10.65V10.85V10.95V11.05V11.15V11.25H44.25L44.05 11.35L43.85 11.25M43.95 11.65L44.05 11.75H44.15H44.35L44.45 11.85L44.55 11.95L44.65 12.05H44.75L44.85 12.15L44.95 12.25H45.05H45.15H45.25V12.15L45.35 12.05H45.45V11.85L45.65 11.75L45.75 11.45V11.55L45.65 12.05H45.55L45.45 12.25V12.45L45.35 12.55H45.15V12.65V12.75V12.85H45.05H44.95L44.75 12.95L44.65 13.15L44.75 13.25H44.65L44.75 13.35H44.85V13.25L44.95 13.15L45.05 12.95H45.15V13.05H45.25V12.95H45.35V12.85L45.45 12.75L45.75 12.45L45.85 12.35L45.95 12.15V11.95V11.75H46.05H46.25V11.65H46.35V11.45L46.25 11.35V11.15V10.95V10.85V10.75H46.15V10.65H46.25L46.15 10.55V10.45V10.35L46.25 10.25H46.15H46.05L45.95 10.15V10.25V10.35H45.85L45.75 10.25V10.15H45.65V10.05H45.55H45.45V9.95H45.35H45.25L45.15 9.85L45.05 9.75V9.65H44.95H44.75H44.65H44.55L44.45 9.55L44.35 9.45V9.35L44.25 9.15H44.15L44.05 9.25H43.95V9.35M43.85 11.25V11.15M43.85 11.25V11.35V11.55V11.65M43.85 11.25H43.95V11.45V11.65M43.85 11.15V11.05M43.95 11.75L43.85 11.65L43.75 11.25L43.85 11.15M43.85 11.05L43.95 10.95V10.85L43.85 11.05ZM43.85 11.65H43.95M43.95 11.75L43.85 11.85V11.95H43.75V12.05V12.15H43.65L43.75 12.25V12.35V12.45L43.85 12.35L43.95 12.25L44.05 12.15L44.25 12.05V11.95H44.15L44.05 12.05H43.95H43.85L43.95 11.95V11.85V11.75ZM43.95 11.75V11.65M45.15 9.85H45.25L45.35 9.75L45.15 9.85Z" stroke="white" stroke-width="0.5" stroke-linecap="round" stroke-linejoin="round"/>
</svg>
