<svg width="110" height="134" viewBox="0 0 110 134" fill="none" xmlns="http://www.w3.org/2000/svg">
<path d="M108.85 38.75L108.95 39.05L109.05 39.35V39.55L108.35 39.65L108.15 39.85L107.75 40.15L107.45 40.35L107.05 40.55L106.95 40.85L106.85 41.15L106.75 41.45L106.55 41.75L106.45 41.95L106.25 42.05L106.05 42.25L105.95 42.45L105.85 42.65V42.75L105.95 42.95L106.15 43.15H106.35L106.45 43.35L106.15 43.55L105.85 43.85L105.55 44.35V44.45L105.45 45.25L105.65 45.75L105.75 46.45V47.35L105.65 48.05L105.35 48.55V49.35L105.55 49.75L105.65 50.55L105.75 51.05V51.35L105.55 51.95L105.35 53.05L105.15 53.65L105.25 54.45L104.95 54.65L103.95 55.35L104.25 55.95L104.35 56.35V57.15L104.15 57.85L103.85 58.35L103.65 59.25V59.95L103.55 60.85H103.45L102.75 60.65L102.25 60.55L101.75 60.45L101.25 60.25L100.95 60.85L101.45 61.85L101.35 62.85L101.05 63.65L100.65 63.95L99.65 64.25H99.45L98.85 64.45L97.85 64.65H97.15H94.05L94.15 64.95L94.45 65.75L94.05 66.75L94.65 68.55L94.55 69.25V69.35V70.05L94.15 70.35L95.15 70.75L95.95 70.95H96.15L96.35 71.05L96.55 71.15L97.25 71.35L97.05 71.75L96.85 72.35L95.45 74.05L95.55 74.55L95.65 74.85L95.85 75.35L95.95 75.85L96.25 76.25L96.75 76.75L97.55 77.35L97.95 77.55L98.25 77.75L98.45 78.05L98.65 78.85L98.75 79.35L98.15 79.55L95.45 78.85L93.95 78.05L92.55 77.95L91.35 79.15L88.65 79.45L86.55 79.55L86.05 80.55L84.45 81.85L82.95 83.85L80.35 84.75L80.05 84.95L78.75 84.85L77.85 84.65L77.75 84.95L77.45 85.25L77.15 85.55L76.75 86.15L76.55 86.75L76.65 87.45L76.15 88.95L75.85 91.05L75.55 93.85L78.75 95.05L80.05 96.65L80.25 97.35L79.25 98.95L78.85 99.45V99.65V100.05V101.05L79.25 101.65L77.25 102.75L75.15 103.25L73.85 103.95L73.55 104.15L73.25 104.85L72.55 106.05L72.15 107.05L71.45 108.25L70.65 108.95L69.55 109.55L68.75 110.15L68.05 110.45L66.45 111.05L63.45 111.85L63.15 111.95L62.35 112.35L61.05 112.95L58.55 114.05L55.85 115.35L53.15 116.35L50.95 117.35L48.75 118.15L47.35 118.85L46.85 119.45L46.45 120.05L46.35 120.15L46.15 120.55L45.95 120.85L45.65 120.95L44.65 120.75L44.35 120.35L44.25 121.05L43.65 121.55L42.85 121.75L41.65 122.35L40.45 123.05L40.05 123.25L36.35 126.15H34.85L32.75 125.65L32.65 128.75L32.35 130.15L32.15 131.45L31.85 132.55L31.15 133.05H30.55L29.75 133.25L28.35 133.35L27.15 133.45L21.05 133.25L18.55 132.95H18.25L17.25 133.05L16.65 133.65L15.75 131.75L15.25 130.75L15.05 130.55L14.75 130.75L14.35 131.35L13.85 131.75L12.75 131.95L11.65 132.05L11.05 131.85H10.65L10.45 131.95L9.75 131.05L9.54999 130.15L9.34998 129.35L9.15002 128.85L8.84998 128.15L8.75 128.25L8.45001 128.55L7.95001 128.85L7.75 128.65L7.34998 128.15L7.54999 127.35L7.95001 126.65L8.15002 125.75H8.84998L9.25 124.85L9.54999 123.15L9.75 122.25V121.95L10.25 121.45L10.05 120.15L6.95001 120.05L6.04999 118.95L5.84998 118.35L5.45001 117.05L3.25 116.25L2.95001 115.55L3.25 113.75L2.95001 113.05L2.45001 113.15H1.95001L1.25 113.25H0.650024H0.450012V112.85L0.349976 112.55V112.45V112.25L0.25 112.05V111.85L0.450012 111.75L0.549988 111.65L1.15002 111.75L0.950012 111.15L0.549988 110.85L0.349976 110.65L0.849976 110.25L1.45001 109.85L2.04999 109.35L2.25 108.45H2.65002L2.75 108.95H3.15002L3.25 108.25L3.15002 107.65L3.54999 107.45L4.04999 107.65L4.34998 107.45L5.04999 107.55V106.85L5.65002 107.55H6.34998H6.65002V107.85L6.84998 107.95H7.25L7.34998 108.25L7.65002 108.45L7.95001 108.55L8.15002 108.75L8.54999 108.65L8.95001 108.55L10.05 108.15L11.65 107.75L11.95 107.65H12.75H13.55H14.55L15.85 106.85L14.85 106.05L15.15 104.35L15.35 103.95L15.15 103.65L15.25 103.55L15.55 103.75L16.15 103.95L16.55 104.05L16.95 103.95L16.65 103.45L16.55 103.05L16.45 102.35H15.85L16.05 101.45H15.75L15.55 101.55L14.95 100.75L14.65 100.15L14.35 99.65L14.15 99.45L14.35 98.75L13.55 98.55L13.65 97.65V97.35L13.75 96.55L13.55 95.65L13.45 94.95L14.25 94.55L14.05 93.95L12.75 93.05L12.45 92.45L11.95 92.15L11.25 91.55L10.95 90.25V90.05V88.85L10.85 87.55L10.35 86.55L10.45 85.85L10.25 85.35L10.15 84.85L10.45 83.95L10.65 83.35L10.55 82.85L10.85 82.05L11.05 81.65L11.25 80.95L11.55 79.65L11.25 79.05L10.95 78.45L11.05 77.95L11.25 77.05L11.45 76.05L11.55 75.25L11.65 74.95L11.75 74.35V73.85L11.65 73.75L11.35 73.45L11.15 72.95L11.05 72.75L10.95 72.65L10.85 72.55L10.75 72.65L10.65 72.75L10.55 72.95V73.15V73.25L10.45 73.35H10.35H10.25L10.15 73.15L10.05 73.05L10.25 72.65L11.05 71.55L11.55 70.95L14.95 69.65L15.25 68.95V68.15L15.65 67.15L16.35 65.55L16.75 64.45L17.05 63.55L17.25 62.65L17.45 61.85L17.25 61.15L17.35 60.55L16.95 59.55L16.65 58.75L16.25 58.25L17.25 58.05L17.35 57.45L17.45 56.95L17.55 54.95L17.75 53.35L17.45 52.85L16.95 52.45L16.35 52.05L16.15 51.65L15.95 51.25L15.75 50.95L15.55 50.75L15.15 50.45L14.85 50.25L14.65 49.95L14.45 49.55L14.15 49.35L14.25 49.05L14.35 48.65L14.45 48.25L14.65 47.85V47.25L14.85 46.75L15.35 45.95L15.95 44.85L15.25 44.95L15.55 43.75L16.05 42.95L16.45 42.35L16.55 41.85L16.65 41.55L16.75 41.35L16.85 40.85L17.05 40.35V40.05L16.95 36.75L16.75 35.35L16.85 34.85L17.15 34.35L16.65 33.85L16.85 33.35L16.95 33.25L18.05 33.65L18.75 33.45L19.05 33.05L19.15 32.65L19.45 32.25L19.65 31.75L20.05 31.05L19.95 29.95L21.15 27.45L20.65 26.95L22.15 25.75L21.65 24.15L22.55 23.85L22.75 21.65L23.15 20.55L23.45 19.75L23.75 18.85L23.95 17.85L24.15 17.55L24.45 17.25L24.75 17.05L24.95 16.75L25.45 16.45L25.85 16.25L26.05 16.15H26.45L27.35 15.75L27.45 15.95L27.65 16.15L27.75 16.45L28.05 16.65L28.65 17.05L29.25 17.15H29.85L30.95 17.05H32.05L32.45 17.15H33.05L33.75 17.25H34.05L34.35 17.15L34.75 17.25L35.25 17.45L35.95 17.65L36.35 17.85L37.45 18.35H37.95L38.45 18.55L39.65 19.15L39.45 19.45L40.25 19.55L40.75 20.25L40.85 20.65L41.15 21.15H41.65L42.05 20.65L42.25 19.55L42.85 18.75L43.65 18.85L44.75 18.15L45.45 16.85L46.15 16.65L46.95 16.35L47.65 16.55L48.25 16.35L49.45 14.45L49.55 13.25L48.75 12.05L47.95 10.25L49.05 8.75L48.45 7.35001L49.75 6.05L50.05 4.85001L50.65 4.25V2.35001V2.05V1.35001L50.75 0.850006V0.350006L51.05 0.25L51.55 0.449997H52.25L52.75 1.05L53.05 1.35001H53.75L54.15 1.45L54.95 2.14999L55.85 2.35001L56.45 2.14999L57.15 2.55H57.55L58.05 2.45H58.45L58.95 2.95H59.25L59.15 3.14999L58.85 3.45L58.75 3.64999L58.65 4.35001L58.55 4.75L58.45 5.35001L58.65 6.14999V6.95L58.35 7.45L58.75 7.55L58.55 7.75V8.14999L58.45 8.55L58.65 8.85001L58.95 9.05L59.35 8.85001H59.65H59.95L60.25 8.64999L60.75 8.95L61.05 9.35001H61.45H61.75L62.15 9.45L62.45 9.35001L62.85 9.05L63.25 9.25L63.55 9.35001H64.25L64.65 9.85001L64.85 10.75L65.35 11.15L65.95 11.35H66.35H66.75L67.45 11.45L67.75 11.35H67.95H68.25H68.75H68.85H69.05L69.55 11.25H69.95V10.85L70.05 10.65V10.35L70.75 10.45H70.95L71.15 10.25L71.35 9.95L71.45 9.75L71.55 9.64999L71.65 9.75V9.85001L71.75 9.95L71.95 10.15L72.15 10.25L72.25 10.45H72.35H72.45L72.65 10.15L72.85 9.95L72.95 9.75L73.05 9.64999H73.15V9.95H73.45L73.55 10.05V10.55H73.65H73.75V10.35V10.15L73.95 9.85001H74.15H74.35L74.05 10.55V10.65H74.25L74.35 10.85L74.45 10.75H74.55H74.65H74.75L75.05 10.85H75.35L75.55 10.75H75.65L75.95 11.05L76.05 10.95H76.15H76.25H76.35L76.55 10.85L76.65 11.05L76.75 10.85H76.85L76.95 11.05H77.05H77.15L77.25 10.95L77.45 11.05L77.55 10.95L77.75 11.05H77.85H78.15H78.35H78.45L78.55 11.25L78.75 11.35L79.55 11.15L79.95 10.65L80.35 10.35L80.75 9.95L81.55 9.55L81.05 9.25L80.45 9.45L80.35 9.05L80.15 8.75L79.95 8.45L79.65 8.35001L79.45 8.14999L79.25 7.85001L79.35 7.75L79.45 7.64999L79.55 7.35001L79.65 7.14999L79.75 6.95L79.85 6.35001V5.45L79.65 4.75L79.25 4.14999V3.75L79.75 3.35001L80.15 2.64999L80.45 2.05V1.75L80.75 1.35001L80.85 0.949997L81.05 1.05L81.15 1.25L80.95 1.45L80.85 1.55L81.05 1.75V2.05L81.55 2.35001L81.75 2.55L81.55 2.85001L81.65 3.05L81.95 3.14999L82.15 3.45L82.55 3.64999V3.85001L82.85 4.35001L83.45 4.05L83.95 4.35001L84.15 4.64999L86.45 5.64999L86.75 5.75H86.95H87.15H87.35L87.55 5.95L87.85 5.75L87.65 5.95L87.95 6.05L88.15 5.95L88.35 6.05L88.85 6.25H89.15L89.35 6.05L89.55 6.45L89.75 6.55L89.95 6.25L90.25 6.55L90.45 6.45L90.55 6.25L90.85 6.14999L91.05 6.55H91.55L91.65 6.25H91.75L91.95 6.64999L92.25 6.95L92.15 7.35001L92.45 7.55L92.75 7.64999L93.15 7.75L93.25 8.05L93.55 8.25L93.75 8.45L93.85 8.55L93.75 8.75L93.65 8.95L93.95 9.05L94.35 9.14999L94.65 9.25L94.95 9.85001L94.85 10.15L95.05 10.45L95.55 10.15L95.45 10.65L95.55 11.05L95.85 11.15L95.95 11.45L95.25 14.45L96.45 15.75L96.65 18.35L97.55 19.15L98.15 19.75L98.35 19.85L98.65 20.25L99.05 20.35L99.65 20.55L100.05 20.65L100.25 20.75L101.65 20.85L102.85 20.95L104.25 20.45L106.55 19.55H107.05L107.35 19.95L107.45 20.35L107.25 22.45L106.45 24.45L104.85 25.35L105.45 28.35L106.95 28.65V29.85L107.05 30.25L106.05 31.05L106.15 31.45L106.65 31.85L107.35 32.35L107.85 32.65L108.95 34.25L109.55 35.25L109.15 36.55L108.85 37.05L108.55 37.75L108.15 38.35L107.85 38.95L107.75 39.25H107.85L108.55 38.95L108.85 38.75Z" fill="#6F9C76" stroke="white" stroke-width="0.5" stroke-linecap="round" stroke-linejoin="round"/>
</svg>
