<svg width="122" height="97" viewBox="0 0 122 97" fill="none" xmlns="http://www.w3.org/2000/svg">
<path d="M0.350006 70.05V69.95L0.449982 69.85H0.350006L0.449982 69.75V69.65H0.549988V69.55H0.649994V69.45H0.75V69.35H0.850006L0.949982 69.25V69.15L0.850006 69.25V69.15H0.949982V69.05H1.04999V68.95H1.14999V69.05H1.04999V69.15V69.25H1.14999H1.25H1.35001L1.44998 69.15L1.54999 69.05H1.64999V68.95H1.75V68.85V68.75V68.65H1.85001V68.55H1.94998H2.04999H2.14999V68.45V68.35V68.25H2.25V68.15V68.05H2.35001H2.44998H2.54999H2.64999H2.75L2.85001 67.95V67.85H2.94998V67.75H3.04999V67.65H3.14999V67.55L3.25 67.45V67.35H3.35001L3.44998 67.25H3.54999V67.15H3.64999L3.75 67.05V66.95H3.85001V66.85H3.94998H4.04999V66.75L4.14999 66.85V66.75H4.25V66.65H4.14999V66.75H4.04999V66.85H3.94998H3.85001L3.75 66.95V67.05H3.64999V67.15H3.54999H3.44998V67.05L3.54999 66.95H3.44998V67.05L3.35001 67.15V67.25L3.25 67.35H3.14999H3.04999V67.45H2.94998H2.85001V67.55H2.75V67.65H2.64999V67.75H2.75V67.85V67.95H2.64999H2.54999H2.44998H2.35001L2.25 68.05V68.15H2.14999V68.25V68.35H2.04999V68.45H1.94998H1.85001V68.55H1.75V68.65V68.75H1.64999V68.85V68.95H1.54999L1.44998 68.85V68.75H1.35001V68.65H1.44998V68.55H1.54999H1.64999V68.45H1.75V68.35H1.85001V68.25H1.94998V68.15H2.04999V68.05H2.14999V67.95H2.25V67.85H2.35001V67.75H2.44998V67.65H2.54999V67.55H2.64999H2.75V67.45H2.85001V67.35H2.94998V67.25H3.04999V67.15H3.14999L3.25 67.05V66.95H3.35001L3.44998 66.85L3.54999 66.75H3.64999L3.75 66.65H3.85001V66.55H3.94998V66.45H4.04999L4.14999 66.35V66.25H4.25H4.35001V66.15L4.44998 66.05H4.54999V65.95L4.75 65.85L4.85001 65.75L4.94998 65.65H5.04999V65.55H5.14999V65.45H5.25V65.35H5.35001L5.44998 65.25V65.15H5.54999L5.64999 65.05V64.95H5.75V64.85H5.85001L5.94998 64.75H6.04999V64.65H6.14999V64.55H6.25V64.45H6.35001L6.44998 64.35H6.54999V64.25H6.64999V64.15H6.75L6.85001 64.05H6.94998V63.95H7.04999V63.85H7.14999V63.75H7.25L7.35001 63.65L7.44998 63.55L7.54999 63.45L7.64999 63.35H7.75V63.25H7.85001V63.15H7.94998V63.05H8.04999L8.14999 62.95L8.25 62.85V62.75H8.35001V62.65H8.44998V62.55H8.54999L8.64999 62.45V62.35H8.75L8.85001 62.25V62.15H8.94998V62.05H9.04999V61.95H9.14999V61.85H9.25L9.35001 61.65L9.44998 61.55V61.45H9.54999V61.35L9.64999 61.25L9.75 61.15L9.85001 61.05L9.94998 60.95V60.85H10.05V60.75L10.15 60.65V60.55L10.25 60.45H10.35V60.35L10.45 60.25L10.55 60.15L10.65 60.05V59.95H10.75V59.85H10.85V59.75H10.95V59.65H11.05V59.55H11.15V59.45H11.25V59.35H11.35V59.25H11.45L11.55 59.15L11.65 59.05V58.95H11.75V58.85L11.85 58.75H11.95V58.65H12.05L12.15 58.55L12.25 58.45V58.35L12.45 58.25V58.15L12.55 58.05L12.65 57.95L12.75 57.85L12.85 57.75V57.65H12.95L13.05 57.55V57.45H13.15V57.35H13.25L13.35 57.25L13.45 57.15L13.55 57.05L13.65 56.85L13.75 56.75L13.85 56.65L13.95 56.55L14.15 56.35L14.25 56.25H14.35V56.15L14.45 56.05L14.55 55.95L14.65 55.85L14.75 55.65H14.85V55.45V55.35H14.95V55.25L15.15 55.15L15.25 55.05V54.95L15.35 54.85L15.45 54.75L15.55 54.65L15.65 54.55L15.75 54.45V54.35H15.85L15.95 54.25L16.05 54.15V54.05V53.95H16.15L16.35 53.85L16.25 53.95L16.15 54.05L16.25 54.15L16.15 54.25H16.05V54.35H16.15V54.45L16.25 54.35H16.35V54.25H16.55L16.65 54.15L16.75 54.05L16.85 53.85L16.95 53.75V53.45L17.05 53.35L17.25 53.45V53.35H17.35V53.25L17.45 53.05H17.55V52.95H17.65V52.85H17.45H17.35H17.25H17.15V52.95L17.05 53.05H16.95L17.05 53.15H16.95L16.85 53.25L16.75 53.15V53.25L16.65 53.45H16.55V53.65H16.65L16.55 53.75V53.85L16.35 53.75V53.85H16.15V53.75H16.25L16.35 53.65L16.45 53.55V53.45H16.55V53.35H16.65L16.75 53.05L16.85 52.95H16.75L16.85 52.85V52.75H16.95V52.85H17.05V52.65L16.95 52.75V52.65H17.05L17.15 52.55H17.25V52.45H17.35L17.45 52.35L17.55 52.25L17.65 52.15V52.05H17.75L17.85 51.95H17.95V51.85L18.05 51.75L17.95 51.65H18.05V51.55H18.15V51.45L18.35 51.35L18.55 51.15L18.65 50.95H18.75V50.85L18.85 50.75L18.95 50.65V50.55H18.85V50.45H18.95V50.35V50.25V50.15H19.05L19.15 50.05H19.25V49.95V49.85H19.15V49.75L19.25 49.85L19.35 49.75H19.45L19.55 49.55H19.65V49.45L19.75 49.35V49.25V49.15L19.95 49.05L20.05 48.75H20.15V48.65H20.25V48.55L20.35 48.45H20.45V48.35H20.55V48.25H20.65V48.15L20.75 48.05H20.85V47.95H20.95V47.85V47.75L21.05 47.65V47.75L21.15 47.65V47.55H21.25V47.45V47.35V47.25L21.35 47.15H21.45H21.55L21.65 47.05L21.75 46.95V46.85V46.75H21.85V46.65H21.95V46.55H21.85V46.45H21.95V46.35H22.05L22.15 46.25V46.15H22.25V46.05H22.35L22.25 45.95H22.35L22.45 45.85H22.55L22.65 45.75V45.65H22.75V45.55V45.45V45.35H22.85V45.25V45.05L22.45 44.75H22.55L22.65 44.85L22.85 45.05H22.95V44.95L22.75 44.85L22.65 44.75H22.75H22.85L23.05 44.95V44.85L22.75 44.65L22.95 44.75H23.05L23.15 44.65V44.55L22.95 44.45H23.15H23.25V44.55H23.35V44.45V44.35V44.25L23.25 44.35L23.05 44.25L23.15 44.15H23.25L23.15 44.05H23.05L22.85 44.15H22.65V44.25H22.55L22.45 44.35L22.25 44.55L22.05 44.95V44.85L22.35 44.45L22.45 44.35L22.55 44.25L22.75 44.15L22.85 44.05H23.05H23.15L23.25 44.15H23.35H23.45H23.55V44.25H23.65L23.55 44.15H23.45H23.35L23.45 44.05H23.55V43.95H23.65V43.85H23.75V43.75L23.65 43.65L23.55 43.35H23.45L23.35 43.15L23.25 43.05L23.15 42.95V42.85V42.75V42.65H23.05L22.95 42.55H22.85V42.45L22.95 42.35V42.25L23.05 42.15L23.15 42.05V41.95L23.25 41.85H23.35H23.45V41.75V41.65H23.55L23.65 41.45V41.35L23.75 41.25H23.85V41.05H23.95L23.85 40.85H23.95V40.75H24.05H24.15V40.65H24.25H24.35V40.75L24.45 40.65V40.55H24.55V40.45L24.65 40.35L24.75 40.25V40.15H24.85L24.95 40.05V39.95V39.85H25.05V39.75L25.15 39.65L25.25 39.55V39.45L25.35 39.35H25.45V39.25L25.55 39.15L25.65 39.05L25.75 38.95H25.85H26.05H26.15H26.25H26.35V38.85H26.45V38.75V38.65H26.55H26.65V38.55L26.75 38.45V38.35V38.25V38.15V38.05L27.05 37.85V37.75L27.15 37.65L27.25 37.55H27.15V37.45H27.25V37.35H27.35V37.25H27.45H27.55L27.65 37.15V37.05H27.75V36.95L27.85 36.85H27.95H28.05L28.15 36.75V36.65H28.25H28.35V36.55L28.25 36.35L28.35 36.45V36.55L28.45 36.45V36.55H28.55H28.65V36.45L28.75 36.35L28.85 36.25L28.95 36.15V36.05H29.05H29.15L29.25 36.15H29.35H29.45V36.25L29.55 36.35H29.65L29.75 36.45H29.65H29.55V36.55H29.65L29.55 36.65H29.65V36.75L29.75 36.85L29.85 36.95H29.95L30.05 37.05L30.15 37.15L30.25 37.25H30.45H30.65H30.75H30.85H30.95H31.05H31.25H31.45L31.55 37.15L31.75 37.05H31.95L32.15 36.95L32.35 36.85H32.45L32.65 36.65H32.85L32.95 36.55H33.05L33.15 36.45L33.35 36.35L33.55 36.25L33.75 36.05L33.95 35.95L34.15 35.85L34.25 35.75L34.45 35.65L34.65 35.45L34.75 35.35H34.85L34.95 35.25L35.05 35.15L35.15 35.05H35.25V34.95H35.35L35.45 34.85L35.55 34.75L35.75 34.55L35.85 34.45L35.95 34.35L36.05 34.25H36.15V34.15L36.25 34.05L36.35 33.95L36.45 33.85H36.55L36.65 33.75L36.75 33.65V33.55H36.85L36.95 33.45L37.05 33.35L37.25 33.25L37.35 33.05L37.55 32.95H37.65L37.75 32.85V32.75L38.05 32.65H38.15V32.55V32.45H38.25V32.35V32.25H38.35L38.45 32.05L38.55 31.95L38.65 31.75H38.75V31.65V31.55L38.85 31.45L38.95 31.15L39.05 31.05V30.85L39.15 30.75L39.25 30.65V30.55L39.35 30.35L39.45 30.25V30.15H39.55V30.05L39.65 29.95H39.75V29.85H39.85L39.95 29.75L40.05 29.65H40.15V29.55H40.25H40.35H40.55L40.95 29.45H41.15H41.25H41.35V29.35H41.45H41.55L41.75 29.25V29.15H41.85L41.95 29.05H42.15H42.25V28.95H42.35L42.45 29.05H42.55L42.75 28.95L42.85 28.85L43.05 28.65H43.35H43.95L44.45 28.45L44.85 28.35L45.15 28.15L45.35 28.05L45.65 27.85L45.85 27.75L46.05 27.55L46.25 27.35L46.35 27.25H46.45L46.55 27.15L46.65 27.25H46.75H46.85H46.95H47.05V27.15L47.25 27.05H47.45H47.65H47.75H47.85H47.95L48.05 26.95H48.15L48.65 26.85L49.15 26.65L49.45 26.45L49.65 26.35H49.75V26.25L49.85 26.15H50.05L50.45 25.95L50.65 25.85V25.75L50.95 25.65L51.05 25.55L51.35 25.45L51.75 25.35L52.15 25.15L52.35 25.05H52.45V24.95H52.55L52.75 24.85H52.85H52.95L53.05 24.75H53.15L53.25 24.65L53.95 24.35L54.25 24.25H54.35L54.55 24.15L54.75 24.05H55.15L55.35 23.95L55.45 23.85L55.55 23.75H55.65L55.75 23.65L55.85 23.55L55.95 23.45H56.05V23.35H56.25L56.35 23.25L56.45 23.15H56.55L56.65 23.05L56.75 22.95H56.85H56.95V22.85L57.55 22.55L57.75 22.45L57.85 22.35H58.05V22.25L58.15 22.35H58.25L58.35 22.45H58.55L58.95 22.35L59.55 22.15L59.75 22.05L59.85 21.95L59.95 21.85H60.15L60.35 21.75L60.45 21.65L60.55 21.55H60.65H60.75L60.85 21.45V21.55H60.95V21.45V21.35H61.05H61.15H61.25L61.35 21.25L61.45 21.15L61.55 21.05H61.65L61.75 20.95V20.85H61.85L61.95 20.75H62.05V20.85H62.15V20.75H62.25H62.35V20.65H62.45V20.55V20.45H62.55H62.65H62.75V20.35V20.25H62.65L62.75 20.15H62.85H62.95L62.85 20.25H62.95H63.05H63.15L63.25 20.15H63.45H63.55V20.05H63.65L63.85 19.95V19.85H63.95V19.75H64.05H64.15L64.25 19.65L64.65 19.35H64.75V19.25H64.85V19.15V19.05H64.95H65.05L65.15 18.95V18.85H65.25V18.95H65.35L65.45 19.05V19.15V19.25L65.55 19.35V19.45H65.95L66.15 19.35H66.35L66.45 19.25H66.55L66.65 19.15V18.85V18.75L66.75 18.65V18.75L66.85 18.95L67.15 18.85L67.65 18.65L67.95 18.45L68.25 18.35L68.35 18.25H68.45L68.55 18.15L68.65 18.05H68.75L68.85 17.95L68.95 17.85L69.25 17.65H69.35L69.45 17.55V17.45H69.55V17.35H69.65H69.75V17.25H69.85L70.05 17.15L70.25 17.05H70.45L70.55 16.95L70.65 16.85L70.75 16.75L70.85 16.65H70.95L71.15 16.45L71.25 16.25H71.35V16.15H71.45V16.05H71.55L71.65 15.95L71.75 15.85V15.95L71.95 15.85L72.05 15.75L72.25 15.65L72.45 15.55H72.55L72.65 15.45L72.75 15.35V15.25V15.05H72.85H72.95H73.05H73.15L73.25 14.95H73.35V14.85H73.45L73.55 14.75L73.75 14.65V14.55H73.85L73.95 14.45V14.35H74.05L73.95 14.25H74.05V14.15H74.15V14.05H74.25L74.35 14.15V14.25H74.25L74.35 14.35V14.45H74.45L74.55 14.55H74.65V14.65H74.75L74.85 14.55H74.95L75.05 14.45H75.15V14.35H75.25H75.35H75.45L75.55 14.25H75.65H75.75H75.85V14.35V14.45H75.95H76.05L76.15 14.35V14.25H76.25V14.15H76.35L76.65 13.95L76.85 13.85L77.35 13.55V13.65H77.25L76.85 13.95L76.65 14.05L76.45 14.15H76.35V14.25H76.25L76.05 14.45V14.55H75.95L76.05 14.65V14.75H76.15V14.65V14.55L76.35 14.75H76.45L76.25 14.45L76.35 14.35L76.55 14.75H76.65L76.55 14.45H76.65L76.85 14.75H76.95L76.65 14.25H76.75L76.85 14.35L76.95 14.25L77.15 14.55V14.45H77.25L77.05 14.15V14.05H77.25L77.55 14.65L77.65 14.55H77.75H77.85L77.95 14.45H78.15H78.25L78.35 14.35L78.25 14.25H78.35V14.35H78.45V14.25H78.55L78.65 14.15L78.75 14.05H78.85L78.95 13.95L78.85 13.85H78.95H79.05V13.95L79.15 13.85H79.25V13.75H79.35L79.45 13.65H79.55H79.65H79.75H79.85H79.95H80.05H80.15H80.25L80.35 13.55L80.45 13.45H80.55L80.75 13.35L80.85 13.25L80.95 13.15L81.15 12.95H81.25V12.85H81.35L81.65 12.65L81.95 12.45L82.05 12.35H82.15V12.25H82.25L82.35 12.05H82.45H82.55V11.95H82.65V11.85H82.75V11.75H82.85H82.95V11.65H83.05L83.15 11.55V11.45H83.25H83.35L83.45 11.35L83.55 11.25L83.75 11.15L83.85 10.95H83.95V10.85L84.05 10.75V10.65L84.25 10.55H84.35L84.45 10.45L84.55 10.35H84.65V10.25H84.75V10.15L84.85 10.05H84.95V9.95001H85.05H85.15V9.85001V9.75H85.25V9.65001H85.35H85.45L85.35 9.55V9.45001V9.35001H85.45L85.35 9.45001V9.55H85.45L85.55 9.45001H85.65L85.55 9.35001H85.65H85.75V9.25H85.85V9.15001H85.95V9.05H86.05V8.95001H86.15L86.25 8.85001L86.45 8.75L86.55 8.65001L86.65 8.55V8.45001V8.35001H86.75V8.45001H86.85V8.35001H86.95V8.25L87.05 8.15001H87.15H87.25L87.15 8.05V8.15001H87.05L86.95 8.25V8.35001H86.85V8.25H86.95V8.15001H87.05V8.05L87.15 7.95001V7.85001H87.25V7.75H87.35V7.65001V7.55L87.45 7.45001V7.25L87.55 7.15001L87.65 7.05L87.75 6.95001L88.15 6.45001V6.55L87.65 7.05L87.75 7.15001L87.65 7.25V7.35001H87.75V7.45001H87.85V7.55V7.65001H87.75H87.65H87.55V7.75H87.45V7.85001H87.55H87.65H87.75L87.85 7.95001H87.95L88.05 8.05H88.25H88.45H88.65H88.75L88.85 7.95001L88.95 8.05V7.95001H89.05L89.15 7.85001V7.75H89.25V7.85001H89.35H89.45L89.65 7.75H89.75L89.85 7.65001H89.95V7.55V7.45001L90.05 7.35001H90.15V7.45001H90.25L90.35 7.35001H90.45V7.25V7.15001H90.35V7.05V6.95001V6.85001L90.45 6.75L90.55 6.65001H90.65H90.75H90.85H90.95L91.05 6.55V6.45001V6.35001L91.25 6.25H91.35L91.45 6.15001V6.05H91.55H91.65H91.75L91.85 5.95001L91.95 5.85001V5.75V5.65001H92.05V5.55H92.25V5.45001H92.35V5.35001H92.45V5.25L92.55 5.15001V5.25H92.65H92.85H92.75V5.05V4.95001H92.85H93.05V4.85001L93.15 4.75L93.25 4.65001L93.35 4.55L93.45 4.45001L93.55 4.35001L93.65 4.25V4.15001H93.75H93.85V4.05V3.95001H93.95H94.05V3.85001H94.15V3.75L94.25 3.65001H94.45V3.55L94.55 3.45001H94.65L94.75 3.35001H94.85H94.95H95.05V3.25L95.15 3.15001H95.25V3.05L95.35 3.15001L95.45 3.05H95.55V2.95001L95.65 2.85001L95.75 2.75H95.85V2.65001L95.95 2.55H96.05L96.15 2.45001L96.25 2.55L96.35 2.45001H96.45V2.35001H96.35V2.25V2.15001L96.45 2.05H96.55L96.65 2.15001L96.75 2.05L96.85 2.15001L97.05 2.25V2.15001H97.15H97.25L97.35 2.05H97.45L97.55 2.15001V2.05H97.65V2.15001H97.75L97.85 2.05H97.95L98.05 1.95001H98.15H98.35H98.45L98.55 1.85001H98.65V1.75L98.75 1.65001H98.85H98.95H99.05V1.55H99.15V1.45001V1.35001H99.25V1.25H99.35H99.45V1.15001V1.05H99.55V0.950012H99.65L99.55 1.05V1.15001H99.65V1.25H99.75H99.85L99.95 1.15001H100.05L100.15 1.05H100.25H100.35H100.45H100.55V0.950012H100.65V0.850006V0.75V0.650009H100.55V0.550003H100.65L100.75 0.450012L100.85 0.550003L100.75 0.650009V0.75L100.85 0.850006L100.75 0.950012H100.85H100.95V0.850006H100.85V0.75V0.650009V0.550003H100.95L100.85 0.650009V0.75H100.95H101.05H101.15L101.25 0.650009L101.35 0.550003L101.45 0.450012L101.55 0.550003L101.65 0.450012H101.75H101.85V0.350006V0.25L102.65 1.25L102.75 1.35001L103.25 2.55L103.75 2.75H104.15L104.55 2.55L104.95 2.25L105.15 2.35001L105.35 2.45001L105.15 3.35001L105.75 3.85001L105.85 4.15001H106.05H106.15L106.45 4.65001V5.25L106.55 5.85001L106.85 6.45001L107.05 7.05L107.25 8.05L107.35 8.35001L106.95 9.05L107.15 9.25L106.95 9.65001L107.45 9.95001L107.65 10.35V10.45L107.75 11.45L108.15 11.65L108.25 12.25L108.55 12.95L108.35 13.05L108.25 13.35V13.95L108.45 14.05L108.55 14.35H108.65L108.85 14.25L108.95 14.55L109.05 14.65V14.75L108.95 14.85H108.85V15.05L108.95 15.15L108.85 15.35V15.45L108.95 15.55L109.15 15.45V15.75V15.85L109.25 15.95H109.35H109.45V16.05H109.35H109.25L109.45 16.25L109.65 16.35V16.55L109.85 16.45L109.95 16.55V16.65H109.85L109.55 16.75L109.45 16.85L109.75 17.05L109.85 17.25V17.35L110.05 17.45L110.25 17.55L110.35 17.75L110.55 18.15L110.65 18.45H110.95L111.05 18.55L111.15 18.45L111.35 18.35V18.15V17.95L111.05 17.55L111.15 17.15L111.75 16.15L112.35 15.95H112.85L113.35 16.65L114.15 16.55L114.75 16.65L115.15 16.85H115.75L116.15 16.65L117.55 16.85L118.15 16.65L118.45 16.75L118.85 16.95L119.15 17.35L119.85 17.25H120.35L120.45 17.55L120.65 17.85V18.05L121.05 18.15L121.25 18.55L120.45 20.35L119.95 21.05L119.55 21.45L119.05 21.25L118.45 21.55L117.75 22.15L117.55 22.55V23.55L117.65 24.15L118.45 24.75L118.75 25.25L119.15 25.75V26.15L118.75 26.55L118.65 27.05L118.55 27.65V28.55V29.55L118.65 31.15L118.95 32.35V33.65L119.15 35.35L119.05 36.25V36.95L118.95 37.55L118.75 37.85L117.85 38.25H117.45L117.25 38.35L116.85 38.55L116.35 38.85L116.15 39.15L115.85 39.35L115.55 39.65L115.35 39.95L115.15 40.95L114.85 41.85L114.55 42.65L114.15 43.75L113.95 45.95L113.05 46.25L113.55 47.85L112.05 49.05L112.55 49.55L111.35 52.05L111.45 53.15L111.05 53.85L110.85 54.35L110.55 54.75L110.45 55.15L110.15 55.55L109.45 55.75L108.35 55.35L108.25 55.45L108.05 55.95L108.55 56.45L108.25 56.95L108.15 57.45L108.35 58.85L108.45 62.15V62.45L108.25 62.95L108.15 63.45L108.05 63.65L107.95 63.95L107.85 64.45L107.45 65.05L106.95 65.85L106.65 67.05L107.35 66.95L106.75 68.05L106.25 68.85L106.05 69.35V69.95L105.85 70.35L105.75 70.75L105.65 71.15L105.55 71.45L105.85 71.65L106.05 72.05L106.25 72.35L106.55 72.55L106.95 72.85L107.15 73.05L107.35 73.35L107.55 73.75L107.75 74.15L108.35 74.55L108.85 74.95L109.15 75.45L108.95 77.05L108.85 79.05L108.75 79.55L108.65 80.15L107.65 80.35L108.05 80.85L108.35 81.65L108.75 82.65L108.65 83.25L108.85 83.95L108.65 84.75L108.45 85.65L108.15 86.55L107.75 87.65L107.05 89.25L106.65 90.25V91.05L106.35 91.75L102.95 93.05L102.45 93.65L101.65 94.75L101.45 95.15L101.25 95.05L101.15 94.85H101.05V94.75V94.55V94.45V94.25L100.95 94.15H100.85L100.75 94.35H100.65H100.55L100.45 94.45L100.35 94.65H100.15H100.05H99.95L99.85 94.55V94.45V94.25H99.65L99.45 94.15L99.15 94.05H98.95V94.15L98.75 94.25L98.55 94.45H98.45V94.15L98.15 93.75V93.45L97.95 93.35L97.75 93.25H97.65L97.55 92.95L97.45 92.85L97.25 92.65L97.05 92.45L96.95 92.25L96.85 92.15L96.65 92.05L96.45 92.15L96.35 92.25H96.25H96.15L96.05 92.15V92.05V91.95H95.95V91.85V91.75H95.85H95.75H95.55H95.25H94.95L94.85 91.65V91.55L94.75 91.45V91.25L94.85 91.05V90.95V90.85V90.75L94.75 90.65H94.65L94.55 90.55H94.45H94.25H94.15L94.05 90.45L93.95 90.35V90.15L93.85 90.05H93.75L93.65 89.95H93.55H93.45H93.35H93.25L93.15 90.05L93.05 89.95L92.95 89.85L92.85 89.95L92.75 90.05V90.15L92.65 90.25H92.55H92.45H92.35H92.25V90.15H92.15L91.95 90.05V89.65V89.55L91.85 89.45L91.75 89.35H91.65L91.55 89.45V89.55L91.45 89.65H91.25L90.85 89.85L90.75 89.75L90.65 89.55L90.75 89.45V89.25V88.95L90.45 88.55L90.05 87.75L89.75 87.35L89.25 86.75L88.95 86.25L88.65 86.05L88.35 86.15L87.95 86.25L87.05 86.85L86.75 87.25H86.05L85.45 86.85L85.25 86.55H85.05H84.85L84.65 86.45L84.35 86.55L84.15 86.45L83.95 86.55V86.65V86.85L84.05 87.25L83.95 87.45L83.85 87.55H83.55L83.15 87.45L83.05 87.25L83.25 86.75L83.15 86.55L83.05 86.35L82.75 85.95L82.15 85.85L81.85 86.15L82.05 86.75L81.15 87.15H80.25L79.75 87.25L79.45 86.85L79.15 86.75L78.85 86.65H78.55H78.35H78.05H77.85L77.65 86.55H77.45L77.15 86.65L76.65 86.35L76.25 86.25L75.85 86.05L75.55 85.85L75.05 85.45L74.75 85.25L74.45 84.85L74.25 84.15L74.15 84.05L73.95 84.25H73.65V83.95H73.55H73.35L73.15 84.05L72.95 83.75L73.05 83.65H73.25L73.35 83.55V83.35L73.45 83.15V82.95H73.15L73.05 82.75L72.95 82.55L72.85 82.45L72.75 82.55L72.55 82.65H72.45V82.45L72.65 82.25V82.05L72.55 81.75L72.45 81.65L72.15 81.75V81.85L72.05 82.05H71.95H71.85V81.85V81.55L71.75 81.25V80.85L71.65 80.75L71.45 80.65H71.35L71.15 80.45L71.05 80.35L70.85 80.45H70.75L70.65 80.35L70.55 80.25L70.65 80.15L70.85 79.95V79.85L70.95 79.75L71.05 79.65L70.95 79.55L70.85 79.45L70.55 79.25V79.15L70.75 78.95V78.85V78.75L70.55 78.65H70.35H70.15L70.05 78.55V78.45V78.35L70.35 78.25H70.55H70.65H70.75L70.85 78.15V78.05L70.75 77.95L70.65 78.05L70.55 77.95H70.35L70.15 77.85H70.05H69.95L69.85 77.95H69.65V77.85V77.75L69.75 77.65L69.65 77.55L69.55 77.75H69.25H68.75L68.55 77.65L68.35 77.55H68.15L67.85 77.35H67.65L67.45 77.15L67.25 76.95L67.05 76.85L66.85 76.65L66.55 76.45L66.15 76.15L65.75 75.85L65.35 75.25L65.05 74.95L64.65 74.65L64.35 74.25L64.05 73.85L63.55 73.65L62.55 73.25H62.45V73.15V73.05L62.35 72.95V72.85L62.25 72.75V72.65L62.15 72.55V72.45L62.05 72.35H61.95H61.85H61.75V72.25L61.65 72.15V72.05L61.55 71.95H61.45H61.35H61.25H61.15H61.05H60.95H60.85H60.75H60.65V71.85V71.75V71.65V71.55V71.45V71.35H60.55V71.25V71.15L60.45 71.05V70.95H60.35V70.85H60.25H60.15V70.75H60.05V70.65V70.55V70.45V70.35V70.25V70.15V70.05L60.15 69.95V69.85V69.75H60.05L59.95 69.65V69.75H59.85L59.75 69.85H59.65L59.55 69.75V69.65V69.55V69.45V69.35L59.45 69.25V69.15H59.35L59.25 69.05H59.15L59.05 68.95H58.95H58.85V68.85V68.75V68.65V68.55H58.75V68.45H58.65L58.55 68.35L58.45 68.25L58.35 68.15L58.25 68.05V67.95H58.15V67.85V67.75H58.05V67.65L57.95 67.55V67.45L57.85 67.35V67.25V67.15V67.05V66.95V66.85V66.75L57.95 66.65V66.55V66.45V66.35V66.25H57.85L57.75 66.15H57.65H57.55H57.45H57.35H57.25L57.15 66.05L57.05 65.95V65.85V65.75V65.65V65.55V65.45L56.95 65.35H56.85H56.75L56.65 65.45H56.55H56.45L56.35 65.35V65.25V65.15V65.05V64.95H56.45V64.85V64.75V64.65V64.55V64.45H56.35V64.35H56.25L56.15 64.25L54.95 65.05L53.95 65.75L53.65 66.45L53.45 67.15L53.35 68.45L53.05 69.65L52.75 70.95L52.45 71.95L52.05 72.85V74.15L52.15 74.75L52.25 75.55L52.75 76.95L53.05 78.15V78.85V78.95V79.35L52.55 79.95L52.25 80.25L51.95 80.65L51.75 81.15L51.15 82.15L49.75 83.75L48.75 84.45L47.95 84.55L47.05 85.25L46.85 85.35L45.65 85.95L44.05 86.75L43.15 87.15L41.95 87.75L40.75 88.15L40.55 88.25L39.35 88.95L38.45 89.95L37.45 90.95L36.85 91.85L36.65 92.45L36.05 92.15L34.75 92.55H33.65L33.05 92.75L32.85 93.35L31.15 93.75L31.05 94.05L30.65 94.55L29.25 94.35L28.75 95.25L27.95 95.35L27.45 96.55L26.75 96.45H26.65L27.15 94.35L25.65 93.15L24.45 90.75L23.85 88.85L23.65 88.45L23.25 87.05L22.85 85.15L22.35 84.35L21.75 83.95L21.05 83.05L19.75 82.25L18.35 82.45L18.05 82.75L17.85 83.05L17.35 83.45H17.25H17.05L16.85 83.55H16.65V83.15L16.75 82.75L16.55 83.05L16.25 83.35L15.75 83.45L14.95 83.05L14.35 83.25L13.75 83.15L13.05 83.55L12.55 83.95L11.95 83.85L11.75 84.15L11.15 84.25L10.15 83.85L9.75 83.75L9.25 83.65L8.44998 83.25L7.94998 83.05L6.94998 82.45V82.05L5.94998 81.15L4.85001 79.65L3.64999 78.85L3.54999 78.55L3.04999 77.05L2.35001 77.15L2.44998 76.65L2.54999 76.15L2.75 75.55L3.14999 74.15L4.44998 73.05L0.850006 70.05H0.350006Z" fill="#6F9C76"/>
<path d="M0.25 70.05H0.350006M0.350006 70.05V69.95L0.449982 69.85H0.350006L0.449982 69.75V69.65H0.549988V69.55H0.649994V69.45H0.75V69.35H0.850006L0.949982 69.25V69.15M101.35 0.450012H101.45L101.55 0.550003L101.65 0.450012H101.75H101.85V0.350006V0.25L102.65 1.25L102.75 1.35001L103.25 2.55L103.75 2.75H104.15L104.55 2.55L104.95 2.25L105.15 2.35001L105.35 2.45001L105.15 3.35001L105.75 3.85001L105.85 4.15001H106.05H106.15L106.45 4.65001V5.25L106.55 5.85001L106.85 6.45001L107.05 7.05L107.25 8.05L107.35 8.35001L106.95 9.05L107.15 9.25L106.95 9.65001L107.45 9.95001L107.65 10.35V10.45L107.75 11.45L108.15 11.65L108.25 12.25L108.55 12.95L108.35 13.05L108.25 13.35V13.95L108.45 14.05L108.55 14.35H108.65L108.85 14.25L108.95 14.55L109.05 14.65V14.75L108.95 14.85H108.85V15.05L108.95 15.15L108.85 15.35V15.45L108.95 15.55L109.15 15.45V15.75V15.85L109.25 15.95H109.35H109.45V16.05H109.35H109.25L109.45 16.25L109.65 16.35V16.55L109.85 16.45L109.95 16.55V16.65H109.85L109.55 16.75L109.45 16.85L109.75 17.05L109.85 17.25V17.35L110.05 17.45L110.25 17.55L110.35 17.75L110.55 18.15L110.65 18.45H110.95L111.05 18.55L111.15 18.45L111.35 18.35V18.15V17.95L111.05 17.55L111.15 17.15L111.75 16.15L112.35 15.95H112.85L113.35 16.65L114.15 16.55L114.75 16.65L115.15 16.85H115.75L116.15 16.65L117.55 16.85L118.15 16.65L118.45 16.75L118.85 16.95L119.15 17.35L119.85 17.25H120.35L120.45 17.55L120.65 17.85V18.05L121.05 18.15L121.25 18.55L120.45 20.35L119.95 21.05L119.55 21.45L119.05 21.25L118.45 21.55L117.75 22.15L117.55 22.55V23.55L117.65 24.15L118.45 24.75L118.75 25.25L119.15 25.75V26.15L118.75 26.55L118.65 27.05L118.55 27.65V28.55V29.55L118.65 31.15L118.95 32.35V33.65L119.15 35.35L119.05 36.25V36.95L118.95 37.55L118.75 37.85L117.85 38.25H117.45L117.25 38.35L116.85 38.55L116.35 38.85L116.15 39.15L115.85 39.35L115.55 39.65L115.35 39.95L115.15 40.95L114.85 41.85L114.55 42.65L114.15 43.75L113.95 45.95L113.05 46.25L113.55 47.85L112.05 49.05L112.55 49.55L111.35 52.05L111.45 53.15L111.05 53.85L110.85 54.35L110.55 54.75L110.45 55.15L110.15 55.55L109.45 55.75L108.35 55.35L108.25 55.45L108.05 55.95L108.55 56.45L108.25 56.95L108.15 57.45L108.35 58.85L108.45 62.15V62.45L108.25 62.95L108.15 63.45L108.05 63.65L107.95 63.95L107.85 64.45L107.45 65.05L106.95 65.85L106.65 67.05L107.35 66.95L106.75 68.05L106.25 68.85L106.05 69.35V69.95L105.85 70.35L105.75 70.75L105.65 71.15L105.55 71.45L105.85 71.65L106.05 72.05L106.25 72.35L106.55 72.55L106.95 72.85L107.15 73.05L107.35 73.35L107.55 73.75L107.75 74.15L108.35 74.55L108.85 74.95L109.15 75.45L108.95 77.05L108.85 79.05L108.75 79.55L108.65 80.15L107.65 80.35L108.05 80.85L108.35 81.65L108.75 82.65L108.65 83.25L108.85 83.95L108.65 84.75L108.45 85.65L108.15 86.55L107.75 87.65L107.05 89.25L106.65 90.25V91.05L106.35 91.75L102.95 93.05L102.45 93.65L101.65 94.75L101.45 95.15L101.25 95.05L101.15 94.85H101.05V94.75V94.55V94.45V94.25L100.95 94.15H100.85L100.75 94.35H100.65H100.55L100.45 94.45L100.35 94.65H100.15H100.05H99.95L99.85 94.55V94.45V94.25H99.65L99.45 94.15L99.15 94.05H98.95V94.15L98.75 94.25L98.55 94.45H98.45V94.15L98.15 93.75V93.45L97.95 93.35L97.75 93.25H97.65L97.55 92.95L97.45 92.85L97.25 92.65L97.05 92.45L96.95 92.25L96.85 92.15L96.65 92.05L96.45 92.15L96.35 92.25H96.25H96.15L96.05 92.15V92.05V91.95H95.95V91.85V91.75H95.85H95.75H95.55H95.25H94.95L94.85 91.65V91.55L94.75 91.45V91.25L94.85 91.05V90.95V90.85V90.75L94.75 90.65H94.65L94.55 90.55H94.45H94.25H94.15L94.05 90.45L93.95 90.35V90.15L93.85 90.05H93.75L93.65 89.95H93.55H93.45H93.35H93.25L93.15 90.05L93.05 89.95L92.95 89.85L92.85 89.95L92.75 90.05V90.15L92.65 90.25H92.55H92.45H92.35H92.25V90.15H92.15L91.95 90.05V89.65V89.55L91.85 89.45L91.75 89.35H91.65L91.55 89.45V89.55L91.45 89.65H91.25L90.85 89.85L90.75 89.75L90.65 89.55L90.75 89.45V89.25V88.95L90.45 88.55L90.05 87.75L89.75 87.35L89.25 86.75L88.95 86.25L88.65 86.05L88.35 86.15L87.95 86.25L87.05 86.85L86.75 87.25H86.05L85.45 86.85L85.25 86.55H85.05H84.85L84.65 86.45L84.35 86.55L84.15 86.45L83.95 86.55V86.65V86.85L84.05 87.25L83.95 87.45L83.85 87.55H83.55L83.15 87.45L83.05 87.25L83.25 86.75L83.15 86.55L83.05 86.35L82.75 85.95L82.15 85.85L81.85 86.15L82.05 86.75L81.15 87.15H80.25L79.75 87.25L79.45 86.85L79.15 86.75L78.85 86.65H78.55H78.35H78.05H77.85L77.65 86.55H77.45L77.15 86.65L76.65 86.35L76.25 86.25L75.85 86.05L75.55 85.85L75.05 85.45L74.75 85.25L74.45 84.85L74.25 84.15L74.15 84.05L73.95 84.25H73.65V83.95H73.55H73.35L73.15 84.05L72.95 83.75L73.05 83.65H73.25L73.35 83.55V83.35L73.45 83.15V82.95H73.15L73.05 82.75L72.95 82.55L72.85 82.45L72.75 82.55L72.55 82.65H72.45V82.45L72.65 82.25V82.05L72.55 81.75L72.45 81.65L72.15 81.75V81.85L72.05 82.05H71.95H71.85V81.85V81.55L71.75 81.25V80.85L71.65 80.75L71.45 80.65H71.35L71.15 80.45L71.05 80.35L70.85 80.45H70.75L70.65 80.35L70.55 80.25L70.65 80.15L70.85 79.95V79.85L70.95 79.75L71.05 79.65L70.95 79.55L70.85 79.45L70.55 79.25V79.15L70.75 78.95V78.85V78.75L70.55 78.65H70.35H70.15L70.05 78.55V78.45V78.35L70.35 78.25H70.55H70.65H70.75L70.85 78.15V78.05L70.75 77.95L70.65 78.05L70.55 77.95H70.35L70.15 77.85H70.05H69.95L69.85 77.95H69.65V77.85V77.75L69.75 77.65L69.65 77.55L69.55 77.75H69.25H68.75L68.55 77.65L68.35 77.55H68.15L67.85 77.35H67.65L67.45 77.15L67.25 76.95L67.05 76.85L66.85 76.65L66.55 76.45L66.15 76.15L65.75 75.85L65.35 75.25L65.05 74.95L64.65 74.65L64.35 74.25L64.05 73.85L63.55 73.65L62.55 73.25H62.45V73.15V73.05L62.35 72.95V72.85L62.25 72.75V72.65L62.15 72.55V72.45L62.05 72.35H61.95H61.85H61.75V72.25L61.65 72.15V72.05L61.55 71.95H61.45H61.35H61.25H61.15H61.05H60.95H60.85H60.75H60.65V71.85V71.75V71.65V71.55V71.45V71.35H60.55V71.25V71.15L60.45 71.05V70.95H60.35V70.85H60.25H60.15V70.75H60.05V70.65V70.55V70.45V70.35V70.25V70.15V70.05L60.15 69.95V69.85V69.75H60.05L59.95 69.65V69.75H59.85L59.75 69.85H59.65L59.55 69.75V69.65V69.55V69.45V69.35L59.45 69.25V69.15H59.35L59.25 69.05H59.15L59.05 68.95H58.95H58.85V68.85V68.75V68.65V68.55H58.75V68.45H58.65L58.55 68.35L58.45 68.25L58.35 68.15L58.25 68.05V67.95H58.15V67.85V67.75H58.05V67.65L57.95 67.55V67.45L57.85 67.35V67.25V67.15V67.05V66.95V66.85V66.75L57.95 66.65V66.55V66.45V66.35V66.25H57.85L57.75 66.15H57.65H57.55H57.45H57.35H57.25L57.15 66.05L57.05 65.95V65.85V65.75V65.65V65.55V65.45L56.95 65.35H56.85H56.75L56.65 65.45H56.55H56.45L56.35 65.35V65.25V65.15V65.05V64.95H56.45V64.85V64.75V64.65V64.55V64.45H56.35V64.35H56.25L56.15 64.25L54.95 65.05L53.95 65.75L53.65 66.45L53.45 67.15L53.35 68.45L53.05 69.65L52.75 70.95L52.45 71.95L52.05 72.85V74.15L52.15 74.75L52.25 75.55L52.75 76.95L53.05 78.15V78.85V78.95V79.35L52.55 79.95L52.25 80.25L51.95 80.65L51.75 81.15L51.15 82.15L49.75 83.75L48.75 84.45L47.95 84.55L47.05 85.25L46.85 85.35L45.65 85.95L44.05 86.75L43.15 87.15L41.95 87.75L40.75 88.15L40.55 88.25L39.35 88.95L38.45 89.95L37.45 90.95L36.85 91.85L36.65 92.45L36.05 92.15L34.75 92.55H33.65L33.05 92.75L32.85 93.35L31.15 93.75L31.05 94.05L30.65 94.55L29.25 94.35L28.75 95.25L27.95 95.35L27.45 96.55L26.75 96.45H26.65L27.15 94.35L25.65 93.15L24.45 90.75L23.85 88.85L23.65 88.45L23.25 87.05L22.85 85.15L22.35 84.35L21.75 83.95L21.05 83.05L19.75 82.25L18.35 82.45L18.05 82.75L17.85 83.05L17.35 83.45H17.25H17.05L16.85 83.55H16.65V83.15L16.75 82.75L16.55 83.05L16.25 83.35L15.75 83.45L14.95 83.05L14.35 83.25L13.75 83.15L13.05 83.55L12.55 83.95L11.95 83.85L11.75 84.15L11.15 84.25L10.15 83.85L9.75 83.75L9.25 83.65L8.44998 83.25L7.94998 83.05L6.94998 82.45V82.05L5.94998 81.15L4.85001 79.65L3.64999 78.85L3.54999 78.55L3.04999 77.05L2.35001 77.15L2.44998 76.65L2.54999 76.15L2.75 75.55L3.14999 74.15L4.44998 73.05L0.850006 70.05H0.350006M0.949982 69.15L0.850006 69.25V69.15H0.949982ZM0.949982 69.15V69.05H1.04999M1.04999 69.05V68.95H1.14999M1.04999 69.05H1.14999V68.95M1.04999 69.05V69.15M1.14999 68.95V68.85M1.04999 69.15H1.14999M1.04999 69.15V69.25H1.14999H1.25H1.35001L1.44998 69.15L1.54999 69.05H1.64999V68.95M1.64999 68.95H1.75V68.85V68.75M1.64999 68.95V68.85V68.75H1.75M1.64999 68.95H1.54999L1.44998 68.85V68.75H1.35001V68.65H1.44998V68.55H1.54999H1.64999V68.45H1.75V68.35H1.85001V68.25H1.94998V68.15H2.04999V68.05H2.14999V67.95H2.25V67.85H2.35001V67.75H2.44998V67.65H2.54999V67.55H2.64999H2.75M1.75 68.75V68.65M1.75 68.65H1.85001V68.55M1.75 68.65V68.55H1.85001M1.85001 68.55H1.94998H2.04999H2.14999V68.45V68.35M1.85001 68.55V68.45H1.94998H2.04999V68.35H2.14999M2.14999 68.35V68.25M2.14999 68.25H2.25V68.15M2.14999 68.25V68.15H2.25M2.75 67.55V67.65H2.64999V67.75H2.75V67.85V67.95H2.64999H2.54999H2.44998H2.35001L2.25 68.05V68.15M2.25 68.05H2.35001H2.44998H2.54999H2.64999H2.75L2.85001 67.95V67.85H2.94998V67.75H3.04999V67.65H3.14999V67.55L3.25 67.45V67.35M3.25 67.35H3.35001L3.44998 67.25H3.54999V67.15M3.25 67.35L3.35001 67.25V67.15L3.44998 67.05M3.25 67.35H3.14999H3.04999V67.45H2.94998H2.85001M4.14999 66.75H4.04999V66.85H3.94998H3.85001L3.75 66.95V67.05L3.64999 67.15H3.54999M3.54999 67.15H3.44998V67.05M3.64999 67.15V67.05H3.75M3.75 66.95H3.85001V66.85M4.04999 66.75L4.14999 66.85V66.75M4.14999 66.75H4.25V66.65M4.14999 66.75V66.65H4.25M4.25 66.65H4.35001M3.44998 67.05L3.54999 66.95M3.44998 67.05V66.95H3.54999M3.54999 66.95H3.64999M2.85001 67.45V67.55H2.75M2.85001 67.45H2.75V67.55M2.85001 67.45V67.35H2.94998V67.25H3.04999V67.15H3.14999L3.25 67.05V66.95H3.35001L3.44998 66.85L3.54999 66.75H3.64999L3.75 66.65H3.85001V66.55H3.94998V66.45H4.04999L4.14999 66.35V66.25H4.25H4.35001V66.15L4.44998 66.05H4.54999V65.95L4.75 65.85L4.85001 65.75L4.94998 65.65H5.04999V65.55H5.14999V65.45H5.25V65.35H5.35001L5.44998 65.25V65.15H5.54999L5.64999 65.05V64.95H5.75V64.85H5.85001L5.94998 64.75H6.04999V64.65H6.14999V64.55H6.25V64.45H6.35001L6.44998 64.35H6.54999V64.25H6.64999V64.15H6.75L6.85001 64.05H6.94998V63.95H7.04999V63.85H7.14999V63.75H7.25L7.35001 63.65L7.44998 63.55L7.54999 63.45L7.64999 63.35H7.75V63.25H7.85001V63.15H7.94998V63.05H8.04999L8.14999 62.95L8.25 62.85V62.75H8.35001V62.65H8.44998V62.55H8.54999L8.64999 62.45V62.35H8.75L8.85001 62.25V62.15H8.94998V62.05H9.04999V61.95H9.14999V61.85H9.25L9.35001 61.65L9.44998 61.55V61.45H9.54999V61.35L9.64999 61.25L9.75 61.15L9.85001 61.05L9.94998 60.95V60.85H10.05V60.75L10.15 60.65V60.55L10.25 60.45H10.35V60.35L10.45 60.25L10.55 60.15L10.65 60.05V59.95H10.75V59.85H10.85V59.75H10.95V59.65M10.95 59.65V59.55M10.95 59.65H11.05V59.55H11.15V59.45H11.25V59.35H11.35V59.25H11.45L11.55 59.15L11.65 59.05V58.95H11.75V58.85L11.85 58.75H11.95V58.65H12.05L12.15 58.55L12.25 58.45V58.35L12.45 58.25V58.15L12.55 58.05L12.65 57.95L12.75 57.85L12.85 57.75V57.65H12.95L13.05 57.55V57.45H13.15V57.35H13.25L13.35 57.25L13.45 57.15L13.55 57.05L13.65 56.85L13.75 56.75L13.85 56.65L13.95 56.55L14.15 56.35L14.25 56.25H14.35V56.15L14.45 56.05L14.55 55.95L14.65 55.85L14.75 55.65H14.85V55.45V55.35H14.95V55.25L15.15 55.15L15.25 55.05V54.95L15.35 54.85L15.45 54.75L15.55 54.65L15.65 54.55L15.75 54.45V54.35H15.85L15.95 54.25L16.05 54.15V54.05V53.95H16.15L16.35 53.85M16.55 53.45V53.65H16.65L16.55 53.75V53.85L16.35 53.75V53.85L16.25 53.95L16.15 54.05L16.25 54.15L16.15 54.25H16.05V54.35H16.15V54.45L16.25 54.35H16.35V54.25H16.55L16.65 54.15L16.75 54.05L16.85 53.85L16.95 53.75V53.45L17.05 53.35L17.25 53.45V53.35H17.35V53.25L17.45 53.05H17.55V52.95H17.65V52.85H17.45H17.35H17.25H17.15V52.95L17.05 53.05H16.95L17.05 53.15H16.95L16.85 53.25L16.75 53.15V53.25L16.65 53.45H16.55ZM16.35 53.85H16.15V53.75H16.25L16.35 53.65L16.45 53.55V53.45H16.55M16.55 53.45V53.35H16.65L16.75 53.05L16.85 52.95H16.75L16.85 52.85V52.75H16.95M16.95 52.75V52.85H17.05V52.65M16.95 52.75L17.05 52.65M16.95 52.75V52.65H17.05M17.05 52.65L17.15 52.55H17.25V52.45H17.35L17.45 52.35L17.55 52.25L17.65 52.15V52.05H17.75L17.85 51.95H17.95V51.85L18.05 51.75L17.95 51.65H18.05V51.55H18.15V51.45L18.35 51.35L18.55 51.15L18.65 50.95H18.75V50.85L18.85 50.75L18.95 50.65V50.55H18.85V50.45H18.95V50.35V50.25V50.15H19.05L19.15 50.05H19.25V49.95V49.85M19.25 49.85H19.15V49.75L19.25 49.85ZM19.25 49.85L19.35 49.75H19.45L19.55 49.55H19.65V49.45L19.75 49.35V49.25V49.15L19.95 49.05L20.05 48.75H20.15V48.65H20.25V48.55M20.25 48.55V48.45M22.35 45.75H22.25V45.85V45.95L22.35 46.05H22.25V46.15H22.15V46.25L22.05 46.35H21.95V46.45H21.85V46.55H21.95V46.65H21.85V46.75H21.75V46.85V46.95L21.65 47.05L21.55 47.15H21.45H21.35L21.25 47.25V47.35V47.45V47.55H21.15V47.65L21.05 47.75V47.65L20.95 47.75V47.85V47.95H20.85V48.05H20.75L20.65 48.15V48.25H20.55V48.35H20.45V48.45H20.35L20.25 48.55M22.25 45.95H22.35L22.45 45.85M22.45 45.85H22.35M22.45 45.85H22.55L22.65 45.75V45.65H22.75V45.55V45.45M22.75 45.45H22.85M22.75 45.45V45.35H22.85V45.25V45.05M22.85 45.05L22.45 44.75M22.45 44.85V44.75H22.55L22.65 44.85L22.85 45.05M23.25 44.15H23.15L23.05 44.25L23.25 44.35L23.35 44.25V44.35V44.45V44.55H23.25V44.45H23.15H22.95L23.15 44.55V44.65L23.05 44.75H22.95L22.75 44.65L23.05 44.85V44.95L22.85 44.75H22.75H22.65L22.75 44.85L22.95 44.95V45.05H22.85M22.95 44.75V44.65V44.55H22.85M23.25 44.15L23.15 44.05H23.05M23.25 44.15H23.35M23.05 44.05L22.85 44.15H22.65V44.25H22.55M22.45 44.35L22.55 44.25L22.75 44.15L22.85 44.05H23.05M22.45 44.35L22.25 44.55L22.05 44.95V44.85L22.35 44.45L22.45 44.35ZM23.65 44.25L23.55 44.15H23.45H23.35M23.35 44.15L23.45 44.05H23.55V43.95H23.65V43.85H23.75V43.75L23.65 43.65L23.55 43.35H23.45L23.35 43.15L23.25 43.05L23.15 42.95V42.85V42.75V42.65H23.05L22.95 42.55H22.85V42.45L22.95 42.35V42.25L23.05 42.15L23.15 42.05V41.95L23.25 41.85H23.35H23.45V41.75V41.65H23.55L23.65 41.45V41.35L23.75 41.25H23.85V41.05H23.95L23.85 40.85H23.95V40.75H24.05H24.15V40.65H24.25H24.35V40.75L24.45 40.65V40.55H24.55V40.45M23.55 44.15V44.25H23.65M23.65 44.25V44.35M23.65 44.25H23.75M24.55 40.45H24.45M24.55 40.45L24.65 40.35L24.75 40.25V40.15H24.85L24.95 40.05V39.95V39.85H25.05V39.75L25.15 39.65L25.25 39.55V39.45L25.35 39.35H25.45V39.25L25.55 39.15L25.65 39.05L25.75 38.95H25.85H26.05H26.15H26.25H26.35V38.85H26.45V38.75V38.65H26.55H26.65V38.55L26.75 38.45V38.35V38.25V38.15V38.05L27.05 37.85V37.75L27.15 37.65L27.25 37.55H27.15V37.45H27.25V37.35H27.35V37.25H27.45H27.55L27.65 37.15V37.05H27.75V36.95L27.85 36.85H27.95H28.05L28.15 36.75V36.65H28.25H28.35V36.55M28.35 36.55L28.25 36.35L28.35 36.45V36.55ZM28.35 36.55L28.45 36.45V36.55H28.55H28.65V36.45L28.75 36.35L28.85 36.25L28.95 36.15V36.05H29.05H29.15L29.25 36.15H29.35H29.45V36.25L29.55 36.35H29.65L29.75 36.45M29.75 36.45L29.85 36.55M29.65 36.65V36.55H29.55V36.45H29.65H29.75M29.65 36.55L29.55 36.65H29.65M29.65 36.65L29.75 36.55M29.65 36.65V36.75L29.75 36.85L29.85 36.95H29.95L30.05 37.05L30.15 37.15L30.25 37.25H30.45H30.65H30.75H30.85H30.95H31.05H31.25H31.45L31.55 37.15L31.75 37.05H31.95L32.15 36.95L32.35 36.85H32.45L32.65 36.65H32.85L32.95 36.55H33.05L33.15 36.45L33.35 36.35L33.55 36.25L33.75 36.05L33.95 35.95L34.15 35.85L34.25 35.75L34.45 35.65L34.65 35.45L34.75 35.35H34.85L34.95 35.25L35.05 35.15L35.15 35.05H35.25V34.95H35.35L35.45 34.85L35.55 34.75L35.75 34.55L35.85 34.45L35.95 34.35L36.05 34.25H36.15V34.15L36.25 34.05L36.35 33.95L36.45 33.85H36.55L36.65 33.75L36.75 33.65V33.55H36.85L36.95 33.45L37.05 33.35L37.25 33.25L37.35 33.05L37.55 32.95H37.65L37.75 32.85V32.75L38.05 32.65H38.15V32.55V32.45H38.25V32.35V32.25H38.35L38.45 32.05L38.55 31.95L38.65 31.75H38.75V31.65V31.55L38.85 31.45L38.95 31.15L39.05 31.05V30.85L39.15 30.75L39.25 30.65V30.55L39.35 30.35L39.45 30.25V30.15H39.55V30.05L39.65 29.95H39.75V29.85H39.85L39.95 29.75L40.05 29.65H40.15V29.55H40.25H40.35H40.55L40.95 29.45H41.15H41.25H41.35V29.35H41.45H41.55L41.75 29.25V29.15H41.85L41.95 29.05H42.15H42.25V28.95H42.35L42.45 29.05H42.55L42.75 28.95L42.85 28.85L43.05 28.65H43.35H43.95L44.45 28.45L44.85 28.35L45.15 28.15L45.35 28.05L45.65 27.85L45.85 27.75L46.05 27.55L46.25 27.35L46.35 27.25H46.45L46.55 27.15L46.65 27.25H46.75H46.85H46.95H47.05V27.15L47.25 27.05H47.45H47.65H47.75H47.85H47.95L48.05 26.95H48.15L48.65 26.85L49.15 26.65L49.45 26.45L49.65 26.35H49.75V26.25L49.85 26.15H50.05L50.45 25.95L50.65 25.85V25.75L50.95 25.65L51.05 25.55L51.35 25.45L51.75 25.35L52.15 25.15L52.35 25.05H52.45V24.95H52.55L52.75 24.85H52.85H52.95L53.05 24.75H53.15L53.25 24.65L53.95 24.35L54.25 24.25H54.35L54.55 24.15L54.75 24.05H55.15L55.35 23.95L55.45 23.85L55.55 23.75H55.65L55.75 23.65L55.85 23.55L55.95 23.45H56.05V23.35H56.25L56.35 23.25L56.45 23.15H56.55L56.65 23.05L56.75 22.95H56.85H56.95V22.85L57.55 22.55L57.75 22.45L57.85 22.35H58.05V22.25L58.15 22.35H58.25L58.35 22.45H58.55L58.95 22.35L59.55 22.15L59.75 22.05L59.85 21.95L59.95 21.85H60.15L60.35 21.75L60.45 21.65L60.55 21.55H60.65H60.75L60.85 21.45V21.55H60.95V21.45V21.35H61.05H61.15H61.25L61.35 21.25L61.45 21.15L61.55 21.05H61.65L61.75 20.95V20.85H61.85L61.95 20.75H62.05V20.85H62.15V20.75H62.25H62.35V20.65H62.45V20.55V20.45H62.55H62.65H62.75V20.35V20.25H62.65L62.75 20.15H62.85H62.95L62.85 20.25H62.95H63.05H63.15L63.25 20.15H63.45H63.55V20.05H63.65L63.85 19.95V19.85H63.95V19.75H64.05H64.15L64.25 19.65L64.65 19.35H64.75V19.25H64.85V19.15M64.85 19.15H64.75M71.45 16.05V16.15H71.35V16.25H71.25L71.15 16.45L70.95 16.65H70.85L70.75 16.75L70.65 16.85L70.55 16.95L70.45 17.05H70.25L70.05 17.15L69.85 17.25H69.75V17.35H69.65H69.55V17.45H69.45V17.55L69.35 17.65H69.25L68.95 17.85L68.85 17.95L68.75 18.05H68.65L68.55 18.15L68.45 18.25H68.35L68.25 18.35L67.95 18.45L67.65 18.65L67.15 18.85L66.85 18.95L66.75 18.75V18.65L66.65 18.75V18.85V19.15L66.55 19.25H66.45L66.35 19.35H66.15L65.95 19.45H65.55V19.35L65.45 19.25V19.15V19.05L65.35 18.95H65.25V18.85H65.15V18.95L65.05 19.05H64.95H64.85V19.15M65.45 19.25H65.55M71.45 16.05V15.95M71.45 16.05H71.55L71.65 15.95L71.75 15.85V15.95L71.95 15.85L72.05 15.75L72.25 15.65L72.45 15.55H72.55L72.65 15.45L72.75 15.35V15.25V15.05M72.75 15.05V14.95M72.75 15.05H72.85H72.95H73.05H73.15L73.25 14.95H73.35V14.85H73.45L73.55 14.75L73.75 14.65V14.55H73.85L73.95 14.45V14.35H74.05L73.95 14.25H74.05V14.15H74.15V14.05H74.25L74.35 14.15V14.25H74.25L74.35 14.35V14.45H74.45L74.55 14.55H74.65V14.65H74.75L74.85 14.55H74.95L75.05 14.45H75.15V14.35H75.25H75.35H75.45L75.55 14.25H75.65H75.75H75.85V14.35V14.45H75.95H76.05M76.05 14.45L76.15 14.35V14.25H76.25M76.05 14.45L76.25 14.25M76.05 14.45V14.55M76.25 14.25V14.15H76.35M76.25 14.25H76.35V14.15M77.25 13.65L76.85 13.95L76.65 14.05L76.45 14.15H76.35L76.65 13.95L76.85 13.85L77.35 13.55V13.65H77.25ZM77.25 13.65V13.75M77.75 14.55H77.65L77.55 14.65L77.25 14.05H77.05V14.15L77.25 14.45H77.15V14.55L76.95 14.25L76.85 14.35L76.75 14.25H76.65L76.95 14.75H76.85L76.65 14.45H76.55L76.65 14.75H76.55L76.35 14.35L76.25 14.45L76.45 14.75H76.35L76.15 14.55H76.05M76.05 14.55H75.95L76.05 14.65V14.75M76.15 14.55V14.65V14.75H76.05M76.05 14.75V14.85M77.75 14.55L77.45 14.05M77.75 14.55H77.85L77.95 14.45H78.15H78.25L78.35 14.35M78.35 14.35H78.25M78.35 14.35L78.25 14.25H78.35V14.35ZM78.35 14.35H78.45V14.25H78.55L78.65 14.15L78.75 14.05H78.85L78.95 13.95L78.85 13.85H78.95M78.95 13.85V13.75M85.35 9.45001V9.55L85.45 9.65001H85.35H85.25V9.75H85.15V9.85001V9.95001H85.05H84.95V10.05H84.85L84.75 10.15V10.25H84.65V10.35H84.55L84.45 10.45L84.35 10.55H84.25L84.05 10.65V10.75L83.95 10.85V10.95H83.85L83.75 11.15L83.55 11.25L83.45 11.35L83.35 11.45H83.25H83.15V11.55L83.05 11.65H82.95V11.75H82.85H82.75V11.85H82.65V11.95H82.55V12.05H82.45H82.35L82.25 12.25H82.15V12.35H82.05L81.95 12.45L81.65 12.65L81.35 12.85H81.25V12.95H81.15L80.95 13.15L80.85 13.25L80.75 13.35L80.55 13.45H80.45L80.35 13.55L80.25 13.65H80.15H80.05H79.95H79.85H79.75H79.65H79.55H79.45L79.35 13.75H79.25V13.85H79.15L79.05 13.95V13.85H78.95M85.35 9.55H85.45L85.55 9.45001H85.65L85.55 9.35001H85.65H85.75V9.25H85.85V9.15001H85.95V9.05H86.05V8.95001H86.15L86.25 8.85001L86.45 8.75L86.55 8.65001L86.65 8.55V8.45001V8.35001H86.75V8.45001H86.85V8.35001M85.35 9.45001V9.35001H85.45M85.55 9.25H85.45V9.35001L85.35 9.45001M86.85 8.35001H86.95V8.25M86.85 8.35001V8.25H86.95M86.95 8.25L87.05 8.15001M86.95 8.25V8.15001H87.05M87.05 8.15001H87.15M87.65 7.05L87.75 6.95001L88.15 6.45001V6.55L87.65 7.05L87.55 7.15001L87.45 7.25V7.45001L87.35 7.55V7.65001V7.75H87.25V7.85001H87.15V7.95001L87.05 8.05V8.15001M87.15 8.15001H87.25L87.15 8.05V8.15001ZM87.65 7.05L87.75 7.15001M87.75 7.15001L87.85 7.05H87.95M87.75 7.15001L87.65 7.25V7.35001H87.75V7.45001H87.85V7.55V7.65001H87.75H87.65H87.55V7.75H87.45V7.85001H87.55H87.65M87.65 7.85001V7.75M87.65 7.85001H87.75M87.75 7.85001L87.85 7.75M87.75 7.85001L87.85 7.95001H87.95L88.05 8.05H88.25H88.45H88.65H88.75L88.85 7.95001L88.95 8.05V7.95001H89.05L89.15 7.85001V7.75H89.25V7.85001H89.35H89.45L89.65 7.75H89.75L89.85 7.65001H89.95V7.55V7.45001L90.05 7.35001H90.15V7.45001H90.25L90.35 7.35001H90.45V7.25V7.15001H90.35V7.05M90.35 7.05H90.45M90.35 7.05V6.95001V6.85001L90.45 6.75L90.55 6.65001H90.65H90.75H90.85H90.95L91.05 6.55V6.45001V6.35001L91.25 6.25H91.35L91.45 6.15001V6.05H91.55M91.55 6.05V5.95001M91.55 6.05H91.65H91.75L91.85 5.95001L91.95 5.85001V5.75V5.65001H92.05V5.55H92.25V5.45001H92.35V5.35001H92.45V5.25L92.55 5.15001V5.25H92.65H92.85H92.75V5.05V4.95001H92.85H93.05V4.85001L93.15 4.75L93.25 4.65001L93.35 4.55L93.45 4.45001L93.55 4.35001L93.65 4.25V4.15001H93.75H93.85V4.05V3.95001H93.95H94.05V3.85001H94.15V3.75L94.25 3.65001H94.45V3.55L94.55 3.45001H94.65L94.75 3.35001H94.85H94.95H95.05V3.25L95.15 3.15001H95.25V3.05L95.35 3.15001L95.45 3.05H95.55V2.95001L95.65 2.85001L95.75 2.75M95.75 2.75V2.65001M95.75 2.75H95.85V2.65001L95.95 2.55H96.05L96.15 2.45001L96.25 2.55L96.35 2.45001H96.45V2.35001H96.35V2.25V2.15001L96.45 2.05H96.55L96.65 2.15001L96.75 2.05L96.85 2.15001L97.05 2.25V2.15001H97.15H97.25L97.35 2.05H97.45L97.55 2.15001V2.05H97.65V2.15001H97.75L97.85 2.05H97.95L98.05 1.95001H98.15H98.35H98.45L98.55 1.85001H98.65V1.75L98.75 1.65001H98.85M98.85 1.65001V1.55M98.85 1.65001H98.95H99.05V1.55H99.15V1.45001V1.35001H99.25V1.25H99.35M99.35 1.25V1.15001M99.35 1.25H99.45V1.15001V1.05H99.55M99.55 1.05V0.950012H99.65L99.55 1.05ZM99.55 1.05V1.15001H99.65V1.25H99.75H99.85L99.95 1.15001H100.05L100.15 1.05H100.25H100.35H100.45H100.55V0.950012H100.65V0.850006V0.75V0.650009H100.55V0.550003H100.65L100.75 0.450012L100.85 0.550003M100.85 0.550003L100.75 0.650009V0.75L100.85 0.850006M100.85 0.550003V0.650009M100.85 0.550003H100.95L100.85 0.650009M100.85 0.950012V1.05H100.75V0.950012L100.85 0.850006M100.85 0.850006V0.950012M100.85 0.850006H100.95V0.950012H100.85M100.85 0.850006V0.75M100.75 0.950012H100.85M100.85 0.75V0.650009M100.85 0.75H100.95H101.05H101.15L101.25 0.650009L101.35 0.550003L101.45 0.450012" stroke="white" stroke-width="0.5" stroke-linecap="round" stroke-linejoin="round"/>
</svg>
