<svg width="150" height="126" viewBox="0 0 150 126" fill="none" xmlns="http://www.w3.org/2000/svg">
<path d="M139.95 86.25L139.55 86.45L138.45 87.05L138.25 87.15L137.15 88.45L137.35 89.55L136.35 91.15L133.65 93.05L133.25 93.25L132.85 93.55L132.35 93.75L131.85 94.05L131.45 94.25L131.15 94.45H130.85L130.55 94.65L130.25 94.75L129.75 94.85L129.35 94.95L128.85 95.05L128.05 94.85L126.75 94.75V95.15L126.15 95.55L125.25 95.85L124.95 95.95H124.75H124.55L124.25 96.35L123.95 96.65L123.45 97.15L122.75 97.25L118.95 97.55V97.75L118.85 97.95V98.25V98.55L118.65 98.85L118.55 99.05L118.45 99.35L118.25 99.65L118.15 99.75L118.05 99.85H117.85L117.65 99.95L116.85 100.35L115.55 100.85L114.85 101.65L114.05 101.95L113.05 102.65L112.85 103.75L112.25 104.55L111.25 104.35L111.05 104.25L110.75 104.15L109.85 103.85H109.25L108.55 102.65L107.95 103.15L106.35 102.35L107.15 103.65L103.05 106.05L102.25 107.65L101.85 108.95L101.55 110.35L101.05 110.55L100.95 110.65L100.85 112.15L100.35 113.65L99.95 115.05L99.25 116.25L99.05 116.45L98.25 117.35L96.35 118.15L95.45 117.85L93.95 117.15L91.45 116.95L89.95 116.35L89.15 116.65L88.45 116.85L86.95 117.35L85.45 117.85L84.85 118.45L84.45 118.95L83.95 119.35L83.65 119.45L83.05 119.55L82.35 119.75V119.85L81.65 119.95L80.95 120.05H80.55L80.15 120.15L79.95 120.25L79.75 120.35L79.55 120.45L78.75 120.85H78.65L77.95 120.95H77.15H76.75L76.25 120.85L75.85 120.45H75.35L73.65 120.95L71.65 120.45L70.35 120.55L68.85 120.35L67.25 119.85L66.15 119.95H65.55H65.35L64.45 119.65L63.15 119.45L62.35 118.65L61.95 118.85L60.85 119.95L60.05 120.85L59.65 121.05L58.85 121.35L59.05 122.45L58.95 122.95V123.65L58.85 123.95L58.15 124.15H58.05V124.05L57.85 123.85L57.15 122.55L57.05 121.55L56.95 120.35L57.15 119.45L56.65 118.75L56.55 117.95L56.35 117.65L55.75 117.05L56.05 116.45L55.55 116.15L55.25 115.75L55.05 115.15L54.75 114.85L54.45 114.55L54.05 114.25L53.65 114.15L53.45 114.25L52.85 114.55L52.35 115.05L51.65 115.65L50.95 116.25L50.05 116.95L48.95 117.85L46.95 118.45L45.25 119.35L44.95 120.35L44.75 121.95V122.95V123.15V123.25L44.45 123.35L43.45 123.65L42.45 123.45L40.45 123.25L39.15 123.15H37.55L36.55 123.55L35.75 123.15L34.45 123.75L33.25 124.15L31.85 124.65H31.65L31.35 124.25L30.95 123.65L30.35 122.95L30.25 122.85L28.95 122.15L26.95 119.45L26.65 119.85L26.35 120.25V120.75V121.45H26.25L25.85 121.25L25.25 121.15L24.85 120.95L24.35 120.85L23.25 121.05L23.05 121.55L22.75 121.85L22.05 122.15L21.25 122.45L20.85 122.25L20.05 121.85L19.65 121.75L19.25 121.55L18.65 121.35L17.65 120.55L17.05 121.05L16.55 120.95L16.25 120.75L16.45 119.85L16.05 119.65L15.65 120.35L15.25 121.05L15.15 121.35L14.95 121.65L14.75 122.05L14.65 122.35H14.35L14.05 122.25L13.65 121.65L13.35 121.35H12.75L12.55 121.85L12.05 122.65L11.65 123.45V123.55L11.25 124.45L10.95 124.85L10.45 124.75L10.15 124.45L9.85001 124.55L9.35001 124.95L8.95001 125.25L8.64999 125.45L8.35001 125.75L7.85001 125.55L7.35001 125.45L6.95001 125.35L5.75 122.15L5.95001 120.35L4.25 119.65L4.14999 119.15V118.95L4.35001 117.85L4.05002 117.05L3.95001 116.95L2.75 116.55L1.55002 116.35V116.25V116.15V116.05L1.45001 115.95H1.55002V115.85V115.75V115.65H1.45001V115.55V115.45V115.35H1.35001L1.25 115.25H1.35001L1.25 115.15V115.05V114.95L1.14999 114.85H1.25V114.75L1.14999 114.65V114.45L1.25 114.35V114.25V114.15V114.05L1.35001 113.85V113.65L1.45001 113.55L1.55002 113.45V113.35L1.75 113.25V113.15L1.85001 112.95V112.85L2.05002 112.35L2.14999 112.05L2.05002 111.95V111.85L1.95001 111.65H1.85001V111.55V111.45L1.75 111.25V111.15H1.64999V110.95V110.75V110.55L1.75 110.45L1.64999 110.35V110.25V110.15V110.05V109.95V109.85V109.65L1.55002 109.45V109.35V109.25L1.45001 109.15L1.35001 109.05H1.25V108.85V108.75H1.35001V108.65L1.45001 108.55V108.45L1.55002 108.25V108.05V107.95L1.64999 107.55V107.45L1.55002 107.35V107.25V107.15V107.05L1.45001 106.85L1.35001 106.75L1.25 106.65H1.14999H1.05002L1.14999 106.55H1.05002H0.950012V106.45H0.850006H0.75H0.649994H0.550018H0.450012V106.35H0.350006V106.25V106.15V106.05V105.75V105.65V105.55H0.450012V105.45V105.35H0.550018L0.649994 105.25H0.550018V105.15H0.649994V105.05L0.75 104.85L0.649994 104.65L0.550018 104.55L0.450012 104.35V103.75L0.550018 103.55V103.45L0.649994 103.35V103.25L0.75 103.15V103.05H0.850006L0.950012 102.95V102.85L0.850006 102.75L0.950012 102.65V102.55L0.850006 102.45H0.950012L0.850006 102.35H0.950012V102.25H1.05002H1.14999V102.15V102.05H1.25V101.95L1.35001 101.75L1.45001 101.65V101.55V101.45L1.64999 101.15L1.55002 101.05V100.95H1.64999V100.65V100.45H1.55002H1.45001L1.35001 100.35V100.15V100.05V99.85L1.25 99.55L1.35001 99.45V99.35H1.55002L1.45001 99.15V99.05L1.55002 98.95V98.85L1.64999 98.75L1.55002 98.55L1.45001 98.25V98.15L1.55002 97.95V97.75V97.65L1.64999 97.55L1.75 97.45L1.85001 97.35V97.15L1.95001 96.95V96.85L2.05002 96.75L2.14999 96.65V96.45V96.35L2.25 96.15V96.05L2.35001 95.85L2.55002 95.55L2.64999 94.85V94.75L2.55002 94.65V94.55H2.64999V94.05L2.75 93.65V93.25V92.85V92.65V92.45V92.35H2.64999V92.25V92.15V92.05V91.95V91.85V91.75L2.55002 90.95V90.85V90.75V90.65H2.45001V90.45L2.35001 90.15V90.05L2.25 89.95V89.85L2.14999 89.75V89.65L2.05002 89.45H1.95001V89.25H1.85001V89.15L1.75 89.05L1.64999 88.95H1.55002H1.45001H1.35001V88.85H1.25V88.95H1.14999H1.05002L0.950012 88.85H0.850006H0.75H0.649994H0.550018V88.75H0.450012H0.350006V88.65L0.25 88.55L0.350006 88.45L0.450012 88.15V88.05L0.550018 87.95L0.649994 87.85V87.55V87.35L0.75 87.25L0.850006 87.15L0.950012 86.95L1.05002 86.85L1.25 86.65L1.35001 86.55L1.55002 86.45V86.35L1.64999 86.25L1.85001 86.05L1.95001 85.95L2.05002 85.85L2.14999 85.75V85.65L2.25 85.55L2.35001 85.45L2.45001 85.35L2.55002 85.15L2.64999 85.05L2.75 84.95V84.85L2.85001 84.75L2.95001 84.65L3.05002 84.55L3.14999 84.25H3.25V84.15V84.05L3.55002 83.45L3.75 83.15L3.85001 82.55L3.95001 82.45H4.05002L4.14999 82.35L4.25 82.15L4.35001 81.95V81.85V81.75V81.65V81.55L4.25 81.45V81.35L4.14999 81.25H4.05002H3.95001V81.35H3.85001L3.95001 81.25V81.15V81.05V80.95V80.85H4.05002H4.14999H4.25L4.35001 80.75V80.65H4.45001H4.55002V80.55H4.64999V80.45H4.75V80.35L4.85001 80.25H4.95001V80.15H5.05002V80.05L5.14999 79.95L5.25 79.85L5.35001 79.65L5.55002 79.55L5.64999 79.35L5.75 79.25L5.95001 79.15L6.14999 78.85V78.75H6.25L6.35001 78.55H6.45001V78.45L6.55002 78.35L6.64999 78.25L6.75 77.95L6.85001 77.85L6.95001 77.75V77.65L7.05002 77.55L7.14999 77.45L7.25 77.15L7.45001 77.05V76.85H7.55002V76.75L7.75 76.55V76.45H7.85001V76.35L7.95001 76.25L8.05002 76.15V76.05L8.14999 75.95V75.85L8.25 75.75L8.35001 75.65V75.55L8.45001 75.45L8.55002 75.15V75.05V74.95L8.64999 74.85V74.65L8.85001 74.45L8.95001 74.05L9.05002 73.45V73.35L8.95001 73.15V72.95V72.75V72.65L9.05002 72.45L8.95001 72.25L9.05002 72.05L8.95001 71.95L9.05002 71.55V71.35L9.14999 71.25V71.15V70.85L9.05002 70.75L9.14999 70.25L9.05002 70.15V70.05V69.55L9.35001 69.45L9.45001 69.35V69.25H9.55002V69.15H9.64999V69.05H9.75L9.85001 68.95V68.85H9.95001L10.05 68.75V68.65H10.15V68.55H10.25V68.45L10.45 68.35L10.55 68.25V68.15H10.65V68.05H10.75V67.95L10.85 67.85V67.75H10.95V67.65L11.05 67.55V67.45L11.15 67.35L11.25 67.25L11.35 67.15V67.05H11.45V66.95H11.55V66.85L11.65 66.75L11.75 66.65V66.55L11.85 66.35H11.95L12.05 66.15H12.15L12.25 66.05V65.95H12.35V65.85H12.45V65.75L12.55 65.65L12.65 65.55V65.45V65.35H12.75V65.25L12.85 65.15V65.05L12.95 64.95L13.05 64.85L13.15 64.75L13.25 64.65L13.35 64.55V64.45H13.45V64.35V64.25H13.55V64.15H13.65V64.05H13.75V63.95L13.85 63.85V63.75L13.75 63.65H13.85H13.95V63.55H13.85V63.45L13.95 63.35H14.05V63.25L14.25 63.15L14.35 63.05V62.95H14.45L14.55 62.85V62.75H14.65V62.65H14.75L14.85 62.45H14.95V62.35H15.05L15.15 62.25V62.15L15.25 62.05L15.35 61.95H15.45L15.55 61.75L15.65 61.65L15.75 61.55L15.85 61.45L16.05 61.25L16.15 61.05L16.25 60.95L16.45 60.85L16.65 60.55V60.45L16.75 60.35L16.85 60.25L16.95 60.15V60.05V59.95V59.85V59.75L17.05 59.65L17.15 59.55L17.35 59.35L17.45 59.25L17.55 59.15V59.05H17.65L17.75 58.95L17.95 58.75L18.05 58.65L18.15 58.55L18.25 58.45H18.35L18.45 58.25L18.55 58.15V58.05H18.65V57.95V57.85L18.75 57.75L18.85 57.65L19.05 57.45L19.15 57.35L19.25 57.15L19.45 57.05L19.65 56.85L19.75 56.75V56.65L19.85 56.55V56.45L19.95 56.35L20.05 56.25L20.15 56.15V56.05H20.25L20.35 55.75L20.45 55.65L20.55 55.55L20.65 55.45L20.75 55.35L20.85 55.25L21.05 55.05L21.15 54.95L21.25 54.85L21.45 54.65L21.55 54.55L21.75 54.35L21.85 54.25L21.95 54.15V54.05L22.05 53.95L22.15 53.85L22.25 53.55L22.35 53.45L22.55 53.25H22.65V53.15L22.75 53.05L22.85 52.95L23.05 52.75L23.15 52.65L23.35 52.45L23.45 52.25L23.65 52.05L23.75 51.85L23.85 51.75L23.95 51.65V51.55L24.05 51.45L24.15 51.35H24.25L24.35 51.15L24.45 51.05L24.65 50.75H24.75L24.85 50.65L25.05 50.35L25.15 50.25L25.45 50.05V49.95L25.65 49.75L25.75 49.55L25.95 49.45L26.05 49.35L26.15 49.25L26.25 49.15L26.35 49.05L26.45 48.85V48.75V48.65V48.55L26.55 48.45L26.65 48.25V47.95V47.85H26.55L26.65 47.75V47.65L26.75 47.55L26.85 47.45V47.35L26.95 47.25V47.15H27.05V47.05L27.15 46.95L27.25 46.85V46.75V46.45V46.35H27.35L27.25 46.25V46.15V45.75L27.35 45.65V45.55L27.45 45.45V45.35H27.55V45.25V45.15V44.95L27.65 44.85V44.75V44.65L27.75 44.55V44.25L27.65 44.15V44.05V43.95V43.85H27.75V43.75L27.85 43.65V43.55H27.95V43.45H28.05L28.15 43.35V43.25H28.25L28.35 43.15V43.05H28.45V42.95H28.55V42.85H28.65V42.75L28.85 42.55L28.95 42.45V42.35H29.05V42.25V42.15H29.15L29.25 42.05L29.35 41.95V41.85H29.45V41.75H29.55V41.65L29.65 41.55L29.75 41.45H29.85H29.95L29.85 41.35V41.25H29.95V41.15H30.05V41.05V40.95H30.15V40.85L30.25 40.75L30.35 40.65V40.55H30.45V40.45H30.55V40.35H30.65L30.75 40.25V40.15H30.85V40.05V39.95V39.75V39.65V39.55L30.95 39.35V39.25V39.15L31.05 39.05L31.25 38.65V38.55L31.35 38.35H31.25V38.25V38.15V38.05V37.95V37.85H31.35V37.75H31.25V37.65V37.55H31.35V37.45V37.35V37.25V37.15V37.05H31.25V36.95V36.85V36.75V36.65H31.15V36.55V36.45H31.05L30.95 36.35V36.25V36.15H30.85V36.05L30.95 35.95H30.85V35.85L30.75 35.75L30.65 35.65L30.55 35.35L30.65 35.25V35.15H30.75V35.05H30.85V34.95L30.95 34.85V34.75V34.65H31.05V34.55V34.45L31.15 34.35V34.25L31.25 34.15V34.05H31.35L31.25 33.95L31.35 33.85L31.45 33.65V33.55V33.45L31.55 33.35L31.65 33.05V32.85V32.75V32.65L31.75 32.55H31.65L31.75 32.45V32.35V32.25H31.65L31.55 32.05H31.45L31.25 31.65L31.15 31.55H31.05V31.45L31.15 31.55L31.25 31.65H31.35V31.75V31.85L31.45 32.05L31.55 32.15H31.65V32.25L31.75 32.15H31.65V32.05L31.55 31.95H31.65V31.75H31.45H31.55V31.65L31.45 31.55H31.35L31.45 31.45L31.35 31.35V31.25L31.25 31.15L31.15 31.05H31.05H30.95L30.85 30.95H30.75H30.65V30.85H30.55L30.35 30.75L30.15 30.65L29.85 30.55V30.45L29.75 30.25V30.15V29.85V29.75V29.65V29.55V29.35V29.25L29.65 29.15V29.05H29.55V28.95V28.85H29.45V28.75L29.35 28.65V28.55L29.25 28.45L29.35 28.35L29.45 27.95V27.85L29.55 27.55L29.65 27.45L29.75 27.35V27.25H29.85L29.95 27.15V27.05H30.05V26.95L30.15 26.85H30.25V26.75L30.35 26.65H30.45V26.55H30.55V26.45V26.35H30.65V26.25H30.75V26.15L30.85 26.05H30.95V25.95V25.85H31.05V25.75H31.15V25.65V25.55H31.25V25.35H31.35V25.25L31.45 25.15V25.05H31.55L31.45 24.95V24.85V24.75L31.55 24.55V24.45H31.65V24.35L31.75 24.05H31.85V23.95V23.85L31.95 23.75V23.65V23.55L32.05 23.45V23.25L32.15 22.75H32.25V22.45L32.35 22.15L32.25 22.05L32.35 21.95V21.85V21.65V21.55V21.45V21.25V21.15L32.25 21.05L32.15 20.95L31.95 20.75L31.85 20.55H31.75V20.45L31.65 20.35V20.25L31.55 20.15H31.45V20.05H31.35L31.15 19.95L31.05 19.85H30.95V19.75H30.85V19.65H30.75V19.55V19.45L30.65 19.25V19.05L30.45 18.95H30.35V18.85L30.25 18.55L30.35 18.45L30.25 18.15L30.15 17.95V17.85H30.05L29.95 17.75L29.75 17.65L29.65 17.45V17.35H29.55L29.65 17.25L29.75 17.15V17.05H29.85V16.95L29.95 16.85L30.05 16.75L30.15 16.65H30.25L30.35 16.55L30.55 16.45V16.35L30.75 16.25L30.85 16.15L30.95 16.05H31.05V15.95H31.15L31.25 15.85V15.75L31.45 15.65L31.55 15.55H31.65V15.45H31.75V15.35L31.85 15.25H31.95L32.15 15.05H32.25L32.35 14.85L32.45 14.75H32.55L32.75 14.55L32.95 14.45L33.05 14.35V14.25H33.15H33.25V14.15L33.35 14.05H33.45V13.95L33.55 13.85H33.65L33.75 13.75L33.95 13.55L34.05 13.45H34.15V13.35L34.25 13.25H34.35L34.45 13.15L34.55 13.05L34.65 12.95H34.75L34.85 12.85V12.75H34.95L35.05 12.65L35.15 12.55L35.25 12.45L35.35 12.35L35.45 12.25L35.55 12.15H35.65V12.05H35.75L35.85 11.95L35.95 11.85L36.05 11.75L36.15 11.65L36.25 11.55H36.35V11.45L36.45 11.35L36.55 11.25H36.65V11.15H36.75V11.05H36.85V10.95H36.95V10.85H37.05V10.75H37.15V10.65H37.25L37.35 10.55L37.45 10.45L37.55 10.35L37.65 10.25H37.75V10.15H37.85V10.05H37.95V9.95001H38.05V9.85001H38.15V9.75L38.25 9.65001H38.35V9.55H38.45V9.45001H38.55V9.35001H38.65V9.25H38.75V9.15001H38.85V9.05H38.95L39.05 8.95001V8.85001H39.15V8.75H39.25V8.65001H39.35V8.55H39.45V8.45001H39.55V8.35001L39.65 8.25L39.75 8.15001V8.05H39.85V7.95001H39.95V7.85001L40.05 7.75V7.65001L40.15 7.75L40.25 7.55L40.35 7.45001V7.35001H40.45V7.25H40.55V7.15001H40.65V7.05H40.75V6.95001L40.85 6.85001V6.75H40.95V6.65001L41.05 6.55V6.45001H41.15V6.35001H41.25V6.25H41.35V6.15001H41.45V6.05H41.55H42.05L45.65 9.05L44.35 10.15L43.95 11.55L43.75 12.15L43.65 12.65L43.55 13.15L44.25 13.05L44.75 14.55L44.85 14.85L46.05 15.65L47.15 17.15L48.15 18.05V18.45L49.15 19.05L49.65 19.25L50.45 19.65L50.95 19.75L51.35 19.85L52.35 20.25L52.95 20.15L53.15 19.85L53.75 19.95L54.25 19.55L54.95 19.15L55.55 19.25L56.15 19.05L56.95 19.45L57.45 19.35L57.75 19.05L57.95 18.75L57.85 19.15V19.55H58.05L58.25 19.45H58.45H58.55L59.05 19.05L59.25 18.75L59.55 18.45L60.95 18.25L62.25 19.05L62.95 19.95L63.55 20.35L64.05 21.15L64.45 23.05L64.85 24.45L65.05 24.85L65.65 26.75L66.85 29.15L68.35 30.35L67.85 32.45H67.95L68.65 32.55L69.15 31.35L69.95 31.25L70.45 30.35L71.85 30.55L72.25 30.05L72.35 29.75L74.05 29.35L74.25 28.75L74.85 28.55H75.95L77.25 28.15L77.85 28.45L78.05 27.85L78.65 26.95L79.65 25.95L80.55 24.95L81.75 24.25L81.95 24.15L83.15 23.75L84.35 23.15L85.25 22.75L86.85 21.95L88.05 21.35L88.25 21.25L89.15 20.55L89.95 20.45L90.95 19.75L92.35 18.15L92.95 17.15L93.15 16.65L93.45 16.25L93.75 15.95L94.25 15.35V14.95V14.85V14.15L93.95 12.95L93.45 11.55L93.35 10.75L93.25 10.15V8.85001L93.65 7.95001L93.95 6.95001L94.25 5.65001L94.55 4.45001L94.65 3.15001L94.85 2.45001L95.15 1.75L96.15 1.05L97.35 0.25L97.45 0.350006H97.55V0.450012H97.65V0.550003V0.650009V0.75V0.850006V0.950012H97.55V1.05V1.15001V1.25V1.35001L97.65 1.45001H97.75H97.85L97.95 1.35001H98.05H98.15L98.25 1.45001V1.55V1.65001V1.75V1.85001V1.95001L98.35 2.05L98.45 2.15001H98.55H98.65H98.75H98.85H98.95L99.05 2.25H99.15V2.35001V2.45001V2.55V2.65001L99.05 2.75V2.85001V2.95001V3.05V3.15001V3.25V3.35001L99.15 3.45001V3.55L99.25 3.65001V3.75H99.35V3.85001V3.95001H99.45V4.05L99.55 4.15001L99.65 4.25L99.75 4.35001L99.85 4.45001H99.95V4.55H100.05V4.65001V4.75V4.85001V4.95001H100.15H100.25L100.35 5.05H100.45L100.55 5.15001H100.65V5.25L100.75 5.35001V5.45001V5.55V5.65001V5.75L100.85 5.85001H100.95L101.05 5.75H101.15V5.65001L101.25 5.75H101.35V5.85001V5.95001L101.25 6.05V6.15001V6.25V6.35001V6.45001V6.55V6.65001V6.75H101.35V6.85001H101.45H101.55V6.95001H101.65V7.05L101.75 7.15001V7.25V7.35001H101.85V7.45001V7.55V7.65001V7.75V7.85001V7.95001H101.95H102.05H102.15H102.25H102.35H102.45H102.55H102.65H102.75L102.85 8.05V8.15001L102.95 8.25V8.35001H103.05H103.15H103.25L103.35 8.45001V8.55L103.45 8.65001V8.75L103.55 8.85001V8.95001L103.65 9.05V9.15001V9.25H103.75L104.75 9.65001L105.25 9.85001L105.55 10.25L105.85 10.65L106.25 10.95L106.55 11.25L106.95 11.85L107.35 12.15L107.75 12.45L108.05 12.65L108.25 12.85L108.45 12.95L108.65 13.15L108.85 13.35H109.05L109.35 13.55H109.55L109.75 13.65L109.95 13.75H110.45H110.75L110.85 13.55L110.95 13.65L110.85 13.75V13.85V13.95H111.05L111.15 13.85H111.25H111.35L111.55 13.95H111.75L111.85 14.05L111.95 13.95L112.05 14.05V14.15L111.95 14.25H111.85H111.75H111.55L111.25 14.35V14.45V14.55L111.35 14.65H111.55H111.75L111.95 14.75V14.85V14.95L111.75 15.15V15.25L112.05 15.45L112.15 15.55L112.25 15.65L112.15 15.75L112.05 15.85V15.95L111.85 16.15L111.75 16.25L111.85 16.35L111.95 16.45H112.05L112.25 16.35L112.35 16.45L112.55 16.65H112.65L112.85 16.75L112.95 16.85V17.25L113.05 17.55V17.85V18.05H113.15H113.25L113.35 17.85V17.75L113.65 17.65L113.75 17.75L113.85 18.05V18.25L113.65 18.45V18.65H113.75L113.95 18.55L114.05 18.45L114.15 18.55L114.25 18.75L114.35 18.95H114.65V19.15L114.55 19.35V19.55L114.45 19.65H114.25L114.15 19.75L114.35 20.05L114.55 19.95H114.75H114.85V20.25H115.15L115.35 20.05L115.45 20.15L115.65 20.85L115.95 21.25L116.25 21.45L116.75 21.85L117.05 22.05L117.45 22.25L117.85 22.35L118.35 22.65L118.65 22.55H118.85L119.05 22.65H119.25H119.55H119.75H120.05L120.35 22.75L120.65 22.85L120.95 23.25L121.45 23.15H122.35L123.25 22.75L123.05 22.15L123.35 21.85L123.95 21.95L124.25 22.35L124.35 22.55L124.45 22.75L124.25 23.25L124.35 23.45L124.75 23.55H125.05L125.15 23.45L125.25 23.25L125.15 22.85V22.65V22.55L125.35 22.45L125.55 22.55L125.85 22.45L126.05 22.55H126.25H126.45L126.65 22.85L127.25 23.25H127.95L128.25 22.85L129.15 22.25L129.55 22.15L129.85 22.05L130.15 22.25L130.45 22.75L130.95 23.35L131.25 23.75L131.65 24.55L131.95 24.95V25.25V25.45L131.85 25.55L131.95 25.75L132.05 25.85L132.45 25.65H132.65L132.75 25.55V25.45L132.85 25.35H132.95L133.05 25.45L133.15 25.55V25.65V26.05L133.35 26.15H133.45V26.25H133.55H133.65H133.75H133.85L133.95 26.15V26.05L134.05 25.95L134.15 25.85L134.25 25.95L134.35 26.05L134.45 25.95H134.55H134.65H134.75H134.85L134.95 26.05H135.05L135.15 26.15V26.35L135.25 26.45L135.35 26.55H135.45H135.65H135.75L135.85 26.65H135.95L136.05 26.75V26.85V26.95V27.05L135.95 27.25V27.45L136.05 27.55V27.65L136.15 27.75H136.45H136.75H136.95H137.05H137.15V27.85V27.95H137.25V28.05V28.15L137.35 28.25H137.45H137.55L137.65 28.15L137.85 28.05L138.05 28.15L138.15 28.25L138.25 28.45L138.45 28.65L138.65 28.85L138.75 28.95L138.85 29.25H138.95L139.15 29.35L139.35 29.45V29.75L139.65 30.15V30.45H139.75L139.95 30.25L140.15 30.15V30.05H140.35L140.65 30.15L140.85 30.25H141.05V30.45V30.55L141.15 30.65H141.25H141.35H141.55L141.65 30.45L141.75 30.35H141.85H141.95L142.05 30.15H142.15L142.25 30.25V30.45V30.55V30.75V30.85H142.35L142.45 31.05L142.65 31.15L142.75 31.25L142.85 31.45H142.95H143.05L143.15 31.35V31.25V31.05L143.25 30.85L143.35 30.75L143.45 30.65L143.55 30.75L143.65 30.85L143.75 31.05L143.95 31.55L144.25 31.85L144.35 31.95V32.45L144.25 33.05L144.15 33.35L144.05 34.15L143.85 35.15L143.65 36.05L143.55 36.55L143.85 37.15L144.15 37.75L143.85 39.05L143.65 39.75L143.45 40.15L143.15 40.95L143.25 41.45L143.05 42.05L142.75 42.95L142.85 43.45L143.05 43.95L142.95 44.65L143.45 45.65L143.55 46.95V48.15V48.35L143.85 49.65L144.55 50.25L145.05 50.55L145.35 51.15L146.65 52.05L146.85 52.65L146.05 53.05L146.15 53.75L146.35 54.65L146.25 55.45V55.75L146.15 56.65L146.95 56.85L146.75 57.55L146.95 57.75L147.25 58.25L147.55 58.85L148.15 59.65L148.35 59.55H148.65L148.45 60.45H149.05L149.15 61.15L149.25 61.55L149.55 62.05L149.15 62.15L148.75 62.05L148.15 61.85L147.85 61.65L147.75 61.75L147.95 62.05L147.75 62.45L147.45 64.15L148.45 64.95L147.15 65.75H146.15H145.35H144.55L144.25 65.85L142.65 66.25L141.55 66.65L141.15 66.75L140.75 66.85L140.55 66.65L140.25 66.55L139.95 66.35L139.85 66.05H139.45L139.25 65.95V65.65H138.95H138.25L137.65 64.95V65.65L136.95 65.55L136.65 65.75L136.15 65.55L135.75 65.75L135.85 66.35L135.75 67.05H135.35L135.25 66.55H134.85L134.65 67.45L134.05 67.95L133.45 68.35L132.95 68.75L133.15 68.95L133.55 69.25L133.75 69.85L133.15 69.75L133.05 69.85L132.85 69.95V70.15L132.95 70.35V70.55V70.65L133.05 70.95V71.35H133.25H133.85L134.55 71.25H135.05L135.55 71.15L135.85 71.85L135.55 73.65L135.85 74.35L138.05 75.15L138.45 76.45L138.65 77.05L139.55 78.15L142.65 78.25L142.85 79.55L142.35 80.05V80.35L142.15 81.25L141.85 82.95L141.45 83.85H140.75L140.55 84.75L140.15 85.45L139.95 86.25Z" fill="#6F9C76"/>
<path d="M1.64999 110.25V110.35L1.75 110.45L1.64999 110.55V110.75V110.95V111.15H1.75V111.25L1.85001 111.45V111.55V111.65H1.95001L2.05002 111.85V111.95L2.14999 112.05L2.05002 112.35L1.85001 112.85V112.95L1.75 113.15V113.25L1.55002 113.35V113.45L1.45001 113.55L1.35001 113.65V113.85L1.25 114.05V114.15V114.25V114.35L1.14999 114.45V114.65L1.25 114.75V114.85H1.14999L1.25 114.95V115.05V115.15L1.35001 115.25H1.25L1.35001 115.35H1.45001V115.45V115.55V115.65H1.55002V115.75V115.85V115.95H1.45001L1.55002 116.05V116.15V116.25V116.35L2.75 116.55L3.95001 116.95L4.05002 117.05L4.35001 117.85L4.14999 118.95V119.15L4.25 119.65L5.95001 120.35L5.75 122.15L6.95001 125.35L7.35001 125.45L7.85001 125.55L8.35001 125.75L8.64999 125.45L8.95001 125.25L9.35001 124.95L9.85001 124.55L10.15 124.45L10.45 124.75L10.95 124.85L11.25 124.45L11.65 123.55V123.45L12.05 122.65L12.55 121.85L12.75 121.35H13.35L13.65 121.65L14.05 122.25L14.35 122.35H14.65L14.75 122.05L14.95 121.65L15.15 121.35L15.25 121.05L15.65 120.35L16.05 119.65L16.45 119.85L16.25 120.75L16.55 120.95L17.05 121.05L17.65 120.55L18.65 121.35L19.25 121.55L19.65 121.75L20.05 121.85L20.85 122.25L21.25 122.45L22.05 122.15L22.75 121.85L23.05 121.55L23.25 121.05L24.35 120.85L24.85 120.95L25.25 121.15L25.85 121.25L26.25 121.45H26.35V120.75V120.25L26.65 119.85L26.95 119.45L28.95 122.15L30.25 122.85L30.35 122.95L30.95 123.65L31.35 124.25L31.65 124.65H31.85L33.25 124.15L34.45 123.75L35.75 123.15L36.55 123.55L37.55 123.15H39.15L40.45 123.25L42.45 123.45L43.45 123.65L44.45 123.35L44.75 123.25V123.15V122.95V121.95L44.95 120.35L45.25 119.35L46.95 118.45L48.95 117.85L50.05 116.95L50.95 116.25L51.65 115.65L52.35 115.05L52.85 114.55L53.45 114.25L53.65 114.15L54.05 114.25L54.45 114.55L54.75 114.85L55.05 115.15L55.25 115.75L55.55 116.15L56.05 116.45L55.75 117.05L56.35 117.65L56.55 117.95L56.65 118.75L57.15 119.45L56.95 120.35L57.05 121.55L57.15 122.55L57.85 123.85L58.05 124.05V124.15H58.15L58.85 123.95L58.95 123.65V122.95L59.05 122.45L58.85 121.35L59.65 121.05L60.05 120.85L60.85 119.95L61.95 118.85L62.35 118.65L63.15 119.45L64.45 119.65L65.35 119.95H65.55H66.15L67.25 119.85L68.85 120.35L70.35 120.55L71.65 120.45L73.65 120.95L75.35 120.45H75.85L76.25 120.85L76.75 120.95H77.15H77.95L78.65 120.85H78.75L79.55 120.45L79.75 120.35L79.95 120.25L80.15 120.15L80.55 120.05H80.95L81.65 119.95L82.35 119.85V119.75L83.05 119.55L83.65 119.45L83.95 119.35L84.45 118.95L84.85 118.45L85.45 117.85L86.95 117.35L88.45 116.85L89.15 116.65L89.95 116.35L91.45 116.95L93.95 117.15L95.45 117.85L96.35 118.15L98.25 117.35L99.05 116.45L99.25 116.25L99.95 115.05L100.35 113.65L100.85 112.15L100.95 110.65L101.05 110.55L101.55 110.35L101.85 108.95L102.25 107.65L103.05 106.05L107.15 103.65L106.35 102.35L107.95 103.15L108.55 102.65L109.25 103.85H109.85L110.75 104.15L111.05 104.25L111.25 104.35L112.25 104.55L112.85 103.75L113.05 102.65L114.05 101.95L114.85 101.65L115.55 100.85L116.85 100.35L117.65 99.95L117.85 99.85H118.05L118.15 99.75L118.25 99.65L118.45 99.35L118.55 99.05L118.65 98.85L118.85 98.55V98.25V97.95L118.95 97.75V97.55L122.75 97.25L123.45 97.15L123.95 96.65L124.25 96.35L124.55 95.95H124.75H124.95L125.25 95.85L126.15 95.55L126.75 95.15V94.75L128.05 94.85L128.85 95.05L129.35 94.95L129.75 94.85L130.25 94.75L130.55 94.65L130.85 94.45H131.15L131.45 94.25L131.85 94.05L132.35 93.75L132.85 93.55L133.25 93.25L133.65 93.05L136.35 91.15L137.35 89.55L137.15 88.45L138.25 87.15L138.45 87.05L139.55 86.45L139.95 86.25L140.15 85.45L140.55 84.75L140.75 83.85H141.45L141.85 82.95L142.15 81.25L142.35 80.35V80.05L142.85 79.55L142.65 78.25L139.55 78.15L138.65 77.05L138.45 76.45L138.05 75.15L135.85 74.35L135.55 73.65L135.85 71.85L135.55 71.15L135.05 71.25H134.55L133.85 71.35H133.25H133.05V70.95L132.95 70.65V70.55V70.35L132.85 70.15V69.95L133.05 69.85L133.15 69.75L133.75 69.85L133.55 69.25L133.15 68.95L132.95 68.75L133.45 68.35L134.05 67.95L134.65 67.45L134.85 66.55H135.25L135.35 67.05H135.75L135.85 66.35L135.75 65.75L136.15 65.55L136.65 65.75L136.95 65.55L137.65 65.65V64.95L138.25 65.65H138.95H139.25V65.95L139.45 66.05H139.85L139.95 66.35L140.25 66.55L140.55 66.65L140.75 66.85L141.15 66.75L141.55 66.65L142.65 66.25L144.25 65.85L144.55 65.75H145.35H146.15H147.15L148.45 64.95L147.45 64.15L147.75 62.45L147.95 62.05L147.75 61.75L147.85 61.65L148.15 61.85L148.75 62.05L149.15 62.15L149.55 62.05L149.25 61.55L149.15 61.15L149.05 60.45H148.45L148.65 59.55H148.35L148.15 59.65L147.55 58.85L147.25 58.25L146.95 57.75L146.75 57.55L146.95 56.85L146.15 56.65L146.25 55.75V55.45L146.35 54.65L146.15 53.75L146.05 53.05L146.85 52.65L146.65 52.05L145.35 51.15L145.05 50.55L144.55 50.25L143.85 49.65L143.55 48.35V48.15V46.95L143.45 45.65L142.95 44.65L143.05 43.95L142.85 43.45L142.75 42.95L143.05 42.05L143.25 41.45L143.15 40.95L143.45 40.15L143.65 39.75L143.85 39.05L144.15 37.75L143.85 37.15L143.55 36.55L143.65 36.05L143.85 35.15L144.05 34.15L144.15 33.35L144.25 33.05L144.35 32.45V31.95L144.25 31.85L143.95 31.55L143.75 31.05L143.65 30.85L143.55 30.75L143.45 30.65L143.35 30.75L143.25 30.85L143.15 31.05V31.25V31.35L143.05 31.45H142.95H142.85L142.75 31.25L142.65 31.15L142.45 31.05L142.35 30.85H142.25V30.75V30.55V30.45V30.25L142.15 30.15H142.05L141.95 30.35H141.85H141.75L141.65 30.45L141.55 30.65H141.35H141.25H141.15L141.05 30.55V30.45V30.25H140.85L140.65 30.15L140.35 30.05H140.15V30.15L139.95 30.25L139.75 30.45H139.65V30.15L139.35 29.75V29.45L139.15 29.35L138.95 29.25H138.85L138.75 28.95L138.65 28.85L138.45 28.65L138.25 28.45L138.15 28.25L138.05 28.15L137.85 28.05L137.65 28.15L137.55 28.25H137.45H137.35L137.25 28.15V28.05V27.95H137.15V27.85V27.75H137.05H136.95H136.75H136.45H136.15L136.05 27.65V27.55L135.95 27.45V27.25L136.05 27.05V26.95V26.85V26.75L135.95 26.65H135.85L135.75 26.55H135.65H135.45H135.35L135.25 26.45L135.15 26.35V26.15L135.05 26.05H134.95L134.85 25.95H134.75H134.65H134.55H134.45L134.35 26.05L134.25 25.95L134.15 25.85L134.05 25.95L133.95 26.05V26.15L133.85 26.25H133.75H133.65H133.55H133.45V26.15H133.35L133.15 26.05V25.65V25.55L133.05 25.45L132.95 25.35H132.85L132.75 25.45V25.55L132.65 25.65H132.45L132.05 25.85L131.95 25.75L131.85 25.55L131.95 25.45V25.25V24.95L131.65 24.55L131.25 23.75L130.95 23.35L130.45 22.75L130.15 22.25L129.85 22.05L129.55 22.15L129.15 22.25L128.25 22.85L127.95 23.25H127.25L126.65 22.85L126.45 22.55H126.25H126.05L125.85 22.45L125.55 22.55L125.35 22.45L125.15 22.55V22.65V22.85L125.25 23.25L125.15 23.45L125.05 23.55H124.75L124.35 23.45L124.25 23.25L124.45 22.75L124.35 22.55L124.25 22.35L123.95 21.95L123.35 21.85L123.05 22.15L123.25 22.75L122.35 23.15H121.45L120.95 23.25L120.65 22.85L120.35 22.75L120.05 22.65H119.75H119.55H119.25H119.05L118.85 22.55H118.65L118.35 22.65L117.85 22.35L117.45 22.25L117.05 22.05L116.75 21.85L116.25 21.45L115.95 21.25L115.65 20.85L115.45 20.15L115.35 20.05L115.15 20.25H114.85V19.95H114.75H114.55L114.35 20.05L114.15 19.75L114.25 19.65H114.45L114.55 19.55V19.35L114.65 19.15V18.95H114.35L114.25 18.75L114.15 18.55L114.05 18.45L113.95 18.55L113.75 18.65H113.65V18.45L113.85 18.25V18.05L113.75 17.75L113.65 17.65L113.35 17.75V17.85L113.25 18.05H113.15H113.05V17.85V17.55L112.95 17.25V16.85L112.85 16.75L112.65 16.65H112.55L112.35 16.45L112.25 16.35L112.05 16.45H111.95L111.85 16.35L111.75 16.25L111.85 16.15L112.05 15.95V15.85L112.15 15.75L112.25 15.65L112.15 15.55L112.05 15.45L111.75 15.25V15.15L111.95 14.95V14.85V14.75L111.75 14.65H111.55H111.35L111.25 14.55V14.45V14.35L111.55 14.25H111.75H111.85H111.95L112.05 14.15V14.05L111.95 13.95L111.85 14.05L111.75 13.95H111.55L111.35 13.85H111.25H111.15L111.05 13.95H110.85V13.85V13.75L110.95 13.65L110.85 13.55L110.75 13.75H110.45H109.95L109.75 13.65L109.55 13.55H109.35L109.05 13.35H108.85L108.65 13.15L108.45 12.95L108.25 12.85L108.05 12.65L107.75 12.45L107.35 12.15L106.95 11.85L106.55 11.25L106.25 10.95L105.85 10.65L105.55 10.25L105.25 9.85001L104.75 9.65001L103.75 9.25H103.65V9.15001V9.05L103.55 8.95001V8.85001L103.45 8.75V8.65001L103.35 8.55V8.45001L103.25 8.35001H103.15H103.05H102.95V8.25L102.85 8.15001V8.05L102.75 7.95001H102.65H102.55H102.45H102.35H102.25H102.15H102.05H101.95H101.85V7.85001V7.75V7.65001V7.55V7.45001V7.35001H101.75V7.25V7.15001L101.65 7.05V6.95001H101.55V6.85001H101.45H101.35V6.75H101.25V6.65001V6.55V6.45001V6.35001V6.25V6.15001V6.05L101.35 5.95001V5.85001V5.75H101.25L101.15 5.65001V5.75H101.05L100.95 5.85001H100.85L100.75 5.75V5.65001V5.55V5.45001V5.35001L100.65 5.25V5.15001H100.55L100.45 5.05H100.35L100.25 4.95001H100.15H100.05V4.85001V4.75V4.65001V4.55H99.95V4.45001H99.85L99.75 4.35001L99.65 4.25L99.55 4.15001L99.45 4.05V3.95001H99.35V3.85001V3.75H99.25V3.65001L99.15 3.55V3.45001L99.05 3.35001V3.25V3.15001V3.05V2.95001V2.85001V2.75L99.15 2.65001V2.55V2.45001V2.35001V2.25H99.05L98.95 2.15001H98.85H98.75H98.65H98.55H98.45L98.35 2.05L98.25 1.95001V1.85001V1.75V1.65001V1.55V1.45001L98.15 1.35001H98.05H97.95L97.85 1.45001H97.75H97.65L97.55 1.35001V1.25V1.15001V1.05V0.950012H97.65V0.850006V0.75V0.650009V0.550003V0.450012H97.55V0.350006H97.45L97.35 0.25L96.15 1.05L95.15 1.75L94.85 2.45001L94.65 3.15001L94.55 4.45001L94.25 5.65001L93.95 6.95001L93.65 7.95001L93.25 8.85001V10.15L93.35 10.75L93.45 11.55L93.95 12.95L94.25 14.15V14.85V14.95V15.35L93.75 15.95L93.45 16.25L93.15 16.65L92.95 17.15L92.35 18.15L90.95 19.75L89.95 20.45L89.15 20.55L88.25 21.25L88.05 21.35L86.85 21.95L85.25 22.75L84.35 23.15L83.15 23.75L81.95 24.15L81.75 24.25L80.55 24.95L79.65 25.95L78.65 26.95L78.05 27.85L77.85 28.45L77.25 28.15L75.95 28.55H74.85L74.25 28.75L74.05 29.35L72.35 29.75L72.25 30.05L71.85 30.55L70.45 30.35L69.95 31.25L69.15 31.35L68.65 32.55L67.95 32.45H67.85L68.35 30.35L66.85 29.15L65.65 26.75L65.05 24.85L64.85 24.45L64.45 23.05L64.05 21.15L63.55 20.35L62.95 19.95L62.25 19.05L60.95 18.25L59.55 18.45L59.25 18.75L59.05 19.05L58.55 19.45H58.45H58.25L58.05 19.55H57.85V19.15L57.95 18.75L57.75 19.05L57.45 19.35L56.95 19.45L56.15 19.05L55.55 19.25L54.95 19.15L54.25 19.55L53.75 19.95L53.15 19.85L52.95 20.15L52.35 20.25L51.35 19.85L50.95 19.75L50.45 19.65L49.65 19.25L49.15 19.05L48.15 18.45V18.05L47.15 17.15L46.05 15.65L44.85 14.85L44.75 14.55L44.25 13.05L43.55 13.15L43.65 12.65L43.75 12.15L43.95 11.55L44.35 10.15L45.65 9.05L42.05 6.05H41.55H41.45V6.15001H41.35V6.25H41.25V6.35001H41.15V6.45001H41.05V6.55L40.95 6.65001V6.75H40.85V6.85001L40.75 6.95001V7.05H40.65V7.15001H40.55V7.25H40.45V7.35001H40.35V7.45001L40.25 7.55L40.15 7.75L40.05 7.65001V7.75L39.95 7.85001V7.95001H39.85V8.05H39.75V8.15001L39.65 8.25L39.55 8.35001V8.45001H39.45V8.55H39.35V8.65001H39.25V8.75H39.15V8.85001H39.05V8.95001L38.95 9.05H38.85V9.15001H38.75V9.25H38.65V9.35001H38.55V9.45001H38.45V9.55H38.35V9.65001H38.25L38.15 9.75V9.85001H38.05V9.95001H37.95V10.05H37.85V10.15H37.75V10.25H37.65L37.55 10.35L37.45 10.45L37.35 10.55L37.25 10.65H37.15V10.75H37.05V10.85H36.95V10.95H36.85V11.05H36.75V11.15H36.65V11.25H36.55L36.45 11.35L36.35 11.45V11.55H36.25L36.15 11.65L36.05 11.75L35.95 11.85L35.85 11.95L35.75 12.05H35.65V12.15H35.55L35.45 12.25L35.35 12.35L35.25 12.45L35.15 12.55L35.05 12.65L34.95 12.75H34.85V12.85L34.75 12.95H34.65L34.55 13.05L34.45 13.15L34.35 13.25H34.25L34.15 13.35V13.45H34.05L33.95 13.55L33.75 13.75L33.65 13.85H33.55L33.45 13.95V14.05H33.35L33.25 14.15V14.25H33.15H33.05V14.35L32.95 14.45L32.75 14.55L32.55 14.75H32.45L32.35 14.85L32.25 15.05H32.15L31.95 15.25H31.85L31.75 15.35V15.45H31.65V15.55H31.55L31.45 15.65L31.25 15.75V15.85L31.15 15.95H31.05V16.05H30.95L30.85 16.15L30.75 16.25L30.55 16.35V16.45L30.35 16.55L30.25 16.65H30.15L30.05 16.75L29.95 16.85L29.85 16.95V17.05H29.75V17.15L29.65 17.25M1.64999 110.25H1.55002M1.64999 110.25V110.15V110.05V109.95V109.85V109.65L1.55002 109.45V109.35M1.55002 109.35H1.64999M1.55002 109.35V109.25L1.45001 109.15L1.35001 109.05H1.25V108.85V108.75H1.35001V108.65M1.35001 108.65V108.55M3.95001 81.25H4.05002H4.14999L4.25 81.35V81.45L4.35001 81.55V81.65V81.75V81.85V81.95L4.25 82.15L4.14999 82.35L4.05002 82.45H3.95001L3.85001 82.55L3.75 83.15L3.55002 83.45L3.25 84.05V84.15V84.25H3.14999L3.05002 84.55L2.95001 84.65L2.85001 84.75L2.75 84.85V84.95L2.64999 85.05L2.55002 85.15L2.45001 85.35L2.35001 85.45L2.25 85.55L2.14999 85.65V85.75L2.05002 85.85L1.95001 85.95L1.85001 86.05L1.64999 86.25L1.55002 86.35V86.45L1.35001 86.55L1.25 86.65L1.05002 86.85L0.950012 86.95L0.850006 87.15L0.75 87.25L0.649994 87.35V87.55V87.85L0.550018 87.95L0.450012 88.05V88.15L0.350006 88.45L0.25 88.55L0.350006 88.65V88.75H0.450012H0.550018V88.85H0.649994H0.75H0.850006H0.950012L1.05002 88.95H1.14999H1.25V88.85H1.35001V88.95H1.45001H1.55002H1.64999L1.75 89.05L1.85001 89.15V89.25H1.95001V89.45H2.05002L2.14999 89.65V89.75L2.25 89.85V89.95L2.35001 90.05V90.15L2.45001 90.45V90.65H2.55002V90.75V90.85V90.95L2.64999 91.75V91.85V91.95V92.05V92.15V92.25V92.35H2.75V92.45V92.65V92.85V93.25V93.65L2.64999 94.05V94.55H2.55002V94.65L2.64999 94.75V94.85L2.55002 95.55L2.35001 95.85L2.25 96.05V96.15L2.14999 96.35V96.45V96.65L2.05002 96.75L1.95001 96.85V96.95L1.85001 97.15V97.35L1.75 97.45L1.64999 97.55L1.55002 97.65V97.75V97.95L1.45001 98.15V98.25L1.55002 98.55L1.64999 98.75L1.55002 98.85V98.95L1.45001 99.05V99.15L1.55002 99.35H1.35001V99.45L1.25 99.55L1.35001 99.85V100.05V100.15V100.35L1.45001 100.45H1.55002H1.64999V100.65V100.95H1.55002V101.05L1.64999 101.15L1.45001 101.45V101.55V101.65L1.35001 101.75L1.25 101.95V102.05H1.14999V102.15V102.25H1.05002H0.950012V102.35H0.850006L0.950012 102.45H0.850006L0.950012 102.55V102.65L0.850006 102.75L0.950012 102.85V102.95L0.850006 103.05H0.75V103.15L0.649994 103.25V103.35L0.550018 103.45V103.55L0.450012 103.75V104.35L0.550018 104.55L0.649994 104.65L0.75 104.85L0.649994 105.05V105.15H0.550018V105.25H0.649994L0.550018 105.35H0.450012V105.45V105.55H0.350006V105.65V105.75V106.05V106.15V106.25V106.35H0.450012V106.45H0.550018H0.649994H0.75H0.850006H0.950012V106.55H1.05002H1.14999L1.05002 106.65H1.14999H1.25L1.35001 106.75L1.45001 106.85L1.55002 107.05V107.15V107.25V107.35L1.64999 107.45V107.55L1.55002 107.95V108.05V108.25L1.45001 108.45V108.55L1.35001 108.65M0.950012 88.85V88.95M3.95001 81.25V81.35H3.85001M3.95001 81.25L3.85001 81.35M3.95001 81.25H3.85001V81.35M3.95001 81.25V81.15V81.05V80.95V80.85H4.05002M3.85001 81.35V81.45M4.05002 80.85V80.75M4.05002 80.85H4.14999H4.25L4.35001 80.75V80.65H4.45001H4.55002V80.55H4.64999V80.45H4.75V80.35L4.85001 80.25H4.95001V80.15H5.05002V80.05L5.14999 79.95L5.25 79.85L5.35001 79.65L5.55002 79.55L5.64999 79.35L5.75 79.25L5.95001 79.15L6.14999 78.85V78.75H6.25L6.35001 78.55H6.45001V78.45L6.55002 78.35L6.64999 78.25L6.75 77.95L6.85001 77.85L6.95001 77.75V77.65L7.05002 77.55L7.14999 77.45L7.25 77.15L7.45001 77.05V76.85H7.55002V76.75L7.75 76.55V76.45H7.85001V76.35L7.95001 76.25L8.05002 76.15V76.05L8.14999 75.95V75.85L8.25 75.75L8.35001 75.65V75.55L8.45001 75.45L8.55002 75.15V75.05V74.95L8.64999 74.85V74.65L8.85001 74.45L8.95001 74.05L9.05002 73.45V73.35L8.95001 73.15V72.95V72.75V72.65L9.05002 72.45L8.95001 72.25L9.05002 72.05L8.95001 71.95L9.05002 71.55V71.35L9.14999 71.25V71.15V70.85L9.05002 70.75L9.14999 70.25L9.05002 70.15V70.05V69.55L9.35001 69.45L9.45001 69.35V69.25H9.55002V69.15H9.64999V69.05H9.75L9.85001 68.95V68.85H9.95001L10.05 68.75V68.65H10.15V68.55H10.25V68.45L10.45 68.35L10.55 68.25V68.15H10.65V68.05H10.75V67.95L10.85 67.85V67.75H10.95V67.65L11.05 67.55V67.45L11.15 67.35L11.25 67.25L11.35 67.15V67.05H11.45V66.95H11.55V66.85L11.65 66.75L11.75 66.65V66.55L11.85 66.35H11.95L12.05 66.15H12.15L12.25 66.05V65.95H12.35V65.85H12.45V65.75L12.55 65.65L12.65 65.55V65.45V65.35H12.75V65.25L12.85 65.15V65.05L12.95 64.95L13.05 64.85L13.15 64.75L13.25 64.65L13.35 64.55V64.45H13.45V64.35V64.25H13.55V64.15H13.65V64.05H13.75V63.95L13.85 63.85V63.75L13.75 63.65H13.85H13.95V63.55H13.85V63.45L13.95 63.35H14.05V63.25L14.25 63.15L14.35 63.05V62.95H14.45L14.55 62.85V62.75H14.65V62.65H14.75L14.85 62.45H14.95V62.35H15.05L15.15 62.25V62.15L15.25 62.05L15.35 61.95H15.45L15.55 61.75L15.65 61.65L15.75 61.55L15.85 61.45L16.05 61.25L16.15 61.05L16.25 60.95L16.45 60.85L16.65 60.55V60.45L16.75 60.35L16.85 60.25L16.95 60.15V60.05V59.95V59.85V59.75L17.05 59.65L17.15 59.55L17.35 59.35L17.45 59.25L17.55 59.15V59.05H17.65L17.75 58.95L17.95 58.75L18.05 58.65L18.15 58.55L18.25 58.45H18.35L18.45 58.25L18.55 58.15V58.05H18.65V57.95V57.85L18.75 57.75L18.85 57.65L19.05 57.45L19.15 57.35L19.25 57.15L19.45 57.05L19.65 56.85L19.75 56.75V56.65L19.85 56.55V56.45L19.95 56.35L20.05 56.25L20.15 56.15V56.05H20.25L20.35 55.75L20.45 55.65L20.55 55.55L20.65 55.45L20.75 55.35L20.85 55.25L21.05 55.05L21.15 54.95L21.25 54.85L21.45 54.65L21.55 54.55L21.75 54.35L21.85 54.25L21.95 54.15V54.05L22.05 53.95L22.15 53.85L22.25 53.55L22.35 53.45L22.55 53.25H22.65V53.15L22.75 53.05L22.85 52.95L23.05 52.75L23.15 52.65L23.35 52.45L23.45 52.25L23.65 52.05L23.75 51.85L23.85 51.75L23.95 51.65V51.55L24.05 51.45L24.15 51.35H24.25L24.35 51.15L24.45 51.05L24.65 50.75H24.75L24.85 50.65L25.05 50.35L25.15 50.25L25.45 50.05V49.95L25.65 49.75L25.75 49.55L25.95 49.45L26.05 49.35L26.15 49.25L26.25 49.15L26.35 49.05L26.45 48.85V48.75V48.65V48.55L26.55 48.45L26.65 48.25V47.95V47.85H26.55L26.65 47.75V47.65L26.75 47.55L26.85 47.45V47.35L26.95 47.25V47.15H27.05V47.05L27.15 46.95L27.25 46.85V46.75V46.45V46.35H27.35L27.25 46.25V46.15V45.75L27.35 45.65V45.55L27.45 45.45V45.35H27.55V45.25V45.15V44.95L27.65 44.85V44.75V44.65L27.75 44.55V44.25L27.65 44.15V44.05V43.95V43.85H27.75V43.75L27.85 43.65V43.55H27.95V43.45H28.05L28.15 43.35V43.25H28.25L28.35 43.15V43.05H28.45V42.95H28.55V42.85H28.65V42.75L28.85 42.55L28.95 42.45V42.35H29.05V42.25V42.15H29.15L29.25 42.05L29.35 41.95V41.85H29.45V41.75H29.55V41.65L29.65 41.55L29.75 41.45H29.85M29.85 41.45V41.35M29.85 41.45H29.95L29.85 41.35M29.85 41.35V41.25H29.95V41.15H30.05V41.05V40.95H30.15V40.85L30.25 40.75L30.35 40.65V40.55H30.45V40.45H30.55V40.35H30.65L30.75 40.25V40.15H30.85V40.05V39.95V39.75V39.65V39.55L30.95 39.35V39.25V39.15L31.05 39.05L31.25 38.65V38.55L31.35 38.35H31.25V38.25V38.15M31.25 38.15H31.35M31.25 38.15V38.05V37.95V37.85H31.35V37.75H31.25V37.65M31.25 37.65H31.35M31.25 37.65V37.55H31.35V37.45V37.35V37.25V37.15V37.05H31.25V36.95V36.85V36.75V36.65H31.15V36.55V36.45H31.05L30.95 36.35V36.25V36.15H30.85V36.05L30.95 35.95H30.85V35.85L30.75 35.75M30.75 35.75V35.85M31.45 32.05H31.55L31.65 32.25H31.75V32.35V32.45L31.65 32.55H31.75L31.65 32.65V32.75V32.85V33.05L31.55 33.35L31.45 33.45V33.55V33.65L31.35 33.85L31.25 33.95L31.35 34.05H31.25V34.15L31.15 34.25V34.35L31.05 34.45V34.55V34.65H30.95V34.75V34.85L30.85 34.95V35.05H30.75V35.15H30.65V35.25L30.55 35.35L30.65 35.65L30.75 35.75M31.65 32.25V32.15M31.65 32.25L31.75 32.15H31.65M31.65 32.15H31.55L31.45 32.05L31.25 31.65M31.45 32.05L31.35 31.85V31.75V31.65H31.25M31.25 31.65L31.15 31.55M31.15 31.55H31.05V31.45L31.15 31.55ZM29.65 17.25L29.55 17.35H29.65V17.45L29.75 17.65L29.95 17.75L30.05 17.85H30.15V17.95L30.25 18.15L30.35 18.45L30.25 18.55L30.35 18.85V18.95H30.45L30.65 19.05V19.25L30.75 19.45V19.55V19.65H30.85V19.75H30.95V19.85H31.05L31.15 19.95L31.35 20.05H31.45V20.15H31.55L31.65 20.25V20.35L31.75 20.45V20.55H31.85L31.95 20.75L32.15 20.95L32.25 21.05L32.35 21.15V21.25V21.45V21.55V21.65V21.85V21.95L32.25 22.05L32.35 22.15L32.25 22.45V22.75H32.15L32.05 23.25V23.45L31.95 23.55V23.65V23.75L31.85 23.85V23.95V24.05H31.75L31.65 24.35V24.45H31.55V24.55L31.45 24.75V24.85V24.95L31.55 25.05H31.45V25.15L31.35 25.25V25.35H31.25V25.55H31.15V25.65V25.75H31.05V25.85H30.95V25.95V26.05H30.85L30.75 26.15V26.25H30.65V26.35H30.55V26.45V26.55H30.45V26.65H30.35L30.25 26.75V26.85H30.15L30.05 26.95V27.05H29.95V27.15L29.85 27.25H29.75V27.35L29.65 27.45L29.55 27.55L29.45 27.85V27.95L29.35 28.35L29.25 28.45L29.35 28.55V28.65L29.45 28.75V28.85H29.55V28.95V29.05H29.65V29.15L29.75 29.25V29.35V29.55V29.65V29.75V29.85V30.15V30.25L29.85 30.45V30.55L30.15 30.65L30.35 30.75L30.55 30.85H30.65V30.95H30.75H30.85L30.95 31.05H31.05H31.15L31.25 31.15L31.35 31.25V31.35L31.45 31.45L31.35 31.55H31.45L31.55 31.65V31.75H31.45H31.65V31.95H31.55L31.65 32.05V32.15M31.45 24.75H31.55M29.65 17.25H29.55" stroke="white" stroke-width="0.5" stroke-linecap="round" stroke-linejoin="round"/>
</svg>
