<svg width="245" height="223" viewBox="0 0 245 223" fill="none" xmlns="http://www.w3.org/2000/svg">
<path d="M68.75 217.65L69.25 216.35L69.85 215.05L70.25 213.95L71.05 212.75L70.95 211.85L70.15 210.75L70.05 209.65L70.65 208.15L71.85 206.85L71.45 205.65L71.15 204.05V203.15L70.95 201.85V200.55L70.55 199.15L70.45 198.05L70.25 197.35V196.15L70.15 194.75L69.75 193.85V193.55L69.65 193.05L71.25 191.45L73.55 190.65L73.75 189.55L73.15 188.95H71.95L71.45 188.55L67.15 189.85L65.65 186.85L66.65 183.55L65.95 182.35L61.35 177.45L63.05 175.65L65.45 173.75V172.15L63.55 170.65L62.05 168.65L60.05 166.25L58.75 166.15L58.45 165.45L58.75 164.65L58.55 164.55L58.25 164.05L57.75 163.35H57.05L56.15 164.15L53.75 164.85L51.35 165.25L49.75 165.65L48.55 163.35L47.05 163.55L47.45 164.75L47.05 166.95L47.35 168.75V169.45L45.95 171.25L45.15 170.25L43.75 169.75L38.55 171.05L37.15 170.35L35.15 169.85L33.45 169.35L31.35 168.45L30.85 168.85L30.35 170.05L30.25 170.15L29.65 170.85L27.55 173.45L26.75 174.85L25.95 176.15L25.15 177.45L24.25 178.45L24.35 179.65L24.25 180.55L24.05 181.35L24.25 182.05L24.45 182.45L24.25 183.05L24.65 183.95L24.25 184.55L23.95 185.15L22.95 184.45L22.35 183.65L21.25 181.75L20.35 179.85L17.55 180.05L17.15 179.75L15.05 178.45L14.05 179.35L12.95 178.85L12.75 178.65L11.55 177.65L10.55 178.25L9.65002 178.65L8.75 178.75H8.65002L7.95001 178.45H6.85004V178.15L6.75 177.85V177.55H6.95001L7.85004 177.25L8.45001 176.95L8.85004 176.75L9.15002 176.35L9.04999 175.85L9.25 175.55L9.45001 175.15V174.75L9.35004 174.25L8.95001 173.65L7.85004 172.15L6.95001 167.95V167.55L6.85004 167.15L6.75 166.75L6.35004 167.25L5.85004 167.55L5.35004 167.85L4.85004 168.05L4.35004 168.25L4.04999 168.35L3.85004 167.65L3.75 167.35L3.65002 166.95V166.85L3.54999 166.75V166.55L3.45001 166.35L3.35004 165.55L3.45001 165.15L3.54999 164.95L3.75 164.05L3.85004 163.95L4.15002 163.65L4.45001 163.55H4.65002H4.85004L5.35004 163.15L6.54999 162.55L6.95001 162.35L7.15002 162.25L7.65002 162.15L8.04999 161.55L8.45001 161.05L8.54999 160.95L9.15002 160.25L9.75 159.45H9.85004L10.55 159.35L11.15 159.25L11.95 158.75L12.55 158.35H12.65L12.55 158.25L12.35 158.15L12.05 157.55L11.65 157.05L11.35 156.55L10.65 155.05L9.85004 152.15L10.55 151.75L10.45 149.85L10.35 149.65L10.05 148.45L9.85004 147.45L9.75 146.95L9.25 146.85L8.35004 146.75L7.35004 146.65L4.35004 146.45L2.45001 146.25L2.54999 146.15L3.15002 145.45H3.75L3.95001 145.05L3.85004 144.65L4.25 144.75L4.54999 144.35L4.65002 143.15L4.04999 141.55L4.45001 140.65L4.65002 140.35V140.25L6.65002 138.85H5.65002L4.75 138.95L2.54999 139.55L1.25 138.95L1.15002 137.25L1.35004 136.25V136.15L1.45001 134.05L1.54999 133.35L1.75 132.85L1.95001 130.95L1.85004 129.15L2.25 128.05L1.35004 126.95L1.54999 126.35L0.950012 125.55L0.549988 124.85L0.25 124.25V123.95L0.350037 123.55L0.450012 123.15L0.549988 122.85L0.650024 122.55L0.850037 122.45L1.25 122.15H1.35004L2.35004 122.35L2.95001 121.55L3.15002 120.45L4.15002 119.75L4.95001 119.45L5.65002 118.65L6.95001 118.15L7.75 117.75L7.95001 117.65H8.15002L8.25 117.55L8.35004 117.45L8.54999 117.15L8.65002 116.85L8.75 116.65L8.95001 116.35V116.05V115.75L9.04999 115.55V115.35L12.85 115.05L13.55 114.95L14.05 114.45L14.35 114.15L14.65 113.75H14.85H15.05L15.35 113.65L16.25 113.35L16.85 112.95V112.55L18.15 112.65L18.95 112.85L19.45 112.75L19.85 112.65L20.35 112.55L20.65 112.45L20.95 112.25H21.25L21.55 112.05L21.95 111.85L22.45 111.55L22.95 111.35L23.35 111.05L23.75 110.85L26.45 108.95L27.45 107.35L27.25 106.25L28.35 104.95L28.55 104.85L29.65 104.25L30.05 104.05L30.45 104.55L30.65 104.75L31.15 104.45L31.45 104.15L31.55 104.05L31.85 104.75L32.05 105.25L32.25 106.05L32.45 106.95L33.15 107.85L33.35 107.75H33.75L34.35 107.95L35.45 107.85L36.55 107.65L37.05 107.25L37.45 106.65L37.75 106.45L37.95 106.65L38.45 107.65L39.35 109.55L39.95 108.95L40.95 108.85H41.25L43.75 109.15L49.85 109.35L51.05 109.25L52.45 109.15L53.25 108.95H53.85L54.55 108.45L54.85 107.35L55.05 106.05L55.35 104.65L55.45 101.55L57.55 102.05H59.05L62.75 99.15L63.15 98.95L64.35 98.25L65.55 97.65L66.35 97.45L66.95 96.95L67.05 96.25L67.35 96.65L68.35 96.85L68.65 96.75L68.85 96.45L69.05 96.05L69.15 95.95L69.55 95.35L70.05 94.75L71.45 94.05L73.65 93.25L75.85 92.25L78.55 91.25L81.25 89.95L83.75 88.85L85.05 88.25L85.85 87.85L86.15 87.75L89.15 86.95L90.75 86.35L91.45 86.05L92.25 85.45L93.35 84.85L94.15 84.15L94.85 82.95L95.25 81.95L95.95 80.75L96.25 80.05L96.55 79.85L97.85 79.15L99.95 78.65L101.95 77.55L101.55 76.95V75.95V75.55V75.35L101.95 74.85L102.95 73.25L102.75 72.55L101.45 70.95L98.25 69.75L98.55 66.95L98.85 64.85L99.35 63.35L99.25 62.65L99.45 62.05L99.85 61.45L100.15 61.15L100.45 60.85L100.55 60.55L101.45 60.75L102.75 60.85L103.05 60.65L105.65 59.75L107.15 57.75L108.75 56.45L109.25 55.45L111.35 55.35L114.05 55.05L115.25 53.85L116.65 53.95L118.15 54.75L120.85 55.45L121.45 55.25L121.35 54.75L121.15 53.95L120.95 53.65L120.65 53.45L120.25 53.25L119.45 52.65L118.95 52.15L118.65 51.75L118.55 51.25L118.35 50.75L118.25 50.45L118.15 49.95L119.55 48.25L119.75 47.65L119.95 47.25L119.25 47.05L119.05 46.95L118.85 46.85H118.65L117.85 46.65L116.85 46.25L117.25 45.95V45.25V45.15L117.35 44.45L116.75 42.65L117.15 41.65L116.85 40.85L116.75 40.55H119.85H120.55L121.55 40.35L122.15 40.15H122.35L123.35 39.85L123.75 39.55L124.05 38.75L124.15 37.75L123.65 36.75L123.95 36.15L124.45 36.35L124.95 36.45L125.45 36.55L126.15 36.75H126.25L126.35 35.85V35.15L126.55 34.25L126.85 33.75L127.05 33.05V32.25L126.95 31.85L126.65 31.25L127.65 30.55L127.95 30.35L127.85 29.55L128.05 28.95L128.25 27.85L128.45 27.25V26.95L128.35 26.45L128.25 25.65L128.05 25.25V24.45L128.35 23.95L128.45 23.25V22.35L128.35 21.65L128.15 21.15L128.25 20.35V20.25L128.55 19.75L128.85 19.45L129.15 19.25L129.05 19.05H128.85L128.65 18.85L128.55 18.65V18.55L128.65 18.35L128.75 18.15L128.95 17.95L129.15 17.85L129.25 17.65L129.45 17.35L129.55 17.05L129.65 16.75L129.75 16.45L130.15 16.25L130.45 16.05L130.85 15.75L131.05 15.55L131.75 15.45V15.25L131.65 14.95L131.55 14.65L131.65 14.55L132.45 13.95H132.55L132.85 13.75L133.35 13.15L133.95 12.65L134.85 11.75L136.05 12.45L136.65 12.25L137.45 12.15L137.95 11.55L138.15 9.84999L140.05 8.95L140.25 8.84999L140.55 8.64999L140.95 8.25L141.25 8.04999L141.65 7.75L141.95 7.64999L141.75 7.14999L141.65 6.64999L141.45 6.25V5.95L141.25 5.54999L141.15 4.95L141.45 4.75L141.65 4.34999L141.95 3.84999L142.55 3.54999L142.95 2.84999L143.25 2.54999L143.45 2.25L143.95 1.84999L145.05 1.25L145.65 1.34999H145.95H147.55H149.15L150.55 1.45L152.05 1.75L153.05 1.64999L153.55 1.04999L153.95 0.25L154.25 1.84999L154.95 3.45L156.75 5.34999L157.15 6.45L157.75 8.95L157.05 10.55L156.85 10.95L156.95 11.95L159.95 13.15L162.95 13.95H164.75L168.15 12.95H169.95L172.35 13.75L171.85 14.75L173.05 16.35L175.45 17.95L176.15 18.25L177.95 19.75L180.45 22.05L181.45 23.15L182.45 24.25L183.45 25.95L184.75 27.85L185.25 29.05L186.05 30.55L188.35 31.35L192.05 30.05L193.55 30.95L194.45 31.45L196.45 30.95L197.25 32.75L198.15 33.35L199.35 34.25L199.55 34.35L200.35 34.85L201.65 35.55L200.65 37.25L200.95 38.95L201.45 39.95L201.85 40.75L203.25 42.15L205.05 43.75L205.85 45.15L206.75 46.95L206.85 47.35L207.45 49.15L207.55 51.25L207.05 52.35L207.25 52.85L208.05 52.65L208.55 52.55L209.35 52.35L210.35 52.55L210.75 53.65L210.55 54.75L210.35 56.25L214.65 56.55L216.85 56.35L218.45 56.05L219.35 56.45L217.65 58.05L216.55 59.25L216.05 60.25L216.65 61.25L217.65 61.95L220.25 60.85L221.55 59.95L223.15 59.65L224.55 59.85L227.55 60.85L230.15 61.95L232.45 62.15L233.75 60.95L234.65 60.45L235.95 59.65L237.75 58.75L239.85 57.75L236.25 63.05L235.75 68.05L235.85 70.55L237.15 74.55L238.75 77.85L239.45 79.45L239.85 80.35L240.35 80.25L240.45 79.15L244.05 78.65L241.75 81.35L239.65 82.85L238.55 83.75L237.75 84.45L236.55 85.55L236.75 86.15V86.35V86.45L233.25 87.35L230.05 88.05L223.65 89.45L219.65 90.35L215.25 91.35L215.05 91.45V98.75V99.65V102.95V105.75L215.15 105.95H215.45H215.65H215.95L216.05 106.15L215.85 106.35L215.75 106.65L215.55 106.85L215.45 106.95L215.25 107.15H215.05L214.95 106.85L214.85 106.75V106.65L214.65 106.75V106.95V107.25L214.45 107.45L214.25 107.65H214.05L213.85 107.75L213.65 107.85L213.45 108.05H213.25L213.05 107.95L212.85 108.05L212.65 108.15V108.35L212.55 108.65V108.85L212.45 109.05L212.25 109.15L212.05 109.35L211.85 109.45H211.55L211.35 109.25L211.25 109.05L211.15 108.85V108.55L211.05 108.35L210.85 108.25H210.65L210.55 108.45L210.45 108.65L210.35 108.85L210.15 109.05V109.35L210.35 109.55L210.25 109.75H209.95L209.85 109.85V110.15L210.05 110.35V110.55V110.85V111.05L209.95 111.35L209.75 111.45L209.45 111.55L209.25 111.65L209.15 111.85L209.05 112.05L208.85 112.25L208.75 112.45V112.65L208.85 112.75H208.95L209.05 112.65L209.15 112.55L209.25 112.45L209.35 112.65V112.95V113.05L209.45 113.15L209.55 113.35H209.85L210.05 113.25V113.15L210.25 113.05H210.45V113.35L210.35 114.15L210.25 114.45L209.85 114.65L209.35 114.75V114.95L209.45 115.45L209.35 115.65L209.15 115.75H208.85L208.75 115.85V116.05V116.35L208.95 116.45L209.55 116.35L209.65 116.45L209.75 116.75L209.65 117.25L209.95 118.15L210.05 119.15L210.35 119.35L209.95 120.35L209.45 121.05V121.65V122.45L209.55 122.85H209.65H209.85L210.05 122.65H210.25H210.35H210.55H210.75H210.85L211.05 122.75L211.25 122.85L211.45 123.35L211.65 123.25V122.95V122.75L211.85 122.55L211.95 122.35V122.05L211.85 121.85L211.65 121.75L211.45 121.65V121.45H211.55H211.65H211.95L212.05 121.15L212.65 120.65L212.55 120.45V120.35L212.45 120.25L212.55 120.15L212.65 120.05L212.85 119.85H212.95L213.15 119.65L213.25 119.75V119.95V120.05V120.15L213.35 120.25L213.55 119.95H213.85L214.45 120.35L214.85 120.95L214.75 122.55L214.95 122.95L214.75 123.65V123.95L214.55 124.65L214.75 124.95H215.05L214.95 124.85L215.05 124.55L215.25 124.75L215.15 124.55L215.05 124.35V124.15H215.25L215.45 124.35V124.55H215.65V124.35H215.75L215.95 124.65H216.15H216.25L216.45 124.45L216.55 124.25L216.45 124.15L216.15 123.75L215.95 123.25V122.55V122.15H215.75L215.85 121.95H215.95V121.75L216.35 121.35V121.25V120.95L216.25 120.75V120.35V120.15L216.45 119.95V120.25V120.45V120.75V120.95L216.55 121.25V121.45L216.65 121.75V121.85V121.95L216.55 122.65V123.25L216.95 123.85L217.05 123.65L217.15 123.35L217.25 123.25L217.45 123.05H217.55L217.65 122.95L217.75 123.65L217.95 124.05L218.15 124.15L218.25 124.35L218.15 124.55V124.65L218.35 125.75L218.75 125.45L218.95 125.75V126.85H219.15V126.95L219.65 127.35H219.85H219.95V127.25L220.15 127.15H220.25L220.55 126.95V126.65L220.85 126.35H221.15L221.25 126.65L221.15 127.25L221.25 127.65L221.65 128.05V128.65L221.95 129.55L221.85 130.15L221.75 130.35V130.75L221.95 131.05L221.85 131.35H221.65L221.55 131.65L221.65 131.75L221.75 131.95L221.55 132.05L221.35 132.15V132.25V132.45H221.25L221.35 132.55V132.65H221.55V132.85V132.95V133.15L221.35 133.25L221.45 133.55L221.15 133.95L221.25 134.15L221.15 134.45H220.75L220.85 134.75L220.75 134.95H220.45L220.35 134.85V134.75L220.15 134.65H219.95L219.85 134.75V135.05L219.75 135.35L219.45 135.55L219.35 135.75V136.05L219.25 136.55L219.05 136.95L218.55 137.15L218.45 137.35L218.25 137.85L217.75 138.65L217.45 138.75H216.85L216.75 138.85L216.45 139.45L215.95 139.65L215.85 139.95V140.45V141.05L215.75 141.45L215.95 142.15L215.85 142.25V142.35V142.45V142.65V142.75V142.85L215.95 143.05V143.35L216.05 143.55V143.75V143.95L216.15 144.25V144.35V144.55V144.65H216.25L216.65 144.85V145.15L216.75 145.55L216.85 145.75V145.95L216.95 146.05L216.85 146.15L216.75 146.25L216.85 146.85V146.95L216.75 147.15V147.25L216.55 147.35V147.65V147.75L216.45 148.05L216.35 148.25V148.35L216.25 148.55L216.05 148.65V148.75H215.95L216.05 148.85V149.05L216.15 149.35L216.05 149.45L215.95 149.85L215.85 150.05L215.65 150.35L215.45 150.45L215.25 150.55H215.15L214.95 151.15L213.75 149.95L213.55 150.05L205.85 153.15L198.35 155.15L191.15 155.65L189.65 155.85H189.55L187.25 156.65L183.65 158.05L180.85 159.15L180.55 159.25H180.45L173.55 166.25L171.55 168.15L168.15 171.55L165.85 173.85V173.95L150.85 181.55L148.25 182.85L145.45 185.15L139.45 189.95L138.05 191.15L137.85 191.25L137.15 191.85L131.85 196.15L131.75 196.25L131.65 196.45L131.15 196.75L130.45 197.05L129.85 197.65L129.35 198.45L128.85 199.25L128.25 200.15L127.85 200.65L127.75 201.05L127.65 201.15L127.55 201.45L127.65 201.55L127.55 201.75L127.65 202.25L127.75 202.55L127.95 203.05L128.05 203.65V203.85L127.95 204.15L127.75 204.55L127.35 205.45L126.65 206.45L125.75 207.55L125.15 208.35L121.55 213.55L118.85 217.45L118.45 218.05L118.25 218.35L117.55 219.25L115.75 221.85L115.05 222.45H114.85L113.55 222.35L112.75 222.25L112.35 222.05L111.15 221.75L110.85 221.35L109.35 219.75L109.15 219.45L108.85 219.25L108.75 219.35L108.65 219.25L108.35 219.45L108.15 219.75L107.95 220.05L107.65 220.25L107.35 220.45L106.95 220.55L106.75 220.45H106.55L106.45 220.55L106.25 220.65L105.85 220.75L105.55 220.55L105.45 220.35L105.55 219.55L106.95 217.25L107.05 216.65L106.95 216.35L106.65 216.25L104.05 215.05L103.35 214.75H103.05H102.85H102.45L102.15 214.85L101.75 214.95L101.35 215.05H101.05L100.65 215.15H100.25L99.85 215.05L99.55 215.15L99.15 215.35L98.95 215.65L98.65 215.85H98.25H97.95H97.55H97.15H96.75H96.45L96.05 215.95H95.65L95.35 216.15H94.95L94.55 216.25L94.25 216.35L93.85 216.45L93.55 216.55L93.15 216.65L92.75 216.75L92.45 216.95H92.35L92.25 216.75L91.75 216.85L91.25 217.25L90.75 217.15H90.55L90.25 217.35L89.05 217.85L87.35 217.65L86.95 217.55L86.65 217.45L84.15 216.75H84.05H83.55L81.95 216.55L80.95 217.05L80.75 217.15L80.15 217.35L79.85 217.45L79.75 217.55H78.75H77.65L77.45 217.45H77.15H76.75L76.35 217.65L76.05 217.55L75.65 217.45L75.15 217.55H74.75H74.55L74.25 217.65H74.15L73.25 217.55L72.85 217.45L72.75 217.55L71.85 218.15V218.25L71.45 218.05L71.35 217.95H71.15L70.85 217.85L70.35 217.75H69.85L69.25 217.65H68.75Z" fill="#6F9C76"/>
<path d="M220.55 126.75V126.65L220.85 126.35H221.15L221.25 126.65L221.15 127.25L221.25 127.65L221.65 128.05V128.65L221.95 129.55L221.85 130.15L221.75 130.35V130.75L221.95 131.05L221.85 131.35H221.65L221.55 131.65L221.65 131.75L221.75 131.95L221.55 132.05L221.35 132.15V132.25V132.45H221.25L221.35 132.55V132.65H221.55V132.85V132.95V133.15L221.35 133.25L221.45 133.55L221.15 133.95L221.25 134.15L221.15 134.45H220.75L220.85 134.75L220.75 134.95H220.45L220.35 134.85V134.75L220.15 134.65H219.95L219.85 134.75V135.05L219.75 135.35L219.45 135.55L219.35 135.75V136.05L219.25 136.55L219.05 136.95L218.55 137.15L218.45 137.35L218.25 137.85L217.75 138.65L217.45 138.75H216.85L216.75 138.85L216.45 139.45L215.95 139.65L215.85 139.95V140.45V141.05L215.75 141.45L215.95 142.15L215.85 142.25V142.35V142.45V142.65V142.75V142.85L215.95 143.05V143.35L216.05 143.55V143.75V143.95L216.15 144.25V144.35V144.55V144.65H216.25L216.65 144.85V145.15L216.75 145.55L216.85 145.75V145.95L216.95 146.05L216.85 146.15L216.75 146.25L216.85 146.85V146.95L216.75 147.15V147.25L216.55 147.35V147.65V147.75L216.45 148.05L216.35 148.25V148.35L216.25 148.55L216.05 148.65V148.75H215.95L216.05 148.85V149.05L216.15 149.35L216.05 149.45L215.95 149.85L215.85 150.05L215.65 150.35L215.45 150.45L215.25 150.55H215.15L214.95 151.15L213.75 149.95L213.55 150.05L205.85 153.15L198.35 155.15L191.15 155.65L189.65 155.85H189.55L187.25 156.65L183.65 158.05L180.85 159.15L180.55 159.25H180.45L173.55 166.25L171.55 168.15L168.15 171.55L165.85 173.85V173.95L150.85 181.55L148.25 182.85L145.45 185.15L139.45 189.95L138.05 191.15L137.85 191.25L137.15 191.85L131.85 196.15L131.75 196.25L131.65 196.45L131.15 196.75L130.45 197.05L129.85 197.65L129.35 198.45L128.85 199.25L128.25 200.15L127.85 200.65L127.75 201.05L127.65 201.15L127.55 201.45L127.65 201.55L127.55 201.75L127.65 202.25L127.75 202.55L127.95 203.05L128.05 203.65V203.85L127.95 204.15L127.75 204.55L127.35 205.45L126.65 206.45L125.75 207.55L125.15 208.35L121.55 213.55L118.85 217.45L118.45 218.05L118.25 218.35L117.55 219.25L115.75 221.85L115.05 222.45H114.85L113.55 222.35L112.75 222.25L112.35 222.05L111.15 221.75L110.85 221.35L109.35 219.75L109.15 219.45L108.85 219.25L108.75 219.35L108.65 219.25L108.35 219.45L108.15 219.75L107.95 220.05L107.65 220.25L107.35 220.45L106.95 220.55L106.75 220.45H106.55L106.45 220.55L106.25 220.65L105.85 220.75L105.55 220.55L105.45 220.35L105.55 219.55L106.95 217.25L107.05 216.65L106.95 216.35L106.65 216.25L104.05 215.05L103.35 214.75H103.05H102.85H102.45L102.15 214.85L101.75 214.95L101.35 215.05H101.05L100.65 215.15H100.25L99.85 215.05L99.55 215.15L99.15 215.35L98.95 215.65L98.65 215.85H98.25H97.95H97.55H97.15H96.75H96.45L96.05 215.95H95.65L95.35 216.15H94.95L94.55 216.25L94.25 216.35L93.85 216.45L93.55 216.55L93.15 216.65L92.75 216.75L92.45 216.95H92.35L92.25 216.75L91.75 216.85L91.25 217.25L90.75 217.15H90.55L90.25 217.35L89.05 217.85L87.35 217.65L86.95 217.55L86.65 217.45L84.15 216.75H84.05H83.55L81.95 216.55L80.95 217.05L80.75 217.15L80.15 217.35L79.85 217.45L79.75 217.55H78.75H77.65L77.45 217.45H77.15H76.75L76.35 217.65L76.05 217.55L75.65 217.45L75.15 217.55H74.75H74.55L74.25 217.65H74.15L73.25 217.55L72.85 217.45L72.75 217.55L71.85 218.15V218.25L71.45 218.05L71.35 217.95H71.15L70.85 217.85L70.35 217.75H69.85L69.25 217.65H68.75L69.25 216.35L69.85 215.05L70.25 213.95L71.05 212.75L70.95 211.85L70.15 210.75L70.05 209.65L70.65 208.15L71.85 206.85L71.45 205.65L71.15 204.05V203.15L70.95 201.85V200.55L70.55 199.15L70.45 198.05L70.25 197.35V196.15L70.15 194.75L69.75 193.85V193.55L69.65 193.05L71.25 191.45L73.55 190.65L73.75 189.55L73.15 188.95H71.95L71.45 188.55L67.15 189.85L65.65 186.85L66.65 183.55L65.95 182.35L61.35 177.45L63.05 175.65L65.45 173.75V172.15L63.55 170.65L62.05 168.65L60.05 166.25L58.75 166.15L58.45 165.45L58.75 164.65L58.55 164.55L58.25 164.05L57.75 163.35H57.05L56.15 164.15L53.75 164.85L51.35 165.25L49.75 165.65L48.55 163.35L47.05 163.55L47.45 164.75L47.05 166.95L47.35 168.75V169.45L45.95 171.25L45.15 170.25L43.75 169.75L38.55 171.05L37.15 170.35L35.15 169.85L33.45 169.35L31.35 168.45L30.85 168.85L30.35 170.05L30.25 170.15L29.65 170.85L27.55 173.45L26.75 174.85L25.95 176.15L25.15 177.45L24.25 178.45L24.35 179.65L24.25 180.55L24.05 181.35L24.25 182.05L24.45 182.45L24.25 183.05L24.65 183.95L24.25 184.55L23.95 185.15L22.95 184.45L22.35 183.65L21.25 181.75L20.35 179.85L17.55 180.05L17.15 179.75L15.05 178.45L14.05 179.35L12.95 178.85L12.75 178.65L11.55 177.65L10.55 178.25L9.65002 178.65L8.75 178.75H8.65002L7.95001 178.45H6.85004V178.15L6.75 177.85V177.55H6.95001L7.85004 177.25L8.45001 176.95L8.85004 176.75L9.15002 176.35L9.04999 175.85L9.25 175.55L9.45001 175.15V174.75L9.35004 174.25L8.95001 173.65L7.85004 172.15L6.95001 167.95V167.55L6.85004 167.15L6.75 166.75L6.35004 167.25L5.85004 167.55L5.35004 167.85L4.85004 168.05L4.35004 168.25L4.04999 168.35L3.85004 167.65L3.75 167.35L3.65002 166.95V166.85L3.54999 166.75V166.55L3.45001 166.35L3.35004 165.55L3.45001 165.15L3.54999 164.95L3.75 164.05L3.85004 163.95L4.15002 163.65L4.45001 163.55H4.65002H4.85004L5.35004 163.15L6.54999 162.55L6.95001 162.35L7.15002 162.25L7.65002 162.15L8.04999 161.55L8.45001 161.05L8.54999 160.95L9.15002 160.25L9.75 159.45H9.85004L10.55 159.35L11.15 159.25L11.95 158.75L12.55 158.35H12.65L12.55 158.25L12.35 158.15L12.05 157.55L11.65 157.05L11.35 156.55L10.65 155.05L9.85004 152.15L10.55 151.75L10.45 149.85L10.35 149.65L10.05 148.45L9.85004 147.45L9.75 146.95L9.25 146.85L8.35004 146.75L7.35004 146.65L4.35004 146.45L2.45001 146.25L2.54999 146.15L3.15002 145.45H3.75L3.95001 145.05L3.85004 144.65L4.25 144.75L4.54999 144.35L4.65002 143.15L4.04999 141.55L4.45001 140.65L4.65002 140.35V140.25L6.65002 138.85H5.65002L4.75 138.95L2.54999 139.55L1.25 138.95L1.15002 137.25L1.35004 136.25V136.15L1.45001 134.05L1.54999 133.35L1.75 132.85L1.95001 130.95L1.85004 129.15L2.25 128.05L1.35004 126.95L1.54999 126.35L0.950012 125.55L0.549988 124.85L0.25 124.25V123.95L0.350037 123.55L0.450012 123.15L0.549988 122.85L0.650024 122.55L0.850037 122.45L1.25 122.15H1.35004L2.35004 122.35L2.95001 121.55L3.15002 120.45L4.15002 119.75L4.95001 119.45L5.65002 118.65L6.95001 118.15L7.75 117.75L7.95001 117.65H8.15002L8.25 117.55L8.35004 117.45L8.54999 117.15L8.65002 116.85L8.75 116.65L8.95001 116.35V116.05V115.75L9.04999 115.55V115.35L12.85 115.05L13.55 114.95L14.05 114.45L14.35 114.15L14.65 113.75H14.85H15.05L15.35 113.65L16.25 113.35L16.85 112.95V112.55L18.15 112.65L18.95 112.85L19.45 112.75L19.85 112.65L20.35 112.55L20.65 112.45L20.95 112.25H21.25L21.55 112.05L21.95 111.85L22.45 111.55L22.95 111.35L23.35 111.05L23.75 110.85L26.45 108.95L27.45 107.35L27.25 106.25L28.35 104.95L28.55 104.85L29.65 104.25L30.05 104.05L30.45 104.55L30.65 104.75L31.15 104.45L31.45 104.15L31.55 104.05L31.85 104.75L32.05 105.25L32.25 106.05L32.45 106.95L33.15 107.85L33.35 107.75H33.75L34.35 107.95L35.45 107.85L36.55 107.65L37.05 107.25L37.45 106.65L37.75 106.45L37.95 106.65L38.45 107.65L39.35 109.55L39.95 108.95L40.95 108.85H41.25L43.75 109.15L49.85 109.35L51.05 109.25L52.45 109.15L53.25 108.95H53.85L54.55 108.45L54.85 107.35L55.05 106.05L55.35 104.65L55.45 101.55L57.55 102.05H59.05L62.75 99.15L63.15 98.95L64.35 98.25L65.55 97.65L66.35 97.45L66.95 96.95L67.05 96.25L67.35 96.65L68.35 96.85L68.65 96.75L68.85 96.45L69.05 96.05L69.15 95.95L69.55 95.35L70.05 94.75L71.45 94.05L73.65 93.25L75.85 92.25L78.55 91.25L81.25 89.95L83.75 88.85L85.05 88.25L85.85 87.85L86.15 87.75L89.15 86.95L90.75 86.35L91.45 86.05L92.25 85.45L93.35 84.85L94.15 84.15L94.85 82.95L95.25 81.95L95.95 80.75L96.25 80.05L96.55 79.85L97.85 79.15L99.95 78.65L101.95 77.55L101.55 76.95V75.95V75.55V75.35L101.95 74.85L102.95 73.25L102.75 72.55L101.45 70.95L98.25 69.75L98.55 66.95L98.85 64.85L99.35 63.35L99.25 62.65L99.45 62.05L99.85 61.45L100.15 61.15L100.45 60.85L100.55 60.55L101.45 60.75L102.75 60.85L103.05 60.65L105.65 59.75L107.15 57.75L108.75 56.45L109.25 55.45L111.35 55.35L114.05 55.05L115.25 53.85L116.65 53.95L118.15 54.75L120.85 55.45L121.45 55.25L121.35 54.75L121.15 53.95L120.95 53.65L120.65 53.45L120.25 53.25L119.45 52.65L118.95 52.15L118.65 51.75L118.55 51.25L118.35 50.75L118.25 50.45L118.15 49.95L119.55 48.25L119.75 47.65L119.95 47.25L119.25 47.05L119.05 46.95L118.85 46.85H118.65L117.85 46.65L116.85 46.25L117.25 45.95V45.25V45.15L117.35 44.45L116.75 42.65L117.15 41.65L116.85 40.85L116.75 40.55H119.85H120.55L121.55 40.35L122.15 40.15H122.35L123.35 39.85L123.75 39.55L124.05 38.75L124.15 37.75L123.65 36.75L123.95 36.15L124.45 36.35L124.95 36.45L125.45 36.55L126.15 36.75H126.25L126.35 35.85V35.15L126.55 34.25L126.85 33.75L127.05 33.05V32.25L126.95 31.85L126.65 31.25L127.65 30.55L127.95 30.35L127.85 29.55L128.05 28.95L128.25 27.85L128.45 27.25V26.95L128.35 26.45L128.25 25.65L128.05 25.25V24.45L128.35 23.95L128.45 23.25V22.35L128.35 21.65L128.15 21.15L128.25 20.35V20.25L128.55 19.75L128.85 19.45L129.15 19.25L129.05 19.05H128.85L128.65 18.85L128.55 18.65V18.55L128.65 18.35L128.75 18.15L128.95 17.95L129.15 17.85L129.25 17.65L129.45 17.35L129.55 17.05L129.65 16.75L129.75 16.45L130.15 16.25L130.45 16.05L130.85 15.75L131.05 15.55L131.75 15.45V15.25L131.65 14.95L131.55 14.65L131.65 14.55L132.45 13.95H132.55L132.85 13.75L133.35 13.15L133.95 12.65L134.85 11.75L136.05 12.45L136.65 12.25L137.45 12.15L137.95 11.55L138.15 9.84999L140.05 8.95L140.25 8.84999L140.55 8.64999L140.95 8.25L141.25 8.04999L141.65 7.75L141.95 7.64999L141.75 7.14999L141.65 6.64999L141.45 6.25V5.95L141.25 5.54999L141.15 4.95L141.45 4.75L141.65 4.34999L141.95 3.84999L142.55 3.54999L142.95 2.84999L143.25 2.54999L143.45 2.25L143.95 1.84999L145.05 1.25L145.65 1.34999H145.95H147.55H149.15L150.55 1.45L152.05 1.75L153.05 1.64999L153.55 1.04999L153.95 0.25L154.25 1.84999L154.95 3.45L156.75 5.34999L157.15 6.45L157.75 8.95L157.05 10.55L156.85 10.95L156.95 11.95L159.95 13.15L162.95 13.95H164.75L168.15 12.95H169.95L172.35 13.75L171.85 14.75L173.05 16.35L175.45 17.95L176.15 18.25L177.95 19.75L180.45 22.05L181.45 23.15L182.45 24.25L183.45 25.95L184.75 27.85L185.25 29.05L186.05 30.55L188.35 31.35L192.05 30.05L193.55 30.95L194.45 31.45L196.45 30.95L197.25 32.75L198.15 33.35L199.35 34.25L199.55 34.35L200.35 34.85L201.65 35.55L200.65 37.25L200.95 38.95L201.45 39.95L201.85 40.75L203.25 42.15L205.05 43.75L205.85 45.15L206.75 46.95L206.85 47.35L207.45 49.15L207.55 51.25L207.05 52.35L207.25 52.85L208.05 52.65L208.55 52.55L209.35 52.35L210.35 52.55L210.75 53.65L210.55 54.75L210.35 56.25L214.65 56.55L216.85 56.35L218.45 56.05L219.35 56.45L217.65 58.05L216.55 59.25L216.05 60.25L216.65 61.25L217.65 61.95L220.25 60.85L221.55 59.95L223.15 59.65L224.55 59.85L227.55 60.85L230.15 61.95L232.45 62.15L233.75 60.95L234.65 60.45L235.95 59.65L237.75 58.75L239.85 57.75L236.25 63.05L235.75 68.05L235.85 70.55L237.15 74.55L238.75 77.85L239.45 79.45L239.85 80.35L240.35 80.25L240.45 79.15L244.05 78.65L241.75 81.35L239.65 82.85L238.55 83.75L237.75 84.45L236.55 85.55L236.75 86.15V86.35V86.45L233.25 87.35L230.05 88.05L223.65 89.45L219.65 90.35L215.25 91.35L215.05 91.45V98.75V99.65V102.95V105.75L215.15 105.95H215.45H215.65H215.95L216.05 106.15L215.85 106.35L215.75 106.65L215.55 106.85L215.45 106.95L215.25 107.15H215.05L214.95 106.85L214.85 106.75V106.65L214.65 106.75V106.95V107.25L214.45 107.45L214.25 107.65H214.05L213.85 107.75L213.65 107.85L213.45 108.05H213.25L213.05 107.95L212.85 108.05L212.65 108.15V108.35L212.55 108.65V108.85L212.45 109.05L212.25 109.15L212.05 109.35L211.85 109.45H211.55L211.35 109.25L211.25 109.05L211.15 108.85V108.55L211.05 108.35L210.85 108.25H210.65L210.55 108.45L210.45 108.65L210.35 108.85L210.15 109.05V109.35L210.35 109.55L210.25 109.75H209.95L209.85 109.85V110.15L210.05 110.35V110.55V110.85V111.05L209.95 111.35L209.75 111.45L209.45 111.55L209.25 111.65L209.15 111.85L209.05 112.05L208.85 112.25L208.75 112.45V112.65L208.85 112.75H208.95L209.05 112.65L209.15 112.55L209.25 112.45L209.35 112.65V112.95V113.05L209.45 113.15L209.55 113.35H209.85L210.05 113.25V113.15L210.25 113.05H210.45V113.35L210.35 114.15L210.25 114.45L209.85 114.65L209.35 114.75V114.95L209.45 115.45L209.35 115.65L209.15 115.75H208.85L208.75 115.85V116.05V116.35L208.95 116.45L209.55 116.35L209.65 116.45L209.75 116.75L209.65 117.25L209.95 118.15L210.05 119.15L210.35 119.35L209.95 120.35L209.45 121.05V121.65V122.45L209.55 122.85H209.65H209.85L210.05 122.65H210.25H210.35H210.55H210.75H210.85L211.05 122.75L211.25 122.85L211.45 123.35L211.65 123.25V122.95V122.75L211.85 122.55L211.95 122.35V122.05L211.85 121.85L211.65 121.75L211.45 121.65V121.45H211.55H211.65H211.95L212.05 121.15L212.65 120.65L212.55 120.45V120.35L212.45 120.25L212.55 120.15L212.65 120.05L212.85 119.85H212.95L213.15 119.65M213.15 119.65V119.55M213.15 119.65L213.25 119.75V119.95V120.05V120.15L213.35 120.25L213.55 119.95H213.85L214.45 120.35L214.85 120.95L214.75 122.55L214.95 122.95L214.75 123.65V123.95L214.55 124.65L214.75 124.95H215.05L214.95 124.85L215.05 124.55L215.25 124.75L215.15 124.55L215.05 124.35V124.15H215.25L215.45 124.35V124.55H215.65V124.35H215.75L215.95 124.65H216.15H216.25L216.45 124.45L216.55 124.25L216.45 124.15L216.15 123.75L215.95 123.25V122.55V122.15H215.75L215.85 121.95H215.95V121.75L216.35 121.35V121.25V120.95L216.25 120.75V120.35V120.15L216.45 119.95V120.25V120.45V120.75V120.95L216.55 121.25V121.45L216.65 121.75V121.85V121.95L216.55 122.65V123.25L216.95 123.85L217.05 123.65L217.15 123.35L217.25 123.25L217.45 123.05H217.55L217.65 122.95L217.75 123.65L217.95 124.05L218.15 124.15L218.25 124.35L218.15 124.55V124.65L218.35 125.75L218.75 125.45L218.95 125.75V126.85H219.15V126.95L219.65 127.35H219.85H219.95V127.25L220.15 127.15H220.25L220.55 126.95V126.65" stroke="white" stroke-width="0.5" stroke-linecap="round" stroke-linejoin="round"/>
</svg>
