<svg width="193" height="174" viewBox="0 0 193 174" fill="none" xmlns="http://www.w3.org/2000/svg">
<path d="M70.75 173.15L70.65 173.05L65.35 166.55L63.75 164.65L59.55 159.15L57.65 155.95L54.95 153.15L55.05 152.15L54.75 150.75L53.35 149.05L49.85 148.85L46.25 148.25L45.25 146.95L43.95 145.05L42.55 144.15L42.75 141.35L43.85 140.65L42.05 140.25L41.45 138.15L41.05 136.25L40.85 135.45L41.55 134.55L41.65 134.45L41.55 133.45V133.25L40.75 132.95L40.25 132.75L40.55 131.55L41.05 130.25V129.35L40.45 127.65L44.15 126.45L42.35 128.75L42.55 129.35L43.05 129.65L44.35 128.75L45.65 127.55L46.05 126.95L44.85 125.65L44.95 125.15L46.55 124.15L48.55 122.55L48.85 122.15V121.45V120.75L48.35 118.75L48.15 118.55L47.55 117.65V117.25L47.05 116.95L46.55 116.35L46.05 115.85L45.75 114.65L45.45 114.05L45.15 112.85L44.45 110.25L44.65 109.65L44.95 109.05L45.05 108.65L44.85 108.35L44.35 107.85L43.85 107.25L43.15 106.55L42.55 105.85L42.45 105.35L42.35 105.05L41.95 104.55L41.35 104.15L40.85 103.75L40.65 103.45L40.35 103.15L39.75 102.85L39.25 102.55L38.75 101.85H38.15H37.35L37.25 101.55L36.95 101.35H36.45L36.05 101.25L35.85 101.35L35.65 101.45L35.45 101.65L34.85 101.45L34.55 101.55L34.15 101.65H34.05L33.95 101.95L33.85 102.25L33.75 102.55L33.45 102.95L33.35 103.55L33.15 103.95H32.35L32.25 104.45L31.95 104.65V104.35L31.85 104.15L31.25 104.35V104.85L31.35 105.05V105.25L31.25 105.45L31.05 105.85L30.45 105.35L29.95 105.05L29.25 104.85L28.55 105.25L28.15 105.35L28.05 105.05L27.95 104.75L27.75 104.45L27.55 104.15V104.85L27.45 105.05L27.25 105.45V105.95L27.05 106.45L26.35 106.15L25.55 105.65L25.65 104.85L24.85 104.45L24.15 103.35L23.85 102.55L23.15 102.75L22.55 103.05L22.45 103.45V103.95V104.55L22.25 105.35L21.95 105.55L21.65 105.65L21.25 105.55H21.05L20.75 105.35L20.55 104.85L20.15 104.35L19.95 104.15L19.75 103.85L19.45 103.55L19.05 103.65L19.15 103.85L19.25 104.05L19.65 104.35L19.75 104.65L19.85 105.15V105.75V106.05L20.15 106.25L20.05 106.45L19.85 106.65L19.75 106.95L19.65 107.45L19.85 107.65L19.55 107.55L19.15 107.65L19.05 107.55H18.85L18.65 107.75L18.55 107.25V106.75L18.75 106.35L18.85 105.85L18.45 105.55L18.25 105.35H17.85H17.55L17.25 105.15L16.85 104.95L16.65 104.75L16.35 104.95H16.15V104.65L15.95 104.35L16.05 104.05L15.95 103.75H15.55L15.15 103.65H14.95L14.85 103.95L14.55 103.85L14.25 104.55L13.45 104.95L12.75 105.15L12.55 105.65L12.45 105.85L12.25 106.05L11.65 106.25L11.05 106.35L10.65 106.45L10.25 106.35H9.75H9.35001L8.85001 106.55L8.54999 106.35L8.25 106.25L8.04999 106.05L7.94998 105.95L7.54999 105.45L7.04999 105.55L6.85001 105.25V104.95L6.94998 104.65L6.85001 104.25L6.75 104.05L6.44998 103.75L6.35001 103.55L5.85001 103.45L5.54999 103.15L5.35001 102.85L5.44998 102.55L5.75 102.05L5.94998 101.85L6.04999 101.75L6.25 101.45H6.44998L6.64999 100.55L6.75 100.45L6.94998 99.75L6.85001 98.85L6.64999 98.25L5.94998 99.55L5.75 99.45L4.44998 99.55L3.75 99.95L3.44998 100.15L2.94998 100.55L2.54999 100.75L1.75 101.15L1.14999 101.35L0.850006 100.45L0.649994 99.55L1.04999 99.05L1.14999 98.85L1.25 98.55L1.14999 98.35V98.05L1.25 97.65L1.35001 97.25V96.95L1.14999 96.85L0.949982 96.55L0.850006 96.45L0.949982 96.35V96.15L1.04999 95.95L1.14999 95.65L0.649994 94.65V94.15L0.549988 93.95L0.25 93.85V93.75H0.350006H0.449982V93.65H0.350006V93.55V93.45H0.449982V93.35H0.549988V93.25L0.649994 93.15V93.05H0.75V92.95H0.850006V92.85H0.949982L1.04999 92.75L1.25 92.65L1.14999 92.55H1.25V92.45V92.35H1.35001V92.25H1.44998V92.15L1.54999 92.05V91.95L1.64999 91.85V91.75V91.65V91.55V91.45V91.35H1.75V91.25V91.15L1.85001 91.05L1.94998 90.95L2.04999 90.85L2.14999 90.75V90.65H2.25V90.55H2.35001L2.44998 90.45L2.54999 90.35V90.25L2.64999 90.15L2.54999 90.05L2.64999 89.95H2.75V89.85L2.85001 89.75V89.65H2.94998L3.04999 89.55H3.14999L3.25 89.45L3.35001 89.35V89.25H3.44998V89.15H3.54999V89.05H3.64999V88.95H3.75V88.85H3.85001V88.75H3.94998V88.65H4.04999V88.55L4.14999 88.45H4.25V88.35L4.35001 88.25H4.44998V88.15H4.54999V88.05H4.64999L4.75 87.95L4.85001 87.85L4.94998 87.75L5.04999 87.65H5.14999V87.55H5.25L5.44998 87.35L5.64999 87.15L5.75 87.05H5.85001L5.94998 86.95L6.04999 86.85L6.35001 86.65V86.55L6.75 86.15L7.14999 85.75L7.64999 85.25L7.75 85.15L7.94998 85.05V84.95L8.04999 84.85V84.75H8.14999L8.25 84.65V84.55H8.35001L8.44998 84.45L8.54999 84.35L8.64999 84.25L8.85001 84.05L8.94998 83.95V83.85H9.04999L9.14999 83.65H9.25L9.35001 83.45L9.44998 83.35L9.54999 83.25L9.64999 83.15V83.05H9.75V82.95V82.85V82.75H9.85001V82.65V82.55V82.45L9.94998 82.35V82.25H10.05V82.15H10.15V82.05V81.95H10.25V81.85H10.35V81.75H10.45V81.65V81.55H10.55V81.45L10.65 81.35L10.75 81.25L10.85 81.15L10.95 81.05V80.95H11.05V80.85L11.15 80.75V80.65H11.25V80.55H11.35V80.45L11.45 80.35L11.55 80.25L11.65 80.05L11.75 79.95V79.85H11.85V79.75L11.95 79.65V79.55V79.45V79.35V79.25L11.85 79.15V79.05H11.75L11.85 78.95H11.95L12.05 78.75V78.65H12.15V78.55L12.25 78.45V78.35V78.25H12.35V78.15H12.45V77.95H12.55L12.65 77.85V77.75H12.75V77.65V77.55H12.85V77.45H12.95V77.35L13.05 77.25V77.15V77.05V76.95L13.25 76.85V76.75L13.35 76.65H13.45L13.35 76.55V76.45V76.35V76.15V76.05V75.95V75.85H13.45V75.75H13.55L13.45 75.65H13.55V75.55V75.45H13.75L13.65 75.35H13.75V75.25V75.15H13.85V75.05V74.95H13.95V74.85H14.05V74.75V74.65H14.15V74.55V74.35V74.45H14.25V74.35H14.35V74.25V74.15V74.05V73.95H14.45V73.85H14.55L14.45 73.65H14.55V73.55H14.65V73.45L14.75 73.35V73.25L14.85 73.15L14.95 72.85H14.85V72.75H14.95V72.65L15.05 72.55L14.95 72.45H15.05V72.35H15.15V72.25H15.25V72.05V71.95H15.35V71.85H15.45V71.75V71.65V71.55H15.55V71.45V71.35H15.65V71.25V71.15H15.75V71.05V70.95L15.85 70.85L15.95 70.65V70.55L16.05 70.45V70.25L16.15 70.15V70.05L16.25 69.95V69.85L16.35 69.75V69.65V69.55H16.45V69.45V69.35V69.25H16.55V69.15L16.65 69.05V68.95V68.85L16.75 68.75V68.65V68.55H16.85V68.45V68.35V68.25H16.95V68.15H17.05L17.15 68.05V67.95L17.25 67.85L17.35 67.75V67.65L17.45 67.55V67.45H17.55V67.35L17.65 67.25V67.15H17.75V67.05L17.85 66.95V66.85H17.95V66.75V66.65H18.05V66.55L18.15 66.45V66.35L18.35 66.15V66.05V65.95V65.85V65.75L18.45 65.65V65.55V65.45V65.35V65.25V65.15H18.55V65.05V64.95V64.85H18.65V64.75V64.65H18.75V64.55V64.45L18.85 64.25H18.95V64.15V64.05V63.95V63.85L19.05 63.75H18.95V63.65V63.55H19.05V63.45H18.95V63.35V63.25H19.05V63.15V63.05V62.95L19.15 62.85V62.75V62.65H19.25V62.55V62.45V62.35V62.25H19.35V62.15V62.05V61.95L19.45 61.85H19.35L19.45 61.75V61.65V61.55H19.55V61.35V61.25V61.15H19.65L19.55 61.05H19.65L19.55 60.95L19.65 60.85L19.55 60.75H19.65V60.65V60.55L19.75 60.35V60.25V60.15V60.05V59.95V59.85V59.75V59.65H19.85V59.55H19.75V59.45V59.35H19.65H19.55L19.65 59.25V59.15V59.05V58.95V58.85L19.75 58.65V58.55L19.85 58.45L19.95 58.15V58.05L20.05 57.95V57.85V57.75V57.65V57.55V57.45H20.15V57.35V57.25V57.15V57.05L20.25 56.95H20.15L20.25 56.85V56.75V56.65V56.55L20.35 56.45L20.25 56.35L20.35 56.25V56.15V56.05H20.25L20.35 55.95V55.85V55.75V55.65V55.55V55.45V55.35H20.45L20.35 55.25H20.45V55.15V55.05H20.55V54.95V54.85V54.65L20.65 54.55V54.45V54.35V54.15L20.75 54.05V53.85V53.75V53.55V53.45V53.35H20.85L20.75 53.25L20.85 53.15V53.05V52.95V52.85V52.45V52.35L20.95 52.25V52.15V52.05V51.95V51.85L21.05 51.75V51.65V51.55V51.45L21.15 51.05V50.95V50.85L21.25 50.75V50.65V50.45V50.35V50.25L21.35 50.15V50.05V49.95V49.85H21.45V49.75V49.65V49.55L21.55 49.45V49.35H21.65V49.25V49.15H21.55L21.65 49.05V48.95H21.55V48.85V48.75V48.65V48.55H21.65V48.45V48.35V48.25L21.75 48.15V48.05V47.95V47.85V47.75H21.85V47.65V47.55V47.45V47.35V47.25L21.75 47.15V47.05V46.85L21.65 46.65V46.55L21.55 46.45V46.35V46.25L21.35 46.05V45.95H21.25V45.85H21.15L21.05 45.75H20.95H20.85V45.95H20.95V46.05L20.75 45.95L20.35 46.05V45.95L20.75 45.85L20.65 45.75H20.75V45.65L20.35 45.85H20.25L20.35 45.75H20.25H20.15V45.85V45.95V46.05L20.25 46.15H20.15V45.95H19.85V45.85H19.95H20.05V45.75H19.95H19.85L19.75 45.85V45.75H19.85L19.95 45.65H19.85V45.55L19.65 45.65L19.45 45.35L19.35 45.45H19.25V45.55L19.35 45.65H19.25V45.75L19.35 45.85L19.45 45.95H19.35V45.85L19.15 45.65V45.55V45.45V45.35H19.25L19.35 45.25L19.25 45.05V44.95V44.85H19.15V44.75H19.05V44.65H18.95H18.85V44.55H18.75V44.45H18.65V44.35V44.25L18.55 44.15V44.05V43.95H18.45V43.85V43.75H18.35V43.65V43.55V43.45V43.35H18.25V43.25V43.15V43.05V42.95L18.15 42.85V42.75V42.65V42.55L18.05 42.45V42.35H17.95V42.25H17.85V42.15H17.95V42.05L17.85 41.95V41.85V41.75V41.65V41.45L17.75 41.35V41.15H17.65V41.05V40.95H17.55H17.45L17.35 40.85V40.75L17.25 40.65V40.55V40.45V40.35L17.15 40.25V40.15V40.05V39.95L17.05 39.85V39.75L16.95 39.65V39.55L16.85 39.45L16.75 39.25V39.15L16.65 38.95L16.55 38.85L16.35 38.45H16.15L16.05 38.35L15.85 38.25L15.95 38.35H15.85V38.25H15.75H15.65H15.55H15.45H15.35H15.25L15.15 38.35V38.25H15.05L14.95 38.15V38.05H14.85L14.75 37.95V38.05H14.65V37.95H14.55H14.45V37.85V37.75V37.65V37.55H14.35L14.25 37.45V37.35V37.25V37.15V36.85L14.15 36.65L14.05 36.55L13.95 36.45H13.85L13.75 36.35L13.65 36.15V36.05H13.55L13.45 35.95L13.25 35.75L13.15 35.55L13.05 35.45L12.95 35.35L12.85 35.25H12.75L12.65 35.15L12.55 35.05V34.95H12.45L12.35 34.85V34.75L12.25 34.65L12.05 34.35L11.95 34.25H11.85H11.75L11.65 34.15H11.55L11.45 34.05H11.35H11.15L11.05 33.95L10.85 33.85V33.75H10.75H10.65V33.65H10.55H10.45V33.55H10.35V33.45H10.25L10.05 33.35H9.94998H9.85001L9.64999 33.25H9.54999H9.44998H9.35001H9.25H9.14999L8.54999 33.45H8.44998L8.14999 33.55H7.85001H7.54999H7.44998V33.45H7.35001H7.25H7.14999H7.04999L6.94998 33.35H6.85001H6.75V33.25H6.64999V33.15H6.54999L6.64999 33.05V32.95V32.85V32.75V32.65H6.54999V32.55V32.45H6.64999V32.35V32.25V32.15V32.05V31.95L6.75 31.85V31.75V31.55V31.35V31.25V31.15L6.85001 31.05V30.95V30.85L6.94998 30.75L6.85001 30.65H6.94998V30.55L7.04999 30.45V30.35V30.25V30.05L7.14999 29.95V29.85V29.75V29.65H7.25V29.55V29.45L7.35001 29.35V29.25L7.44998 29.15V28.85L7.54999 28.75H7.64999H7.75V28.65H7.85001V28.55H7.94998L8.04999 28.45V28.35L8.14999 28.25H8.25V28.15L8.35001 27.95H8.44998V27.85H8.54999V27.75L8.64999 27.65V27.55L8.75 27.45V27.35V27.25L8.64999 27.15L8.54999 27.05H8.64999L8.54999 26.95H8.64999V26.85L8.75 26.75V26.65L8.94998 26.45V26.35L9.04999 26.25L9.14999 26.15V26.05L9.25 25.95L9.35001 25.85H9.25L9.35001 25.75V25.65H9.44998V25.55V25.45H9.54999V25.35L9.64999 25.25V25.15L9.75 25.05V24.95V24.85V24.75V24.65V24.55H9.85001V24.45V24.35V24.25V24.15H9.94998V24.05H10.05V23.95V23.85H10.15L10.25 23.75L10.35 23.65V23.45L10.45 23.35L10.55 23.25L10.45 23.15L10.55 23.05V22.85L10.65 22.75V22.65L10.75 22.55V22.45L10.85 22.15V22.05L10.95 21.95V21.85L11.05 21.75V21.65L10.95 21.35L11.05 21.25V21.15V20.95H10.95V20.85V20.75V20.65L10.85 20.45H10.75V20.35L10.65 20.25H10.55H10.45H10.35H10.25V20.35H10.15V20.25V20.15V20.05V19.95H10.05H9.94998L9.85001 19.85L9.94998 19.65V19.55H10.05V19.45L10.15 19.35L10.25 19.25V19.15L10.35 18.85V18.75H10.45L10.35 18.65L10.45 18.55V18.45V18.35H10.55V18.25H10.65V18.15V17.95L10.75 17.75V17.65L10.65 17.55L10.75 17.45V17.35L10.85 17.25L10.95 17.05H10.85V16.95L10.75 16.85V16.75L10.55 16.45V16.35H10.45V16.25L10.35 16.15V16.05V15.95H10.25V15.85V15.75V15.55L10.35 15.45V15.35V15.15H10.45L10.35 15.05L10.45 14.95V14.85H10.35V14.75V14.55V14.45V14.35V14.25L11.55 14.45L12.75 14.85L12.85 14.95L13.15 15.75L12.95 16.85V17.05L13.05 17.55L14.75 18.25L14.55 20.05L15.75 23.25L16.15 23.35L16.65 23.45L17.15 23.65L17.45 23.35L17.75 23.15L18.15 22.85L18.65 22.45L18.95 22.35L19.25 22.65L19.75 22.75L20.05 22.35L20.45 21.45V21.35L20.85 20.55L21.35 19.75L21.55 19.25H22.15L22.45 19.55L22.85 20.15L23.15 20.25H23.45L23.55 19.95L23.75 19.55L23.95 19.25L24.05 18.95L24.45 18.25L24.85 17.55L25.25 17.75L25.05 18.65L25.35 18.85L25.85 18.95L26.45 18.45L27.45 19.25L28.05 19.45L28.45 19.65L28.85 19.75L29.65 20.15L30.05 20.35L30.85 20.05L31.55 19.75L31.85 19.45L32.05 18.95L33.15 18.75L33.65 18.85L34.05 19.05L34.65 19.15L35.05 19.35H35.15V18.65V18.15L35.45 17.75L35.75 17.35L37.75 20.05L39.05 20.75L39.15 20.85L39.75 21.55L40.15 22.15L40.45 22.55H40.65L42.05 22.05L43.25 21.65L44.55 21.05L45.35 21.45L46.35 21.05H47.95L49.25 21.15L51.25 21.35L52.25 21.55L53.25 21.25L53.55 21.15V21.05V20.85V19.85L53.75 18.25L54.05 17.25L55.75 16.35L57.75 15.75L58.85 14.85L59.75 14.15L60.45 13.55L61.15 12.95L61.65 12.45L62.25 12.15L62.45 12.05L62.85 12.15L63.25 12.45L63.55 12.75L63.85 13.05L64.05 13.65L64.35 14.05L64.85 14.35L64.55 14.95L65.15 15.55L65.35 15.85L65.45 16.65L65.95 17.35L65.75 18.25L65.85 19.45L65.95 20.45L66.65 21.75L66.85 21.95V22.05H66.95L67.65 21.85L67.75 21.55V20.85L67.85 20.35L67.65 19.25L68.45 18.95L68.85 18.75L69.65 17.85L70.75 16.75L71.15 16.55L71.95 17.35L73.25 17.55L74.15 17.85H74.35H74.95L76.05 17.75L77.65 18.25L79.15 18.45L80.45 18.35L82.45 18.85L84.15 18.35H84.65L85.05 18.75L85.55 18.85H85.95H86.75L87.45 18.75H87.55L88.35 18.35L88.55 18.25L88.75 18.15L88.95 18.05L89.35 17.95H89.75L90.45 17.85L91.15 17.75V17.65L91.85 17.45L92.45 17.35L92.75 17.25L93.25 16.85L93.65 16.35L94.25 15.75L95.75 15.25L97.25 14.75L97.95 14.55L98.75 14.25L100.25 14.85L102.75 15.05L104.25 15.75L105.15 16.05L107.05 15.25L107.85 14.35L108.05 14.15L108.75 12.95L109.15 11.55L109.65 10.05L109.75 8.54999L109.85 8.45001L110.35 8.25L110.65 6.85001L111.05 5.54999L111.85 3.95001L115.95 1.54999L115.15 0.25L116.75 1.04999L117.35 0.549988L118.05 1.75H118.65L119.55 2.04999L119.85 2.14999L120.05 2.25H119.95L119.55 2.54999L119.35 2.64999L119.25 2.95001L119.15 3.25L119.05 3.64999L118.95 4.04999V4.35001L119.25 4.95001L119.65 5.64999L120.25 6.45001L120.05 7.04999L120.95 8.14999L120.55 9.25L120.65 11.05L120.45 12.95L120.25 13.45L120.15 14.15L120.05 16.25V16.35L119.85 17.35L119.95 19.05L121.25 19.65L123.45 19.05L124.35 18.95H125.35L123.35 20.35V20.45L123.15 20.75L122.75 21.65L123.35 23.25L123.25 24.45L122.95 24.85L122.55 24.75L122.65 25.15L122.45 25.55H121.85L121.25 26.25L121.15 26.35L123.05 26.55L126.05 26.75L127.05 26.85L127.95 26.95L128.45 27.05L128.55 27.55L128.75 28.55L129.05 29.75L129.15 29.95L129.25 31.85L128.55 32.25L129.35 35.15L130.05 36.65L130.35 37.15L130.75 37.65L131.05 38.25L131.25 38.35L131.35 38.45H131.25L130.65 38.85L129.85 39.35L129.25 39.45L128.55 39.55H128.45L127.85 40.35L127.25 41.05L127.15 41.15L126.75 41.65L126.35 42.25L125.85 42.35L125.65 42.45L125.25 42.65L124.05 43.25L123.55 43.65H123.35H123.15L122.85 43.75L122.55 44.05L122.45 44.15L122.25 45.05L122.15 45.25L122.05 45.65L122.15 46.45L122.25 46.65V46.85L122.35 46.95V47.05L122.45 47.45L122.55 47.75L122.75 48.45L123.05 48.35L123.55 48.15L124.05 47.95L124.55 47.65L125.05 47.35L125.45 46.85L125.55 47.25L125.65 47.65V48.05L126.55 52.25L127.65 53.75L128.05 54.35L128.15 54.85V55.25L127.95 55.65L127.75 55.95L127.85 56.45L127.55 56.85L127.15 57.05L126.55 57.35L125.65 57.65H125.45V57.95L125.55 58.25V58.55H126.65L127.35 58.85H127.45L128.35 58.75L129.25 58.35L130.25 57.75L131.45 58.75L131.65 58.95L132.75 59.45L133.75 58.55L135.85 59.85L136.25 60.15L139.05 59.95L139.95 61.85L141.05 63.75L141.65 64.55L142.65 65.25L142.95 64.65L143.35 64.05L142.95 63.15L143.15 62.55L142.95 62.15L142.75 61.45L142.95 60.65L143.05 59.75L142.95 58.55L143.85 57.55L144.65 56.25L145.45 54.95L146.25 53.55L148.35 50.95L148.95 50.25L149.05 50.15L149.55 48.95L150.05 48.55L152.15 49.45L153.85 49.95L155.85 50.45L157.25 51.15L162.45 49.85L163.85 50.35L164.65 51.35L166.05 49.55V48.85L165.75 47.05L166.15 44.85L165.75 43.65L167.25 43.45L168.45 45.75L170.05 45.35L172.45 44.95L174.85 44.25L175.75 43.45H176.45L176.95 44.15L177.25 44.65L177.45 44.75L177.15 45.55L177.45 46.25L178.75 46.35L180.75 48.75L182.25 50.75L184.15 52.25V53.85L181.75 55.75L180.05 57.55L184.65 62.45L185.35 63.65L184.35 66.95L185.85 69.95L190.15 68.65L190.65 69.05H191.85L192.45 69.65L192.25 70.75L189.95 71.55L188.35 73.15L188.45 73.65V73.95L188.85 74.85L188.95 76.25V77.45L189.15 78.15L189.25 79.25L189.65 80.65V81.95L189.85 83.25V84.15L190.15 85.75L190.55 86.95L189.35 88.25L188.75 89.75L188.85 90.85L189.65 91.95L189.75 92.85L188.95 94.05L188.55 95.15L187.95 96.45L187.45 97.75L187.05 97.95H186.75L186.65 98.05L186.45 98.15L185.95 98.45L185.65 98.55H185.55L183.55 100.55L182.05 100.35L181.15 100.45L179.55 100.15L178.75 100.05L178.25 100.45H178.15L177.25 100.55H176.95L176.15 100.85H174.85L174.15 101.05L173.75 101.25L173.15 101.75L172.45 102.65L171.75 103.25L171.65 103.35L171.05 103.75L170.35 104.05H170.15H169.85L169.45 103.95H169.05H168.65L168.35 103.85H167.95L167.55 103.75L167.25 103.65L166.85 103.55L166.55 103.35L166.25 103.05L166.05 102.85L165.65 102.65L165.35 102.75H164.95H164.55H164.45L163.35 101.75L162.65 101.95L162.15 102.05H160.65H160.25L159.95 101.95L159.85 101.75L159.45 101.55L158.95 101.45L158.55 101.55L158.35 101.65L157.95 101.85L157.35 102.15H157.25L157.15 102.05L156.95 101.75L156.75 101.85H156.65H156.35L156.15 101.75H155.75L155.55 101.65L155.15 101.55L154.85 101.35L154.55 101.15L154.25 100.85L153.85 100.75L153.65 100.65L153.15 100.35L152.15 100.25V100.35V100.55H151.55L151.15 100.45L150.55 100.55L148.45 101.65L146.45 102.55L145.15 103.45L143.25 105.15L141.95 106.75L140.65 108.05L140.35 108.25L138.45 108.95L138.15 109.05H137.85H137.25L136.85 108.95L133.95 109.85L133.05 110.05H130.55L127.75 109.25L127.25 109.35L126.15 109.75L125.75 110.15L125.65 110.35L125.55 110.95L125.45 112.05L125.25 112.55L125.05 112.85L124.85 113.05L124.35 113.55L123.85 113.75L123.75 113.85L122.75 114.05L121.75 114.55L121.15 114.75L120.75 115.05L120.25 115.15L117.85 116.35L117.15 116.75L115.25 118.45L115.15 118.55L114.05 119.25L113.25 119.75L112.45 120.15L112.15 120.25L111.95 120.45H111.65L111.55 120.55L111.45 120.45L110.95 120.65L110.85 120.75H110.75L110.65 120.85H110.55L110.45 120.95L110.35 121.05L110.25 121.15L110.15 121.25L109.95 121.35L109.75 121.55L109.65 121.65L109.45 121.85L109.35 121.95L109.05 122.25L108.75 122.55L108.55 122.75L108.35 123.05L108.05 123.25L107.95 123.45H108.05L108.15 123.55L108.05 124.05L107.45 124.45L106.05 125.45L103.05 127.25L101.95 127.85L101.35 128.25L100.85 128.65L100.45 128.95L99.25 129.65L98.25 130.45L97.75 130.95L97.55 131.05H97.25L96.85 130.95L96.65 131.15L96.45 131.25L96.25 131.45L96.05 131.65L95.95 131.85L95.35 131.95L94.15 132.45L93.75 132.95L92.55 134.25L91.05 135.25L90.15 135.95L89.15 136.75L89.05 136.95L87.95 137.85L87.65 138.15L86.35 139.35L85.85 139.95L84.85 141.15L84.75 141.25L83.95 142.05L83.15 143.05H83.05L82.15 143.75L81.55 144.15L79.55 145.05L78.75 145.45L77.75 145.75L77.15 146.05L76.65 146.35L76.35 146.45L76.05 146.65L75.55 146.85L75.35 146.95L75.25 147.05L75.15 147.15L75.05 147.25L74.95 147.35H74.75L74.25 147.55L73.85 147.75L73.15 148.05H73.05H72.95V148.15H72.85V148.25H72.75H72.65L72.55 148.35H72.45V148.45H72.35L72.05 148.65H71.75L71.65 148.75H71.45L71.05 148.85L70.75 149.05V151.15V152.85V157.45V162.15L70.85 164.15L70.75 166.15V168.35V170.95V173.15Z" fill="#6F9C76"/>
<path d="M10.15 20.35V20.25V20.15V20.05V19.95H10.05H9.94998L9.85001 19.85L9.94998 19.65V19.55H10.05V19.45L10.15 19.35L10.25 19.25V19.15L10.35 18.85V18.75H10.45L10.35 18.65L10.45 18.55V18.45V18.35H10.55V18.25H10.65V18.15V17.95L10.75 17.75V17.65L10.65 17.55L10.75 17.45V17.35L10.85 17.25L10.95 17.05H10.85V16.95L10.75 16.85V16.75L10.55 16.45V16.35H10.45V16.25L10.35 16.15V16.05V15.95H10.25V15.85V15.75V15.55L10.35 15.45V15.35V15.15H10.45L10.35 15.05L10.45 14.95V14.85H10.35V14.75V14.55V14.45V14.35V14.25L11.55 14.45L12.75 14.85L12.85 14.95L13.15 15.75L12.95 16.85V17.05L13.05 17.55L14.75 18.25L14.55 20.05L15.75 23.25L16.15 23.35L16.65 23.45L17.15 23.65L17.45 23.35L17.75 23.15L18.15 22.85L18.65 22.45L18.95 22.35L19.25 22.65L19.75 22.75L20.05 22.35L20.45 21.45V21.35L20.85 20.55L21.35 19.75L21.55 19.25H22.15L22.45 19.55L22.85 20.15L23.15 20.25H23.45L23.55 19.95L23.75 19.55L23.95 19.25L24.05 18.95L24.45 18.25L24.85 17.55L25.25 17.75L25.05 18.65L25.35 18.85L25.85 18.95L26.45 18.45L27.45 19.25L28.05 19.45L28.45 19.65L28.85 19.75L29.65 20.15L30.05 20.35L30.85 20.05L31.55 19.75L31.85 19.45L32.05 18.95L33.15 18.75L33.65 18.85L34.05 19.05L34.65 19.15L35.05 19.35H35.15V18.65V18.15L35.45 17.75L35.75 17.35L37.75 20.05L39.05 20.75L39.15 20.85L39.75 21.55L40.15 22.15L40.45 22.55H40.65L42.05 22.05L43.25 21.65L44.55 21.05L45.35 21.45L46.35 21.05H47.95L49.25 21.15L51.25 21.35L52.25 21.55L53.25 21.25L53.55 21.15V21.05V20.85V19.85L53.75 18.25L54.05 17.25L55.75 16.35L57.75 15.75L58.85 14.85L59.75 14.15L60.45 13.55L61.15 12.95L61.65 12.45L62.25 12.15L62.45 12.05L62.85 12.15L63.25 12.45L63.55 12.75L63.85 13.05L64.05 13.65L64.35 14.05L64.85 14.35L64.55 14.95L65.15 15.55L65.35 15.85L65.45 16.65L65.95 17.35L65.75 18.25L65.85 19.45L65.95 20.45L66.65 21.75L66.85 21.95V22.05H66.95L67.65 21.85L67.75 21.55V20.85L67.85 20.35L67.65 19.25L68.45 18.95L68.85 18.75L69.65 17.85L70.75 16.75L71.15 16.55L71.95 17.35L73.25 17.55L74.15 17.85H74.35H74.95L76.05 17.75L77.65 18.25L79.15 18.45L80.45 18.35L82.45 18.85L84.15 18.35H84.65L85.05 18.75L85.55 18.85H85.95H86.75L87.45 18.75H87.55L88.35 18.35L88.55 18.25L88.75 18.15L88.95 18.05L89.35 17.95H89.75L90.45 17.85L91.15 17.75V17.65L91.85 17.45L92.45 17.35L92.75 17.25L93.25 16.85L93.65 16.35L94.25 15.75L95.75 15.25L97.25 14.75L97.95 14.55L98.75 14.25L100.25 14.85L102.75 15.05L104.25 15.75L105.15 16.05L107.05 15.25L107.85 14.35L108.05 14.15L108.75 12.95L109.15 11.55L109.65 10.05L109.75 8.54999L109.85 8.45001L110.35 8.25L110.65 6.85001L111.05 5.54999L111.85 3.95001L115.95 1.54999L115.15 0.25L116.75 1.04999L117.35 0.549988L118.05 1.75H118.65L119.55 2.04999L119.85 2.14999L120.05 2.25H119.95L119.55 2.54999L119.35 2.64999L119.25 2.95001L119.15 3.25L119.05 3.64999L118.95 4.04999V4.35001L119.25 4.95001L119.65 5.64999L120.25 6.45001L120.05 7.04999L120.95 8.14999L120.55 9.25L120.65 11.05L120.45 12.95L120.25 13.45L120.15 14.15L120.05 16.25V16.35L119.85 17.35L119.95 19.05L121.25 19.65L123.45 19.05L124.35 18.95H125.35L123.35 20.35V20.45L123.15 20.75L122.75 21.65L123.35 23.25L123.25 24.45L122.95 24.85L122.55 24.75L122.65 25.15L122.45 25.55H121.85L121.25 26.25L121.15 26.35L123.05 26.55L126.05 26.75L127.05 26.85L127.95 26.95L128.45 27.05L128.55 27.55L128.75 28.55L129.05 29.75L129.15 29.95L129.25 31.85L128.55 32.25L129.35 35.15L130.05 36.65L130.35 37.15L130.75 37.65L131.05 38.25L131.25 38.35L131.35 38.45H131.25L130.65 38.85L129.85 39.35L129.25 39.45L128.55 39.55H128.45L127.85 40.35L127.25 41.05L127.15 41.15L126.75 41.65L126.35 42.25L125.85 42.35L125.65 42.45L125.25 42.65L124.05 43.25L123.55 43.65H123.35H123.15L122.85 43.75L122.55 44.05L122.45 44.15L122.25 45.05L122.15 45.25L122.05 45.65L122.15 46.45L122.25 46.65V46.85L122.35 46.95V47.05L122.45 47.45L122.55 47.75L122.75 48.45L123.05 48.35L123.55 48.15L124.05 47.95L124.55 47.65L125.05 47.35L125.45 46.85L125.55 47.25L125.65 47.65V48.05L126.55 52.25L127.65 53.75L128.05 54.35L128.15 54.85V55.25L127.95 55.65L127.75 55.95L127.85 56.45L127.55 56.85L127.15 57.05L126.55 57.35L125.65 57.65H125.45V57.95L125.55 58.25V58.55H126.65L127.35 58.85H127.45L128.35 58.75L129.25 58.35L130.25 57.75L131.45 58.75L131.65 58.95L132.75 59.45L133.75 58.55L135.85 59.85L136.25 60.15L139.05 59.95L139.95 61.85L141.05 63.75L141.65 64.55L142.65 65.25L142.95 64.65L143.35 64.05L142.95 63.15L143.15 62.55L142.95 62.15L142.75 61.45L142.95 60.65L143.05 59.75L142.95 58.55L143.85 57.55L144.65 56.25L145.45 54.95L146.25 53.55L148.35 50.95L148.95 50.25L149.05 50.15L149.55 48.95L150.05 48.55L152.15 49.45L153.85 49.95L155.85 50.45L157.25 51.15L162.45 49.85L163.85 50.35L164.65 51.35L166.05 49.55V48.85L165.75 47.05L166.15 44.85L165.75 43.65L167.25 43.45L168.45 45.75L170.05 45.35L172.45 44.95L174.85 44.25L175.75 43.45H176.45L176.95 44.15L177.25 44.65L177.45 44.75L177.15 45.55L177.45 46.25L178.75 46.35L180.75 48.75L182.25 50.75L184.15 52.25V53.85L181.75 55.75L180.05 57.55L184.65 62.45L185.35 63.65L184.35 66.95L185.85 69.95L190.15 68.65L190.65 69.05H191.85L192.45 69.65L192.25 70.75L189.95 71.55L188.35 73.15L188.45 73.65V73.95L188.85 74.85L188.95 76.25V77.45L189.15 78.15L189.25 79.25L189.65 80.65V81.95L189.85 83.25V84.15L190.15 85.75L190.55 86.95L189.35 88.25L188.75 89.75L188.85 90.85L189.65 91.95L189.75 92.85L188.95 94.05L188.55 95.15L187.95 96.45L187.45 97.75L187.05 97.95H186.75L186.65 98.05L186.45 98.15L185.95 98.45L185.65 98.55H185.55L183.55 100.55L182.05 100.35L181.15 100.45L179.55 100.15L178.75 100.05L178.25 100.45H178.15L177.25 100.55H176.95L176.15 100.85H174.85L174.15 101.05L173.75 101.25L173.15 101.75L172.45 102.65L171.75 103.25L171.65 103.35L171.05 103.75L170.35 104.05H170.15H169.85L169.45 103.95H169.05H168.65L168.35 103.85H167.95L167.55 103.75L167.25 103.65L166.85 103.55L166.55 103.35L166.25 103.05L166.05 102.85L165.65 102.65L165.35 102.75H164.95H164.55H164.45L163.35 101.75L162.65 101.95L162.15 102.05H160.65H160.25L159.95 101.95L159.85 101.75L159.45 101.55L158.95 101.45L158.55 101.55L158.35 101.65L157.95 101.85L157.35 102.15H157.25L157.15 102.05L156.95 101.75L156.75 101.85H156.65H156.35L156.15 101.75H155.75L155.55 101.65L155.15 101.55L154.85 101.35L154.55 101.15L154.25 100.85L153.85 100.75L153.65 100.65L153.15 100.35L152.15 100.25V100.35V100.55H151.55L151.15 100.45L150.55 100.55L148.45 101.65L146.45 102.55L145.15 103.45L143.25 105.15L141.95 106.75L140.65 108.05L140.35 108.25L138.45 108.95L138.15 109.05H137.85H137.25L136.85 108.95L133.95 109.85L133.05 110.05H130.55L127.75 109.25L127.25 109.35L126.15 109.75L125.75 110.15L125.65 110.35L125.55 110.95L125.45 112.05L125.25 112.55L125.05 112.85L124.85 113.05L124.35 113.55L123.85 113.75L123.75 113.85L122.75 114.05L121.75 114.55L121.15 114.75L120.75 115.05L120.25 115.15L117.85 116.35L117.15 116.75L115.25 118.45L115.15 118.55L114.05 119.25L113.25 119.75L112.45 120.15L112.15 120.25L111.95 120.45H111.65L111.55 120.55L111.45 120.45L110.95 120.65L110.85 120.75H110.75L110.65 120.85H110.55L110.45 120.95L110.35 121.05L110.25 121.15L110.15 121.25L109.95 121.35L109.75 121.55L109.65 121.65L109.45 121.85L109.35 121.95L109.05 122.25L108.75 122.55L108.55 122.75L108.35 123.05L108.05 123.25L107.95 123.45H108.05L108.15 123.55L108.05 124.05L107.45 124.45L106.05 125.45L103.05 127.25L101.95 127.85L101.35 128.25L100.85 128.65L100.45 128.95L99.25 129.65L98.25 130.45L97.75 130.95L97.55 131.05H97.25L96.85 130.95L96.65 131.15L96.45 131.25L96.25 131.45L96.05 131.65L95.95 131.85L95.35 131.95L94.15 132.45L93.75 132.95L92.55 134.25L91.05 135.25L90.15 135.95L89.15 136.75L89.05 136.95L87.95 137.85L87.65 138.15L86.35 139.35L85.85 139.95L84.85 141.15L84.75 141.25L83.95 142.05L83.15 143.05H83.05L82.15 143.75L81.55 144.15L79.55 145.05L78.75 145.45L77.75 145.75L77.15 146.05L76.65 146.35L76.35 146.45L76.05 146.65L75.55 146.85L75.35 146.95L75.25 147.05L75.15 147.15L75.05 147.25L74.95 147.35H74.75L74.25 147.55L73.85 147.75L73.15 148.05H73.05H72.95V148.15H72.85V148.25H72.75H72.65L72.55 148.35H72.45V148.45H72.35L72.05 148.65H71.75L71.65 148.75H71.45L71.05 148.85L70.75 149.05V151.15V152.85V157.45V162.15L70.85 164.15L70.75 166.15V168.35V170.95V173.15L70.65 173.05L65.35 166.55L63.75 164.65L59.55 159.15L57.65 155.95L54.95 153.15L55.05 152.15L54.75 150.75L53.35 149.05L49.85 148.85L46.25 148.25L45.25 146.95L43.95 145.05L42.55 144.15L42.75 141.35L43.85 140.65L42.05 140.25L41.45 138.15L41.05 136.25L40.85 135.45L41.55 134.55L41.65 134.45L41.55 133.45V133.25L40.75 132.95L40.25 132.75L40.55 131.55L41.05 130.25V129.35L40.45 127.65L44.15 126.45L42.35 128.75L42.55 129.35L43.05 129.65L44.35 128.75L45.65 127.55L46.05 126.95L44.85 125.65L44.95 125.15L46.55 124.15L48.55 122.55L48.85 122.15V121.45V120.75L48.35 118.75L48.15 118.55L47.55 117.65V117.25L47.05 116.95L46.55 116.35L46.05 115.85L45.75 114.65L45.45 114.05L45.15 112.85L44.45 110.25L44.65 109.65L44.95 109.05L45.05 108.65L44.85 108.35L44.35 107.85L43.85 107.25L43.15 106.55L42.55 105.85L42.45 105.35L42.35 105.05L41.95 104.55L41.35 104.15L40.85 103.75L40.65 103.45L40.35 103.15L39.75 102.85L39.25 102.55L38.75 101.85H38.15H37.35L37.25 101.55L36.95 101.35H36.45L36.05 101.25L35.85 101.35L35.65 101.45L35.45 101.65L34.85 101.45L34.55 101.55L34.15 101.65H34.05L33.95 101.95L33.85 102.25L33.75 102.55L33.45 102.95L33.35 103.55L33.15 103.95H32.35L32.25 104.45L31.95 104.65V104.35L31.85 104.15L31.25 104.35V104.85L31.35 105.05V105.25L31.25 105.45L31.05 105.85L30.45 105.35L29.95 105.05L29.25 104.85L28.55 105.25L28.15 105.35L28.05 105.05L27.95 104.75L27.75 104.45L27.55 104.15V104.85L27.45 105.05L27.25 105.45V105.95L27.05 106.45L26.35 106.15L25.55 105.65L25.65 104.85L24.85 104.45L24.15 103.35L23.85 102.55L23.15 102.75L22.55 103.05L22.45 103.45V103.95V104.55L22.25 105.35L21.95 105.55L21.65 105.65L21.25 105.55H21.05L20.75 105.35L20.55 104.85L20.15 104.35L19.95 104.15L19.75 103.85L19.45 103.55L19.05 103.65L19.15 103.85L19.25 104.05L19.65 104.35L19.75 104.65L19.85 105.15V105.75V106.05L20.15 106.25L20.05 106.45L19.85 106.65L19.75 106.95L19.65 107.45L19.85 107.65L19.55 107.55L19.15 107.65L19.05 107.55H18.85L18.65 107.75L18.55 107.25V106.75L18.75 106.35L18.85 105.85L18.45 105.55L18.25 105.35H17.85H17.55L17.25 105.15L16.85 104.95L16.65 104.75L16.35 104.95H16.15V104.65L15.95 104.35L16.05 104.05L15.95 103.75H15.55L15.15 103.65H14.95L14.85 103.95L14.55 103.85L14.25 104.55L13.45 104.95L12.75 105.15L12.55 105.65L12.45 105.85L12.25 106.05L11.65 106.25L11.05 106.35L10.65 106.45L10.25 106.35H9.75H9.35001L8.85001 106.55L8.54999 106.35L8.25 106.25L8.04999 106.05L7.94998 105.95L7.54999 105.45L7.04999 105.55L6.85001 105.25V104.95L6.94998 104.65L6.85001 104.25L6.75 104.05L6.44998 103.75L6.35001 103.55L5.85001 103.45L5.54999 103.15L5.35001 102.85L5.44998 102.55L5.75 102.05L5.94998 101.85L6.04999 101.75L6.25 101.45H6.44998L6.64999 100.55L6.75 100.45L6.94998 99.75L6.85001 98.85L6.64999 98.25L5.94998 99.55L5.75 99.45L4.44998 99.55L3.75 99.95L3.44998 100.15L2.94998 100.55L2.54999 100.75L1.75 101.15L1.14999 101.35L0.850006 100.45L0.649994 99.55L1.04999 99.05L1.14999 98.85L1.25 98.55L1.14999 98.35V98.05L1.25 97.65L1.35001 97.25V96.95L1.14999 96.85L0.949982 96.55L0.850006 96.45L0.949982 96.35V96.15L1.04999 95.95L1.14999 95.65L0.649994 94.65V94.15L0.549988 93.95L0.25 93.85V93.75H0.350006H0.449982V93.65H0.350006V93.55V93.45H0.449982V93.35H0.549988V93.25L0.649994 93.15V93.05H0.75V92.95H0.850006V92.85H0.949982L1.04999 92.75L1.25 92.65L1.14999 92.55H1.25V92.45V92.35H1.35001V92.25H1.44998V92.15L1.54999 92.05V91.95L1.64999 91.85V91.75V91.65V91.55V91.45V91.35H1.75V91.25V91.15L1.85001 91.05L1.94998 90.95L2.04999 90.85L2.14999 90.75V90.65H2.25V90.55H2.35001L2.44998 90.45L2.54999 90.35V90.25L2.64999 90.15L2.54999 90.05L2.64999 89.95H2.75V89.85L2.85001 89.75V89.65H2.94998L3.04999 89.55H3.14999L3.25 89.45L3.35001 89.35V89.25H3.44998V89.15H3.54999V89.05H3.64999V88.95H3.75V88.85H3.85001V88.75H3.94998V88.65H4.04999V88.55L4.14999 88.45H4.25V88.35L4.35001 88.25H4.44998V88.15H4.54999V88.05H4.64999L4.75 87.95L4.85001 87.85L4.94998 87.75L5.04999 87.65H5.14999V87.55H5.25L5.44998 87.35L5.64999 87.15L5.75 87.05H5.85001L5.94998 86.95L6.04999 86.85L6.35001 86.65V86.55L6.75 86.15L7.14999 85.75L7.64999 85.25L7.75 85.15L7.94998 85.05V84.95L8.04999 84.85V84.75H8.14999L8.25 84.65V84.55H8.35001L8.44998 84.45L8.54999 84.35L8.64999 84.25L8.85001 84.05L8.94998 83.95V83.85H9.04999L9.14999 83.65H9.25L9.35001 83.45L9.44998 83.35L9.54999 83.25L9.64999 83.15V83.05H9.75V82.95V82.85M9.75 82.85H9.85001M9.75 82.85V82.75H9.85001V82.65V82.55V82.45L9.94998 82.35V82.25H10.05V82.15H10.15V82.05V81.95H10.25V81.85H10.35V81.75H10.45V81.65V81.55H10.55V81.45L10.65 81.35L10.75 81.25L10.85 81.15L10.95 81.05V80.95H11.05V80.85L11.15 80.75V80.65H11.25V80.55H11.35V80.45L11.45 80.35L11.55 80.25L11.65 80.05L11.75 79.95V79.85H11.85V79.75L11.95 79.65V79.55V79.45V79.35V79.25L11.85 79.15V79.05H11.75L11.85 78.95H11.95L12.05 78.75V78.65H12.15V78.55L12.25 78.45V78.35V78.25H12.35M12.35 78.25V78.35M15.45 71.65V71.75V71.85H15.35V71.95H15.25V72.05V72.25H15.15V72.35H15.05V72.45H14.95L15.05 72.55L14.95 72.65V72.75H14.85V72.85H14.95L14.85 73.15L14.75 73.25V73.35L14.65 73.45V73.55H14.55V73.65H14.45L14.55 73.85H14.45V73.95H14.35V74.05V74.15V74.25V74.35H14.25V74.45H14.15V74.35V74.55V74.65H14.05V74.75V74.85H13.95V74.95H13.85V75.05V75.15H13.75V75.25V75.35H13.65L13.75 75.45H13.55V75.55V75.65H13.45L13.55 75.75H13.45V75.85H13.35V75.95V76.05V76.15V76.35V76.45V76.55L13.45 76.65H13.35L13.25 76.75V76.85L13.05 76.95V77.05V77.15V77.25L12.95 77.35V77.45H12.85V77.55H12.75V77.65V77.75H12.65V77.85L12.55 77.95H12.45V78.15H12.35V78.25M12.45 78.15V78.05M14.85 73.15V73.05M15.45 71.65H15.35M16.75 68.55V68.65V68.75L16.65 68.85V68.95V69.05L16.55 69.15V69.25H16.45V69.35V69.45V69.55H16.35V69.65V69.75L16.25 69.85V69.95L16.15 70.05V70.15L16.05 70.25V70.45L15.95 70.55V70.65L15.85 70.85L15.75 70.95V71.05V71.15H15.65V71.25V71.35H15.55V71.45V71.55H15.45V71.65M16.65 69.05H16.55M16.75 68.55V68.45H16.85M16.75 68.55H16.85V68.45M16.85 68.45V68.35V68.25H16.95V68.15H17.05L17.15 68.05V67.95L17.25 67.85L17.35 67.75V67.65L17.45 67.55V67.45H17.55V67.35L17.65 67.25V67.15H17.75V67.05L17.85 66.95V66.85H17.95V66.75V66.65H18.05V66.55L18.15 66.45V66.35L18.35 66.15V66.05V65.95M18.35 65.95H18.25M18.95 63.35V63.45H19.05V63.55H18.95V63.65V63.75H19.05L18.95 63.85V63.95V64.05V64.15V64.25H18.85L18.75 64.45V64.55V64.65H18.65V64.75V64.85H18.55V64.95V65.05V65.15H18.45V65.25V65.35V65.45V65.55V65.65L18.35 65.75V65.85V65.95M18.45 65.65H18.35M18.95 63.35H19.05M19.65 59.15V59.25L19.55 59.35H19.65H19.75V59.45V59.55H19.85V59.65H19.75V59.75V59.85V59.95V60.05V60.15V60.25V60.35L19.65 60.55V60.65V60.75H19.55L19.65 60.85L19.55 60.95L19.65 61.05H19.55L19.65 61.15H19.55V61.25V61.35V61.55H19.45V61.65V61.75L19.35 61.85H19.45L19.35 61.95V62.05V62.15V62.25H19.25V62.35V62.45V62.55V62.65H19.15V62.75V62.85L19.05 62.95V63.05V63.15V63.25H18.95V63.35M19.35 61.95H19.45M19.65 59.15H19.55M19.65 59.15V59.05V58.95V58.85L19.75 58.65V58.55L19.85 58.45L19.95 58.15V58.05L20.05 57.95V57.85V57.75V57.65V57.55V57.45H20.15V57.35V57.25V57.15V57.05L20.25 56.95H20.15L20.25 56.85V56.75M20.25 56.75H20.15M20.25 56.75V56.65V56.55L20.35 56.45L20.25 56.35L20.35 56.25V56.15M20.35 56.15H20.25M20.35 56.15V56.05H20.25L20.35 55.95V55.85V55.75V55.65V55.55V55.45V55.35H20.45L20.35 55.25H20.45V55.15V55.05H20.55V54.95V54.85V54.65L20.65 54.55V54.45V54.35V54.15L20.75 54.05V53.85V53.75V53.55V53.45V53.35H20.85L20.75 53.25L20.85 53.15V53.05V52.95V52.85V52.45V52.35L20.95 52.25V52.15V52.05V51.95V51.85L21.05 51.75V51.65V51.55V51.45L21.15 51.05V50.95V50.85L21.25 50.75V50.65V50.45V50.35V50.25L21.35 50.15V50.05V49.95V49.85H21.45V49.75V49.65V49.55L21.55 49.45V49.35H21.65V49.25V49.15H21.55L21.65 49.05V48.95H21.55V48.85V48.75V48.65V48.55H21.65V48.45V48.35V48.25L21.75 48.15V48.05V47.95V47.85V47.75H21.85V47.65V47.55V47.45V47.35V47.25L21.75 47.15V47.05V46.85L21.65 46.65V46.55L21.55 46.45V46.35V46.25L21.35 46.05V45.95H21.25V45.85H21.15L21.05 45.75H20.95M20.95 45.75V45.85V45.95M20.95 45.75H20.85V45.95H20.95M20.95 45.95V46.05L20.75 45.95M20.25 45.85H20.35L20.75 45.65V45.75H20.65L20.75 45.85V45.95M20.25 46.05H20.35L20.75 45.95M20.75 45.85L20.35 45.95V46.05M20.75 45.85H20.65M20.25 45.85H20.15M20.25 45.85L20.35 45.75H20.25H20.15V45.85M20.15 45.85V45.95M20.15 45.95V46.05L20.25 46.15H20.15V45.95ZM20.15 45.95H19.85V45.85H19.95H20.05V45.75H19.95H19.85M19.85 45.75L19.75 45.85V45.75H19.85ZM19.85 45.75L19.95 45.65H19.85V45.55L19.65 45.65L19.45 45.35L19.35 45.45H19.25V45.55L19.35 45.65H19.25V45.75L19.35 45.85M17.95 42.35H18.05V42.45L18.15 42.55V42.65V42.75V42.85L18.25 42.95V43.05V43.15V43.25V43.35H18.35V43.45V43.55V43.65V43.75H18.45V43.85V43.95H18.55V44.05V44.15L18.65 44.25V44.35V44.45H18.75V44.55H18.85V44.65H18.95H19.05V44.75H19.15V44.85H19.25V44.95V45.05L19.35 45.25L19.25 45.35H19.15V45.45V45.55V45.65L19.35 45.85L19.45 45.95M19.35 45.85V45.95H19.45M19.45 45.95L19.65 46.05V46.15H19.75M18.55 44.15H18.65M17.95 42.35H17.85M17.95 42.35V42.25H17.85V42.15H17.95V42.05L17.85 41.95V41.85V41.75V41.65V41.45L17.75 41.35V41.15H17.65V41.05V40.95H17.55H17.45L17.35 40.85V40.75L17.25 40.65M17.25 40.65H17.15M17.25 40.65V40.55M17.25 40.55H17.15M9.75 24.95V25.05L9.64999 25.15V25.25L9.54999 25.35V25.45H9.44998V25.55V25.65H9.35001V25.75L9.25 25.85H9.35001L9.25 25.95L9.14999 26.05V26.15L9.04999 26.25L8.94998 26.35V26.45L8.75 26.65V26.75L8.64999 26.85V26.95H8.54999L8.64999 27.05H8.54999L8.64999 27.15L8.75 27.25V27.35V27.45L8.64999 27.55V27.65L8.54999 27.75V27.85H8.44998V27.95H8.35001L8.25 28.15V28.25H8.14999L8.04999 28.35V28.45L7.94998 28.55H7.85001V28.65H7.75V28.75H7.64999H7.54999L7.44998 28.85V29.15L7.35001 29.25V29.35L7.25 29.45V29.55V29.65H7.14999V29.75V29.85V29.95L7.04999 30.05V30.25V30.35V30.45L6.94998 30.55V30.65H6.85001L6.94998 30.75L6.85001 30.85V30.95V31.05L6.75 31.15V31.25V31.35V31.55V31.75V31.85L6.64999 31.95V32.05V32.15V32.25V32.35V32.45H6.54999V32.55V32.65H6.64999V32.75V32.85V32.95V33.05L6.54999 33.15H6.64999V33.25H6.75V33.35H6.85001H6.94998L7.04999 33.45H7.14999H7.25H7.35001H7.44998V33.55H7.54999H7.85001H8.14999L8.44998 33.45H8.54999L9.14999 33.25H9.25H9.35001H9.44998H9.54999H9.64999L9.85001 33.35H9.94998H10.05L10.25 33.45H10.35V33.55H10.45V33.65H10.55H10.65V33.75H10.75H10.85V33.85L11.05 33.95L11.15 34.05H11.35H11.45L11.55 34.15H11.65L11.75 34.25H11.85H11.95L12.05 34.35L12.25 34.65L12.35 34.75V34.85L12.45 34.95H12.55V35.05L12.65 35.15L12.75 35.25H12.85L12.95 35.35L13.05 35.45L13.15 35.55L13.25 35.75L13.45 35.95L13.55 36.05H13.65V36.15L13.75 36.35L13.85 36.45H13.95L14.05 36.55L14.15 36.65L14.25 36.85V37.15V37.25V37.35V37.45L14.35 37.55H14.45V37.65V37.75V37.85V37.95H14.55H14.65V38.05H14.75V37.95L14.85 38.05H14.95V38.15L15.05 38.25H15.15V38.35L15.25 38.25H15.35H15.45H15.55H15.65H15.75H15.85L16.05 38.35L16.15 38.45H16.35L16.55 38.85L16.65 38.95L16.75 39.15V39.25L16.85 39.45L16.95 39.55V39.65L17.05 39.75V39.85L17.15 39.95V40.05V40.15V40.25L17.25 40.35V40.45V40.55M15.85 38.25L15.95 38.35H15.85V38.25ZM8.54999 33.45V33.35M9.75 24.95H9.64999M9.75 24.95V24.85V24.75V24.65V24.55H9.85001V24.45V24.35V24.25V24.15M9.85001 24.15H9.75M9.85001 24.15H9.94998V24.05H10.05V23.95V23.85H10.15L10.25 23.75L10.35 23.65V23.45L10.45 23.35L10.55 23.25L10.45 23.15L10.55 23.05V22.85L10.65 22.75V22.65L10.75 22.55V22.45L10.85 22.15V22.05L10.95 21.95V21.85L11.05 21.75V21.65L10.95 21.35L11.05 21.25V21.15V20.95H10.95V20.85V20.75V20.65L10.85 20.45H10.75V20.35L10.65 20.25H10.55H10.45H10.35H10.25V20.35H10.15M10.15 20.35V20.45M10.35 16.15H10.45" stroke="white" stroke-width="0.5" stroke-linecap="round" stroke-linejoin="round"/>
</svg>
