<svg width="165" height="149" viewBox="0 0 165 149" fill="none" xmlns="http://www.w3.org/2000/svg">
<path d="M159.25 148.65L156.45 147.85L153.05 146.55L150.65 143.65L147.95 140.95L143.25 138.75L137.45 133.15L131.25 129.45L130.55 129.75L125.05 132.25L122.85 132.85L117.85 133.55L114.55 130.95L112.05 129.35L110.55 128.45L108.65 127.35L106.35 125.65L105.25 124.55L104.55 123.65L103.65 122.35L103.55 121.05L102.35 119.75L101.75 118.85L101.35 118.35L101.15 118.15L100.15 117.55L99.15 117.45L98.65 118.35L98.35 118.95L97.15 119.45L95.65 119.75L94.65 119.55L92.95 118.65L92.85 118.45L92.15 117.65L91.75 116.65L90.85 115.35L89.05 115.25L88.05 115.85L86.75 115.05L84.35 112.15L82.75 110.05L81.75 109.85L80.85 109.45L79.45 109.15L77.85 109.25L75.55 109.45L72.05 109.65L68.75 110.35L67.05 110.55L63.95 110.85L61.95 111.15H60.55L57.75 111.55L56.15 111.85L54.35 111.05L52.55 110.75L50.45 111.15L48.15 111.55L46.55 112.55L45.15 112.25L43.15 112.55L40.85 112.65L39.15 112.75L37.25 112.95L35.25 113.25L33.25 113.45L31.35 113.65L29.35 112.45L27.75 111.85L25.15 111.15L22.35 110.25L20.05 109.75H18.05L17.15 109.65L16.55 109.55H15.85L13.05 108.15L12.35 107.85L10.55 106.05L9.25 103.35L7.95001 100.95L6.54999 98.75L6.35001 98.55L4.64999 94.55L3.95001 90.75L2.35001 89.25L0.75 87.25L0.25 85.55H0.350006L0.450012 85.35H0.549988V85.25H0.649994H0.75H0.850006V85.15H0.950012V85.05H1.04999H1.14999L1.45001 84.95V84.85H1.54999H1.64999L1.75 84.75H1.85001H1.95001V84.65H2.04999H2.14999V84.55H2.25V84.45H2.35001V84.55H2.45001V84.45H2.54999H2.64999H2.75V84.35H2.85001H2.95001V84.25H3.04999H3.14999H3.25V84.15H3.35001H3.45001H3.54999V84.05H3.64999H3.75V83.95H3.85001H3.95001H4.04999V83.85H4.14999H4.25V83.75H4.35001V83.65H4.45001H4.54999H4.64999H4.75H4.85001V83.55H4.95001V83.45H5.04999H5.14999H5.25H5.35001L5.45001 83.35H5.54999H5.64999V83.25H5.75H5.85001H5.95001V83.15L6.14999 83.05L6.35001 83.15V83.05H6.54999H6.75L6.85001 82.95L7.04999 82.85H7.14999H7.25V82.75H7.35001H7.45001V82.65H7.54999H7.64999H7.75H7.85001V82.55H8.04999H8.14999L8.25 82.45H8.45001V82.35H8.54999L8.85001 82.25H9.04999V82.15L9.14999 82.05H9.25H9.35001H9.45001V81.95H9.54999L9.64999 81.85H9.75H9.85001H9.95001V81.75H10.05H10.15L10.45 81.65H10.55V81.55H10.65L10.75 81.45L10.85 81.35H10.95V81.25H11.05H11.15V81.15L11.25 81.25V81.15H11.35H11.45H11.55V81.05H11.65H11.75L11.85 80.95H11.95H12.05L12.25 80.75H12.35H12.45L12.55 80.65H12.65V80.55H12.75H12.95L13.15 80.45L13.55 80.25V80.15H13.65H13.75V80.05H13.85L14.05 79.95V79.85H14.25L14.55 79.65H14.75L14.85 79.45L14.95 79.35L15.15 79.25V79.15L15.25 79.05H15.35V78.95V78.85L15.45 78.95V78.85H15.55L15.85 78.75V78.65H15.95V78.55H16.05L16.15 78.45L16.25 78.35L16.35 78.25L16.45 78.35L16.95 77.95H17.05V77.85L17.15 77.75L17.25 77.65H17.35V77.55V77.45H17.45V77.35H17.55V77.25H17.65L17.55 77.15H17.65V77.05V76.95V76.85L17.85 76.45V76.35V76.15V75.95H17.95V75.85H18.05V75.75V75.65L18.15 75.55L18.65 75.35L18.85 74.95L18.95 74.85V74.75H19.05H19.15V74.65H19.25H19.35V74.55H19.45L19.55 74.35L19.75 74.15L19.95 73.95V73.75H20.05V73.65L20.15 73.45L20.25 73.35L20.35 73.25V73.15V73.05H20.45V72.85L20.65 72.75V72.55L20.75 72.65V72.55H20.85V72.25H20.95V72.15L21.05 72.05H20.95V71.95V71.85L21.05 71.65H21.15L21.25 71.55V71.45H21.35H21.45V71.35H21.55H21.65V71.25L21.75 71.15H21.95V71.05H22.05V70.95H22.15L22.25 70.85L22.35 70.75L22.45 70.65L22.55 70.55V70.45H22.65V70.35L22.75 70.25V70.15H22.85V70.05L22.75 69.95V70.05L22.85 69.95V69.75H22.75L22.85 69.85V69.75L22.95 69.55L23.05 69.65V69.55L22.95 69.45L22.65 69.65H22.75V69.75H22.65V69.65L22.55 69.85H22.45L22.75 69.45V69.35L22.55 69.25H22.85L22.95 69.15L23.05 69.05H23.15V68.95H23.25L23.35 68.75V68.55L23.45 68.45H23.55L23.65 68.35H23.75V68.25V68.15V68.05L23.85 68.15V68.05V67.95H23.95V67.85H24.05V67.75L24.15 67.65L24.25 67.55V67.45H24.35V67.35H24.45V67.25V67.15H24.55L24.65 67.05H24.75L24.85 66.95L24.95 66.85L25.05 66.75V66.65H25.25V66.55L25.35 66.45L25.45 66.35H25.55V66.25V66.15H25.75V66.05H25.85L26.85 65.25H26.95L27.05 65.15L27.15 65.05V64.95H27.25V64.85H27.35V64.75L27.55 64.65V64.55L27.65 64.45L27.85 64.35L27.95 64.15H28.05V64.05L28.25 63.95V63.85L28.65 63.45H28.75V63.35L28.85 63.15L28.95 63.05L29.25 62.75L29.35 62.65L29.65 62.15L29.85 61.85V61.75H29.95V61.65L30.05 61.55L30.15 61.45V61.35H30.25L30.35 61.25L30.45 61.15L30.75 60.95V60.85H30.85L31.35 60.55L31.45 60.45L31.65 60.25H31.75L31.95 60.15L32.05 60.05V59.95H32.25V59.85H32.35L32.45 59.75V59.65H32.55L32.75 59.45V59.35H32.85V59.25H32.95L33.05 59.15V59.05L33.15 58.95L33.25 58.85V58.75H33.35V58.65H33.45V58.55H33.55V58.45H33.65V58.35H33.75V58.25L33.85 58.15L33.95 58.05L34.05 57.95V57.85H34.15L34.25 57.75L34.35 57.65L34.45 57.55L34.55 57.45H34.65L34.75 57.35H34.85L34.95 57.25H35.05L35.15 57.15L35.25 57.05H35.35L35.45 56.85V56.75H35.65V56.65V56.55H35.75L35.85 56.45L35.95 56.35V56.45L36.05 56.35V56.25H36.15L36.25 56.15V56.05H36.35L36.45 55.75V55.65H36.55V55.45L36.65 55.25H36.75L37.05 54.75L37.15 54.65H37.25V54.55L37.35 54.35H37.45V54.25V53.85V53.75H37.55H37.65V53.65H37.75V53.55H37.85L37.95 53.45V53.35H38.05L38.15 53.25L38.25 53.15H38.35H38.45V53.05H38.55L38.65 52.95L38.75 52.85L38.85 52.75H38.95V52.65H39.05H39.15V52.55H39.25H39.35L39.45 52.45H39.55V52.35H39.75H39.85L40.35 52.25V52.15L40.55 52.05L40.85 51.95L40.95 51.85H41.05L41.25 51.75V51.65H41.35L41.65 51.45L41.75 51.35L41.95 51.25H42.05L42.15 51.15H42.25L42.35 51.05L42.45 50.95H42.55L42.65 50.85H42.75V50.75L42.95 50.65H43.05L43.35 50.55L43.75 50.25H43.85L43.95 50.15H44.05L44.65 49.85L45.25 49.55L45.85 49.25L46.45 48.95L46.75 48.75L47.45 48.45L47.85 48.25L48.75 47.85L49.55 47.35L51.45 46.35L53.65 45.05L56.95 43.25L59.55 41.75L61.25 40.65L61.35 40.55L62.05 40.05L64.25 38.65L64.75 38.25L65.95 37.45L66.35 37.15V37.05H66.45L66.55 36.95L66.65 36.85L66.75 36.75H66.85L67.25 36.35L67.35 36.25V36.15H67.45V36.05L67.55 35.95V35.85H67.65L67.75 35.75L67.85 35.65L67.95 35.55L68.05 35.45L68.15 35.35L68.25 35.25L68.35 35.15L68.45 35.05H68.55V34.95V34.85H68.65V34.75L68.75 34.65V34.55H68.85L68.95 34.45L69.15 34.35V34.25H69.25V34.15L69.35 34.05V33.95H69.45V33.85H69.55L69.65 33.65V33.55L69.75 33.45V33.35H69.85V33.25V33.15H69.95H70.05L70.15 33.05V32.95H70.25V32.85H70.35V32.75H70.45V32.65H70.55V32.55L70.65 32.65L70.75 32.55L70.85 32.35L70.95 32.25H70.85V32.15V31.95H70.95L71.05 31.85L71.15 31.75L71.05 31.65H71.15V31.55L71.25 31.45H71.35V31.35L71.45 31.25V31.15V31.05H71.55V30.95L71.65 30.85V30.75V30.55L71.75 30.45H71.85V30.35V30.25H71.95L72.05 30.15L72.25 29.95V29.85H72.35L72.45 29.75L72.55 29.65V29.55L72.65 29.45V29.35H72.75V29.25V29.15L72.85 29.05L72.75 28.95V28.85L72.85 28.95L73.05 28.85L73.15 28.65L73.25 28.45L73.35 28.35V28.25L73.45 28.15V28.05L73.55 27.95V27.85L73.65 27.75V27.65L73.75 27.55L73.85 27.45V27.35H73.95L74.05 27.25L74.15 27.15L74.25 27.05L74.35 26.95L74.45 26.85L74.55 26.75L74.65 26.65V26.55L74.75 26.45L74.85 26.35L74.95 26.25V26.15L75.15 26.05L75.25 25.95V25.85L75.35 25.75V25.65H75.45L75.55 25.55H75.65L75.75 25.45L75.85 25.35V25.25H75.95V25.15V25.05H76.05V24.95V24.85H76.15V24.75V24.65L76.25 24.75V24.65V24.55H76.35L76.65 24.15V24.05L76.95 23.95V23.85L77.15 23.75L77.25 23.65H77.35V23.55H77.45V23.45L77.55 23.35H77.65L77.75 23.25L77.85 23.15L77.95 23.05V22.95H78.05L78.15 22.85V22.75H78.25H78.35V22.65V22.55V22.45H78.45H78.55H78.65V22.35H78.75V22.25H78.85H78.95L79.05 22.15H79.15H79.25L79.35 22.05L79.55 21.85H79.65L79.85 21.75L80.05 21.65L80.15 21.55L80.25 21.45L80.35 21.35H80.45V21.25H80.55L80.65 21.15H80.75L80.85 21.05V20.95H80.95L81.15 20.75L81.45 20.45L81.55 20.35L82.05 19.95H82.15V19.85L82.25 19.75L82.55 19.45L82.65 19.15L82.75 18.75L83.05 18.15V18.05L83.15 17.85V17.75H83.25L83.35 17.65V17.55L83.45 17.45V17.35H83.55V17.25L83.65 17.15L83.75 17.05V16.95V16.85L83.85 16.75V16.65H83.75V16.55H83.85V16.45H83.75L83.65 16.55V16.45L83.55 16.55L83.45 16.65V16.75H83.35L83.45 16.55H83.55V16.45H83.65H83.75V16.35H83.85V16.25L83.95 16.15L84.05 16.05V15.95H84.15V15.85V15.75L84.25 15.65H84.35V15.55V15.45L84.45 15.35L84.55 15.25H84.65V15.15H84.75V15.05V14.95H84.85V14.85V14.75H84.95V14.65L85.05 14.55L85.15 14.45L85.25 14.35V14.25H85.35L85.45 14.15V14.05L85.55 13.95H85.65V13.85H85.75V13.75V13.65H85.85V13.55H85.95V13.45L86.15 13.35V13.25H86.25V13.15L86.35 13.05V12.95H86.45V12.85H86.55V12.75H86.65V12.65V12.55H86.75L86.85 12.45H86.95V12.35L87.05 12.25L87.15 12.15H87.25V12.05H87.35V11.95H87.45V11.85V11.75H87.55L87.65 11.65V11.55H87.75V11.45V11.35H87.85V11.25L87.95 11.15H87.85V11.05H87.95L88.05 10.95L88.15 10.85V10.75L88.25 10.65L88.15 10.55H88.25L88.35 10.35V10.25V10.15L88.45 10.05V9.94998V9.85001L88.55 9.75V9.64999H88.65V9.54999V9.44998V9.35001L88.75 9.25L88.85 9.14999V9.04999H88.95V8.94998H89.05V8.85001H89.15L89.25 8.75V8.64999L89.35 8.54999H89.45V8.44998H89.55L89.65 8.25H89.75L89.85 8.14999V8.04999V7.94998V7.85001V7.75V7.64999V7.54999H89.95V7.44998L90.05 7.35001L90.15 7.25L90.25 7.14999V7.04999H90.15V6.94998V6.85001V6.75H90.25L90.15 6.64999H90.25L90.15 6.54999H90.25V6.44998V6.35001H90.15L90.05 6.25L90.15 6.14999L90.25 6.04999L90.35 5.94998L90.45 5.75V5.64999V5.54999V5.44998V5.35001H90.55V5.14999H90.65L90.85 5.04999V4.94998L90.95 4.75V4.64999L90.85 4.54999L90.75 4.44998H90.85V4.35001V4.25V4.14999L90.95 4.04999L91.05 4.14999V4.04999H91.15V3.94998L91.05 3.85001V3.75H91.15V3.64999L91.25 3.54999H91.35V3.44998V3.35001L91.25 3.25V3.14999H91.35H91.45V3.04999V2.94998V2.85001H91.55V2.75H91.65H91.75H91.85V2.64999H91.95V2.54999H92.05V2.44998L92.15 2.35001V2.25L92.25 2.14999V2.04999H92.35V1.94998H92.25V1.75H92.35V1.64999H92.45V1.54999H92.55V1.44998H92.65V1.35001V1.25L92.55 1.14999H92.65H92.75V1.04999H92.85V0.949982H92.95V0.850006L93.05 0.75V0.649994H93.15V0.549988H93.25V0.449982V0.350006H93.35V0.25L93.65 0.350006L93.75 0.549988V1.04999L94.25 2.04999L94.15 2.35001L94.05 2.54999V2.75L93.95 2.85001L94.05 2.94998L94.25 3.25L94.45 3.35001V3.64999L94.35 4.04999L94.25 4.44998V4.75L94.35 4.94998L94.25 5.25L94.15 5.44998L93.75 5.94998L93.95 6.85001L94.25 7.75L94.85 7.54999L95.65 7.14999L96.05 6.94998L96.55 6.54999L96.85 6.35001L97.55 5.94998L98.85 5.85001L99.05 5.94998L99.75 4.64999L99.95 5.25L100.05 6.14999L99.85 6.85001L99.75 6.94998L99.55 7.85001H99.35L99.15 8.14999L99.05 8.25L98.85 8.44998L98.55 8.94998L98.45 9.25L98.65 9.54999L98.95 9.85001L99.45 9.94998L99.55 10.15L99.85 10.45L99.95 10.65L100.05 11.05L99.95 11.35V11.65L100.15 11.95L100.65 11.85L101.05 12.35L101.15 12.45L101.35 12.65L101.65 12.75L101.95 12.95L102.45 12.75H102.85H103.35L103.75 12.85L104.15 12.75L104.75 12.65L105.35 12.45L105.55 12.25L105.65 12.05L105.85 11.55L106.55 11.35L107.35 10.95L107.65 10.25L107.95 10.35L108.05 10.05H108.25L108.65 10.15H109.05L109.15 10.45L109.05 10.75L109.25 11.05V11.35H109.45L109.75 11.15L109.95 11.35L110.35 11.55L110.65 11.75H110.95H111.35L111.55 11.95L111.95 12.25L111.85 12.75L111.65 13.15V13.65L111.75 14.15L111.95 13.95H112.15L112.25 14.05L112.65 13.95L112.95 14.05L112.75 13.85L112.85 13.35L112.95 13.05L113.15 12.85L113.25 12.65L112.95 12.45V12.15V11.55L112.85 11.05L112.75 10.75L112.35 10.45L112.25 10.25L112.15 10.05L112.55 9.94998L112.85 10.25L113.05 10.55L113.25 10.75L113.65 11.25L113.85 11.75L114.15 11.95H114.35L114.75 12.05L115.05 11.95L115.35 11.75L115.55 10.95V10.35V9.85001L115.65 9.44998L116.25 9.14999L116.95 8.94998L117.25 9.75L117.95 10.85L118.75 11.25L118.65 12.05L119.45 12.55L120.15 12.85L120.35 12.35V11.85L120.55 11.45L120.65 11.25V10.55L120.85 10.85L121.05 11.15L121.15 11.45L121.25 11.75L121.65 11.65L122.35 11.25L123.05 11.45L123.55 11.75L124.15 12.25L124.35 11.85L124.45 11.65V11.45L124.35 11.25V10.75L124.95 10.55L125.05 10.75V11.05L125.35 10.85L125.45 10.35H126.25L126.45 9.94998L126.55 9.35001L126.85 8.94998L126.95 8.64999L127.05 8.35001L127.15 8.04999H127.25L127.65 7.94998L127.95 7.85001L128.55 8.04999L128.75 7.85001L128.95 7.75L129.15 7.64999L129.55 7.75H130.05L130.35 7.94998L130.45 8.25H131.25H131.85L132.35 8.94998L132.85 9.25L133.45 9.54999L133.75 9.85001L133.95 10.15L134.45 10.55L135.05 10.95L135.45 11.45L135.55 11.75L135.65 12.25L136.25 12.95L136.95 13.65L137.45 14.25L137.95 14.75L138.15 15.05L138.05 15.45L137.75 16.05L137.55 16.65L138.25 19.25L138.55 20.45L138.85 21.05L139.15 22.25L139.65 22.75L140.15 23.35L140.65 23.65V24.05L141.25 24.95L141.45 25.15L141.95 27.15V27.85V28.55L141.65 28.95L139.65 30.55L138.05 31.55L137.95 32.05L139.15 33.35L138.75 33.95L137.45 35.15L136.15 36.05L135.65 35.75L135.45 35.15L137.25 32.85L133.55 34.05L134.15 35.75V36.65L133.65 37.95L133.35 39.15L133.85 39.35L134.65 39.65V39.85L134.75 40.85L134.65 40.95L133.95 41.85L134.15 42.65L134.55 44.55L135.15 46.65L136.95 47.05L135.85 47.75L135.65 50.55L137.05 51.45L138.35 53.35L139.35 54.65L142.95 55.25L146.45 55.45L147.85 57.15L148.15 58.55L148.05 59.55L150.75 62.35L152.65 65.55L156.85 71.05L158.45 72.95L163.75 79.45L163.85 79.55V79.95V83.75V85.45V86.85V88.45V90.75L163.95 93.75V95.55V98.05V98.35V98.65V99.15V99.65V100.25V100.65V100.85V101.05V101.45V101.95V102.05V102.45V102.75V103.05V103.25V104.15V105.25V106.15V106.95V108.05V108.85V109.45V117.85V122.05V126.45V130.25V134.45V138.75V140.95L163.15 140.45V134.95V129.35V123.75V118.25H159.45H156.15H156.05V118.35L156.25 121.05L157.85 125.95L158.35 130.15L157.65 132.75L156.85 136.05L157.15 139.15L158.35 142.55L159.45 146.05V148.45L159.25 148.65Z" fill="#6F9C76"/>
<path d="M13.55 80.25L13.15 80.45L12.95 80.55H12.75H12.65V80.65H12.55L12.45 80.75H12.35H12.25L12.05 80.95H11.95H11.85L11.75 81.05H11.65H11.55V81.15H11.45H11.35H11.25V81.25L11.15 81.15V81.25H11.05H10.95V81.35H10.85L10.75 81.45L10.65 81.55H10.55V81.65H10.45L10.15 81.75H10.05H9.95001V81.85H9.85001H9.75H9.64999L9.54999 81.95H9.45001V82.05H9.35001H9.25H9.14999L9.04999 82.15V82.25H8.85001L8.54999 82.35H8.45001V82.45H8.25L8.14999 82.55H8.04999H7.85001V82.65H7.75H7.64999H7.54999H7.45001V82.75H7.35001H7.25V82.85H7.14999H7.04999L6.85001 82.95L6.75 83.05H6.54999H6.35001V83.15L6.14999 83.05L5.95001 83.15V83.25H5.85001H5.75H5.64999V83.35H5.54999H5.45001L5.35001 83.45H5.25H5.14999H5.04999H4.95001V83.55H4.85001V83.65H4.75H4.64999H4.54999H4.45001H4.35001V83.75H4.25V83.85H4.14999H4.04999V83.95H3.95001H3.85001H3.75V84.05H3.64999H3.54999V84.15H3.45001H3.35001H3.25V84.25H3.14999H3.04999H2.95001V84.35H2.85001H2.75V84.45H2.64999H2.54999H2.45001V84.55H2.35001V84.45H2.25V84.55H2.14999V84.65H2.04999H1.95001V84.75H1.85001H1.75L1.64999 84.85H1.54999H1.45001V84.95L1.14999 85.05H1.04999H0.950012V85.15H0.850006V85.25H0.75H0.649994H0.549988V85.35H0.450012L0.350006 85.55H0.25L0.75 87.25L2.35001 89.25L3.95001 90.75L4.64999 94.55L6.35001 98.55L6.54999 98.75L7.95001 100.95L9.25 103.35L10.55 106.05L12.35 107.85L13.05 108.15L15.85 109.55H16.55L17.15 109.65L18.05 109.75H20.05L22.35 110.25L25.15 111.15L27.75 111.85L29.35 112.45L31.35 113.65L33.25 113.45L35.25 113.25L37.25 112.95L39.15 112.75L40.85 112.65L43.15 112.55L45.15 112.25L46.55 112.55L48.15 111.55L50.45 111.15L52.55 110.75L54.35 111.05L56.15 111.85L57.75 111.55L60.55 111.15H61.95L63.95 110.85L67.05 110.55L68.75 110.35L72.05 109.65L75.55 109.45L77.85 109.25L79.45 109.15L80.85 109.45L81.75 109.85L82.75 110.05L84.35 112.15L86.75 115.05L88.05 115.85L89.05 115.25L90.85 115.35L91.75 116.65L92.15 117.65L92.85 118.45L92.95 118.65L94.65 119.55L95.65 119.75L97.15 119.45L98.35 118.95L98.65 118.35L99.15 117.45L100.15 117.55L101.15 118.15L101.35 118.35L101.75 118.85L102.35 119.75L103.55 121.05L103.65 122.35L104.55 123.65L105.25 124.55L106.35 125.65L108.65 127.35L110.55 128.45L112.05 129.35L114.55 130.95L117.85 133.55L122.85 132.85L125.05 132.25L130.55 129.75L131.25 129.45L137.45 133.15L143.25 138.75L147.95 140.95L150.65 143.65L153.05 146.55L156.45 147.85L159.25 148.65L159.45 148.45V146.05L158.35 142.55L157.15 139.15L156.85 136.05L157.65 132.75L158.35 130.15L157.85 125.95L156.25 121.05L156.05 118.35V118.25H156.15H159.45H163.15V123.75V129.35V134.95V140.45L163.95 140.95V138.75V134.45V130.25V126.45V122.05V117.85V109.45V108.85V108.05V106.95V106.15V105.25V104.15V103.25V103.05V102.75V102.45V102.05V101.95V101.45V101.05V100.85V100.65V100.25V99.65V99.15V98.65V98.35V98.05V95.55V93.75L163.85 90.75V88.45V86.85V85.45V83.75V79.95V79.55L163.75 79.45L158.45 72.95L156.85 71.05L152.65 65.55L150.75 62.35L148.05 59.55L148.15 58.55L147.85 57.15L146.45 55.45L142.95 55.25L139.35 54.65L138.35 53.35L137.05 51.45L135.65 50.55L135.85 47.75L136.95 47.05L135.15 46.65L134.55 44.55L134.15 42.65L133.95 41.85L134.65 40.95L134.75 40.85L134.65 39.85V39.65L133.85 39.35L133.35 39.15L133.65 37.95L134.15 36.65V35.75L133.55 34.05L137.25 32.85L135.45 35.15L135.65 35.75L136.15 36.05L137.45 35.15L138.75 33.95L139.15 33.35L137.95 32.05L138.05 31.55L139.65 30.55L141.65 28.95L141.95 28.55V27.85V27.15L141.45 25.15L141.25 24.95L140.65 24.05V23.65L140.15 23.35L139.65 22.75L139.15 22.25L138.85 21.05L138.55 20.45L138.25 19.25L137.55 16.65L137.75 16.05L138.05 15.45L138.15 15.05L137.95 14.75L137.45 14.25L136.95 13.65L136.25 12.95L135.65 12.25L135.55 11.75L135.45 11.45L135.05 10.95L134.45 10.55L133.95 10.15L133.75 9.85001L133.45 9.54999L132.85 9.25L132.35 8.94998L131.85 8.25H131.25H130.45L130.35 7.94998L130.05 7.75H129.55L129.15 7.64999L128.95 7.75L128.75 7.85001L128.55 8.04999L127.95 7.85001L127.65 7.94998L127.25 8.04999H127.15L127.05 8.35001L126.95 8.64999L126.85 8.94998L126.55 9.35001L126.45 9.94998L126.25 10.35H125.45L125.35 10.85L125.05 11.05V10.75L124.95 10.55L124.35 10.75V11.25L124.45 11.45V11.65L124.35 11.85L124.15 12.25L123.55 11.75L123.05 11.45L122.35 11.25L121.65 11.65L121.25 11.75L121.15 11.45L121.05 11.15L120.85 10.85L120.65 10.55V11.25L120.55 11.45L120.35 11.85V12.35L120.15 12.85L119.45 12.55L118.65 12.05L118.75 11.25L117.95 10.85L117.25 9.75L116.95 8.94998L116.25 9.14999L115.65 9.44998L115.55 9.85001V10.35V10.95L115.35 11.75L115.05 11.95L114.75 12.05L114.35 11.95H114.15L113.85 11.75L113.65 11.25L113.25 10.75L113.05 10.55L112.85 10.25L112.55 9.94998L112.15 10.05L112.25 10.25L112.35 10.45L112.75 10.75L112.85 11.05L112.95 11.55V12.15V12.45L113.25 12.65L113.15 12.85L112.95 13.05L112.85 13.35L112.75 13.85L112.95 14.05L112.65 13.95L112.25 14.05L112.15 13.95H111.95L111.75 14.15L111.65 13.65V13.15L111.85 12.75L111.95 12.25L111.55 11.95L111.35 11.75H110.95H110.65L110.35 11.55L109.95 11.35L109.75 11.15L109.45 11.35H109.25V11.05L109.05 10.75L109.15 10.45L109.05 10.15H108.65L108.25 10.05H108.05L107.95 10.35L107.65 10.25L107.35 10.95L106.55 11.35L105.85 11.55L105.65 12.05L105.55 12.25L105.35 12.45L104.75 12.65L104.15 12.75L103.75 12.85L103.35 12.75H102.85H102.45L101.95 12.95L101.65 12.75L101.35 12.65L101.15 12.45L101.05 12.35L100.65 11.85L100.15 11.95L99.95 11.65V11.35L100.05 11.05L99.95 10.65L99.85 10.45L99.55 10.15L99.45 9.94998L98.95 9.85001L98.65 9.54999L98.45 9.25L98.55 8.94998L98.85 8.44998L99.05 8.25L99.15 8.14999L99.35 7.85001H99.55L99.75 6.94998L99.85 6.85001L100.05 6.14999L99.95 5.25L99.75 4.64999L99.05 5.94998L98.85 5.85001L97.55 5.94998L96.85 6.35001L96.55 6.54999L96.05 6.94998L95.65 7.14999L94.85 7.54999L94.25 7.75L93.95 6.85001L93.75 5.94998L94.15 5.44998L94.25 5.25L94.35 4.94998L94.25 4.75V4.44998L94.35 4.04999L94.45 3.64999V3.35001L94.25 3.25L94.05 2.94998L93.95 2.85001L94.05 2.75V2.54999L94.15 2.35001L94.25 2.04999L93.75 1.04999V0.549988L93.65 0.350006L93.35 0.25V0.350006H93.25V0.449982V0.549988H93.15V0.649994H93.05V0.75L92.95 0.850006V0.949982H92.85V1.04999H92.75V1.14999H92.65H92.55L92.65 1.25V1.35001V1.44998H92.55V1.54999H92.45V1.64999H92.35V1.75H92.25V1.94998H92.35V2.04999H92.25V2.14999L92.15 2.25V2.35001L92.05 2.44998V2.54999H91.95V2.64999H91.85V2.75H91.75M9.64999 81.85V81.95M13.55 80.25H13.65M22.85 69.75V69.95L22.75 70.05V69.95L22.85 70.05V70.15H22.75V70.25L22.65 70.35V70.45H22.55V70.55L22.45 70.65L22.35 70.75L22.25 70.85L22.15 70.95H22.05V71.05H21.95V71.15H21.75L21.65 71.25V71.35H21.55H21.45V71.45H21.35H21.25V71.55L21.15 71.65H21.05L20.95 71.85V71.95V72.05H21.05L20.95 72.15V72.25H20.85V72.55H20.75V72.65L20.65 72.55V72.75L20.45 72.85V73.05H20.35V73.15V73.25L20.25 73.35L20.15 73.45L20.05 73.65V73.75H19.95V73.95L19.75 74.15L19.55 74.35L19.45 74.55H19.35V74.65H19.25H19.15V74.75H19.05H18.95V74.85L18.85 74.95L18.65 75.35L18.15 75.55L18.05 75.65V75.75V75.85H17.95V75.95H17.85V76.15V76.35V76.45L17.65 76.85V76.95V77.05V77.15H17.55L17.65 77.25H17.55V77.35H17.45V77.45H17.35V77.55V77.65H17.25L17.15 77.75L17.05 77.85V77.95H16.95L16.45 78.35L16.35 78.25L16.25 78.35L16.15 78.45L16.05 78.55H15.95V78.65H15.85V78.75L15.55 78.85H15.45V78.95L15.35 78.85V78.95V79.05H15.25L15.15 79.15V79.25L14.95 79.35L14.85 79.45L14.75 79.65H14.55L14.25 79.85H14.05V79.95L13.85 80.05H13.75V80.15H13.65H13.55V80.25M15.15 79.15H15.25M22.85 69.75H22.75M22.85 69.75V69.85L22.75 69.75M34.85 57.35H34.75L34.65 57.45H34.55L34.45 57.55L34.35 57.65L34.25 57.75L34.15 57.85H34.05V57.95L33.95 58.05L33.85 58.15L33.75 58.25V58.35H33.65V58.45H33.55V58.55H33.45V58.65H33.35V58.75H33.25V58.85L33.15 58.95L33.05 59.05V59.15L32.95 59.25H32.85V59.35H32.75V59.45L32.55 59.65H32.45V59.75L32.35 59.85H32.25V59.95H32.05V60.05L31.95 60.15L31.75 60.25H31.65L31.45 60.45L31.35 60.55L30.85 60.85H30.75V60.95L30.45 61.15L30.35 61.25L30.25 61.35H30.15V61.45L30.05 61.55L29.95 61.65V61.75H29.85V61.85L29.65 62.15L29.35 62.65L29.25 62.75L28.95 63.05L28.85 63.15L28.75 63.35V63.45H28.65L28.25 63.85V63.95L28.05 64.05V64.15H27.95L27.85 64.35L27.65 64.45L27.55 64.55V64.65L27.35 64.75V64.85H27.25V64.95H27.15V65.05L27.05 65.15L26.95 65.25H26.85L25.85 66.05H25.75V66.15H25.55V66.25V66.35H25.45L25.35 66.45L25.25 66.55V66.65H25.05V66.75L24.95 66.85L24.85 66.95L24.75 67.05H24.65L24.55 67.15H24.45V67.25V67.35H24.35V67.45H24.25V67.55L24.15 67.65L24.05 67.75V67.85H23.95V67.95H23.85V68.05V68.15L23.75 68.05V68.15V68.25V68.35H23.65L23.55 68.45H23.45L23.35 68.55V68.75L23.25 68.95H23.15V69.05H23.05L22.95 69.15L22.85 69.25H22.55L22.75 69.35V69.45L22.45 69.85H22.55L22.65 69.65L22.95 69.45L23.05 69.55V69.65L22.95 69.55L22.85 69.75M22.75 69.75V69.65H22.65M22.75 69.75H22.65V69.65M33.05 59.05H33.15M34.85 57.35H34.95M76.25 24.65H76.15V24.75V24.85H76.05V24.95V25.05H75.95V25.15V25.25H75.85V25.35L75.75 25.45L75.65 25.55H75.55L75.45 25.65H75.35V25.75L75.25 25.85V25.95L75.15 26.05L74.95 26.15V26.25L74.85 26.35L74.75 26.45L74.65 26.55V26.65L74.55 26.75L74.45 26.85L74.35 26.95L74.25 27.05L74.15 27.15L74.05 27.25L73.95 27.35H73.85V27.45L73.75 27.55L73.65 27.65V27.75L73.55 27.85V27.95L73.45 28.05V28.15L73.35 28.25V28.35L73.25 28.45L73.15 28.65L73.05 28.85L72.85 28.95L72.75 28.85V28.95L72.85 29.05L72.75 29.15V29.25V29.35H72.65V29.45L72.55 29.55V29.65L72.45 29.75L72.35 29.85H72.25V29.95L72.05 30.15L71.95 30.25H71.85V30.35V30.45H71.75L71.65 30.55V30.75V30.85L71.55 30.95V31.05H71.45V31.15V31.25L71.35 31.35V31.45H71.25L71.15 31.55V31.65H71.05L71.15 31.75L71.05 31.85L70.95 31.95H70.85V32.15V32.25H70.95L70.85 32.35L70.75 32.55L70.65 32.65L70.55 32.55V32.65H70.45V32.75H70.35V32.85H70.25V32.95H70.15V33.05L70.05 33.15H69.95H69.85V33.25V33.35H69.75V33.45L69.65 33.55V33.65L69.55 33.85H69.45V33.95H69.35V34.05L69.25 34.15V34.25H69.15V34.35L68.95 34.45L68.85 34.55H68.75V34.65L68.65 34.75V34.85H68.55V34.95V35.05H68.45L68.35 35.15L68.25 35.25L68.15 35.35L68.05 35.45L67.95 35.55L67.85 35.65L67.75 35.75L67.65 35.85H67.55V35.95L67.45 36.05V36.15H67.35V36.25L67.25 36.35L66.85 36.75H66.75L66.65 36.85L66.55 36.95L66.45 37.05H66.35V37.15L65.95 37.45L64.75 38.25L64.25 38.65L62.05 40.05L61.35 40.55L61.25 40.65L59.55 41.75L56.95 43.25L53.65 45.05L51.45 46.35L49.55 47.35L48.75 47.85L47.85 48.25L47.45 48.45L46.75 48.75L46.45 48.95L45.85 49.25L45.25 49.55L44.65 49.85L44.05 50.15H43.95L43.85 50.25H43.75L43.35 50.55L43.05 50.65H42.95L42.75 50.75V50.85H42.65L42.55 50.95H42.45L42.35 51.05L42.25 51.15H42.15L42.05 51.25H41.95L41.75 51.35L41.65 51.45L41.35 51.65H41.25V51.75L41.05 51.85H40.95L40.85 51.95L40.55 52.05L40.35 52.15V52.25L39.85 52.35H39.75H39.55V52.45H39.45L39.35 52.55H39.25H39.15V52.65H39.05H38.95V52.75H38.85L38.75 52.85L38.65 52.95L38.55 53.05H38.45V53.15H38.35H38.25L38.15 53.25L38.05 53.35H37.95V53.45L37.85 53.55H37.75V53.65H37.65V53.75H37.55H37.45V53.85V54.25V54.35H37.35L37.25 54.55V54.65H37.15L37.05 54.75L36.75 55.25H36.65L36.55 55.45V55.65H36.45V55.75L36.35 56.05H36.25V56.15L36.15 56.25H36.05V56.35L35.95 56.45V56.35L35.85 56.45L35.75 56.55H35.65V56.65V56.75H35.45V56.85L35.35 57.05H35.25L35.15 57.15L35.05 57.25H34.95L34.85 57.35M70.65 32.65V32.55M73.55 27.95H73.45M76.15 24.65L76.25 24.75V24.65M76.25 24.65V24.55H76.35L76.65 24.15V24.05L76.95 23.95V23.85L77.15 23.75M77.15 23.75H77.25V23.65M83.75 16.85V16.95V17.05L83.65 17.15L83.55 17.25V17.35H83.45V17.45L83.35 17.55V17.65L83.25 17.75H83.15V17.85L83.05 18.05V18.15L82.75 18.75L82.65 19.15L82.55 19.45L82.25 19.75L82.15 19.85V19.95H82.05L81.55 20.35L81.45 20.45L81.15 20.75L80.95 20.95H80.85V21.05L80.75 21.15H80.65L80.55 21.25H80.45V21.35H80.35L80.25 21.45L80.15 21.55L80.05 21.65L79.85 21.75L79.65 21.85H79.55L79.35 22.05L79.25 22.15H79.15H79.05L78.95 22.25H78.85H78.75V22.35H78.65V22.45H78.55H78.45H78.35V22.55V22.65V22.75H78.25H78.15V22.85L78.05 22.95H77.95V23.05L77.85 23.15L77.75 23.25L77.65 23.35H77.55L77.45 23.45V23.55H77.35V23.65H77.25L77.15 23.75M83.75 16.85L83.65 16.75M83.75 16.45H83.85V16.55H83.75V16.65H83.85V16.75L83.75 16.85M83.85 16.75H83.75M83.75 16.45L83.65 16.55V16.45M83.75 16.45H83.65M86.65 12.65V12.75H86.55V12.85H86.45V12.95H86.35V13.05L86.25 13.15V13.25H86.15V13.35L85.95 13.45V13.55H85.85V13.65H85.75V13.75V13.85H85.65V13.95H85.55L85.45 14.05V14.15L85.35 14.25H85.25V14.35L85.15 14.45L85.05 14.55L84.95 14.65V14.75H84.85V14.85V14.95H84.75V15.05V15.15H84.65V15.25H84.55L84.45 15.35L84.35 15.45V15.55V15.65H84.25L84.15 15.75V15.85V15.95H84.05V16.05L83.95 16.15L83.85 16.25V16.35H83.75V16.45M83.65 16.45L83.55 16.55M83.65 16.45H83.55V16.55M83.45 16.65V16.75H83.35L83.45 16.55H83.55L83.45 16.65ZM83.45 16.65H83.55M86.35 13.05H86.25M86.65 12.65H86.75V12.55M86.65 12.65V12.55H86.75M87.95 11.05V11.15L87.85 11.25V11.35H87.75V11.45V11.55H87.65V11.65L87.55 11.75H87.45V11.85V11.95H87.35V12.05H87.25V12.15H87.15L87.05 12.25L86.95 12.35V12.45H86.85L86.75 12.55M87.95 11.15H87.85V11.05H87.95M87.95 11.05L88.05 10.95L88.15 10.85V10.75L88.25 10.65L88.15 10.55H88.25L88.35 10.35V10.25M88.35 10.25H88.25M88.55 9.75L88.45 9.85001V9.94998V10.05L88.35 10.15V10.25M88.45 9.85001H88.55V9.75M90.55 5.14999V5.35001H90.45V5.44998V5.54999V5.64999V5.75L90.35 5.94998L90.25 6.04999L90.15 6.14999L90.05 6.25L90.15 6.35001H90.25V6.44998V6.54999H90.15L90.25 6.64999H90.15L90.25 6.75H90.15V6.85001V6.94998V7.04999H90.25V7.14999L90.15 7.25L90.05 7.35001L89.95 7.44998V7.54999H89.85V7.64999V7.75V7.85001V7.94998V8.04999V8.14999L89.75 8.25H89.65L89.55 8.44998H89.45V8.54999H89.35L89.25 8.64999V8.75L89.15 8.85001H89.05V8.94998H88.95V9.04999H88.85V9.14999L88.75 9.25L88.65 9.35001V9.44998V9.54999V9.64999H88.55V9.75M88.85 9.14999H88.75M91.45 2.94998V3.04999V3.14999H91.35H91.25V3.25L91.35 3.35001V3.44998V3.54999H91.25L91.15 3.64999V3.75H91.05V3.85001L91.15 3.94998V4.04999H91.05V4.14999L90.95 4.04999L90.85 4.14999V4.25V4.35001V4.44998H90.75L90.85 4.54999L90.95 4.64999V4.75L90.85 4.94998V5.04999L90.65 5.14999H90.55V5.25M91.45 2.94998H91.35M91.45 2.94998V2.85001H91.55V2.75H91.65M91.65 2.75V2.64999M91.65 2.75H91.75M91.75 2.75V2.64999M92.25 2.14999H92.15" stroke="white" stroke-width="0.5" stroke-linecap="round" stroke-linejoin="round"/>
</svg>
