<svg width="328" height="226" viewBox="0 0 328 226" fill="none" xmlns="http://www.w3.org/2000/svg">
<path d="M323.35 63.35H323.45L324.25 63.45L326.65 63.85H327.25V66.55V71.95V78.05V84.65V91.35L327.35 98.05V104.65V110.65V116.15V120.75V124.25V126.55V127.35V129.95L326.95 130.75H326.35H324.55H322.85H321.05H319.35H317.55H315.85H314.05H312.35H310.55H308.85H307.05H305.35H303.55H301.85H300.05H298.35H296.55H294.75H293.05H291.25H289.55H287.75H286.05H284.25H282.55H280.75H279.05H277.25H275.55H273.75H272.05H270.25H268.55H266.75H264.95H263.25H261.45H259.75H257.95H256.25H254.45H252.75H250.95H249.25H247.45H245.75H243.95H242.95H242.25H240.45H238.75H237.65H235.15H232.65H228.75H227.15H224.65H222.95H221.15H219.45H217.65H215.95H214.15H212.45H211.65H209.95H208.35H206.75H205.05H203.45H201.75L200.05 130.85H198.45H196.75H195.05H193.35H191.65H190.05H188.35H184.95H183.35H181.65H180.05H178.35H175.15H173.95H172.15H170.35H170.15H168.65H166.85H165.15H163.35H161.65L159.85 130.75L158.15 130.85L156.35 130.75H155.35H154.65H152.85V130.95V131.05H152.05V135.45V139.85V144.35V148.75V153.15V157.55V161.95V166.35V170.75V175.15V179.55V183.95V188.25V192.65V197.05V201.45V205.85V210.15V214.55V218.95V223.25V224.35L146.95 222.75L143.55 222.15L142.25 221.85L139.05 221.45L136.15 221.85L133.95 222.55L126.15 224.35L124.55 224.65L122.35 224.85L120.75 224.65L119.55 224.35L116.85 223.25L114.55 222.15L107.95 219.75L106.25 218.95L104.55 218.65L103.75 218.45L102.95 218.25L97.65 217.05L94.05 216.35L89.55 216.75L84.85 217.15L80.05 218.95L77.35 219.85L73.35 221.75L66.65 223.55L64.15 224.25L61.75 223.75L57.65 222.05L53.55 221.05L48.15 219.65L43.75 218.85L38.75 219.15L35.25 219.25L32.55 219.45H31.75L30.95 219.65L29.85 219.95L21.15 222.75L18.15 221.85L16.75 220.55L15.75 219.35L15.15 218.05L12.85 216.45L10.75 215.75L8.45001 215.35L6.55 214.75L4.35001 212.75L2.25 210.85L1.15001 209.65L0.850006 208.65L0.550003 207.85L0.25 207.35V207.25H0.350006L0.450012 207.15H0.550003V207.05H0.650009L0.75 206.95H0.850006V206.85H0.950012V206.75L1.05 206.65L1.15001 206.55V206.45H1.25V206.35H1.35001V206.25V206.15V206.05H1.45001V205.95V205.85V205.75V205.65H1.35001V205.55H1.25V205.45H1.35001V205.35V205.25V205.15V205.05V204.95H1.25V204.85V204.75V204.65V204.55V204.45V204.35V204.25V204.15H1.15001V204.05V203.95V203.85L1.25 203.75H1.15001L1.25 203.65V203.55L1.15001 203.45H1.25V203.35V203.25L1.35001 203.15V203.05V202.95V202.85V202.75V202.65V202.55V202.45V202.35H1.45001V202.25V202.15H1.55V202.05V201.95V201.85H1.65001V201.75V201.65V201.55H1.75V201.45V201.35V201.25H1.85001V201.15V201.05V200.95V200.85V200.75V200.65V200.55V200.45V200.35H1.95001V200.25V200.15V200.05H2.05V199.95L2.15001 199.85V199.75V199.65H2.25V199.55L2.35001 199.45V199.35H2.45001V199.25V199.15H2.55V199.05V198.95H2.65001V198.85V198.75V198.65V198.55V198.45H2.75V198.35V198.25H2.85001L2.95001 198.15V198.05V197.95H3.05V197.85V197.75V197.65L3.15001 197.55V197.45V197.35V197.25V197.15V197.05H3.25V196.95V196.85V196.75H3.35001V196.65V196.55H3.45001V196.45L3.55 196.35V196.25H3.65001L3.55 196.15V196.05H3.65001V195.95L3.75 195.85V195.75V195.65V195.55V195.45H3.85001V195.35L3.95001 195.25V195.15V195.05V194.95V194.85H4.05V194.75V194.65V194.55L4.15001 194.45V194.35L4.25 194.25V194.15H4.15001V194.05V193.95V193.85V193.75V193.65V193.55V193.45V193.35V193.25V193.15V193.05V192.95H4.05V192.85V192.75V192.65V192.55V192.45V192.35L3.95001 192.25H4.05V192.15V192.05V191.95V191.85V191.75V191.65V191.55V191.45L4.15001 191.35V191.25V191.15V191.05H4.25V190.95H4.35001V190.85V190.75V190.65H4.45001V190.55V190.45V190.35V190.25V190.15V190.05V189.95V189.85V189.75V189.65L4.55 189.55H4.45001V189.45L4.55 189.35V189.25V189.15V189.05V188.95V188.85V188.75V188.65H4.45001V188.55H4.55V188.45V188.35V188.25V188.15V188.05V187.95V187.85V187.75V187.65H4.65001V187.55V187.45V187.35V187.25V187.15V187.05V186.95L4.75 186.85V186.75V186.65V186.55V186.45V186.35V186.25V186.15V186.05H4.65001L4.75 185.95H4.65001V185.85V185.75V185.65L4.55 185.55V185.45L4.45001 185.35V185.25L4.35001 185.15V185.05V184.95V184.85V184.75H4.25L4.15001 184.65V184.55H4.05V184.45H3.95001V184.35H3.85001H3.75V184.25H3.65001V184.15H3.55V184.05V183.95V183.85V183.75H3.65001V183.65V183.55V183.45H3.75L3.65001 183.35H3.75V183.25V183.15V183.05V182.95V182.85V182.75H3.65001V182.65V182.55V182.45V182.35V182.25V182.15H3.55V182.05V181.95H3.45001V181.85L3.35001 181.75V181.65V181.55H3.45001V181.45V181.35L3.55 181.25V181.15H3.65001V181.05V180.95V180.85L3.75 180.75V180.65V180.55H3.65001V180.35L3.75 180.25V180.15V180.05V179.95V179.85V179.75V179.65V179.55V179.45V179.35V179.15V179.05L3.65001 178.95V178.85V178.75V178.65V178.55L3.55 178.45V178.35V178.25V178.15V178.05H3.45001V177.95V177.85V177.75V177.65L3.35001 177.45V177.35V177.15V177.05V176.95L3.45001 176.85V176.75V176.65L3.55 176.55V176.45V176.35H3.65001V176.25L3.75 176.15V176.05V175.95V175.85H3.85001V175.75V175.65V175.55H3.95001V175.45V175.35H4.05V175.25V175.15L4.15001 175.05V174.95H4.25V174.85V174.75H4.35001V174.65V174.55V174.45V174.35V174.25V174.15H4.45001V174.05V173.95V173.85V173.75V173.65V173.55V173.45V173.35V173.25L4.35001 173.15V173.05V172.95V172.85H4.25V172.75V172.65V172.55V172.45V172.35V172.25V172.15V171.95V171.85V171.75H4.35001V171.65H4.45001V171.55H4.55V171.45V171.35V171.25H4.65001V171.15L4.75 171.05V170.95H4.85001V170.85V170.75L4.95001 170.65V170.55L5.05 170.45V170.35V170.25H5.15001V170.15H5.05V170.05V169.95V169.85V169.75V169.65V169.55V169.45V169.35L5.15001 169.25L5.25 169.15V169.05H5.35001V168.95V168.85H5.45001V168.75H5.55V168.65V168.55H5.65001V168.45V168.35H5.75V168.25V168.15V168.05H5.85001V167.95V167.85V167.75L5.95001 167.65L6.05 167.55V167.45V167.35L6.15001 167.25V167.15V167.05V166.95V166.85V166.75V166.65H6.05V166.55V166.45V166.35V166.25V166.15V166.05V165.95V165.85V165.75H6.15001V165.65V165.55V165.45H6.25V165.35V165.25V165.15H6.35001V165.05V164.95V164.85H6.45001V164.75V164.65H6.55V164.55V164.45H6.65001V164.35H6.75V164.25L6.85001 164.15V164.05H6.95001V163.95V163.85V163.75H7.05V163.65V163.55V163.45H7.15001V163.35V163.25H7.25V163.15H7.35001V163.05H7.45001V162.95V162.85H7.55V162.75V162.65H7.65001V162.55H7.75V162.45H7.85001V162.35H7.95001V162.25H8.05V162.15L8.15001 162.05V161.95H8.25V161.85H8.35001V161.75L8.45001 161.65V161.55H8.55V161.45H8.65001L8.75 161.35L8.85001 161.25V161.15H8.95001V161.05H9.05V160.95H9.15001V160.85H9.25V160.75H9.35001V160.65V160.55L9.45001 160.45V160.35V160.25H9.55V160.15H9.65001V160.05H9.75V159.95H9.85001L9.75 159.85H9.85001V159.75H9.95001V159.65V159.55H10.05V159.45H10.15V159.35V159.25H10.25V159.15V159.05V158.95L10.35 158.85V158.75H10.45V158.65V158.55H10.55V158.45V158.35V158.25H10.65V158.15L10.75 158.05V157.95H10.85V157.85V157.75V157.65H10.95V157.55V157.45H11.05V157.35H11.15V157.25V157.15V157.05H11.25V156.95V156.85V156.75V156.65H11.35V156.55V156.45H11.45V156.35V156.25V156.15H11.55V156.05V155.95V155.85H11.65V155.75V155.65V155.55V155.45H11.75V155.35V155.25V155.15V155.05V154.95V154.85V154.75V154.65V154.55V154.45L11.65 154.35H11.75V154.25V154.15V154.05V153.95V153.85V153.75V153.55L11.85 153.45V153.35H11.75V153.25L11.65 153.15H11.75V153.05V152.95H11.85V152.85V152.75H11.95V152.65V152.55H12.05V152.45V152.35L12.15 152.25V152.15H12.25V152.05V151.95V151.85V151.75L12.35 151.65V151.55H12.25L12.35 151.45H12.25V151.35H12.35V151.25L12.45 151.15V151.05H12.55V150.95V150.85V150.75H12.65V150.65H12.75V150.55V150.45L12.85 150.35V150.25V150.15V150.05V149.95V149.85V149.75H12.95V149.65V149.55V149.45V149.35H13.05V149.25V149.15V149.05V148.95V148.85V148.75V148.65H13.15V148.55V148.45V148.35V148.25V148.15H13.25V148.05V147.95H13.35V147.85V147.75H13.45V147.65V147.55L13.55 147.45V147.35V147.25L13.65 147.15V147.05V146.95L13.75 146.85V146.75V146.65V146.55V146.45H13.85V146.35V146.25V146.15V146.05L13.95 145.95V145.85L14.05 145.75V145.65V145.55V145.45V145.35H14.15V145.25V145.15V145.05H14.25L14.15 144.95H14.25V144.85V144.75V144.65V144.55V144.45V144.35V144.25H14.35V144.15V144.05H14.45V143.95H14.55H14.65V143.85H14.75V143.75H14.85V143.65H14.95H15.05V143.55H15.15H15.25V143.45H15.35V143.35H15.45V143.25H15.55V143.15V143.05H15.65V142.95H15.75V142.85V142.75H15.85V142.65H15.95V142.55H16.05V142.45H16.15V142.35L16.25 142.25V142.15H16.35V142.05V141.95H16.45V141.85V141.75H16.55V141.65V141.55H16.65V141.45H16.75V141.35H16.85V141.25V141.15H16.95V141.05V140.95H17.05V140.85L17.15 140.75V140.65H17.25V140.55H17.35V140.45H17.45V140.35H17.55V140.25V140.15H17.65V140.05L17.75 139.95V139.85H17.85V139.75L17.95 139.65L18.05 139.55V139.45V139.35L18.15 139.25V139.15V139.05V138.95V138.85V138.75H18.25V138.65V138.55H18.35V138.45V138.35H18.45V138.25V138.15H18.55V138.05L18.65 137.95V137.85H18.75V137.75V137.65H18.85V137.55L18.95 137.45V137.35L19.05 137.25V137.15H19.15V137.05V136.95H19.25V136.85V136.75H19.35V136.65H19.45V136.55V136.45H19.55V136.35V136.25H19.65V136.15V136.05H19.75V135.95V135.85V135.75H19.85V135.65V135.55H19.95V135.45V135.35L20.05 135.25V135.15H19.95V135.05V134.95H20.05V134.85V134.75V134.65V134.55H20.15V134.45V134.35H20.25V134.25L20.35 134.15L20.45 134.05V133.95H20.55V133.85H20.65V133.75V133.65V133.55H20.75V133.35V133.25V133.15V133.05H20.85V132.95V132.85H20.95V132.75V132.65V132.55H21.05V132.45V132.35H21.15V132.25L21.25 132.15V132.05V131.95H21.35V131.85V131.75H21.45V131.65L21.55 131.55V131.35V131.25H21.65V131.15V131.05V130.95V130.85L21.75 130.75V130.65V130.55V130.45V130.35V130.15H21.85V130.05V129.95V129.85V129.75V129.65V129.55V129.45V129.35H21.95V129.25V129.15V129.05H22.05V128.95V128.85L22.15 128.75V128.65V128.55V128.45V128.35V128.25V128.15H22.05V128.05V127.95V127.85V127.75V127.65V127.55V127.45V127.35V127.25H22.15V127.15V127.05H22.05V126.95V126.85V126.45H22.15V126.35V126.25L22.25 126.15V126.05V125.95V125.85V125.75V125.65V125.55V125.45V125.35V125.25V125.15V125.05V124.95H22.15V124.85V124.75V124.65V124.55H22.05V124.45V124.35L21.95 124.25V124.15H21.85V124.05L21.75 123.95H21.85L21.75 123.85V123.95H21.65V123.85H21.75V123.75H21.65V123.65V123.55H21.55H21.45V123.45V123.35V123.25H21.55V123.15V123.05V122.95H21.65V122.85V122.75H21.75V122.65V122.55V122.45H21.85V122.35V122.25H21.95V122.15L22.05 122.05V121.95L22.15 121.85V121.75V121.65L22.25 121.55V121.45L22.35 121.35V121.25V121.15H22.45V121.05L22.55 120.95V120.85H22.65V120.75V120.65H22.75V120.55V120.45V120.35H22.85V120.25V120.15H22.95V120.05L23.05 119.95V119.85H23.15V119.75H23.25V119.65V119.55H23.35V119.45H23.45V119.35H23.55V119.25V119.15H23.65V119.05V118.95H23.75V118.85H23.85V118.75H23.95V118.65H24.05V118.55V118.45H24.15V118.35V118.25H24.25V118.15H24.35V118.05H24.45V117.95V117.85H24.55V117.75H24.65V117.65H24.75V117.55L24.85 117.45V117.35H24.95V117.25H25.05V117.15L25.15 117.05V116.95L25.25 116.85L25.35 116.75H25.45V116.65H25.55H25.65V116.55H25.75V116.45H25.85V116.35V116.25H25.95V116.15H26.05V116.05H26.15V115.95H26.25V115.85H26.35V115.75L26.45 115.65V115.55V115.45H26.55L26.65 115.35H26.75L26.85 115.25H26.95H27.05H27.15H27.25H27.35H27.45H27.55H27.65H27.75L27.85 115.15H27.95H28.05H28.15H28.25H28.35H28.45H28.55V115.05H28.65H28.75H28.85H28.95V114.95H29.05H29.15H29.25L29.35 114.85H29.45H29.55H29.65H29.75V114.75H29.85H29.95H30.05V114.65H30.15H30.25H30.35V114.55H30.45H30.55V114.45H30.65H30.75V114.35H30.85H30.95L31.05 114.25H31.15V114.15H31.25V114.05H31.35V113.95H31.45V113.85V113.75H31.55V113.65H31.65V113.55H31.75L31.85 113.45V113.35H31.95V113.25H32.05V113.15H32.15V113.05H32.25H32.35V112.95H32.45V112.85L32.55 112.75H32.65H32.75V112.65H32.85H32.95V112.55H33.05H33.15V112.45H33.25V112.35H33.35V112.25H33.45V112.15H33.55V112.05H33.65V111.95H33.75V111.85H33.85L33.95 111.75L34.05 111.65H34.15V111.55H34.25L34.35 111.45H34.45V111.35H34.55V111.25H34.65V111.15H34.75H34.85V111.05V110.95H34.95V110.85H35.05V110.75V110.65H35.15V110.55L35.25 110.45V110.35H35.35V110.25V110.15H35.45V110.05H35.55V109.95L35.65 109.85V109.75H35.75V109.65H35.85H35.95V109.55H36.05V109.45H36.15V109.35V109.25H36.25V109.15H36.35V109.05H36.45V108.95H36.55V108.85H36.65V108.75H36.75V108.65V108.55H36.85V108.45L36.95 108.35V108.25H37.05V108.15H37.15V108.05V107.95V107.85H37.25V107.75L37.35 107.65V107.55V107.45H37.45V107.35V107.25L37.55 107.15V107.05H37.65V106.95H37.75V106.85V106.75V106.65H37.85V106.55V106.45V106.35H37.95V106.25V106.15H38.05V106.05V105.95H38.15L38.25 105.85H38.35V105.75H38.45H38.55H38.65H38.75H38.85H38.95L39.05 105.85H39.15H39.35H39.55H39.65H39.75H39.85H40.05H40.15H40.25H40.35H40.45H40.55V105.75H40.65H40.75H40.85H40.95H41.15H41.25L41.35 105.65H41.45H41.65H41.75H41.85H41.95H42.05L42.15 105.55H42.25H42.35H42.45H42.55L42.65 105.45H42.75H42.85H42.95V105.35H43.05H43.15H43.25H43.35H43.45L43.55 105.25H43.65H43.75H43.85H43.95V105.15H44.05H44.15H44.25H44.35V105.05H44.45H44.55H44.65V104.95H44.75H44.85L44.95 104.85H45.05H45.15H45.25V104.75H45.35H45.45H45.55L45.65 104.65H45.75H45.85V104.55H45.95H46.05L46.15 104.45H46.25V104.35H46.35H46.45H46.55L46.65 104.25H46.75H46.85V104.15H46.95H47.05V104.05H47.15H47.25V103.95H47.35H47.45L47.55 103.85H47.65V103.75H47.75H47.85L47.95 103.65H48.05V103.55H48.15H48.25V103.45H48.35H48.45V103.35H48.55H48.65V103.25H48.75H48.85L48.95 103.15H49.05V103.05H49.15H49.25V102.95V102.85L49.35 102.95V102.85H49.45V102.75H49.55V102.65H49.65L49.75 102.55V102.45H49.85V102.35H49.95V102.25H50.05H50.15V102.15V102.05H50.25H50.35V101.95H50.45V101.85H50.55V101.75H50.65V101.65H50.75H50.85V101.55H50.95V101.45H51.05L51.15 101.35V101.25H51.25V101.15H51.35V101.05H51.45V100.95H51.55L51.65 100.85H51.75V100.75H51.85V100.65H51.95H52.05V100.55H52.15V100.45H52.25V100.35H52.35H52.45V100.25H52.55H52.65V100.15H52.75L52.85 100.05H52.95V99.95H53.05H53.15V99.85H53.25H53.35H53.45V99.75H53.55H53.65L53.75 99.65H53.85V99.55H53.95H54.05V99.45H54.15H54.25V99.35H54.35L54.45 99.25H54.55V99.15H54.65L54.75 99.05H54.85V98.95H54.95H55.05V98.85V98.75H55.15H55.25V98.65H55.35V98.55H55.45V98.45H55.55V98.35H55.65V98.25H55.75H55.85V98.15H55.95L56.05 98.05H56.15H56.25L56.35 97.95H56.45H56.55V97.85H56.65H56.75V97.75H56.85H56.95V97.65H57.05L57.15 97.55H57.25V97.45H57.35L57.45 97.35H57.55V97.25H57.65H57.75V97.15H57.85H57.95V97.05H58.05H58.15V96.95H58.25H58.35V96.85H58.45H58.55V96.75H58.65V96.65H58.75H58.85V96.55H58.95L59.05 96.45L59.15 96.35H59.25V96.25H59.35V96.15H59.45H59.55L59.65 96.05H59.75H59.85V95.95H59.95H60.05V95.85H60.15V95.75H60.25H60.35V95.65H60.45H60.55V95.55H60.65V95.45H60.75H60.85V95.35H60.95H61.05V95.25H61.15H61.25V95.15H61.35V95.05H61.45H61.55V94.95H61.65L61.75 94.85H61.85V94.75H61.95L62.05 94.65H62.15L62.25 94.55H62.35V94.45L62.45 94.55H62.55V94.45H62.45L62.55 94.35H62.65V94.25H62.75H62.85V94.15H62.95V94.05H63.05V93.95H63.15H63.25V93.85H63.35V93.75H63.45L63.55 93.65H63.65V93.55H63.75H63.85V93.45H63.95L64.05 93.35H64.15V93.25H64.25V93.15H64.35H64.45V93.05H64.55V92.95H64.65H64.75V92.85H64.85V92.75H64.95V92.65H65.05H65.15V92.55H65.25V92.45H65.35H65.45V92.35H65.55V92.25H65.65V92.15H65.75H65.85V92.05H65.95V91.95H66.05V91.85H66.15V91.75H66.25V91.65H66.35V91.55H66.45H66.55V91.45H66.65V91.35H66.75V91.25H66.85L66.95 91.15L67.05 91.05H67.15V90.95H67.25V90.85H67.35V90.75H67.45V90.65H67.55V90.55H67.65H67.75V90.45L67.85 90.35H67.95V90.25H68.05V90.15H68.15V90.05H68.25V89.95H68.35V89.85L68.45 89.75H68.55V89.65V89.55H68.65V89.45H68.75V89.35H68.85V89.25H68.95V89.15H69.05V89.05V88.95H69.15V88.85H69.25V88.75H69.35V88.65H69.45V88.55H69.55V88.45H69.65V88.35H69.75V88.25L69.85 88.15H69.95V88.05L70.05 87.95L70.15 87.85V87.75H70.25V87.65H70.35V87.55H70.45V87.45V87.35H70.55V87.25H70.65V87.15H70.75V87.05V86.95V86.85H70.85V86.75V86.65H70.95V86.55V86.45L71.05 86.35V86.25V86.15H71.15V86.05H71.25V85.95L71.35 85.85V85.75L71.45 85.65V85.55H71.55V85.45V85.35H71.65V85.25V85.15V85.05H71.75V84.95L71.85 84.85V84.75V84.65V84.55H71.95V84.45L72.05 84.35V84.25H72.15V84.15H72.25V84.05V83.95H72.35V83.85L72.45 83.75V83.65V83.55H72.55V83.45V83.35V83.25V83.15H72.65V83.05V82.95H72.55V82.85H72.65V82.75V82.65H72.75V82.55V82.45H72.85V82.35V82.25V82.15H72.95V82.05V81.95H73.05V81.85L73.15 81.75V81.65V81.55H73.25V81.45V81.35L73.35 81.25V81.15V81.05H73.45V80.95V80.85H73.55V80.75V80.65H73.65V80.55V80.45V80.35H73.75V80.25V80.15H73.85V80.05V79.95H73.95V79.85V79.75V79.65H74.05V79.55V79.45L74.15 79.35V79.25V79.15V79.05L74.25 78.95V78.85V78.75L74.35 78.65V78.55V78.45L74.45 78.35V78.25V78.15L74.55 78.05V77.95L74.65 77.85V77.75V77.65V77.55V77.45V77.35V77.25V77.15V77.05V76.95V76.85V76.75H74.75V76.65V76.55V76.45H74.85V76.35V76.25H74.95V76.15V76.05L75.05 75.95V75.85V75.75H75.15V75.65V75.55L75.25 75.45L75.15 75.25V75.15H75.25V75.05V74.95V74.85L75.35 74.75V74.65V74.55L75.45 74.45V74.35L75.55 74.25V74.15V74.05H75.65V73.95V73.85L75.75 73.75V73.65V73.55H75.85V73.45V73.35H75.95V73.25V73.15V73.05V72.95H76.05V72.85V72.75L76.15 72.65V72.55L76.25 72.45V72.35V72.25H76.35V72.15V72.05H76.45V71.95V71.85H76.55V71.75V71.65H76.65V71.55V71.45L76.75 71.35V71.25V71.15H76.85V71.05V70.95H76.95V70.85V70.75L77.05 70.65V70.55V70.45H77.15V70.35V70.25H77.25V70.15V70.05V69.95L77.35 69.85V69.75V69.65H77.45V69.55V69.45V69.35H77.55V69.25V69.15V69.05L77.65 68.85V68.75V68.65L77.35 68.55H77.25L77.35 68.45V68.55H77.45L77.65 68.65V68.55H77.75V68.45L77.85 68.35V68.15H77.95V67.95H78.05V67.85L78.15 67.75V67.65L78.25 67.55V67.45L78.35 67.35V67.25V67.15V67.05V66.95V66.85V66.75L78.25 66.65V66.55H78.15V66.45L78.05 66.35L77.95 66.75V66.65V66.55V66.35L77.75 66.45H77.65V66.55V66.65V66.75H77.55L77.65 66.35H77.55H78.05V66.25V66.15L78.15 65.95V65.85L78.35 65.45V65.35V65.25V65.15L78.45 65.05V64.95V64.85V64.75V64.65V64.55L78.55 64.45V64.35V64.25V64.15V64.05L78.65 63.95V63.85V63.75V63.65V63.55V63.45H78.75V63.35V63.25L78.85 63.15V63.05V62.95V62.85V62.75V62.65V62.55V62.45V62.35H78.95V62.25L79.05 62.15V62.05L79.15 61.95V61.85H79.25V61.75H79.35V61.65V61.55H79.45V61.45H79.55V61.35V61.25H79.65V61.15V61.05H79.75V60.95V60.85H79.85V60.75L79.95 60.65H79.85V60.55H79.95V60.45H80.05V60.35V60.25H80.15V60.15L80.25 60.05L80.35 59.95V59.85H80.45V59.75V59.65H80.55V59.55V59.45H80.65V59.35V59.25V59.15H80.75V59.05V58.95H80.85V58.85V58.75H80.95V58.65V58.55V58.45V58.35H81.05V58.25V58.15H81.15V58.05V57.95H81.25V57.85H81.35V57.75H81.45V57.65H81.55V57.55L81.65 57.45V57.35H81.75V57.25V57.15H81.85V57.05L81.95 56.95V56.85V56.75H82.05V56.65H82.15V56.55V56.45H82.25V56.35H82.35V56.25H82.45V56.15V56.05H82.55V55.95H82.65V55.85H82.75V55.75L82.85 55.65V55.55H82.95V55.45H83.05V55.35V55.25H83.15V55.15L83.25 55.05V54.95H83.35V54.85V54.75H83.45V54.65V54.55L83.55 54.45V54.35L83.65 54.25V54.15L83.75 54.05V53.95V53.85H83.85V53.75V53.65H83.95V53.55H84.05V53.45V53.35H84.15V53.25V53.15H84.25V53.05V52.95H84.35V52.85V52.75V52.65V52.55H84.45V52.45V52.35V52.25V52.15L84.55 52.05V51.95H84.45V51.85V51.75L84.55 51.65V51.55L84.65 51.45V51.35H84.75V51.25V51.15H84.85L84.95 51.05V50.95H85.05V50.85L85.15 50.75V50.65V50.55H85.25V50.45V50.35L85.35 50.25V50.15L85.45 50.05V49.95L85.55 49.85V49.75V49.65H85.65V49.55V49.45V49.35H85.75V49.25V49.15V49.05L85.85 48.95V48.85V48.75V48.65V48.55L85.95 48.45V48.35V48.25H86.05V48.15V48.05V47.95V47.85H86.15V47.75V47.65V47.55H86.25V47.45V47.35V47.25V47.15H86.35V47.05V46.95H86.45V46.85V46.75L86.55 46.65V46.55V46.45V46.35H86.65V46.25V46.15V46.05L86.75 45.95V45.85V45.75H86.85V45.65V45.55H86.95V45.45V45.35V45.25V45.15H87.05V44.95V44.85L87.15 44.75V44.65L87.25 44.55V44.45L87.35 44.25V44.15H87.45V44.05V43.95V43.85H87.55V43.75V43.65H87.65V43.55V43.45L87.75 43.35V43.25V43.15H87.85V43.05V42.95H87.95V42.85V42.75L88.05 42.65V42.55L88.15 42.45V42.35V42.25H88.25V42.15V42.05V41.95H88.35V41.85V41.75V41.65V41.55L88.45 41.45V41.35V41.25V41.15V41.05V40.95H88.55V40.85V40.75V40.65L88.65 40.55V40.45V40.35V40.25V40.15H88.75V40.05V39.95V39.85L88.85 39.75V39.65V39.55V39.45V39.35V39.25H88.95V39.15V39.05H89.05V38.95V38.85H89.15V38.75V38.65L89.25 38.55V38.45V38.35H89.35V38.25V38.15L89.45 38.05V37.95V37.85L89.55 37.75V37.65V37.55V37.45L89.65 37.35V37.25V37.15V37.05V36.95V36.85V36.75V36.65V36.55V36.45H89.75V36.35V36.25V36.15V36.05L89.85 35.95V35.85V35.75L89.95 35.65V35.55V35.45V35.35V35.25V35.15H90.05V35.05V34.95L90.15 34.85V34.75V34.65H90.25V34.55L90.35 34.45V34.35H90.45V34.25L90.55 34.05L90.65 33.95V33.85V33.75L90.75 33.65L90.85 33.45V33.35L90.95 33.25L91.05 33.15V33.05V32.95L91.15 32.85V32.75V32.65L91.25 32.55V32.45H91.35V32.35V32.25V32.15H91.45V32.05V31.95H91.55V31.85V31.75V31.65V31.55V31.45H91.65V31.35V31.25V31.15V31.05H91.75V30.95L91.85 30.85L91.95 30.75H92.05L92.15 30.65H92.25H92.35V30.55H92.45H92.55H92.65V30.45H92.75H92.85H92.95V30.35H93.05H93.15H93.25V30.25H93.35H93.45V30.15H93.55V30.05H93.65V29.95H93.75L93.85 29.85H93.95V29.75H94.05V29.65H94.15V29.55H94.25V29.45H94.35V29.35H94.45H94.55V29.25H94.65L94.75 29.15H94.85H94.95V29.05H95.05H95.15L95.25 28.95H95.35H95.45V28.85H95.55H95.65H95.75V28.75H95.85H95.95H96.05V28.65H96.15H96.25L96.35 28.55H96.45H96.55V28.45H96.65H96.75V28.35H96.85V28.25H96.95V28.15H97.05V28.05H97.15V27.95H97.25V27.85H97.35V27.75H97.45V27.65H97.55H97.65V27.55V27.45H97.75V27.35H97.85V27.25L97.95 27.15V27.05H98.05V26.95H98.15V26.85V26.75V26.65H98.25V26.55V26.45V26.35H98.35V26.25V26.15L98.45 26.05V25.95V25.85H98.55V25.75V25.65H98.65V25.55V25.45L98.75 25.35V25.25V25.15H98.85V25.05V24.95H98.95V24.85H99.05V24.75H99.15V24.65H99.25L99.35 24.55H99.45V24.45H99.55H99.65V24.35H99.75V24.25H99.85V24.15L99.95 24.05V23.95V23.85V23.75V23.65V23.55V23.45H100.05V23.35V23.25L100.15 23.15V23.05H100.25V22.95V22.75V22.65V22.55V22.45V22.35V22.25L100.35 22.15V22.05V21.95L100.45 21.85V21.75V21.65H100.55V21.55H100.65V21.45H100.75V21.35L100.85 21.25V21.15L100.95 21.05V20.95V20.85V20.75V20.65H101.05V20.55V20.45V20.35V20.25V20.15L100.95 20.05V19.95H101.05H101.15V19.85H101.25V19.75V19.65L101.15 19.55H101.25V19.45V19.35L101.35 19.25V19.15V19.05H101.45V18.95H101.55H101.65V18.85L101.75 18.95V18.85H101.85V18.75V18.65H101.95V18.55H102.05V18.45H102.15V18.35V18.25H102.25V18.15V18.05L102.35 17.95V17.85V17.75V17.65V17.55H102.45V17.45H102.55V17.35H102.65H102.75H102.85V17.25V17.15H102.95H103.05H103.15L103.25 17.05H103.35H103.45V16.95H103.55H103.65V16.85V16.75V16.65H103.75V16.55H103.85V16.45H103.95V16.35V16.25V16.15H103.85L103.75 16.25V16.15L103.85 16.05L103.95 16.15V16.05H104.05H104.15V15.95H104.25H104.35L104.45 15.85H104.55V15.75H104.65V15.65V15.55H104.75V15.45H104.95H105.05H105.15H105.25H105.45H105.55H105.65H105.75H105.85H105.95H106.05H106.25H106.35H106.45H106.55H106.65H106.75H106.85H106.95H107.05H107.15H107.25H107.35H107.45L107.55 15.35H107.65H107.75L107.85 15.25H107.95H108.05H108.15H108.25H108.35H108.45H108.55L108.65 15.15H108.75L108.85 15.05H108.95L109.05 14.95H109.15H109.25L109.35 14.85H109.45H109.55H109.65H109.75L109.85 14.75H109.95H110.05H110.15H110.25H110.45H110.55H110.65L110.75 14.65H110.85H110.95H111.05H111.25H111.45H111.55H111.65V14.55H111.75H111.85H111.95H112.05H112.15H112.25H112.35L112.45 14.45L112.55 14.55H112.65V14.45H112.75H112.85H112.95H113.05H113.25H113.35H113.45H113.55V14.35H113.65H113.75H113.85H113.95H114.05H114.15H114.25H114.35V14.25H114.45H114.55H114.65H114.75L114.85 14.15H114.95H115.05H115.15L115.25 14.05H115.35H115.45H115.55H115.65H115.75H115.85H115.95H116.05H116.15H116.25V13.95H116.35H116.45H116.55H116.65H116.75H116.85H116.95H117.05H117.15H117.25H117.35L117.45 13.85H117.55H117.65H117.75H117.85H117.95H118.05H118.15H118.25V13.75H118.35H118.45H118.55H118.65H118.75H118.85L118.95 13.65H119.05H119.15H119.25H119.35H119.45L119.55 13.55H119.65H119.75H119.85H119.95H120.05H120.15H120.25L120.35 13.45H120.45H120.55H120.65H120.75H120.85V13.35H120.95H121.05H121.15H121.25H121.35H121.45V13.25H121.55H121.65H121.75H121.85H121.95H122.05L122.15 13.15H122.25H122.35H122.45H122.55H122.65H122.75H122.85V13.05H122.95H123.05H123.15H123.25H123.35V12.95H123.45H123.55H123.65H123.75H123.85L123.95 12.85H124.05H124.15H124.25V12.75H124.35H124.55L124.65 12.65L124.75 12.55L125.15 12.45H125.25L125.55 12.35L127.55 12.05H127.65L127.85 11.95H128.05L128.35 11.85H128.45H128.55L128.65 11.75H128.85L129.95 11.55H130.05H130.15H130.25L131.25 11.35L131.75 11.15H131.95L132.45 11.05L133.85 10.75L134.35 10.65L136.75 10.25L139.75 9.54999H139.95H140.45L140.75 9.44995H140.85L140.95 9.34998L141.55 9.14996L142.85 8.94995L143.35 8.84998L143.75 8.64996L144.35 8.54999L144.55 8.44995L145.05 8.34998H145.65L146.25 8.14996L147.25 7.94995L147.45 7.84998H147.65L148.55 7.64996L148.65 7.54999H148.75L149.85 7.14996L150.15 7.04999H150.25V6.94995V6.84998H150.35V6.75H150.45V6.64996V6.54999H150.55H150.65V6.44995H150.75H150.85V6.34998H150.95H151.05V6.25H151.15V6.14996H151.25H151.35V6.04999H151.55V5.94995H151.65V5.84998H151.75H151.85V5.75H151.95H152.15V5.64996L152.45 5.54999L152.65 5.44995L152.85 5.34998H152.95L153.25 5.14996L153.45 5.04999L153.85 4.84998H153.95V4.75H154.15L154.35 4.54999V4.44995H154.45L154.95 4.14996H155.05V4.04999L155.35 3.94995L155.55 3.75L155.95 3.64996L156.05 3.54999L156.15 3.44995H156.35L156.65 3.34998L156.85 3.25L156.95 3.14996H157.15L157.25 3.04999H157.35H157.45V2.94995L157.85 2.84998V2.75H158.05L158.25 2.64996L158.45 2.54999L158.65 2.44995H158.75H158.85V2.34998H158.95L159.05 2.25H159.15H159.25H159.35H159.45L159.55 2.34998L159.65 2.25V2.14996L159.75 2.04999H159.85L159.95 1.94995H160.15L160.55 1.75H160.65V1.64996H160.85L160.95 1.54999H161.05H161.15L161.45 1.34998H161.55L162.15 1.04999H162.35L162.45 0.849976H162.55L162.75 0.75H162.85H162.95L163.05 0.649963L163.15 0.549988H163.35V0.449951H163.55L163.75 0.349976H163.85L164.05 0.25H164.15L164.25 0.349976L164.35 0.25L164.85 1.94995L166.45 3.94995L168.05 5.44995L168.75 9.25L170.45 13.25L170.65 13.45L172.05 15.65L173.35 18.05L174.65 20.75L176.45 22.55L177.15 22.85L179.95 24.25H180.65L181.25 24.35L182.15 24.45H184.15L186.45 24.95L189.25 25.85L191.85 26.55L193.45 27.15L195.45 28.35L197.35 28.15L199.35 27.95L201.35 27.65L203.25 27.45L204.95 27.35L207.25 27.25L209.25 26.95L210.65 27.25L212.25 26.25L214.55 25.85L216.65 25.45L218.45 25.75L220.25 26.55L221.85 26.25L224.65 25.85H226.05L228.05 25.55L231.15 25.25L232.85 25.05L236.15 24.35L239.65 24.15L241.95 23.95L243.55 23.85L244.95 24.15L245.85 24.55L246.85 24.75L248.45 26.85L250.85 29.75L252.15 30.55L253.15 29.95L254.95 30.05L255.85 31.35L256.25 32.35L256.95 33.15L257.05 33.35L258.75 34.25L259.75 34.45L261.25 34.15L262.45 33.65L262.75 33.05L263.25 32.15L264.25 32.25L265.25 32.85L265.45 33.05L265.85 33.55L266.45 34.45L267.65 35.75L267.75 37.05L268.65 38.35L269.35 39.25L270.45 40.35L272.75 42.05L274.65 43.15L276.15 44.05L278.65 45.65L281.95 48.25L286.95 47.55L289.15 46.95L294.65 44.45L295.35 44.15L301.55 47.85L307.35 53.45L312.05 55.65L314.75 58.35L317.15 61.25L320.55 62.55L323.35 63.35Z" fill="#6F9C76"/>
<path d="M1.25 204.35V204.45V204.55V204.65V204.75V204.85V204.95H1.35001V205.05V205.15V205.25V205.35V205.45H1.25V205.55H1.35001V205.65H1.45001V205.75V205.85V205.95V206.05H1.35001V206.15V206.25V206.35H1.25V206.45H1.15001V206.55L1.05 206.65L0.950012 206.75V206.85H0.850006V206.95H0.75L0.650009 207.05H0.550003V207.15H0.450012L0.350006 207.25H0.25V207.35L0.550003 207.85L0.850006 208.65L1.15001 209.65L2.25 210.85L4.35001 212.75L6.55 214.75L8.45001 215.35L10.75 215.75L12.85 216.45L15.15 218.05L15.75 219.35L16.75 220.55L18.15 221.85L21.15 222.75L29.85 219.95L30.95 219.65L31.75 219.45H32.55L35.25 219.25L38.75 219.15L43.75 218.85L48.15 219.65L53.55 221.05L57.65 222.05L61.75 223.75L64.15 224.25L66.65 223.55L73.35 221.75L77.35 219.85L80.05 218.95L84.85 217.15L89.55 216.75L94.05 216.35L97.65 217.05L102.95 218.25L103.75 218.45L104.55 218.65L106.25 218.95L107.95 219.75L114.55 222.15L116.85 223.25L119.55 224.35L120.75 224.65L122.35 224.85L124.55 224.65L126.15 224.35L133.95 222.55L136.15 221.85L139.05 221.45L142.25 221.85L143.55 222.15L146.95 222.75L152.05 224.35V223.25V218.95V214.55V210.15V205.85V201.45V197.05V192.65V188.25V183.95V179.55V175.15V170.75V166.35V161.95V157.55V153.15V148.75V144.35V139.85V135.45V131.05H152.85V130.95V130.75H154.65H155.35H156.35L158.15 130.85L159.85 130.75L161.65 130.85H163.35H165.15H166.85H168.65H170.15H170.35H172.15H173.95H175.15H178.35H180.05H181.65H183.35H184.95H188.35H190.05H191.65H193.35H195.05H196.75H198.45H200.05L201.75 130.75H203.45H205.05H206.75H208.35H209.95H211.65H212.45H214.15H215.95H217.65H219.45H221.15H222.95H224.65H227.15H228.75H232.65H235.15H237.65H238.75H240.45H242.25H242.95H243.95H245.75H247.45H249.25H250.95H252.75H254.45H256.25H257.95H259.75H261.45H263.25H264.95H266.75H268.55H270.25H272.05H273.75H275.55H277.25H279.05H280.75H282.55H284.25H286.05H287.75H289.55H291.25H293.05H294.75H296.55H298.35H300.05H301.85H303.55H305.35H307.05H308.85H310.55H312.35H314.05H315.85H317.55H319.35H321.05H322.85H324.55H326.35H326.95L327.35 129.95V127.35V126.55V124.25V120.75V116.15V110.65V104.65V98.05L327.25 91.35V84.65V78.05V71.95V66.55V63.85H326.65L324.25 63.45L323.45 63.35H323.35L320.55 62.55L317.15 61.25L314.75 58.35L312.05 55.65L307.35 53.45L301.55 47.85L295.35 44.15L294.65 44.45L289.15 46.95L286.95 47.55L281.95 48.25L278.65 45.65L276.15 44.05L274.65 43.15L272.75 42.05L270.45 40.35L269.35 39.25L268.65 38.35L267.75 37.05L267.65 35.75L266.45 34.45L265.85 33.55L265.45 33.05L265.25 32.85L264.25 32.25L263.25 32.15L262.75 33.05L262.45 33.65L261.25 34.15L259.75 34.45L258.75 34.25L257.05 33.35L256.95 33.15L256.25 32.35L255.85 31.35L254.95 30.05L253.15 29.95L252.15 30.55L250.85 29.75L248.45 26.85L246.85 24.75L245.85 24.55L244.95 24.15L243.55 23.85L241.95 23.95L239.65 24.15L236.15 24.35L232.85 25.05L231.15 25.25L228.05 25.55L226.05 25.85H224.65L221.85 26.25L220.25 26.55L218.45 25.75L216.65 25.45L214.55 25.85L212.25 26.25L210.65 27.25L209.25 26.95L207.25 27.25L204.95 27.35L203.25 27.45L201.35 27.65L199.35 27.95L197.35 28.15L195.45 28.35L193.45 27.15L191.85 26.55L189.25 25.85L186.45 24.95L184.15 24.45H182.15L181.25 24.35L180.65 24.25H179.95L177.15 22.85L176.45 22.55L174.65 20.75L173.35 18.05L172.05 15.65L170.65 13.45L170.45 13.25L168.75 9.25L168.05 5.44995L166.45 3.94995L164.85 1.94995L164.35 0.25L164.25 0.349976L164.15 0.25H164.05L163.85 0.349976H163.75L163.55 0.449951H163.35V0.549988H163.15L163.05 0.649963L162.95 0.75H162.85H162.75L162.55 0.849976H162.45L162.35 1.04999H162.15L161.55 1.34998H161.45L161.15 1.54999H161.05H160.95L160.85 1.64996H160.65V1.75H160.55L160.15 1.94995H159.95L159.85 2.04999H159.75L159.65 2.14996V2.25M1.25 204.35H1.35001M1.25 204.35V204.25V204.15H1.15001V204.05V203.95V203.85L1.25 203.75H1.15001L1.25 203.65V203.55L1.15001 203.45H1.25V203.35V203.25L1.35001 203.15V203.05V202.95V202.85V202.75V202.65V202.55V202.45V202.35H1.45001V202.25V202.15H1.55V202.05V201.95V201.85H1.65001V201.75V201.65V201.55H1.75V201.45V201.35V201.25H1.85001V201.15V201.05V200.95V200.85V200.75V200.65V200.55V200.45V200.35H1.95001V200.25V200.15V200.05H2.05V199.95L2.15001 199.85V199.75V199.65H2.25V199.55L2.35001 199.45V199.35H2.45001V199.25V199.15H2.55V199.05V198.95H2.65001V198.85V198.75V198.65V198.55V198.45H2.75V198.35V198.25H2.85001L2.95001 198.15V198.05V197.95H3.05V197.85V197.75V197.65L3.15001 197.55V197.45V197.35V197.25V197.15M3.15001 197.15H3.25M13.05 149.05V149.15V149.25V149.35H12.95V149.45V149.55V149.65V149.75H12.85V149.85V149.95V150.05V150.15V150.25V150.35L12.75 150.45V150.55V150.65H12.65V150.75H12.55V150.85V150.95V151.05H12.45V151.15L12.35 151.25V151.35H12.25V151.45H12.35L12.25 151.55H12.35V151.65L12.25 151.75V151.85V151.95V152.05V152.15H12.15V152.25L12.05 152.35V152.45V152.55H11.95V152.65V152.75H11.85V152.85V152.95H11.75V153.05V153.15H11.65L11.75 153.25V153.35H11.85V153.45L11.75 153.55V153.75V153.85V153.95V154.05V154.15V154.25V154.35H11.65L11.75 154.45V154.55V154.65V154.75V154.85V154.95V155.05V155.15V155.25V155.35V155.45H11.65V155.55V155.65V155.75V155.85H11.55V155.95V156.05V156.15H11.45V156.25V156.35V156.45H11.35V156.55V156.65H11.25V156.75V156.85V156.95V157.05H11.15V157.15V157.25V157.35H11.05V157.45H10.95V157.55V157.65H10.85V157.75V157.85V157.95H10.75V158.05L10.65 158.15V158.25H10.55V158.35V158.45V158.55H10.45V158.65V158.75H10.35V158.85L10.25 158.95V159.05V159.15V159.25H10.15V159.35V159.45H10.05V159.55H9.95001V159.65V159.75H9.85001V159.85H9.75L9.85001 159.95H9.75V160.05H9.65001V160.15H9.55V160.25H9.45001V160.35V160.45L9.35001 160.55V160.65V160.75H9.25V160.85H9.15001V160.95H9.05V161.05H8.95001V161.15H8.85001V161.25L8.75 161.35L8.65001 161.45H8.55V161.55H8.45001V161.65L8.35001 161.75V161.85H8.25V161.95H8.15001V162.05L8.05 162.15V162.25H7.95001V162.35H7.85001V162.45H7.75V162.55H7.65001V162.65H7.55V162.75V162.85H7.45001V162.95V163.05H7.35001V163.15H7.25V163.25H7.15001V163.35V163.45H7.05V163.55V163.65V163.75H6.95001V163.85V163.95V164.05H6.85001V164.15L6.75 164.25V164.35H6.65001V164.45H6.55V164.55V164.65H6.45001V164.75V164.85H6.35001V164.95V165.05V165.15H6.25V165.25V165.35V165.45H6.15001V165.55V165.65V165.75H6.05V165.85V165.95V166.05V166.15V166.25V166.35V166.45V166.55V166.65H6.15001V166.75V166.85V166.95V167.05V167.15V167.25L6.05 167.35V167.45V167.55L5.95001 167.65L5.85001 167.75V167.85V167.95V168.05H5.75V168.15V168.25V168.35H5.65001V168.45V168.55H5.55V168.65V168.75H5.45001V168.85H5.35001V168.95V169.05H5.25V169.15L5.15001 169.25L5.05 169.35V169.45V169.55V169.65V169.75V169.85V169.95V170.05V170.15H5.15001V170.25H5.05V170.35V170.45L4.95001 170.55V170.65L4.85001 170.75V170.85V170.95H4.75V171.05L4.65001 171.15V171.25H4.55V171.35V171.45V171.55H4.45001V171.65H4.35001V171.75H4.25V171.85V171.95V172.15V172.25V172.35V172.45V172.55V172.65V172.75V172.85H4.35001V172.95V173.05V173.15L4.45001 173.25V173.35V173.45V173.55V173.65V173.75V173.85V173.95V174.05V174.15H4.35001V174.25V174.35V174.45V174.55V174.65V174.75H4.25V174.85V174.95H4.15001V175.05L4.05 175.15V175.25V175.35H3.95001V175.45V175.55H3.85001V175.65V175.75V175.85H3.75V175.95V176.05V176.15L3.65001 176.25V176.35H3.55V176.45V176.55L3.45001 176.65V176.75V176.85L3.35001 176.95V177.05V177.15V177.35V177.45L3.45001 177.65V177.75V177.85V177.95V178.05H3.55V178.15V178.25V178.35V178.45L3.65001 178.55V178.65V178.75V178.85V178.95L3.75 179.05V179.15V179.35V179.45V179.55V179.65V179.75V179.85V179.95V180.05V180.15V180.25L3.65001 180.35V180.55H3.75V180.65V180.75L3.65001 180.85V180.95V181.05V181.15H3.55V181.25L3.45001 181.35V181.45V181.55H3.35001V181.65V181.75L3.45001 181.85V181.95H3.55V182.05V182.15H3.65001V182.25V182.35V182.45V182.55V182.65V182.75H3.75V182.85V182.95V183.05V183.15V183.25V183.35H3.65001L3.75 183.45H3.65001V183.55V183.65V183.75H3.55V183.85V183.95V184.05V184.15H3.65001V184.25H3.75V184.35H3.85001H3.95001V184.45H4.05V184.55H4.15001V184.65L4.25 184.75H4.35001V184.85V184.95V185.05V185.15L4.45001 185.25V185.35L4.55 185.45V185.55L4.65001 185.65V185.75V185.85V185.95H4.75L4.65001 186.05H4.75V186.15V186.25V186.35V186.45V186.55V186.65V186.75V186.85L4.65001 186.95V187.05V187.15V187.25V187.35V187.45V187.55V187.65H4.55V187.75V187.85V187.95V188.05V188.15V188.25V188.35V188.45V188.55H4.45001V188.65H4.55V188.75V188.85V188.95V189.05V189.15V189.25V189.35L4.45001 189.45V189.55H4.55L4.45001 189.65V189.75V189.85V189.95V190.05V190.15V190.25V190.35V190.45V190.55V190.65H4.35001V190.75V190.85V190.95H4.25V191.05H4.15001V191.15V191.25V191.35L4.05 191.45V191.55V191.65V191.75V191.85V191.95V192.05V192.15V192.25H3.95001L4.05 192.35V192.45V192.55V192.65V192.75V192.85V192.95H4.15001V193.05V193.15V193.25V193.35V193.45V193.55V193.65V193.75V193.85V193.95V194.05V194.15H4.25V194.25L4.15001 194.35V194.45L4.05 194.55V194.65V194.75V194.85H3.95001V194.95V195.05V195.15V195.25L3.85001 195.35V195.45H3.75V195.55V195.65V195.75V195.85L3.65001 195.95V196.05H3.55V196.15L3.65001 196.25H3.55V196.35L3.45001 196.45V196.55H3.35001V196.65V196.75H3.25V196.85V196.95V197.05H3.15001V197.15M4.45001 189.45H4.55M11.85 153.45H11.75M13.05 149.05H12.95M21.75 123.95L21.85 124.05V124.15H21.95V124.25L22.05 124.35V124.45V124.55H22.15V124.65V124.75V124.85V124.95H22.25V125.05V125.15V125.25V125.35V125.45V125.55V125.65V125.75V125.85V125.95V126.05V126.15L22.15 126.25V126.35V126.45H22.05V126.85V126.95V127.05H22.15V127.15V127.25H22.05V127.35V127.45V127.55V127.65V127.75V127.85V127.95V128.05V128.15H22.15V128.25V128.35V128.45V128.55V128.65V128.75L22.05 128.85V128.95V129.05H21.95V129.15V129.25V129.35H21.85V129.45V129.55V129.65V129.75V129.85V129.95V130.05V130.15H21.75V130.35V130.45V130.55V130.65V130.75L21.65 130.85V130.95V131.05V131.15V131.25H21.55V131.35V131.55L21.45 131.65V131.75H21.35V131.85V131.95H21.25V132.05V132.15L21.15 132.25V132.35H21.05V132.45V132.55H20.95V132.65V132.75V132.85H20.85V132.95V133.05H20.75V133.15V133.25V133.35V133.55H20.65V133.65V133.75V133.85H20.55V133.95H20.45V134.05L20.35 134.15L20.25 134.25V134.35H20.15V134.45V134.55H20.05V134.65V134.75V134.85V134.95H19.95V135.05V135.15H20.05V135.25L19.95 135.35V135.45V135.55H19.85V135.65V135.75H19.75V135.85V135.95V136.05H19.65V136.15V136.25H19.55V136.35V136.45H19.45V136.55V136.65H19.35V136.75H19.25V136.85V136.95H19.15V137.05V137.15H19.05V137.25L18.95 137.35V137.45L18.85 137.55V137.65H18.75V137.75V137.85H18.65V137.95L18.55 138.05V138.15H18.45V138.25V138.35H18.35V138.45V138.55H18.25V138.65V138.75H18.15V138.85V138.95V139.05V139.15V139.25L18.05 139.35V139.45V139.55L17.95 139.65L17.85 139.75V139.85H17.75V139.95L17.65 140.05V140.15H17.55V140.25V140.35H17.45V140.45H17.35V140.55H17.25V140.65H17.15V140.75L17.05 140.85V140.95H16.95V141.05V141.15H16.85V141.25V141.35H16.75V141.45H16.65V141.55H16.55V141.65V141.75H16.45V141.85V141.95H16.35V142.05V142.15H16.25V142.25L16.15 142.35V142.45H16.05V142.55H15.95V142.65H15.85V142.75H15.75V142.85V142.95H15.65V143.05H15.55V143.15V143.25H15.45V143.35H15.35V143.45H15.25V143.55H15.15H15.05V143.65H14.95H14.85V143.75H14.75V143.85H14.65V143.95H14.55H14.45V144.05H14.35V144.15V144.25H14.25V144.35V144.45V144.55V144.65V144.75V144.85V144.95H14.15L14.25 145.05H14.15V145.15V145.25V145.35H14.05V145.45V145.55V145.65V145.75L13.95 145.85V145.95L13.85 146.05V146.15V146.25V146.35V146.45H13.75V146.55V146.65V146.75V146.85L13.65 146.95V147.05V147.15L13.55 147.25V147.35V147.45L13.45 147.55V147.65V147.75H13.35V147.85V147.95H13.25V148.05V148.15H13.15V148.25V148.35V148.45V148.55V148.65H13.05V148.75V148.85V148.95V149.05M21.85 124.05H21.75M21.75 123.95H21.85L21.75 123.85M21.75 123.95V123.85M21.75 123.95H21.65M21.75 123.85H21.65V123.95M21.75 123.85V123.75H21.65V123.65V123.55H21.55H21.45V123.45M21.65 123.95V124.05V124.15H21.75M21.45 123.45H21.55M62.75 94.25H62.65V94.35H62.55L62.45 94.45H62.55V94.55H62.45L62.35 94.45V94.55H62.25L62.15 94.65H62.05L61.95 94.75H61.85V94.85H61.75L61.65 94.95H61.55V95.05H61.45H61.35V95.15H61.25V95.25H61.15H61.05V95.35H60.95H60.85V95.45H60.75H60.65V95.55H60.55V95.65H60.45H60.35V95.75H60.25H60.15V95.85H60.05V95.95H59.95H59.85V96.05H59.75H59.65L59.55 96.15H59.45H59.35V96.25H59.25V96.35H59.15L59.05 96.45L58.95 96.55H58.85V96.65H58.75H58.65V96.75H58.55V96.85H58.45H58.35V96.95H58.25H58.15V97.05H58.05H57.95V97.15H57.85H57.75V97.25H57.65H57.55V97.35H57.45L57.35 97.45H57.25V97.55H57.15L57.05 97.65H56.95V97.75H56.85H56.75V97.85H56.65H56.55V97.95H56.45H56.35L56.25 98.05H56.15H56.05L55.95 98.15H55.85V98.25H55.75H55.65V98.35H55.55V98.45H55.45V98.55H55.35V98.65H55.25V98.75H55.15H55.05V98.85V98.95H54.95H54.85V99.05H54.75L54.65 99.15H54.55V99.25H54.45L54.35 99.35H54.25V99.45H54.15H54.05V99.55H53.95H53.85V99.65H53.75L53.65 99.75H53.55H53.45V99.85H53.35H53.25H53.15V99.95H53.05H52.95V100.05H52.85L52.75 100.15H52.65V100.25H52.55H52.45V100.35H52.35H52.25V100.45H52.15V100.55H52.05V100.65H51.95H51.85V100.75H51.75V100.85H51.65L51.55 100.95H51.45V101.05H51.35V101.15H51.25V101.25H51.15V101.35L51.05 101.45H50.95V101.55H50.85V101.65H50.75H50.65V101.75H50.55V101.85H50.45V101.95H50.35V102.05H50.25H50.15V102.15V102.25H50.05H49.95V102.35H49.85V102.45H49.75V102.55L49.65 102.65H49.55V102.75H49.45V102.85H49.35V102.95L49.25 102.85V102.95V103.05H49.15H49.05V103.15H48.95L48.85 103.25H48.75H48.65V103.35H48.55H48.45V103.45H48.35H48.25V103.55H48.15H48.05V103.65H47.95L47.85 103.75H47.75H47.65V103.85H47.55L47.45 103.95H47.35H47.25V104.05H47.15H47.05V104.15H46.95H46.85V104.25H46.75H46.65L46.55 104.35H46.45H46.35H46.25V104.45H46.15L46.05 104.55H45.95H45.85V104.65H45.75H45.65L45.55 104.75H45.45H45.35H45.25V104.85H45.15H45.05H44.95L44.85 104.95H44.75H44.65V105.05H44.55H44.45H44.35V105.15H44.25H44.15H44.05H43.95V105.25H43.85H43.75H43.65H43.55L43.45 105.35H43.35H43.25H43.15H43.05H42.95V105.45H42.85H42.75H42.65L42.55 105.55H42.45H42.35H42.25H42.15L42.05 105.65H41.95H41.85H41.75H41.65H41.45H41.35L41.25 105.75H41.15H40.95H40.85H40.75H40.65H40.55V105.85H40.45H40.35H40.25H40.15H40.05H39.85H39.75H39.65H39.55H39.35H39.15H39.05L38.95 105.75H38.85H38.75H38.65H38.55H38.45H38.35V105.85H38.25L38.15 105.95H38.05V106.05V106.15H37.95V106.25V106.35H37.85V106.45V106.55V106.65H37.75V106.75V106.85V106.95H37.65V107.05H37.55V107.15L37.45 107.25V107.35V107.45H37.35V107.55V107.65L37.25 107.75V107.85H37.15V107.95V108.05V108.15H37.05V108.25H36.95V108.35L36.85 108.45V108.55H36.75V108.65V108.75H36.65V108.85H36.55V108.95H36.45V109.05H36.35V109.15H36.25V109.25H36.15V109.35V109.45H36.05V109.55H35.95V109.65H35.85H35.75V109.75H35.65V109.85L35.55 109.95V110.05H35.45V110.15H35.35V110.25V110.35H35.25V110.45L35.15 110.55V110.65H35.05V110.75V110.85H34.95V110.95H34.85V111.05V111.15H34.75H34.65V111.25H34.55V111.35H34.45V111.45H34.35L34.25 111.55H34.15V111.65H34.05L33.95 111.75L33.85 111.85H33.75V111.95H33.65V112.05H33.55V112.15H33.45V112.25H33.35V112.35H33.25V112.45H33.15V112.55H33.05H32.95V112.65H32.85H32.75V112.75H32.65H32.55L32.45 112.85V112.95H32.35V113.05H32.25H32.15V113.15H32.05V113.25H31.95V113.35H31.85V113.45L31.75 113.55H31.65V113.65H31.55V113.75H31.45V113.85V113.95H31.35V114.05H31.25V114.15H31.15V114.25H31.05L30.95 114.35H30.85H30.75V114.45H30.65H30.55V114.55H30.45H30.35V114.65H30.25H30.15H30.05V114.75H29.95H29.85H29.75V114.85H29.65H29.55H29.45H29.35L29.25 114.95H29.15H29.05H28.95V115.05H28.85H28.75H28.65H28.55V115.15H28.45H28.35H28.25H28.15H28.05H27.95H27.85L27.75 115.25H27.65H27.55H27.45H27.35H27.25H27.15H27.05H26.95H26.85L26.75 115.35H26.65L26.55 115.45H26.45V115.55V115.65L26.35 115.75V115.85H26.25V115.95H26.15V116.05H26.05V116.15H25.95V116.25H25.85V116.35V116.45H25.75V116.55H25.65V116.65H25.55H25.45V116.75H25.35L25.25 116.85L25.15 116.95V117.05L25.05 117.15V117.25H24.95V117.35H24.85V117.45L24.75 117.55V117.65H24.65V117.75H24.55V117.85H24.45V117.95V118.05H24.35V118.15H24.25V118.25H24.15V118.35V118.45H24.05V118.55V118.65H23.95V118.75H23.85V118.85H23.75V118.95H23.65V119.05V119.15H23.55V119.25V119.35H23.45V119.45H23.35V119.55H23.25V119.65V119.75H23.15V119.85H23.05V119.95L22.95 120.05V120.15H22.85V120.25V120.35H22.75V120.45V120.55V120.65H22.65V120.75V120.85H22.55V120.95L22.45 121.05V121.15H22.35V121.25V121.35L22.25 121.45V121.55L22.15 121.65V121.75V121.85L22.05 121.95V122.05L21.95 122.15V122.25H21.85V122.35V122.45H21.75V122.55V122.65V122.75H21.65V122.85V122.95H21.55V123.05V123.15V123.25H21.45V123.35V123.45M27.75 115.25V115.15M62.75 94.25V94.35M77.65 68.65V68.75V68.85L77.55 69.05V69.15V69.25V69.35H77.45V69.45V69.55V69.65H77.35V69.75V69.85L77.25 69.95V70.05V70.15V70.25H77.15V70.35V70.45H77.05V70.55V70.65L76.95 70.75V70.85V70.95H76.85V71.05V71.15H76.75V71.25V71.35L76.65 71.45V71.55V71.65H76.55V71.75V71.85H76.45V71.95V72.05H76.35V72.15V72.25H76.25V72.35V72.45L76.15 72.55V72.65L76.05 72.75V72.85V72.95H75.95V73.05V73.15V73.25V73.35H75.85V73.45V73.55H75.75V73.65V73.75L75.65 73.85V73.95V74.05H75.55V74.15V74.25L75.45 74.35V74.45L75.35 74.55V74.65V74.75L75.25 74.85V74.95V75.05V75.15H75.15V75.25L75.25 75.45L75.15 75.55V75.65V75.75H75.05V75.85V75.95L74.95 76.05V76.15V76.25H74.85V76.35V76.45H74.75V76.55V76.65V76.75H74.65V76.85V76.95V77.05V77.15V77.25V77.35V77.45V77.55V77.65V77.75V77.85L74.55 77.95V78.05L74.45 78.15V78.25V78.35L74.35 78.45V78.55V78.65L74.25 78.75V78.85V78.95L74.15 79.05V79.15V79.25V79.35L74.05 79.45V79.55V79.65H73.95V79.75V79.85V79.95H73.85V80.05V80.15H73.75V80.25V80.35H73.65V80.45V80.55V80.65H73.55V80.75V80.85H73.45V80.95V81.05H73.35V81.15V81.25L73.25 81.35V81.45V81.55H73.15V81.65V81.75L73.05 81.85V81.95H72.95V82.05V82.15H72.85V82.25V82.35V82.45H72.75V82.55V82.65H72.65V82.75V82.85H72.55V82.95H72.65V83.05V83.15H72.55V83.25V83.35V83.45V83.55H72.45V83.65V83.75L72.35 83.85V83.95H72.25V84.05V84.15H72.15V84.25H72.05V84.35L71.95 84.45V84.55H71.85V84.65V84.75V84.85L71.75 84.95V85.05H71.65V85.15V85.25V85.35H71.55V85.45V85.55H71.45V85.65L71.35 85.75V85.85L71.25 85.95V86.05H71.15V86.15H71.05V86.25V86.35L70.95 86.45V86.55V86.65H70.85V86.75V86.85H70.75V86.95V87.05V87.15H70.65V87.25H70.55V87.35H70.45V87.45V87.55H70.35V87.65H70.25V87.75H70.15V87.85L70.05 87.95L69.95 88.05V88.15H69.85L69.75 88.25V88.35H69.65V88.45H69.55V88.55H69.45V88.65H69.35V88.75H69.25V88.85H69.15V88.95H69.05V89.05V89.15H68.95V89.25H68.85V89.35H68.75V89.45H68.65V89.55H68.55V89.65V89.75H68.45L68.35 89.85V89.95H68.25V90.05H68.15V90.15H68.05V90.25H67.95V90.35H67.85L67.75 90.45V90.55H67.65H67.55V90.65H67.45V90.75H67.35V90.85H67.25V90.95H67.15V91.05H67.05L66.95 91.15L66.85 91.25H66.75V91.35H66.65V91.45H66.55V91.55H66.45H66.35V91.65H66.25V91.75H66.15V91.85H66.05V91.95H65.95V92.05H65.85V92.15H65.75H65.65V92.25H65.55V92.35H65.45V92.45H65.35H65.25V92.55H65.15V92.65H65.05H64.95V92.75H64.85V92.85H64.75V92.95H64.65H64.55V93.05H64.45V93.15H64.35H64.25V93.25H64.15V93.35H64.05L63.95 93.45H63.85V93.55H63.75H63.65V93.65H63.55L63.45 93.75H63.35V93.85H63.25V93.95H63.15H63.05V94.05H62.95V94.15H62.85V94.25H62.75M70.95 86.45H71.05M76.15 72.65H76.05M77.65 68.65L77.35 68.55M77.65 68.65L77.45 68.55H77.35M77.65 68.65V68.55H77.75V68.45L77.85 68.35V68.15H77.95V67.95H78.05V67.85L78.15 67.75V67.65L78.25 67.55V67.45L78.35 67.35V67.25V67.15V67.05V66.95V66.85V66.75L78.25 66.65V66.55H78.15V66.45L78.05 66.35M77.35 68.55H77.25L77.35 68.45V68.55ZM77.85 66.75H77.95L78.05 66.35M78.05 66.35H77.55H77.65L77.55 66.75H77.65V66.65V66.55M100.05 23.35V23.45H99.95V23.55V23.65V23.75V23.85V23.95V24.05L99.85 24.15V24.25H99.75V24.35H99.65V24.45H99.55H99.45V24.55H99.35L99.25 24.65H99.15V24.75H99.05V24.85H98.95V24.95H98.85V25.05V25.15H98.75V25.25V25.35L98.65 25.45V25.55V25.65H98.55V25.75V25.85H98.45V25.95V26.05L98.35 26.15V26.25V26.35H98.25V26.45V26.55V26.65H98.15V26.75V26.85V26.95H98.05V27.05H97.95V27.15L97.85 27.25V27.35H97.75V27.45H97.65V27.55V27.65H97.55H97.45V27.75H97.35V27.85H97.25V27.95H97.15V28.05H97.05V28.15H96.95V28.25H96.85V28.35H96.75V28.45H96.65H96.55V28.55H96.45H96.35L96.25 28.65H96.15H96.05V28.75H95.95H95.85H95.75V28.85H95.65H95.55H95.45V28.95H95.35H95.25L95.15 29.05H95.05H94.95V29.15H94.85H94.75L94.65 29.25H94.55V29.35H94.45H94.35V29.45H94.25V29.55H94.15V29.65H94.05V29.75H93.95V29.85H93.85L93.75 29.95H93.65V30.05H93.55V30.15H93.45V30.25H93.35H93.25V30.35H93.15H93.05H92.95V30.45H92.85H92.75H92.65V30.55H92.55H92.45H92.35V30.65H92.25H92.15L92.05 30.75H91.95L91.85 30.85L91.75 30.95V31.05H91.65V31.15V31.25V31.35V31.45H91.55V31.55V31.65V31.75V31.85V31.95H91.45V32.05V32.15H91.35V32.25V32.35V32.45H91.25V32.55L91.15 32.65V32.75V32.85L91.05 32.95V33.05V33.15L90.95 33.25L90.85 33.35V33.45L90.75 33.65L90.65 33.75V33.85V33.95L90.55 34.05L90.45 34.25V34.35H90.35V34.45L90.25 34.55V34.65H90.15V34.75V34.85L90.05 34.95V35.05V35.15H89.95V35.25V35.35V35.45V35.55V35.65L89.85 35.75V35.85V35.95L89.75 36.05V36.15V36.25V36.35V36.45H89.65V36.55V36.65V36.75V36.85V36.95V37.05V37.15V37.25V37.35L89.55 37.45V37.55V37.65V37.75L89.45 37.85V37.95V38.05L89.35 38.15V38.25V38.35H89.25V38.45V38.55L89.15 38.65V38.75V38.85H89.05V38.95V39.05H88.95V39.15V39.25H88.85V39.35V39.45V39.55V39.65V39.75L88.75 39.85V39.95V40.05V40.15H88.65V40.25V40.35V40.45V40.55L88.55 40.65V40.75V40.85V40.95H88.45V41.05V41.15V41.25V41.35V41.45L88.35 41.55V41.65V41.75V41.85V41.95H88.25V42.05V42.15V42.25H88.15V42.35V42.45L88.05 42.55V42.65L87.95 42.75V42.85V42.95H87.85V43.05V43.15H87.75V43.25V43.35L87.65 43.45V43.55V43.65H87.55V43.75V43.85H87.45V43.95V44.05V44.15H87.35V44.25L87.25 44.45V44.55L87.15 44.65V44.75L87.05 44.85V44.95V45.15H86.95V45.25V45.35V45.45V45.55H86.85V45.65V45.75H86.75V45.85V45.95L86.65 46.05V46.15V46.25V46.35H86.55V46.45V46.55V46.65L86.45 46.75V46.85V46.95H86.35V47.05V47.15H86.25V47.25V47.35V47.45V47.55H86.15V47.65V47.75V47.85H86.05V47.95V48.05V48.15V48.25H85.95V48.35V48.45L85.85 48.55V48.65V48.75V48.85V48.95L85.75 49.05V49.15V49.25V49.35H85.65V49.45V49.55V49.65H85.55V49.75V49.85L85.45 49.95V50.05L85.35 50.15V50.25L85.25 50.35V50.45V50.55H85.15V50.65V50.75L85.05 50.85V50.95H84.95V51.05L84.85 51.15H84.75V51.25V51.35H84.65V51.45L84.55 51.55V51.65L84.45 51.75V51.85V51.95H84.55V52.05L84.45 52.15V52.25V52.35V52.45V52.55H84.35V52.65V52.75V52.85V52.95H84.25V53.05V53.15H84.15V53.25V53.35H84.05V53.45V53.55H83.95V53.65H83.85V53.75V53.85H83.75V53.95V54.05L83.65 54.15V54.25L83.55 54.35V54.45L83.45 54.55V54.65V54.75H83.35V54.85V54.95H83.25V55.05L83.15 55.15V55.25H83.05V55.35V55.45H82.95V55.55H82.85V55.65L82.75 55.75V55.85H82.65V55.95H82.55V56.05H82.45V56.15V56.25H82.35V56.35H82.25V56.45H82.15V56.55V56.65H82.05V56.75H81.95V56.85V56.95L81.85 57.05V57.15H81.75V57.25V57.35H81.65V57.45L81.55 57.55V57.65H81.45V57.75H81.35V57.85H81.25V57.95H81.15V58.05V58.15H81.05V58.25V58.35H80.95V58.45V58.55V58.65V58.75H80.85V58.85V58.95H80.75V59.05V59.15H80.65V59.25V59.35V59.45H80.55V59.55V59.65H80.45V59.75V59.85H80.35V59.95L80.25 60.05L80.15 60.15V60.25H80.05V60.35V60.45H79.95V60.55H79.85V60.65H79.95L79.85 60.75V60.85H79.75V60.95V61.05H79.65V61.15V61.25H79.55V61.35V61.45H79.45V61.55H79.35V61.65V61.75H79.25V61.85H79.15V61.95L79.05 62.05V62.15L78.95 62.25V62.35H78.85V62.45V62.55V62.65V62.75V62.85V62.95V63.05V63.15L78.75 63.25V63.35V63.45H78.65V63.55V63.65V63.75V63.85V63.95L78.55 64.05V64.15V64.25V64.35V64.45L78.45 64.55V64.65V64.75V64.85V64.95V65.05L78.35 65.15V65.25V65.35V65.45L78.15 65.85V65.95L78.05 66.15V66.25V66.35M77.95 66.75V66.65V66.55V66.35L77.75 66.45H77.65V66.55M77.65 66.55H77.75M86.65 46.05H86.75M100.05 23.35H99.95M100.05 23.35V23.25L100.15 23.15V23.05H100.25V22.95V22.75V22.65V22.55V22.45V22.35V22.25L100.35 22.15V22.05V21.95L100.45 21.85V21.75V21.65H100.55V21.55H100.65V21.45H100.75V21.35L100.85 21.25V21.15L100.95 21.05V20.95V20.85V20.75V20.65H101.05V20.55V20.45V20.35V20.25V20.15L100.95 20.05V19.95H101.05H101.15V19.85H101.25V19.75V19.65L101.15 19.55H101.25V19.45V19.35L101.35 19.25V19.15V19.05H101.45V18.95H101.55H101.65V18.85L101.75 18.95V18.85H101.85V18.75V18.65H101.95V18.55H102.05V18.45H102.15V18.35V18.25H102.25V18.15V18.05L102.35 17.95V17.85V17.75V17.65V17.55H102.45V17.45H102.55V17.35H102.65H102.75H102.85V17.25V17.15H102.95M102.95 17.15V17.25M102.95 17.15H103.05H103.15L103.25 17.05H103.35H103.45V16.95H103.55H103.65V16.85V16.75V16.65H103.75V16.55H103.85V16.45M103.85 16.45V16.35M103.85 16.45H103.95V16.35V16.25V16.15M103.95 16.15H103.85M103.75 16.05H103.85L103.95 16.15M103.95 16.15V16.05H104.05H104.15V15.95H104.25H104.35L104.45 15.85H104.55V15.75H104.65V15.65M103.85 16.15H103.75M103.85 16.15L103.75 16.25M103.85 16.05L103.75 16.15V16.25M103.75 16.25V16.35M103.75 16.25H103.65M104.65 15.65H104.55M148.65 7.54999L148.55 7.64996L147.65 7.84998H147.45L147.25 7.94995L146.25 8.14996L145.65 8.34998H145.05L144.55 8.44995L144.35 8.54999L143.75 8.64996L143.35 8.84998L142.85 8.94995L141.55 9.14996L140.95 9.34998L140.85 9.44995H140.75L140.45 9.54999H139.95H139.75L136.75 10.25L134.35 10.65L133.85 10.75L132.45 11.05L131.95 11.15H131.75L131.25 11.35L130.25 11.55H130.15H130.05H129.95L128.85 11.75H128.65L128.55 11.85H128.45H128.35L128.05 11.95H127.85L127.65 12.05H127.55L125.55 12.35L125.25 12.45H125.15L124.75 12.55L124.65 12.65L124.55 12.75H124.35H124.25V12.85H124.15H124.05H123.95L123.85 12.95H123.75H123.65H123.55H123.45H123.35V13.05H123.25H123.15H123.05H122.95H122.85V13.15H122.75H122.65H122.55H122.45H122.35H122.25H122.15L122.05 13.25H121.95H121.85H121.75H121.65H121.55H121.45V13.35H121.35H121.25H121.15H121.05H120.95H120.85V13.45H120.75H120.65H120.55H120.45H120.35L120.25 13.55H120.15H120.05H119.95H119.85H119.75H119.65H119.55L119.45 13.65H119.35H119.25H119.15H119.05H118.95L118.85 13.75H118.75H118.65H118.55H118.45H118.35H118.25V13.85H118.15H118.05H117.95H117.85H117.75H117.65H117.55H117.45L117.35 13.95H117.25H117.15H117.05H116.95H116.85H116.75H116.65H116.55H116.45H116.35H116.25V14.05H116.15H116.05H115.95H115.85H115.75H115.65H115.55H115.45H115.35H115.25L115.15 14.15H115.05H114.95H114.85L114.75 14.25H114.65H114.55H114.45H114.35V14.35H114.25H114.15H114.05H113.95H113.85H113.75H113.65H113.55V14.45H113.45H113.35H113.25H113.05H112.95H112.85H112.75H112.65V14.55H112.55L112.45 14.45L112.35 14.55H112.25H112.15H112.05H111.95H111.85H111.75H111.65V14.65H111.55H111.45H111.25H111.05H110.95H110.85H110.75L110.65 14.75H110.55H110.45H110.25H110.15H110.05H109.95H109.85L109.75 14.85H109.65H109.55H109.45H109.35L109.25 14.95H109.15H109.05L108.95 15.05H108.85L108.75 15.15H108.65L108.55 15.25H108.45H108.35H108.25H108.15H108.05H107.95H107.85L107.75 15.35H107.65H107.55L107.45 15.45H107.35H107.25H107.15H107.05H106.95H106.85H106.75H106.65H106.55H106.45H106.35H106.25H106.05H105.95H105.85H105.75H105.65H105.55H105.45H105.25H105.15H105.05H104.95H104.75V15.55H104.65V15.65M122.15 13.15V13.25M131.25 11.35V11.25M148.65 7.54999H148.55M148.65 7.54999H148.75L149.85 7.14996L150.15 7.04999H150.25V6.94995V6.84998H150.35V6.75H150.45V6.64996V6.54999H150.55H150.65V6.44995H150.75H150.85V6.34998H150.95H151.05V6.25H151.15V6.14996H151.25H151.35V6.04999H151.55V5.94995H151.65V5.84998H151.75H151.85V5.75H151.95H152.15V5.64996L152.45 5.54999L152.65 5.44995L152.85 5.34998H152.95L153.25 5.14996L153.45 5.04999L153.85 4.84998H153.95V4.75H154.15L154.35 4.54999V4.44995H154.45L154.95 4.14996H155.05V4.04999L155.35 3.94995L155.55 3.75L155.95 3.64996L156.05 3.54999L156.15 3.44995H156.35L156.65 3.34998L156.85 3.25L156.95 3.14996H157.15L157.25 3.04999H157.35H157.45V2.94995L157.85 2.84998V2.75H158.05L158.25 2.64996L158.45 2.54999L158.65 2.44995H158.75H158.85V2.34998H158.95L159.05 2.25H159.15M159.15 2.25V2.34998M159.15 2.25H159.25H159.35H159.45L159.55 2.34998L159.65 2.25M159.65 2.25H159.75" stroke="white" stroke-width="0.5" stroke-linecap="round" stroke-linejoin="round"/>
</svg>
