<svg width="268" height="224" viewBox="0 0 268 224" fill="none" xmlns="http://www.w3.org/2000/svg">
<path d="M115.95 0.25L116.25 0.75L116.55 1.54999L116.85 2.54999L117.95 3.75L120.05 5.65002L122.25 7.65002L124.15 8.25L126.45 8.65002L128.55 9.34998L130.85 10.95L131.45 12.25L132.45 13.45L133.85 14.75L136.85 15.65L145.55 12.85L146.65 12.55L147.45 12.35H148.25L150.95 12.15L154.45 12.05L159.45 11.75L163.85 12.55L169.25 13.95L173.35 14.95L177.45 16.65L179.85 17.15L182.35 16.45L189.05 14.65L193.05 12.75L195.75 11.85L200.55 10.05L205.25 9.65002L209.75 9.25L213.35 9.95001L218.65 11.15L219.45 11.35L220.25 11.55L221.95 11.85L223.65 12.65L230.25 15.05L232.55 16.15L235.25 17.25L236.45 17.55L238.05 17.75L240.25 17.55L241.85 17.25L249.65 15.45L251.85 14.75L254.75 14.35L257.95 14.75L259.25 15.05L262.65 15.65L267.75 17.25V20.55V24.85V29.25V33.65V37.95V42.35V46.65V50.95V55.35V59.65V64.05V68.65L267.55 70.65L266.95 71.45L266.35 71.55L265.35 71.85L264.45 72.05L263.35 72.35L262.35 72.65L261.35 72.95L260.45 73.15L259.45 73.65L257.45 74.65L256.45 75.25L255.45 75.65L254.45 76.25L253.35 76.75L252.35 77.25L251.35 77.75L250.35 78.25L249.55 78.65L249.15 78.75L248.45 78.85L247.45 79.05L246.45 79.15L245.45 79.35L244.45 79.45L243.55 79.55L242.55 79.75L241.55 79.85L240.55 80.05L239.55 80.15L238.55 80.35L237.75 80.95L236.05 81.45L232.75 83.75L227.05 87.75L220.45 92.25L215.25 95.95L214.25 97.25L209.75 103.65L208.05 107.25L207.35 111.05L207.85 114.75L210.45 122.05L211.15 125.75L211.95 139.95L212.85 154.15L214.35 177.55L214.65 182.45L215.25 191.35L187.55 191.15H186.65H185.65H184.65H183.65H182.75H181.75H180.85H179.85L178.85 191.05H177.95H176.95H175.95H175.05H174.05H173.05H172.15H171.15H170.25H169.25H168.25H167.35H166.35H165.35H164.85H164.45H163.45H162.95H161.95H160.95H160.05H159.05H158.15H157.15H156.15H155.55H155.25H154.25H153.25H152.35H151.35H150.35H149.45H148.45H147.65H147.55H146.65H145.65H144.65L143.75 191.15H142.75H141.85H140.85H139.85H138.95H137.95H136.95H136.05H135.05H134.15H133.15H132.15L131.25 191.25H130.25H129.25H128.35H127.35H126.35H125.45H125.35H124.45H123.55H122.55H122.05H121.55H120.65H119.65L118.75 191.35H117.75H116.75H108.75H105.85H104.85H103.85H102.95H102.05H101.95H98.15H97.15H96.95H96.15H95.25H94.25H93.25H92.35H91.35H90.45H89.45H88.45H87.55H86.55H85.55L84.65 191.25H83.65H82.65H81.75H80.75H79.75H78.85H77.85H76.95H75.95H74.95H73.95H73.25H72.05H71.15H70.75H69.85H68.85H68.55H67.85H66.95H65.95H64.95H64.05H63.05H62.35H62.05H61.15H60.15H59.65H59.25H58.75H58.25H57.45H56.45H55.45H54.55H53.55H52.65H51.65L50.65 191.15H49.75L48.75 191.25H47.75H46.85H45.85L44.95 191.15H43.95L42.95 191.25H42.05H41.05H40.05H39.15L38.15 191.15H37.15L36.25 191.25H35.25H34.35H33.35L32.35 191.15H31.35L30.45 191.25H29.45H28.55L12.15 191.45L8.55 191.55L8.45 191.75L8.15 192.65L7.85001 193.45L7.75 194.35H7.65L7.55 195.05V195.35L7.35001 196.35L7.15 197.35L6.95 198.25L6.75 199.25L6.55 200.25L6.45 201.15L6.25 202.15L6.05 203.15L5.95 203.25V203.55L5.75 203.85L5.65 204.05L5.55 204.35L5.45 204.55L5.35001 204.85L5.25 205.15L5.15 205.45L4.95 205.65L4.85001 205.95L4.65 206.15L4.55 206.35L4.35001 206.55L4.25 206.85L4.05 207.05L3.95 207.35V207.65L3.85001 207.95L3.75 208.25L3.85001 208.65V209.05V209.45V209.75V210.15L3.75 210.45L3.65 210.75L3.55 211.05L3.45 211.25L3.35001 211.55L3.25 211.75L3.15 212.05L3.05 212.35L2.95 212.65L2.85001 212.85L2.75 213.05V213.15L2.65 213.45L2.55 213.75L2.45 213.95L2.25 215.15V216.75V217.95V218.05V218.55V218.75L2.65 220.75V221.15L3.15 222.85V223.05V223.25V223.15H3.05V223.05H2.95V222.95H2.85001V222.85H2.75V222.75V222.65L2.65 222.55V222.45V222.35L2.55 222.25V222.15H2.45H2.35001V222.05H2.25V221.95V221.85V221.75V221.65V221.55H2.15V221.45V221.35H2.05V221.25H1.95V221.15V221.05V220.95V220.85H1.85001V220.75H1.75H1.65V220.65V220.55H1.55V220.45V220.35V220.25H1.45V220.15V220.05H1.35001L1.25 219.95V220.05H1.15H1.05H0.950005H0.850006V220.15H0.75V220.05V219.95H0.650002V219.85V219.75H0.550003V219.65H0.450005V219.55H0.350006V219.45H0.450005V219.35H0.350006V219.25V219.15V219.05V218.95V218.85H0.450005V218.75H0.550003V218.65H0.650002V218.55H0.75L0.850006 218.45V218.35H0.950005V218.25H1.05V218.15H1.15V218.05L1.25 217.95V217.85V217.75H1.35001V217.65V217.55H1.45V217.45L1.55 217.35V217.25V217.15L1.65 217.05V216.95V216.85V216.75H1.75V216.65V216.55H1.65V216.45V216.35V216.25L1.55 216.35V216.25V216.15V216.05V215.95L1.45 215.85V215.75H1.35001V215.65V215.55V215.45H1.25V215.35H1.15V215.25H1.05V215.35L0.950005 215.25V215.15V215.05V214.95V214.85H0.850006V214.75H0.75L0.850006 214.65V214.55V214.45H0.950005V214.35V214.25H1.05V214.15V214.05L1.15 213.95H1.05L1.15 213.85V213.75L1.25 213.65V213.55V213.45V213.35V213.25V213.15L1.35001 213.05V212.95V212.85V212.75V212.65L1.45 212.55V212.45V212.35H1.55V212.25H1.65V212.15L1.75 212.05V211.95V211.85H1.85001V211.75H1.95V211.65L2.05 211.55V211.45V211.35V211.25H2.15V211.15V211.05V210.95H2.25V210.85V210.75V210.65H2.35001V210.55V210.45H2.45V210.35V210.25V210.15V210.05H2.35001V209.95V209.85H2.45L2.35001 209.75H2.45V209.65V209.55V209.45V209.35H2.35001V209.25V209.15H2.45V209.05V208.95V208.85V208.75V208.65V208.55V208.45V208.35V208.25V208.15V208.05V207.95V207.85V207.75V207.65V207.55L2.35001 207.45H2.45V207.35V207.25V207.05V206.95L2.55 206.85L2.45 206.75H2.55V206.65L2.45 206.55H2.55V206.45V206.35L2.45 206.25V206.15V206.05V205.95H2.35001L2.45 205.85V205.75V205.65V205.55V205.45H2.55V205.35V205.25V205.15H2.65V205.05V204.95H2.75V204.85V204.75V204.65V204.55V204.45H2.85001V204.35H2.75L2.85001 204.25V204.15V204.05V203.95H2.95V203.85V203.75V203.65V203.55V203.45V203.35V203.25V203.15L3.05 203.05V202.95V202.85V202.75V202.65V202.55V202.45V202.35H3.15V202.25V202.15V202.05L3.25 201.95V201.85V201.75V201.65H3.35001V201.55V201.45H3.45V201.35V201.25V201.15V201.05V200.95H3.35001V200.85H3.25V200.75V200.65H3.15V200.55V200.45V200.35V200.25V200.15V200.05V199.95V199.85V199.75H3.25V199.65V199.55V199.45V199.35V199.25V199.15V199.05V198.95V198.85V198.75V198.65H3.35001V198.55V198.45V198.35V198.25V198.15L3.45 198.05V197.95V197.85V197.75V197.65V197.55V197.45V197.35H3.55V197.25V197.15V197.05V196.95L3.65 196.85V196.75L3.75 196.65V196.55V196.45V196.35H3.85001V196.25V196.15L3.75 196.05H3.85001V195.95V195.85H3.95V195.75V195.65V195.55H3.85001L3.95 195.45H3.85001V195.35H3.95V195.25L3.85001 195.15H3.95V195.05V194.95V194.85L4.05 194.75V194.65L4.15 194.55V194.45V194.35V194.25H4.25V194.15V194.05H4.35001V193.95V193.85V193.75H4.25V193.65V193.55H4.15V193.45H4.25V193.35H4.15V193.25H4.25V193.15V193.05V192.95H4.15L4.25 192.85V192.75H4.15V192.65V192.55H4.25V192.45L4.15 192.35V192.25V192.15V192.05V191.95V191.85V191.75V191.65L4.25 191.55V191.45V191.35V191.25V191.15V191.05H4.35001V190.95V190.85V190.75V190.65V190.55V190.45H4.45V190.35V190.25L4.35001 190.15H4.45V190.05V189.95V189.85V189.75H4.55V189.65V189.55L4.65 189.45V189.35V189.25L4.75 189.15V189.05V188.95H4.85001V188.85V188.75V188.65H4.95V188.55V188.45V188.35H5.05V188.25V188.15V188.05V187.95V187.85H5.15L5.05 187.75H5.15V187.65V187.55L5.05 187.65V187.55H5.15V187.45V187.35V187.25V187.15V187.05V186.95V186.85L5.05 186.75V186.65V186.55H5.15L5.05 186.45H5.15V186.35V186.25V186.15V186.05L5.25 185.95V185.85V185.75V185.65V185.55V185.45V185.35V185.25V185.15H5.35001V185.05V184.95H5.45V184.85V184.75V184.65H5.55V184.55V184.45L5.65 184.35V184.25V184.15V184.05V183.95L5.75 183.85V183.75V183.65V183.55H5.85001V183.45V183.35V183.25V183.15L5.95 183.05V182.95V182.85H6.05V182.75V182.65V182.55V182.45H6.15V182.35V182.25V182.15V182.05V181.95V181.85V181.75V181.65V181.55H6.25V181.45H6.15L6.25 181.35V181.25H6.15V181.15V181.05V180.95V180.85L6.25 180.75H6.15V180.65H6.25V180.55V180.45V180.35V180.25L6.35001 180.15V180.05H6.45V179.95V179.85V179.75V179.65V179.55V179.45L6.55 179.35V179.25V179.15H6.65V179.05V178.95L6.75 178.85V178.75V178.65V178.55V178.45V178.35V178.25V178.15V178.05V177.95V177.85V177.75H6.85001V177.65V177.55V177.45V177.35V177.25V177.15H6.75V177.05H6.65V176.95V176.85V176.75V176.65V176.55V176.45L6.55 176.35V176.25L6.65 176.15V176.05V175.95V175.85V175.75V175.65H6.75V175.55L6.65 175.45H6.75V175.35V175.25H6.85001V175.15V175.05V174.95V174.85H6.95V174.75L7.05 174.65V174.55V174.45V174.35V174.25L7.15 174.15V174.05V173.95V173.85V173.75V173.65V173.55V173.45V173.35V173.25V173.15V173.05V172.95V172.85L7.05 172.75V172.65V172.55H6.95V172.45V172.35V172.25V172.15V172.05V171.95V171.85V171.75H6.85001V171.65V171.55V171.45V171.35V171.25L6.75 171.15V171.05V170.95V170.85V170.75V170.65V170.55V170.45L6.65 170.35L6.75 170.25V170.15V170.05V169.95V169.85L6.85001 169.75V169.65H6.95V169.55V169.45H7.05V169.35H7.15V169.25H7.25H7.35001V169.15H7.45V169.05V168.95H7.55V168.85H7.65V168.75H7.75V168.65V168.55H7.85001V168.45H7.95V168.35V168.25H8.05V168.15H8.15V168.05V167.95H8.25V167.85V167.75H8.35001V167.65V167.55V167.45H8.45V167.35V167.25V167.15L8.35001 167.05V166.95L8.25 166.85L8.15 166.75H8.05H7.95V166.85V166.95H7.85001V166.85H7.75V166.75H7.65V166.65V166.55V166.45V166.35V166.25V166.15V166.05V165.95V165.85V165.75V165.65L7.55 165.55V165.45V165.35H7.65V165.25V165.15H7.75V165.05V164.95H7.85001V164.85V164.75V164.65V164.55V164.45L7.95 164.35V164.25V164.15H8.05V164.05V163.95V163.85V163.75V163.65V163.55H8.15V163.45V163.35L8.25 163.25V163.15H8.35001V163.05V162.95H8.45L8.35001 162.85H8.45V162.75H8.55V162.65H8.65V162.55H8.75V162.45H8.85001L8.95 162.35V162.25H9.05L9.15 162.15H9.25V162.05H9.35001V161.95H9.45V161.85H9.55V161.75H9.65V161.65H9.75V161.55H9.85001V161.45H9.95V161.35H10.05V161.25L10.15 161.15V161.05H10.25V160.95H10.35V160.85V160.75H10.45V160.65V160.55H10.55V160.45V160.35H10.65V160.25L10.75 160.15V160.05H10.85V159.95V159.85H10.95V159.75V159.65H11.05V159.55V159.45L11.15 159.35V159.25V159.15V159.05H11.25V158.95V158.85V158.75H11.35V158.65V158.55V158.45V158.35V158.25V158.15V158.05V157.95H11.25V157.85H11.15H11.05L11.15 157.75V157.65V157.55V157.45V157.35L11.25 157.25V157.15V157.05V156.95H11.35V156.85H11.45V156.75V156.65H11.55V156.55L11.65 156.45V156.35H11.75V156.25V156.15H11.85V156.05V155.95H11.95V155.85H12.05V155.75V155.65V155.55V155.45H12.15V155.35V155.25V155.15V155.05V154.95H12.25V154.85V154.75H12.35V154.65L12.45 154.55V154.45H12.55V154.35V154.25V154.15V154.05V153.95V153.85V153.75V153.65H12.65V153.55V153.45V153.35L12.75 153.25V153.15H12.85V153.05V152.95H12.95V152.85V152.75V152.65V152.55H13.05V152.45V152.35V152.25H13.15V152.15V152.05H13.25V151.95H13.35V151.85V151.75H13.45V151.65L13.55 151.55V151.45H13.65V151.35V151.25H13.75V151.15V151.05V150.95L13.85 150.85V150.75V150.65V150.55H13.95V150.45V150.35L14.05 150.25V150.15V150.05H14.15V149.95V149.85V149.75V149.65V149.55H14.25V149.45V149.35V149.25H14.35V149.15V149.05V148.95V148.85H14.45V148.75V148.65H14.55V148.55V148.45H14.65V148.35V148.25V148.15L14.75 148.05V147.95L14.85 147.85V147.75L14.95 147.65V147.55H15.05V147.45V147.35V147.25V147.15V147.05L15.15 146.95V146.85H15.25V146.75V146.65H15.35V146.55V146.45H15.45V146.35V146.25V146.15V146.05V145.95H15.55V145.85V145.75L15.65 145.65V145.55V145.45V145.35V145.25H15.75V145.15V145.05H15.85V144.95H15.95V144.85V144.75V144.65H16.05V144.55H16.15H16.25H16.35L16.45 144.45H16.55H16.65L16.75 144.35H16.85V144.25H16.95H17.05V144.15H17.15H17.25V144.05H17.35H17.45V143.95H17.55V143.85H17.65V143.75H17.75V143.65H17.85V143.55L17.95 143.45V143.35V143.25L17.85 143.15V143.05V142.95H17.95L17.85 142.85H17.75V142.75V142.65H17.65V142.55V142.45H17.55H17.45L17.35 142.35L17.25 142.45V142.35H17.35V142.25H17.45V142.15H17.55V142.25L17.65 142.15H17.75V142.05H17.85L17.75 141.95H17.85V141.85H17.95V141.75H18.05V141.65H17.95V141.55H18.05V141.45H18.15H18.25V141.35V141.25L18.35 141.15H18.45H18.55V141.05H18.65V140.95H18.75L18.85 140.85H18.95L19.05 140.75H19.15V140.65H19.25V140.55H19.35H19.45V140.45H19.55V140.35H19.65V140.25H19.75V140.15H19.85V140.05H19.95V139.95H20.05V139.85H20.15V139.75H20.25V139.65H20.35H20.45V139.55H20.55V139.45H20.65V139.35H20.75V139.25V139.15H20.85V139.05H20.95V138.95H21.05V138.85V138.75H21.15V138.65V138.55H21.25L21.15 138.45L21.25 138.35H21.35V138.25H21.45V138.15V138.05H21.55V137.95H21.65V137.85H21.75V137.75H21.85V137.65H21.95V137.55H22.05V137.45H22.15H22.25V137.35V137.25H22.35H22.45V137.15H22.55V137.05H22.65H22.75H22.85H22.95H23.05V137.15V137.25H23.15H23.25V137.15L23.35 137.25V137.15H23.45H23.55H23.65H23.75H23.85H23.95H24.05V137.25V137.35H24.15V137.45V137.55H24.25V137.65H24.35V137.75V137.85V137.95L24.45 138.05H24.55V138.15H24.65V138.25H24.75V138.35H24.85V138.45V138.55V138.65H24.95H25.15H25.25H25.45H25.55H25.65H25.75L25.95 138.55H26.05H26.15H26.25L26.35 138.45H26.45H26.55H26.65L26.75 138.35H26.85H26.95L27.05 138.25H27.15H27.25L27.35 138.15H27.45H27.55H27.65V138.05H27.75H27.85H27.95V137.95H28.05H28.15L28.25 137.85H28.35L28.45 137.75H28.55H28.65L28.75 137.65H28.85H28.95V137.55H29.05H29.15L29.25 137.45H29.35H29.45V137.35H29.55H29.65V137.25H29.75H29.85V137.15H29.95H30.05V137.05H30.15L30.25 136.95H30.35L30.45 136.85L30.55 136.75H30.65V136.65H30.75H30.85V136.55H30.95L31.05 136.45H31.15V136.35H31.25V136.25H31.35H31.45V136.15H31.55V136.05H31.65L31.75 135.95H31.85V135.85H31.95V135.75H32.05V135.65H32.15L32.25 135.55V135.45H32.35V135.35H32.45V135.25H32.35V135.15V135.05V134.95V134.85V134.75V134.65V134.55V134.45H32.45V134.35V134.25V134.15H32.35V134.05H32.45H32.55V133.95H32.65V133.85H32.75H32.85V133.75H32.95V133.65H33.05V133.55V133.45H33.15V133.35H33.25V133.25H33.35V133.15V133.05H33.45V132.95V132.85H33.55V132.75V132.65H33.65V132.55V132.45H33.75V132.35V132.25L33.85 132.15V132.05V131.95H33.95L34.05 131.85V131.75H34.15V131.65L34.25 131.55L34.15 131.45V131.35V131.25V131.15V131.05V130.95V130.85V130.75V130.65V130.55H34.25V130.45L34.35 130.35V130.25V130.15V130.05V129.95H34.45V129.85V129.75V129.65V129.55H34.55V129.45V129.35V129.15L34.65 129.05V128.95V128.85V128.75V128.65V128.55H34.75L34.65 128.45V128.35L34.75 128.25V128.15H34.65V128.05V127.95V127.85V127.75V127.65L34.75 127.55V127.45L34.85 127.35V127.25H34.95V127.15V127.05L35.05 126.95V126.85H35.15V126.75V126.65L35.25 126.55V126.45V126.35V126.25L35.15 126.15H35.25V126.05H35.15V125.95L35.25 125.85V125.75V125.65V125.55V125.45V125.35H35.35V125.25V125.15H35.45V125.05V124.95H35.55V124.85H35.65V124.75V124.65H35.75V124.55V124.45H35.85V124.35V124.25V124.15H35.95H36.05V124.05H36.15V123.95H36.25V123.85H36.35H36.45V123.75L36.55 123.85V123.75H36.65V123.65H36.75L36.85 123.55H36.95H37.05V123.45H37.15V123.35H37.25V123.25H37.35L37.45 123.15H37.55V123.05H37.65V122.95H37.75V122.85H37.85H37.95V122.75H38.05V122.65H38.15V122.55H38.25H38.35V122.45H38.45V122.35H38.55V122.25H38.65V122.15H38.75V122.05H38.85V121.95H38.95V121.85V121.75H39.05V121.65H39.15V121.55V121.45H39.25V121.35L39.35 121.25V121.15L39.45 121.05V120.95V120.85V120.75V120.65V120.55V120.45V120.35V120.25V120.15H39.55V120.05V119.95V119.85V119.75V119.65L39.45 119.55L39.55 119.45V119.35V119.25V119.15V119.05V118.95H39.65V118.85V118.75V118.65H39.75V118.55V118.45V118.35V118.25L39.85 118.15V118.05L39.95 117.95V117.85V117.75L40.05 117.65V117.55H40.15V117.45V117.35V117.25V117.15H40.25V117.05V116.95V116.85H40.35V116.75V116.65H40.25V116.55L40.15 116.45V116.35V116.25L40.25 116.15H40.15V116.05H40.25V115.95V115.85V115.75V115.65L40.35 115.55V115.45V115.35V115.25L40.45 115.15H40.35L40.45 115.05V114.95V114.85V114.75V114.65L40.55 114.55H40.45V114.45V114.35V114.25V114.15V114.05H40.35V113.95V113.85V113.75V113.65V113.55V113.45V113.35V113.25V113.15L40.25 113.05V112.95V112.85L40.35 112.75V112.65V112.55V112.45H40.45V112.35V112.25V112.15L40.55 112.05V111.95V111.85V111.75V111.65V111.55H40.65V111.45V111.35V111.25V111.15L40.75 111.05V110.95V110.85L40.85 110.75V110.65V110.55H40.95H41.05V110.45V110.35H41.15V110.25V110.15H41.05V110.05V109.95V109.85V109.75H41.15H41.25V109.65H41.35V109.55H41.45V109.45V109.35H41.55V109.25H41.65V109.15V109.05L41.75 108.95V108.85V108.75V108.65H41.85V108.55V108.45H41.95V108.35H42.05L42.15 108.25L42.25 108.15V108.05H42.35V107.95H42.45V107.85V107.75H42.55L42.65 107.55L42.75 107.45L42.85 107.25L42.95 107.15V107.05L43.05 106.85L43.15 106.75V106.55L43.25 106.45V106.25V106.15V106.05V105.95V105.85V105.75L43.15 105.65V105.55H43.05V105.45H42.95H42.85H42.75V105.55H42.65V105.45H42.55V105.35H42.45V105.25H42.55V105.15H42.45V105.05V104.95V104.85V104.75H42.55V104.65V104.55V104.45V104.35H42.65V104.25H42.75V104.15V104.05H42.85V103.95H42.95V103.85V103.75L43.05 103.65V103.55V103.45V103.35V103.25H43.15V103.15V103.05V102.95H43.25V102.85V102.75V102.65H43.35V102.55H43.25V102.45V102.35L43.35 102.25V102.35H43.45V102.45H43.55V102.55V102.65V102.75V102.85H43.65V102.95H43.75H43.85H43.95V102.85H44.05H44.15H44.25H44.35V102.75H44.45H44.55V102.65H44.65H44.75L44.85 102.55H44.95V102.45H45.05H45.15H45.25H45.35V102.35H45.45H45.55L45.65 102.25H45.75H45.85L45.95 102.15H46.05H46.15L46.25 102.05H46.35V101.95H46.45H46.55L46.65 101.85L46.75 101.75H46.85H46.95V101.65H47.05L47.15 101.55H47.25H47.35V101.45H47.45V101.35H47.55L47.65 101.25L47.75 101.15L47.85 101.05H47.95V100.95H48.05L48.15 100.85L48.25 100.75L48.35 100.65L48.45 100.45L48.55 100.35L48.65 100.25L48.85 100.05L48.95 99.95L49.05 99.85L49.15 99.75L49.25 99.65V99.55L49.35 99.45L49.45 99.35V99.25H49.55L49.65 99.15L49.75 99.05V98.95L49.85 98.85V98.75L49.95 98.65V98.55L50.05 98.45L50.15 98.35V98.25V98.15L50.25 98.05V97.95L50.35 97.85V97.75L50.45 97.65V97.55L50.55 97.45V97.35V97.25L50.65 97.15V97.05V96.95L50.75 96.85V96.75V96.65V96.55H50.85V96.45V96.35V96.15V96.05V95.95L50.95 95.85V95.75V95.65V95.55V95.45V95.35V95.15V95.05V94.95V94.85L50.85 94.75V94.65V94.55V94.45V94.35L50.75 94.25V94.15V94.05V93.95H50.65V93.85V93.75L50.55 93.65V93.55V93.45H50.45V93.35V93.25H50.35V93.15L50.25 93.05V92.95L50.15 92.85V92.75H50.05V92.65H49.95V92.55L49.85 92.45L49.75 92.35V92.25H49.65V92.15H49.55V92.05H49.45L49.35 91.95H49.25L49.15 91.85H49.05L48.95 91.75H48.85H48.65H48.55H48.45H48.35V91.85H48.25H48.15V91.95H48.05L47.95 92.05L47.85 92.15H47.75H47.65V92.25H47.55V92.35L47.45 92.45L47.35 92.55V92.45H47.45V92.35V92.25V92.15H47.55V92.05L47.65 91.95V91.85L47.75 91.75V91.65V91.55H47.65V91.45L47.75 91.35V91.25L47.85 91.15V91.05H47.95V90.95V90.85H48.05V90.75H48.15V90.65V90.55H48.25V90.45V90.35V90.25H48.35V90.15V90.05H48.45V89.95V89.85H48.55L48.65 89.75L48.75 89.65V89.55H48.85V89.45H48.95H49.05V89.35H49.15L49.25 89.25H49.35V89.15H49.45L49.55 89.05L49.65 88.95H49.75V88.85H49.85V88.75L49.95 88.65V88.55H50.05V88.45V88.35H50.15V88.25H50.25V88.15V88.05H50.35V87.95H50.45V87.85V87.75H50.55V87.65H50.65V87.55H50.75V87.45V87.35H50.85V87.25H50.95V87.15H51.05V87.05V86.95H51.15V86.85H51.25V86.75H51.35V86.65H51.45V86.55H51.55V86.45H51.65V86.35V86.25H51.75V86.15H51.85V86.05V85.95H51.95V85.85V85.75V85.65H52.05V85.55L52.15 85.45V85.35H52.25V85.25V85.15H52.35V85.05V84.95V84.85V84.75V84.65H52.25V84.55V84.45V84.35V84.25V84.15H52.15V84.05H52.25V83.95V83.85L52.35 83.75V83.65L52.45 83.55V83.45H52.55V83.35H52.65V83.25L52.75 83.15V83.05H52.85V82.95H52.95L53.05 82.85V82.75H53.15V82.65H53.25V82.55V82.45H53.35V82.35L53.45 82.25V82.15H53.55V82.05L53.65 81.95V81.85H53.75V81.75L53.85 81.65V81.55V81.45H53.95V81.35H54.05V81.25V81.15L54.15 81.05V80.95H54.25V80.85V80.75L54.35 80.65V80.55V80.45H54.45V80.35H54.55V80.25H54.65V80.15L54.75 80.05V79.95H54.85V79.85H54.95V79.75H55.05V79.65V79.55H55.15V79.45V79.35V79.25H55.25V79.15V79.05V78.95V78.85H55.15V78.75V78.65V78.55V78.45H55.05V78.35H54.95V78.25V78.15L55.05 78.05H55.15V77.95H55.25V77.85H55.35H55.45V77.75H55.55V77.65H55.65V77.55H55.75L55.85 77.45L55.95 77.35V77.25H56.05V77.15H56.15V77.05H56.25V76.95H56.35H56.45V76.85H56.55V76.75H56.65V76.65H56.75V76.55V76.45H56.85V76.35H56.95V76.25H57.05L57.15 76.15L57.25 76.05V75.95H57.35L57.45 75.85V75.75H57.55V75.65H57.65L57.75 75.55L57.85 75.45L57.95 75.35L58.05 75.25V75.15H58.15V75.05H58.25V74.95H58.35V74.85L58.45 74.75L58.55 74.65V74.55V74.45H58.65V74.35V74.25H58.75V74.15V74.05H58.85V73.95H58.95V73.85V73.75H59.05V73.65L59.15 73.55V73.45H59.25V73.35V73.25H59.35V73.15L59.45 73.05V72.95V72.85V72.75H59.55V72.65V72.55H59.65V72.45V72.35H59.75V72.25V72.15V72.05L59.85 71.95V71.85H59.95V71.75V71.65L60.05 71.55V71.45H60.15V71.35V71.25H60.25V71.15H60.35V71.05L60.45 70.95V70.85L60.55 70.75V70.65H60.65V70.55V70.45H60.75V70.35V70.25V70.15H60.85V70.05V69.95V69.85V69.75H60.95L60.85 69.65V69.55V69.45H60.75V69.35L60.65 69.25V69.15H60.55V69.05H60.45H60.35V68.95H60.25H60.15V68.85V68.75V68.65V68.55V68.45V68.35V68.25H60.05H59.95V68.15H59.85H59.75V68.25H59.65V68.15V68.05V67.95V67.85H59.75V67.75H59.85L59.95 67.65V67.55H60.05V67.45H60.15V67.35H60.25H60.35V67.25H60.45V67.15H60.55V67.05H60.65H60.75H60.85H60.95H61.05V66.95H61.15H61.25V66.85H61.35L61.45 66.75V66.65H61.55V66.55V66.45H61.65V66.35H61.75V66.25L61.85 66.15L61.95 66.05V65.95H62.05V65.85V65.75V65.65H62.15V65.55L62.25 65.45V65.35V65.25H62.35V65.15H62.45V65.05V64.95H62.55L62.65 64.85H62.75L62.85 64.75H62.95H63.05H63.15H63.25V64.65H63.35V64.55V64.45H63.45V64.35V64.25H63.55V64.15V64.05H63.65V63.95V63.85H63.55V63.75V63.65H63.65V63.55H63.75V63.45H63.85V63.35V63.25V63.15H63.95V63.05H64.05V62.95H64.15V62.85V62.75H64.25V62.65V62.55L64.35 62.45V62.35H64.45V62.25V62.15H64.55V62.05V61.95H64.65V61.85V61.75H64.75L64.85 61.65V61.55V61.45V61.35V61.25V61.15V61.05V60.95H64.95H65.25H65.35H65.45L65.55 60.85H65.65V60.75H65.75H65.85V60.65V60.55H65.95V60.45V60.35L66.05 60.25H66.15V60.15H66.25V60.05L66.35 59.95V59.85V59.75H66.45V59.65H66.55V59.55H66.65V59.45V59.35V59.25V59.15L66.75 59.05V58.95L66.85 58.85V58.75H66.95V58.65H67.05L67.15 58.55V58.45V58.35H67.25H67.35V58.25H67.45V58.15V58.05L67.55 57.95H67.65V57.85H67.75V57.75V57.65V57.55H67.85V57.45H67.95H68.05V57.35H68.15V57.25H68.25V57.15V57.05H68.35V56.95V56.85H68.45V56.75V56.65H68.55V56.55L68.65 56.45V56.35H68.75V56.25H68.85V56.15V56.05H68.95V55.95V55.75V55.65H69.05V55.55V55.45L69.15 55.35V55.25L69.25 55.15H69.15H69.05V55.25H68.95V55.35H68.85V55.25H68.95V55.15H69.05H69.15V55.05L69.25 54.95L69.35 54.85V54.75H69.45V54.65H69.55V54.55H69.65V54.45V54.35H69.75H69.85V54.25V54.15V54.05L69.95 53.95V53.85H70.05L70.15 53.75H70.25H70.35V53.65V53.55H70.45H70.55V53.45H70.65V53.35H70.75H70.85V53.25H70.95V53.15H71.05V53.05H71.15V52.95H71.25V52.85V52.75H71.35V52.65H71.45V52.55H71.55L71.65 52.45H71.75V52.35V52.25H71.85V52.15V52.05L71.95 51.95V51.85V51.75H72.05V51.65V51.55H71.95V51.45H72.05V51.35V51.25V51.15H72.15V51.05V50.95H72.25V50.85V50.75H72.35V50.65H72.45V50.55H72.55V50.45H72.65H72.75V50.35H72.85H72.95H73.05H73.15V50.25H73.25V50.15H73.35V50.05H73.45L73.55 49.95L73.65 49.85V49.75V49.65V49.55H73.75L73.65 49.45V49.35V49.25V49.15V49.05L73.55 49.15H73.45L73.35 49.25H73.25V49.35V49.15H73.15H73.05H72.95V49.25H72.85H72.75V49.35H72.65V49.45L72.55 49.55H72.45V49.65H72.35V49.55H72.25H72.15H72.05V49.65H71.95V49.75V49.85V49.95H71.85H71.75V50.05H71.65H71.55V49.95L71.65 49.85L71.75 49.75V49.65L71.85 49.55V49.45H71.95V49.35V49.25V49.15V49.05V48.95L72.05 48.85V48.75V48.65V48.55V48.45L72.15 48.35V48.25V48.15H72.25V48.05V47.95V47.85L72.35 47.75L72.45 47.65V47.55L72.55 47.45V47.25V47.15V47.05V46.95H72.45V47.05H72.35L72.25 46.95V46.85H72.15V46.75V46.65V46.55V46.45V46.35V46.15V46.05V45.95V45.85V45.75V45.55V45.45V45.35V45.25L72.05 45.15L71.95 45.05L71.85 44.95H71.75V44.85H71.65V44.75H71.55L71.45 44.55H71.35V44.65V44.75L71.25 44.85L71.15 45.05V45.15L71.05 45.25V45.35L70.95 45.45L70.85 45.55L70.75 45.65V45.75V45.85L70.55 46.05V45.95V45.85V45.75H70.65V45.65V45.55L70.75 45.45H70.85V45.35V45.25V45.15H70.75V45.25L70.65 45.45H70.55V45.55V45.65L70.45 45.75V45.85V45.95H70.35V45.85V45.75V45.65V45.55H70.25L70.35 45.45V45.35L70.45 45.25V45.15V45.05H70.55V44.95L70.65 44.85V44.75H70.75V44.65V44.55V44.45V44.35V44.25V44.15H70.65H70.55V44.25H70.45V44.35H70.35V44.45H70.25V44.55H70.15V44.65H70.05V44.75H69.95V44.85H69.85V44.95L69.75 45.05H69.65V45.15V45.25V45.35H69.55V45.45L69.45 45.55V45.65L69.35 45.75V45.85H69.25V45.95H69.15L69.05 46.05V46.15V46.25H68.95V46.35H68.85V46.45V46.55H68.75V46.45H68.65V46.55L68.55 46.65H68.45V46.55H68.35H68.25H68.15V46.45H68.05V46.55H67.95V46.45H68.05L67.95 46.35V46.45H67.85H67.75V46.55H67.65H67.55V46.65V46.75H67.45L67.35 46.85H67.25V46.95L67.15 47.05H67.05V47.15H66.95V47.25L66.85 47.35H66.75L66.65 47.45V47.55H66.55V47.65H66.45V47.75H66.35V47.85V47.95H66.25V48.05H66.15V48.15L66.05 48.25V48.35H65.95V48.45V48.55H65.85V48.65V48.75H65.75V48.85V48.95H65.65V49.05V49.15H65.55V49.25V49.35H65.45V49.25H65.35V49.35H65.25L65.15 49.45H65.05V49.55H64.95V49.65H64.85V49.75V49.85H64.75V49.95V50.05H64.65V50.15V50.25V50.35L64.55 50.45H64.45V50.55V50.65V50.75V50.85H64.35V50.95H64.25H64.15V51.05V51.15H64.05V51.25H63.95V51.35H63.85V51.45V51.55V51.65V51.75V51.85H63.75V51.95L63.65 52.05V52.15V52.25V52.35V52.45L63.55 52.55V52.65V52.75V52.85V52.95H63.45H63.35L63.25 53.05V53.15V53.25V53.35V53.45V53.55V53.65V53.75V53.85V53.95V54.05V54.15H63.15V54.25V54.35V54.45V54.55V54.65H63.05V54.75H62.95V54.85V54.95H62.85V55.05V55.15V55.25H62.75V55.35V55.45V55.55V55.65H62.65V55.75V55.85H62.75V55.95V56.05H62.65V56.15H62.55V56.25H62.45V56.35L62.35 56.45V56.55V56.65V56.75V56.85H62.25V56.95H62.15H62.05V57.05H61.95V57.15L61.85 57.25V57.35H61.75V57.45V57.55V57.65H61.65V57.75L61.55 57.85L61.45 57.95H61.35V58.05H61.25V58.15H61.15L61.05 58.25H60.95V58.35H60.85V58.45H60.75V58.55H60.65L60.85 58.75V58.85H60.95L61.05 58.95V59.05H61.15L61.25 59.15H61.35L61.45 59.05V59.15L61.15 59.45H61.05V59.35L61.25 59.25L61.15 59.15L61.05 59.25V59.15L61.15 59.05H61.05L60.75 58.75H60.85L60.65 58.55V58.65H60.55H60.45V58.75H60.35L60.25 58.85H60.15V58.95H60.05V59.05V59.15V59.25L59.95 59.35V59.45V59.55H59.85L59.75 59.65V59.75H59.65V59.85V59.95H59.55V60.05V60.15H59.45V60.25H59.35V60.35H59.25V60.45V60.55V60.65V60.75V60.85L59.15 60.95H59.25V61.05H59.15H59.05V60.95H58.95L58.85 60.85H58.75V60.75H58.65H58.55H58.45H58.35H58.25V60.65V60.55L58.15 60.45L58.05 60.35V60.25L57.95 60.05H58.05V59.95V59.85H58.15V59.75L58.25 59.65L58.35 59.55V59.45L58.45 59.35L58.55 59.25V59.15H58.65V59.05V58.95H58.75V58.85H58.85V58.75V58.65H58.95V58.55H59.05V58.45L59.15 58.25V58.15V58.05H59.25V57.95H59.35L59.45 57.85H59.55V57.75H59.65V57.65H59.75H59.85V57.55L59.95 57.45H60.05V57.35H60.15V57.25L60.25 57.15V57.05H60.35V56.95H60.45V56.85V56.75L60.55 56.65V56.55V56.45L60.65 56.35L60.55 56.25V56.15V56.05V55.95H60.45V55.85H60.55V55.75V55.65V55.55L60.65 55.45V55.35H60.75V55.25H60.85H60.95V55.15H61.05V55.05H61.15V54.95H61.25L61.35 54.85L61.45 54.75H61.55V54.65H61.65V54.55H61.75V54.45H61.85V54.35L61.95 54.25V54.15H62.05V54.05L62.15 53.95V53.85L62.25 53.75V53.65L62.35 53.55V53.45H62.45V53.35V53.25V53.15V53.05H62.35H62.25V52.95V52.85H62.35V52.75L62.45 52.65L62.35 52.55H62.45V52.45V52.35V52.25H62.55V52.15V52.05L62.65 51.95V51.85L62.75 51.75V51.65V51.55V51.45V51.35V51.25L62.85 51.15L62.95 51.05V50.95V50.85H63.05V50.75L63.15 50.65V50.55H63.25V50.45V50.35H63.35V50.25V50.15L63.45 50.05L63.55 49.95L63.65 49.85V49.75H63.75V49.65H63.85L64.15 49.35V49.25H64.25V49.15H64.35V49.05L64.45 48.95H64.55V48.85L64.65 48.75H64.75V48.65H64.85V48.55L64.95 48.45V48.35H65.05V48.25H65.15V48.15L65.25 48.05V47.95H65.35V47.85L65.45 47.75V47.65H65.55L65.65 47.45H65.75V47.35H65.85V47.25V47.15H65.95V47.05H66.05V46.95L66.15 46.85V46.75H66.25V46.65H66.35V46.55H66.45V46.45L66.55 46.35V46.25H66.65V46.15H66.75V46.05H66.85V45.95H66.95V45.85H67.05V45.75H67.15V45.65H67.25L67.35 45.55H67.45H67.55V45.45H67.65L67.75 45.35L67.85 45.25L67.95 45.15H68.05V45.05H68.15L68.25 44.95V44.85H68.35V44.75H68.45V44.65H68.55V44.55H68.65V44.45V44.35H68.75V44.25L68.65 44.15L68.75 44.05H68.85H68.95V43.95H69.05H69.15V43.85H69.25H69.35V43.75H69.45L69.55 43.65H69.65V43.55H69.75L69.85 43.45L70.05 43.35V43.25H70.15L70.35 43.05L70.45 42.95H70.55V42.85H70.65V42.75V42.65H70.75L70.85 42.55H70.95H71.05V42.45H71.15V42.35H71.25V42.25H71.35H71.45V42.15H71.55V42.05H71.65V41.95H71.75H71.85L71.95 41.85H72.05L72.15 41.75H72.25L72.35 41.65H72.45L72.55 41.55H72.65V41.45H72.75H72.85L72.95 41.35H73.05H73.15V41.25H73.25L73.35 41.15H73.45H73.55V41.05H73.65L73.75 40.95H73.85L73.95 40.85H74.05L74.15 40.75H74.25V40.65H74.45L74.55 40.55H74.65L74.75 40.45H74.85L74.95 40.35L75.05 40.25H75.15L75.25 40.15H75.35L75.45 40.05H75.55L75.65 39.95H75.75H75.85V39.85H75.95L76.05 39.75H76.15V39.65H76.25L76.35 39.55V39.45H76.45V39.35H76.55V39.25H76.65H76.75V39.15H76.85H76.95V39.05H77.05L77.15 38.95H77.25V38.85H77.35H77.45H77.55V38.75H77.65V38.65H77.75H77.85V38.55H77.95V38.45H78.05L78.15 38.35H78.25V38.25L78.35 38.15V38.05H78.45H78.55V37.95H78.65V37.85H78.75L78.85 37.75L78.95 37.65H79.05V37.55H79.15L79.25 37.45H79.35L79.45 37.35H79.55V37.25H79.65V37.15H79.75V37.05H79.85V36.95H79.95V36.85H80.05V36.75L80.15 36.65V36.55H80.25V36.45H80.35V36.35L80.45 36.25V36.15V36.05H80.55V35.95V35.85V35.75V35.65V35.55V35.45H80.45V35.35H80.35H80.25V35.25V35.15L80.35 35.05V34.95H80.45V34.85V34.75H80.55V34.65V34.55H80.65V34.45L80.75 34.35V34.25H80.85V34.15H80.95H81.05V34.05H81.15H81.25L81.35 33.95H81.45V33.85H81.55H81.65V33.75H81.75H81.85V33.65H81.95V33.55H82.05V33.45L82.15 33.35H82.25V33.25V33.15H82.35V33.05H82.45H82.55V32.95H82.65V32.85H82.75V32.75H82.85L82.95 32.65V32.55H83.05V32.45H83.15V32.35H83.25V32.25H83.35V32.15V32.05H83.45V31.95V31.85H83.55V31.75V31.65V31.55V31.45V31.35H83.65V31.25H83.75V31.15H83.85H83.95V31.05H84.05V30.95H84.15V30.85H84.25H84.35V30.75H84.45L84.55 30.65L84.65 30.55H84.75V30.45H84.85V30.35L84.95 30.25V30.15H85.05H85.15V30.05H85.25V29.95V29.85H85.35V29.75H85.45V29.65H85.55V29.55V29.45H85.65V29.35L85.75 29.25V29.15H85.85V29.05H85.95V28.95H86.05V28.85H86.15V28.75H86.25V28.65H86.35V28.55H86.45V28.45H86.55V28.35H86.65V28.25L86.75 28.15L86.85 28.05L86.95 27.95V27.85H87.05V27.75V27.65H87.15H87.25V27.55V27.45H87.35L87.45 27.35V27.25H87.55L87.65 27.15H87.75V27.05H87.85V26.95H87.95V26.85H88.05V26.75H88.15L88.25 26.65V26.55H88.35H88.45V26.45H88.55V26.35V26.25H88.65V26.15H88.75V26.05H88.85V25.95H88.95V25.85H89.05V25.75H89.15L89.25 25.65L89.35 25.55H89.45V25.45L89.55 25.35L89.65 25.25H89.75V25.15H89.85V25.05H89.95V24.95H90.05L90.15 24.85H90.25L90.35 24.75H90.45L90.55 24.65H90.65L90.75 24.55H90.85V24.45H90.95L91.05 24.35H91.15L91.25 24.25H91.35V24.15H91.45V24.05H91.55L91.65 23.95H91.75V23.85H91.85V23.75H91.95V23.65H92.05V23.55H92.15V23.45H92.25V23.35H92.35V23.25H92.45V23.15H92.55V23.05H92.65V22.95H92.75V22.85H92.85V22.75H92.95V22.65H93.05V22.55H93.15L93.25 22.45L93.35 22.35L93.45 22.25H93.55V22.15H93.65V22.05H93.75V21.95H93.85V21.85V21.75H93.95V21.65H94.05V21.55V21.45H94.15V21.35L94.25 21.25H94.35V21.15V21.05H94.45V20.95V20.85H94.55V20.75H94.65V20.65H94.75V20.55H94.85V20.45H94.95V20.35H95.05V20.25H95.15V20.15H95.25V20.05L95.35 19.95V19.85H95.45V19.75H95.55V19.65V19.55H95.65V19.45V19.35H95.75V19.25H95.85V19.15H95.95V19.05L96.05 18.95V18.85H96.15V18.75H96.25V18.65H96.35V18.55V18.45H96.45V18.35H96.55V18.25V18.15H96.65V18.05V17.95H96.75V17.85H96.85V17.75L96.95 17.65V17.55H97.05V17.45V17.35H97.15V17.25V17.15H97.25V17.05V16.95H97.35V16.85H97.45L97.35 16.75H97.45V16.65V16.55H97.55V16.45H97.65V16.35V16.25H97.75V16.15H97.85V16.05H97.95V15.95H98.05V15.85H98.15V15.75L98.25 15.65V15.55H98.35V15.45H98.45V15.35H98.55V15.25H98.65V15.15H98.75V15.05H98.85V14.95H98.95V14.85H99.05V14.75V14.65H99.15V14.55V14.45H99.25V14.35H99.35V14.25H99.45V14.15H99.55L99.65 14.05H99.75V13.95H99.85H99.95V13.85H100.05V13.75L100.15 13.65V13.55H100.25V13.45H100.35L100.45 13.35V13.25H100.55H100.65V13.15H100.75V13.05H100.85L100.95 12.95H101.05V12.85H101.15V12.75H101.25V12.65H101.35V12.55L101.45 12.45V12.35H101.55V12.25H101.65V12.15L101.75 12.05V11.95H101.85V11.85H101.95V11.75V11.65H102.05L102.15 11.55H102.25V11.45H102.35H102.45V11.35H102.55H102.65V11.25H102.75H102.85V11.15H102.95V11.05H103.05V10.95H103.15V10.85H103.25L103.35 10.75H103.45H103.55V10.65H103.65H103.75V10.55H103.85H103.95V10.45H104.05H104.15V10.35H104.25H104.35H104.45V10.25H104.55H104.65L104.75 10.15H104.85H104.95V10.05H105.05H105.15H105.25V9.95001H105.35H105.45V9.84998H105.55H105.65L105.75 9.75H105.85H105.95L106.05 9.65002H106.15H106.25V9.54999H106.35H106.45L106.55 9.45001H106.65H106.75L106.85 9.34998H106.95H107.05L107.15 9.25H107.25H107.35L107.45 9.15002H107.55H107.65V9.04999H107.75H107.85L107.95 8.95001H108.05H108.15V8.84998H108.25H108.35V8.75H108.45H108.55H108.65V8.65002H108.75H108.85V8.54999H108.95H109.05V8.45001H109.15L109.25 8.34998H109.35L109.45 8.25H109.55V8.15002H109.65H109.75V8.04999H109.85V7.95001H109.95H110.05V7.84998H110.15V7.75H110.25V7.65002H110.35L110.45 7.54999V7.45001H110.55V7.34998V7.25H110.65V7.15002V7.04999V6.95001H110.75V6.84998H110.85V6.75V6.65002V6.54999V6.45001V6.34998V6.25V6.15002V6.04999V5.95001L110.95 5.84998V5.75H111.05V5.65002H111.15V5.54999L111.25 5.45001V5.34998V5.25H111.35V5.15002V5.04999V4.95001L111.45 4.84998V4.75V4.65002V4.54999H111.55V4.45001V4.34998V4.25V4.15002V4.04999V3.95001V3.84998V3.75V3.65002V3.54999L111.65 3.45001V3.34998V3.25H111.75H111.85V3.15002H111.95V3.04999H112.05V2.95001H112.15L112.25 2.84998H112.35H112.45V2.75H112.55H112.65V2.65002H112.75H112.85V2.54999H112.95H113.05V2.45001H113.15H113.25H113.35V2.34998H113.45V2.25H113.55H113.65V2.15002H113.75H113.85V2.04999H113.95V1.95001H114.05L114.15 1.84998L114.25 1.75L114.35 1.65002V1.54999H114.45H114.55V1.45001V1.34998H114.65H114.75V1.25H114.85V1.15002H114.95L115.05 1.04999L115.15 0.950012V0.849976H115.25V0.75H115.35V0.650024H115.45V0.549988H115.55V0.450012H115.65H115.75V0.349976H115.85V0.25H115.95Z" fill="#6F9C76"/>
<path d="M0.350006 219.15V219.25V219.35H0.450005V219.45H0.350006V219.55H0.450005V219.65H0.550003V219.75H0.650002V219.85V219.95H0.75V220.05V220.15H0.850006V220.05H0.950005H1.05H1.15H1.25V219.95L1.35001 220.05H1.45V220.15V220.25H1.55V220.35V220.45V220.55H1.65V220.65V220.75H1.75H1.85001V220.85H1.95V220.95V221.05V221.15V221.25H2.05V221.35H2.15V221.45V221.55H2.25V221.65V221.75V221.85V221.95V222.05H2.35001V222.15H2.45H2.55V222.25L2.65 222.35V222.45V222.55L2.75 222.65V222.75V222.85H2.85001V222.95H2.95V223.05H3.05V223.15H3.15V223.25V223.05V222.85L2.65 221.15V220.75L2.25 218.75V218.55V218.05V217.95V216.75V215.15L2.45 213.95L2.55 213.75L2.65 213.45L2.75 213.15V213.05L2.85001 212.85L2.95 212.65L3.05 212.35L3.15 212.05L3.25 211.75L3.35001 211.55L3.45 211.25L3.55 211.05L3.65 210.75L3.75 210.45L3.85001 210.15V209.75V209.45V209.05V208.65L3.75 208.25L3.85001 207.95L3.95 207.65V207.35L4.05 207.05L4.25 206.85L4.35001 206.55L4.55 206.35L4.65 206.15L4.85001 205.95L4.95 205.65L5.15 205.45L5.25 205.15L5.35001 204.85L5.45 204.55L5.55 204.35L5.65 204.05L5.75 203.85L5.95 203.55V203.25L6.05 203.15L6.25 202.15L6.45 201.15L6.55 200.25L6.75 199.25L6.95 198.25L7.15 197.35L7.35001 196.35L7.55 195.35V195.05L7.65 194.35H7.75L7.85001 193.45L8.15 192.65L8.45 191.75L8.55 191.55L12.15 191.45L28.55 191.25H29.45H30.45L31.35 191.15H32.35L33.35 191.25H34.35H35.25H36.25L37.15 191.15H38.15L39.15 191.25H40.05H41.05H42.05H42.95L43.95 191.15H44.95L45.85 191.25H46.85H47.75H48.75L49.75 191.15H50.65L51.65 191.25H52.65H53.55H54.55H55.45H56.45H57.45H58.25H58.75H59.25H59.65H60.15H61.15H62.05H62.35H63.05H64.05H64.95H65.95H66.95H67.85H68.55H68.85H69.85H70.75H71.15H72.05H73.25H73.95H74.95H75.95H76.95H77.85H78.85H79.75H80.75H81.75H82.65H83.65H84.65L85.55 191.35H86.55H87.55H88.45H89.45H90.45H91.35H92.35H93.25H94.25H95.25H96.15H96.95H97.15H98.15H101.95H102.05H102.95H103.85H104.85H105.85H108.75H116.75H117.75H118.75L119.65 191.25H120.65H121.55H122.05H122.55H123.55H124.45H125.35H125.45H126.35H127.35H128.35H129.25H130.25H131.25L132.15 191.15H133.15H134.15H135.05H136.05H136.95H137.95H138.95H139.85H140.85H141.85H142.75H143.75L144.65 191.05H145.65H146.65H147.55H147.65H148.45H149.45H150.35H151.35H152.35H153.25H154.25H155.25H155.55H156.15H157.15H158.15H159.05H160.05H160.95H161.95H162.95H163.45H164.45H164.85H165.35H166.35H167.35H168.25H169.25H170.25H171.15H172.15H173.05H174.05H175.05H175.95H176.95H177.95H178.85L179.85 191.15H180.85H181.75H182.75H183.65H184.65H185.65H186.65H187.55L215.25 191.35L214.65 182.45L214.35 177.55L212.85 154.15L211.95 139.95L211.15 125.75L210.45 122.05L207.85 114.75L207.35 111.05L208.05 107.25L209.75 103.65L214.25 97.25L215.25 95.95L220.45 92.25L227.05 87.75L232.75 83.75L236.05 81.45L237.75 80.95L238.55 80.35L239.55 80.15L240.55 80.05L241.55 79.85L242.55 79.75L243.55 79.55L244.45 79.45L245.45 79.35L246.45 79.15L247.45 79.05L248.45 78.85L249.15 78.75L249.55 78.65L250.35 78.25L251.35 77.75L252.35 77.25L253.35 76.75L254.45 76.25L255.45 75.65L256.45 75.25L257.45 74.65L259.45 73.65L260.45 73.15L261.35 72.95L262.35 72.65L263.35 72.35L264.45 72.05L265.35 71.85L266.35 71.55L266.95 71.45L267.55 70.65L267.75 68.65V64.05V59.65V55.35V50.95V46.65V42.35V37.95V33.65V29.25V24.85V20.55V17.25L262.65 15.65L259.25 15.05L257.95 14.75L254.75 14.35L251.85 14.75L249.65 15.45L241.85 17.25L240.25 17.55L238.05 17.75L236.45 17.55L235.25 17.25L232.55 16.15L230.25 15.05L223.65 12.65L221.95 11.85L220.25 11.55L219.45 11.35L218.65 11.15L213.35 9.95001L209.75 9.25L205.25 9.65002L200.55 10.05L195.75 11.85L193.05 12.75L189.05 14.65L182.35 16.45L179.85 17.15L177.45 16.65L173.35 14.95L169.25 13.95L163.85 12.55L159.45 11.75L154.45 12.05L150.95 12.15L148.25 12.35H147.45L146.65 12.55L145.55 12.85L136.85 15.65L133.85 14.75L132.45 13.45L131.45 12.25L130.85 10.95L128.55 9.34998L126.45 8.65002L124.15 8.25L122.25 7.65002L120.05 5.65002L117.95 3.75L116.85 2.54999L116.55 1.54999L116.25 0.75L115.95 0.25H115.85V0.349976H115.75V0.450012H115.65H115.55V0.549988H115.45V0.650024H115.35V0.75H115.25V0.849976H115.15V0.950012L115.05 1.04999L114.95 1.15002H114.85V1.25H114.75V1.34998H114.65H114.55V1.45001V1.54999H114.45H114.35V1.65002L114.25 1.75L114.15 1.84998L114.05 1.95001H113.95V2.04999H113.85V2.15002H113.75H113.65V2.25H113.55H113.45V2.34998H113.35V2.45001H113.25H113.15H113.05V2.54999H112.95H112.85V2.65002H112.75H112.65V2.75H112.55H112.45V2.84998H112.35H112.25L112.15 2.95001H112.05V3.04999H111.95V3.15002H111.85V3.25H111.75H111.65V3.34998V3.45001L111.55 3.54999V3.65002V3.75M0.350006 219.15H0.25M0.350006 219.15V219.05V218.95V218.85H0.450005V218.75H0.550003V218.65H0.650002V218.55H0.75L0.850006 218.45V218.35H0.950005V218.25H1.05V218.15H1.15V218.05L1.25 217.95V217.85V217.75H1.35001V217.65V217.55H1.45V217.45L1.55 217.35V217.25V217.15L1.65 217.05V216.95V216.85V216.75H1.75V216.65V216.55H1.65V216.45V216.35V216.25L1.55 216.35V216.25V216.15V216.05V215.95L1.45 215.85V215.75H1.35001M1.35001 215.75V215.85M1.35001 215.75V215.65V215.55V215.45H1.25V215.35H1.15M1.15 215.35V215.45M1.15 215.35V215.25H1.05V215.35L0.950005 215.25V215.15V215.05V214.95V214.85H0.850006V214.75H0.75L0.850006 214.65V214.55V214.45H0.950005V214.35V214.25H1.05V214.15V214.05L1.15 213.95H1.05L1.15 213.85V213.75L1.25 213.65V213.55M1.25 213.55H1.15M1.25 213.55V213.45V213.35V213.25V213.15L1.35001 213.05V212.95V212.85V212.75V212.65L1.45 212.55V212.45V212.35H1.55V212.25H1.65V212.15L1.75 212.05V211.95V211.85H1.85001V211.75H1.95V211.65L2.05 211.55V211.45V211.35V211.25H2.15V211.15V211.05V210.95H2.25V210.85V210.75V210.65H2.35001V210.55V210.45H2.45V210.35V210.25V210.15V210.05H2.35001V209.95V209.85H2.45L2.35001 209.75H2.45V209.65V209.55V209.45V209.35H2.35001V209.25V209.15H2.45V209.05V208.95V208.85V208.75V208.65M2.45 208.65H2.55M2.45 208.65V208.55V208.45M2.45 208.45H2.55M2.45 208.45V208.35M2.45 208.35H2.55M2.45 208.35V208.25V208.15V208.05V207.95V207.85V207.75V207.65V207.55L2.35001 207.45H2.45V207.35V207.25V207.05V206.95L2.55 206.85L2.45 206.75H2.55V206.65L2.45 206.55H2.55V206.45V206.35L2.45 206.25V206.15V206.05V205.95H2.35001L2.45 205.85V205.75V205.65V205.55V205.45H2.55V205.35M2.55 205.35H2.45M2.55 205.35V205.25V205.15H2.65V205.05V204.95H2.75V204.85V204.75V204.65V204.55V204.45H2.85001V204.35H2.75L2.85001 204.25V204.15V204.05V203.95H2.95V203.85V203.75V203.65V203.55V203.45V203.35V203.25V203.15L3.05 203.05V202.95V202.85V202.75V202.65V202.55V202.45V202.35H3.15V202.25V202.15V202.05L3.25 201.95V201.85V201.75V201.65H3.35001V201.55V201.45H3.45V201.35V201.25V201.15V201.05M3.45 201.05H3.55M4.25 193.15V193.25H4.15V193.35H4.25V193.45H4.15V193.55H4.25V193.65V193.75H4.35001V193.85V193.95V194.05H4.25V194.15V194.25H4.15V194.35V194.45V194.55L4.05 194.65V194.75L3.95 194.85V194.95V195.05V195.15H3.85001L3.95 195.25V195.35H3.85001V195.45H3.95L3.85001 195.55H3.95V195.65V195.75V195.85H3.85001V195.95V196.05H3.75L3.85001 196.15V196.25V196.35H3.75V196.45V196.55V196.65L3.65 196.75V196.85L3.55 196.95V197.05V197.15V197.25V197.35H3.45V197.45V197.55V197.65V197.75V197.85V197.95V198.05L3.35001 198.15V198.25V198.35V198.45V198.55V198.65H3.25V198.75V198.85V198.95V199.05V199.15V199.25V199.35V199.45V199.55V199.65V199.75H3.15V199.85V199.95V200.05V200.15V200.25V200.35V200.45V200.55V200.65H3.25V200.75V200.85H3.35001V200.95H3.45V201.05M3.55 196.95H3.65M4.25 193.15H4.15M4.15 192.35L4.25 192.45V192.55H4.15V192.65V192.75H4.25V192.85L4.15 192.95H4.25V193.05V193.15M4.25 192.45H4.15V192.35M4.15 192.35V192.25M4.15 192.25H4.05M4.25 191.25V191.35V191.45V191.55L4.15 191.65V191.75V191.85V191.95V192.05V192.15V192.25M4.25 191.55H4.15M4.25 191.25H4.15M4.25 191.25V191.15V191.05H4.35001V190.95V190.85V190.75V190.65V190.55V190.45H4.45V190.35V190.25L4.35001 190.15H4.45V190.05M4.45 190.05H4.35001M5.05 188.15V188.25V188.35H4.95V188.45V188.55V188.65H4.85001V188.75V188.85V188.95H4.75V189.05V189.15L4.65 189.25V189.35V189.45L4.55 189.55V189.65V189.75H4.45V189.85V189.95V190.05M4.65 189.25H4.75M5.05 188.15H4.95M5.05 188.15V188.05V187.95V187.85H5.15L5.05 187.75H5.15V187.65M5.15 187.55H5.05V187.65H5.15M5.15 187.65V187.55M5.05 187.65L5.15 187.55M5.25 185.85V185.95L5.15 186.05V186.15V186.25V186.35V186.45H5.05L5.15 186.55H5.05V186.65V186.75L5.15 186.85V186.95V187.05V187.15V187.25V187.35V187.45V187.55M5.05 186.75H5.15M5.25 185.95H5.15M5.25 185.85H5.15M6.45 179.75V179.85V179.95V180.05H6.35001V180.15L6.25 180.25V180.35V180.45V180.55V180.65H6.15V180.75H6.25L6.15 180.85V180.95V181.05V181.15V181.25H6.25V181.35L6.15 181.45H6.25V181.55H6.15V181.65V181.75V181.85V181.95V182.05V182.15V182.25V182.35V182.45H6.05V182.55V182.65V182.75V182.85H5.95V182.95V183.05L5.85001 183.15V183.25V183.35V183.45V183.55H5.75V183.65V183.75V183.85L5.65 183.95V184.05V184.15V184.25V184.35L5.55 184.45V184.55V184.65H5.45V184.75V184.85V184.95H5.35001V185.05V185.15H5.25V185.25V185.35V185.45V185.55V185.65V185.75V185.85M5.75 183.85H5.65M6.15 180.85H6.25M6.25 180.25H6.35001M6.45 179.75H6.55M6.45 179.75V179.65V179.55M6.45 179.55H6.55M6.65 176.05V176.15L6.55 176.25V176.35L6.65 176.45V176.55V176.65V176.75V176.85V176.95V177.05H6.75V177.15H6.85001V177.25V177.35V177.45V177.55V177.65V177.75H6.75V177.85V177.95V178.05V178.15V178.25V178.35V178.45V178.55V178.65V178.75V178.85L6.65 178.95V179.05V179.15H6.55V179.25V179.35L6.45 179.45V179.55M6.65 176.15H6.55M6.65 176.05H6.55M6.65 176.05V175.95V175.85V175.75V175.65H6.75V175.55L6.65 175.45H6.75V175.35V175.25H6.85001V175.15V175.05V174.95V174.85H6.95V174.75L7.05 174.65V174.55V174.45V174.35V174.25L7.15 174.15V174.05V173.95V173.85V173.75V173.65V173.55V173.45V173.35V173.25V173.15M7.15 173.15H7.05M7.15 173.15V173.05V172.95V172.85L7.05 172.75V172.65V172.55H6.95V172.45V172.35V172.25V172.15V172.05V171.95V171.85V171.75H6.85001V171.65V171.55V171.45V171.35M6.85001 171.35H6.75M6.85001 171.35V171.25L6.75 171.15V171.05V170.95V170.85V170.75V170.65V170.55V170.45L6.65 170.35L6.75 170.25V170.15V170.05V169.95V169.85L6.85001 169.75V169.65H6.95V169.55V169.45H7.05V169.35H7.15V169.25H7.25H7.35001V169.15H7.45V169.05V168.95H7.55V168.85H7.65V168.75H7.75V168.65V168.55H7.85001V168.45H7.95V168.35V168.25H8.05V168.15H8.15V168.05V167.95H8.25V167.85V167.75H8.35001V167.65V167.55V167.45H8.45V167.35V167.25V167.15L8.35001 167.05V166.95L8.25 166.85L8.15 166.75H8.05H7.95V166.85V166.95H7.85001V166.85H7.75V166.75H7.65V166.65V166.55V166.45V166.35V166.25V166.15V166.05V165.95V165.85V165.75V165.65L7.55 165.55V165.45V165.35H7.65V165.25V165.15H7.75V165.05V164.95H7.85001V164.85V164.75M7.85001 164.75H7.95M8.05 163.65V163.75V163.85V163.95V164.05V164.15H7.95V164.25V164.35L7.85001 164.45V164.55V164.65V164.75M7.85001 164.45H7.95M8.05 163.65H7.95M15.05 147.25V147.35V147.45V147.55H14.95V147.65L14.85 147.75V147.85L14.75 147.95V148.05L14.65 148.15V148.25V148.35V148.45H14.55V148.55V148.65H14.45V148.75V148.85H14.35V148.95V149.05V149.15V149.25H14.25V149.35V149.45V149.55H14.15V149.65V149.75V149.85V149.95V150.05H14.05V150.15V150.25L13.95 150.35V150.45V150.55H13.85V150.65V150.75V150.85L13.75 150.95V151.05V151.15V151.25H13.65V151.35V151.45H13.55V151.55L13.45 151.65V151.75H13.35V151.85V151.95H13.25V152.05H13.15V152.15V152.25H13.05V152.35V152.45V152.55H12.95V152.65V152.75V152.85V152.95H12.85V153.05V153.15H12.75V153.25L12.65 153.35V153.45V153.55V153.65H12.55V153.75V153.85V153.95V154.05V154.15V154.25V154.35V154.45H12.45V154.55L12.35 154.65V154.75H12.25V154.85V154.95H12.15V155.05V155.15V155.25V155.35V155.45H12.05V155.55V155.65V155.75V155.85H11.95V155.95H11.85V156.05V156.15H11.75V156.25V156.35H11.65V156.45L11.55 156.55V156.65H11.45V156.75V156.85H11.35V156.95H11.25V157.05V157.15V157.25L11.15 157.35V157.45V157.55V157.65V157.75L11.05 157.85H11.15H11.25V157.95H11.35V158.05V158.15V158.25V158.35V158.45V158.55V158.65V158.75H11.25V158.85V158.95V159.05H11.15V159.15V159.25V159.35L11.05 159.45V159.55V159.65H10.95V159.75V159.85H10.85V159.95V160.05H10.75V160.15L10.65 160.25V160.35H10.55V160.45V160.55H10.45V160.65V160.75H10.35V160.85V160.95H10.25V161.05H10.15V161.15L10.05 161.25V161.35H9.95V161.45H9.85001V161.55H9.75V161.65H9.65V161.75H9.55V161.85H9.45V161.95H9.35001V162.05H9.25V162.15H9.15L9.05 162.25H8.95V162.35L8.85001 162.45H8.75V162.55H8.65V162.65H8.55V162.75H8.45V162.85H8.35001L8.45 162.95H8.35001V163.05V163.15H8.25V163.25L8.15 163.35V163.45V163.55H8.05V163.65M8.35001 163.15L8.25 163.05M15.05 147.25H15.15M15.05 147.25V147.15V147.05L15.15 146.95V146.85H15.25V146.75V146.65H15.35V146.55V146.45H15.45V146.35V146.25V146.15V146.05V145.95H15.55V145.85V145.75L15.65 145.65V145.55V145.45V145.35V145.25H15.75V145.15V145.05H15.85V144.95H15.95V144.85V144.75V144.65H16.05V144.55H16.15H16.25H16.35L16.45 144.45H16.55H16.65L16.75 144.35H16.85V144.25H16.95H17.05V144.15H17.15H17.25V144.05H17.35H17.45V143.95H17.55V143.85H17.65V143.75H17.75V143.65H17.85V143.55L17.95 143.45V143.35V143.25L17.85 143.15V143.05V142.95H17.95L17.85 142.85M17.85 142.85V142.75M17.85 142.85H17.75V142.75V142.65H17.65M17.65 142.65V142.75M17.35 142.35L17.45 142.45H17.55H17.65V142.55V142.65M17.45 142.45V142.35M17.35 142.35L17.25 142.45V142.35H17.35ZM17.35 142.35V142.25H17.45V142.15H17.55V142.25L17.65 142.15H17.75V142.05H17.85L17.75 141.95H17.85V141.85H17.95V141.75H18.05V141.65H17.95V141.55H18.05V141.45H18.15H18.25V141.35V141.25M18.25 141.25H18.15M18.25 141.25V141.15H18.35M18.25 141.25L18.35 141.15M18.35 141.15H18.45H18.55V141.05H18.65V140.95H18.75L18.85 140.85H18.95L19.05 140.75H19.15V140.65H19.25V140.55H19.35H19.45V140.45H19.55V140.35H19.65V140.25H19.75V140.15H19.85V140.05H19.95V139.95H20.05V139.85H20.15V139.75H20.25V139.65H20.35H20.45V139.55H20.55V139.45H20.65V139.35H20.75V139.25V139.15H20.85V139.05H20.95V138.95H21.05V138.85V138.75H21.15V138.65V138.55H21.25L21.15 138.45L21.25 138.35H21.35V138.25H21.45V138.15V138.05H21.55V137.95H21.65V137.85H21.75V137.75H21.85V137.65H21.95V137.55H22.05V137.45H22.15H22.25V137.35V137.25H22.35H22.45V137.15H22.55V137.05H22.65H22.75H22.85H22.95H23.05V137.15V137.25H23.15H23.25V137.15L23.35 137.25V137.15H23.45H23.55H23.65H23.75H23.85H23.95H24.05V137.25V137.35H24.15V137.45V137.55H24.25V137.65H24.35V137.75V137.85V137.95L24.45 138.05H24.55V138.15H24.65V138.25H24.75V138.35H24.85V138.45V138.55V138.65H24.95H25.15H25.25H25.45H25.55H25.65H25.75L25.95 138.55H26.05H26.15H26.25L26.35 138.45H26.45H26.55H26.65L26.75 138.35H26.85H26.95L27.05 138.25H27.15H27.25L27.35 138.15H27.45H27.55H27.65V138.05H27.75H27.85H27.95V137.95H28.05H28.15L28.25 137.85H28.35L28.45 137.75H28.55H28.65L28.75 137.65H28.85H28.95V137.55H29.05H29.15L29.25 137.45H29.35H29.45V137.35H29.55H29.65V137.25H29.75H29.85V137.15H29.95H30.05V137.05H30.15L30.25 136.95H30.35L30.45 136.85L30.55 136.75H30.65V136.65H30.75H30.85V136.55H30.95L31.05 136.45H31.15V136.35H31.25V136.25H31.35H31.45V136.15H31.55V136.05H31.65L31.75 135.95H31.85V135.85H31.95V135.75H32.05V135.65H32.15L32.25 135.55V135.45H32.35V135.35H32.45V135.25H32.35V135.15V135.05V134.95V134.85V134.75V134.65V134.55V134.45H32.45V134.35V134.25V134.15H32.35V134.05H32.45H32.55V133.95H32.65V133.85H32.75H32.85V133.75H32.95V133.65H33.05V133.55V133.45H33.15V133.35H33.25V133.25H33.35V133.15V133.05H33.45V132.95V132.85H33.55V132.75V132.65H33.65V132.55V132.45H33.75V132.35V132.25L33.85 132.15V132.05V131.95H33.95L34.05 131.85V131.75H34.15V131.65M34.15 131.65V131.55M34.15 131.65L34.25 131.55L34.15 131.45V131.35V131.25M34.15 131.25H34.25M43.25 102.45V102.55H43.35V102.65H43.25V102.75V102.85V102.95H43.15V103.05V103.15V103.25H43.05V103.35V103.45V103.55V103.65L42.95 103.75V103.85V103.95H42.85V104.05H42.75V104.15V104.25H42.65V104.35H42.55V104.45V104.55V104.65V104.75H42.45V104.85V104.95V105.05V105.15H42.55V105.25H42.45V105.35H42.55V105.45H42.65V105.55H42.75V105.45H42.85H42.95H43.05V105.55H43.15V105.65L43.25 105.75V105.85V105.95V106.05V106.15V106.25V106.45L43.15 106.55V106.75L43.05 106.85L42.95 107.05V107.15L42.85 107.25L42.75 107.45L42.65 107.55L42.55 107.75H42.45V107.85V107.95H42.35V108.05H42.25V108.15L42.15 108.25L42.05 108.35H41.95V108.45H41.85V108.55V108.65H41.75V108.75V108.85V108.95L41.65 109.05V109.15V109.25H41.55V109.35H41.45V109.45V109.55H41.35V109.65H41.25V109.75H41.15H41.05V109.85V109.95V110.05V110.15H41.15V110.25V110.35H41.05V110.45V110.55H40.95H40.85V110.65V110.75L40.75 110.85V110.95V111.05L40.65 111.15V111.25V111.35V111.45V111.55H40.55V111.65V111.75V111.85V111.95V112.05L40.45 112.15V112.25V112.35V112.45H40.35V112.55V112.65V112.75L40.25 112.85V112.95V113.05L40.35 113.15V113.25V113.35V113.45V113.55V113.65V113.75V113.85V113.95V114.05H40.45V114.15V114.25V114.35V114.45V114.55H40.55L40.45 114.65V114.75V114.85V114.95V115.05L40.35 115.15H40.45L40.35 115.25V115.35V115.45V115.55L40.25 115.65V115.75V115.85V115.95V116.05H40.15V116.15H40.25L40.15 116.25V116.35V116.45L40.25 116.55V116.65H40.35V116.75V116.85H40.25V116.95V117.05V117.15H40.15V117.25V117.35V117.45V117.55H40.05V117.65L39.95 117.75V117.85V117.95L39.85 118.05V118.15L39.75 118.25V118.35V118.45V118.55V118.65H39.65V118.75V118.85V118.95H39.55V119.05V119.15V119.25V119.35V119.45L39.45 119.55L39.55 119.65V119.75V119.85V119.95V120.05V120.15H39.45V120.25V120.35V120.45V120.55V120.65V120.75V120.85V120.95V121.05L39.35 121.15V121.25L39.25 121.35V121.45H39.15V121.55V121.65H39.05V121.75H38.95V121.85V121.95H38.85V122.05H38.75V122.15H38.65V122.25H38.55V122.35H38.45V122.45H38.35V122.55H38.25H38.15V122.65H38.05V122.75H37.95V122.85H37.85H37.75V122.95H37.65V123.05H37.55V123.15H37.45L37.35 123.25H37.25V123.35H37.15V123.45H37.05V123.55H36.95H36.85L36.75 123.65H36.65V123.75H36.55V123.85L36.45 123.75V123.85H36.35H36.25V123.95H36.15V124.05H36.05V124.15H35.95H35.85V124.25V124.35V124.45H35.75V124.55V124.65H35.65V124.75V124.85H35.55V124.95H35.45V125.05V125.15H35.35V125.25V125.35H35.25V125.45V125.55V125.65V125.75V125.85L35.15 125.95V126.05H35.25V126.15H35.15L35.25 126.25V126.35V126.45V126.55L35.15 126.65V126.75V126.85H35.05V126.95L34.95 127.05V127.15V127.25H34.85V127.35L34.75 127.45V127.55L34.65 127.65V127.75V127.85V127.95V128.05V128.15H34.75V128.25L34.65 128.35V128.45L34.75 128.55H34.65V128.65V128.75V128.85V128.95V129.05L34.55 129.15V129.35V129.45V129.55H34.45V129.65V129.75V129.85V129.95H34.35V130.05V130.15V130.25V130.35L34.25 130.45V130.55H34.15V130.65V130.75V130.85V130.95V131.05V131.15V131.25M40.35 113.15H40.25M43.25 102.45H43.15M47.45 92.45L47.35 92.55V92.45H47.45L47.55 92.35V92.25H47.65V92.15H47.75H47.85L47.95 92.05L48.05 91.95H48.15V91.85H48.25H48.35V91.75H48.45H48.55H48.65H48.85H48.95L49.05 91.85H49.15L49.25 91.95H49.35L49.45 92.05H49.55V92.15H49.65V92.25H49.75V92.35L49.85 92.45L49.95 92.55V92.65H50.05V92.75H50.15V92.85L50.25 92.95V93.05L50.35 93.15V93.25H50.45V93.35V93.45H50.55V93.55V93.65L50.65 93.75V93.85V93.95H50.75V94.05V94.15V94.25L50.85 94.35V94.45V94.55V94.65V94.75L50.95 94.85V94.95V95.05V95.15V95.35V95.45V95.55V95.65V95.75V95.85L50.85 95.95V96.05V96.15V96.35V96.45V96.55H50.75V96.65V96.75V96.85L50.65 96.95V97.05V97.15L50.55 97.25V97.35V97.45L50.45 97.55V97.65L50.35 97.75V97.85L50.25 97.95V98.05L50.15 98.15V98.25V98.35L50.05 98.45L49.95 98.55V98.65L49.85 98.75V98.85L49.75 98.95V99.05L49.65 99.15L49.55 99.25H49.45V99.35L49.35 99.45L49.25 99.55V99.65L49.15 99.75L49.05 99.85L48.95 99.95L48.85 100.05L48.65 100.25L48.55 100.35L48.45 100.45L48.35 100.65L48.25 100.75L48.15 100.85L48.05 100.95H47.95V101.05H47.85L47.75 101.15L47.65 101.25L47.55 101.35H47.45V101.45H47.35V101.55H47.25H47.15L47.05 101.65H46.95V101.75H46.85H46.75L46.65 101.85L46.55 101.95H46.45H46.35V102.05H46.25L46.15 102.15H46.05H45.95L45.85 102.25H45.75H45.65L45.55 102.35H45.45H45.35V102.45H45.25H45.15H45.05H44.95V102.55H44.85L44.75 102.65H44.65H44.55V102.75H44.45H44.35V102.85H44.25H44.15H44.05H43.95V102.95H43.85H43.75H43.65V102.85H43.55V102.75V102.65V102.55V102.45H43.45V102.35H43.35V102.25L43.25 102.35V102.45M60.25 67.35H60.15V67.45H60.05V67.55H59.95V67.65L59.85 67.75H59.75V67.85H59.65V67.95V68.05V68.15V68.25H59.75V68.15H59.85H59.95V68.25H60.05H60.15V68.35V68.45V68.55V68.65V68.75V68.85V68.95H60.25H60.35V69.05H60.45H60.55V69.15H60.65V69.25L60.75 69.35V69.45H60.85V69.55V69.65L60.95 69.75H60.85V69.85V69.95V70.05V70.15H60.75V70.25V70.35V70.45H60.65V70.55V70.65H60.55V70.75L60.45 70.85V70.95L60.35 71.05V71.15H60.25V71.25H60.15V71.35V71.45H60.05V71.55L59.95 71.65V71.75V71.85H59.85V71.95L59.75 72.05V72.15V72.25V72.35H59.65V72.45V72.55H59.55V72.65V72.75H59.45V72.85V72.95V73.05L59.35 73.15V73.25H59.25V73.35V73.45H59.15V73.55L59.05 73.65V73.75H58.95V73.85V73.95H58.85V74.05H58.75V74.15V74.25H58.65V74.35V74.45H58.55V74.55V74.65L58.45 74.75L58.35 74.85V74.95H58.25V75.05H58.15V75.15H58.05V75.25L57.95 75.35L57.85 75.45L57.75 75.55L57.65 75.65H57.55V75.75H57.45V75.85L57.35 75.95H57.25V76.05L57.15 76.15L57.05 76.25H56.95V76.35H56.85V76.45H56.75V76.55V76.65H56.65V76.75H56.55V76.85H56.45V76.95H56.35H56.25V77.05H56.15V77.15H56.05V77.25H55.95V77.35L55.85 77.45L55.75 77.55H55.65V77.65H55.55V77.75H55.45V77.85H55.35H55.25V77.95H55.15V78.05H55.05L54.95 78.15V78.25V78.35H55.05V78.45H55.15V78.55V78.65V78.75V78.85H55.25V78.95V79.05V79.15V79.25H55.15V79.35V79.45V79.55H55.05V79.65V79.75H54.95V79.85H54.85V79.95H54.75V80.05L54.65 80.15V80.25H54.55V80.35H54.45V80.45H54.35V80.55V80.65L54.25 80.75V80.85V80.95H54.15V81.05L54.05 81.15V81.25V81.35H53.95V81.45H53.85V81.55V81.65L53.75 81.75V81.85H53.65V81.95L53.55 82.05V82.15H53.45V82.25L53.35 82.35V82.45H53.25V82.55V82.65H53.15V82.75H53.05V82.85L52.95 82.95H52.85V83.05H52.75V83.15L52.65 83.25V83.35H52.55V83.45H52.45V83.55L52.35 83.65V83.75L52.25 83.85V83.95V84.05H52.15V84.15H52.25V84.25V84.35V84.45V84.55V84.65H52.35V84.75V84.85V84.95V85.05V85.15H52.25V85.25V85.35H52.15V85.45L52.05 85.55V85.65H51.95V85.75V85.85V85.95H51.85V86.05V86.15H51.75V86.25H51.65V86.35V86.45H51.55V86.55H51.45V86.65H51.35V86.75H51.25V86.85H51.15V86.95H51.05V87.05V87.15H50.95V87.25H50.85V87.35H50.75V87.45V87.55H50.65V87.65H50.55V87.75H50.45V87.85V87.95H50.35V88.05H50.25V88.15V88.25H50.15V88.35H50.05V88.45V88.55H49.95V88.65L49.85 88.75V88.85H49.75V88.95H49.65L49.55 89.05L49.45 89.15H49.35V89.25H49.25L49.15 89.35H49.05V89.45H48.95H48.85V89.55H48.75V89.65L48.65 89.75L48.55 89.85H48.45V89.95V90.05H48.35V90.15V90.25H48.25V90.35V90.45V90.55H48.15V90.65V90.75H48.05V90.85H47.95V90.95V91.05H47.85V91.15L47.75 91.25V91.35L47.65 91.45V91.55H47.75V91.65V91.75L47.65 91.85V91.95L47.55 92.05V92.15H47.45V92.25V92.35V92.45M60.75 69.35H60.65M60.25 67.35V67.25M60.25 67.35H60.35V67.25H60.45V67.15H60.55V67.05H60.65H60.75H60.85H60.95H61.05V66.95H61.15H61.25V66.85H61.35L61.45 66.75V66.65H61.55V66.55V66.45H61.65V66.35H61.75V66.25L61.85 66.15L61.95 66.05V65.95H62.05V65.85V65.75V65.65H62.15V65.55L62.25 65.45V65.35V65.25H62.35V65.15H62.45V65.05V64.95H62.55L62.65 64.85H62.75L62.85 64.75H62.95H63.05H63.15H63.25V64.65H63.35V64.55V64.45H63.45V64.35V64.25H63.55V64.15V64.05H63.65V63.95V63.85H63.55V63.75V63.65H63.65V63.55H63.75V63.45H63.85V63.35V63.25V63.15H63.95V63.05H64.05V62.95H64.15V62.85V62.75H64.25V62.65V62.55L64.35 62.45V62.35H64.45V62.25V62.15H64.55V62.05V61.95H64.65V61.85V61.75H64.75L64.85 61.65V61.55V61.45V61.35V61.25V61.15V61.05V60.95H64.95H65.25H65.35H65.45L65.55 60.85H65.65V60.75H65.75H65.85V60.65V60.55H65.95V60.45V60.35L66.05 60.25H66.15V60.15H66.25V60.05L66.35 59.95V59.85V59.75H66.45V59.65H66.55V59.55H66.65V59.45V59.35V59.25M66.65 59.25H66.75M69.25 55.05V55.15L69.15 55.25V55.35L69.05 55.45V55.55V55.65H68.95V55.75V55.95V56.05H68.85V56.15V56.25H68.75V56.35H68.65V56.45L68.55 56.55V56.65H68.45V56.75V56.85H68.35V56.95V57.05H68.25V57.15V57.25H68.15V57.35H68.05V57.45H67.95H67.85V57.55H67.75V57.65V57.75V57.85H67.65V57.95H67.55L67.45 58.05V58.15V58.25H67.35V58.35H67.25H67.15V58.45V58.55L67.05 58.65H66.95V58.75H66.85V58.85L66.75 58.95V59.05L66.65 59.15V59.25M67.45 58.05H67.55M69.25 55.15H69.15M69.15 55.15H69.05M73.25 49.25H73.35L73.45 49.15H73.55L73.65 49.05V49.15V49.25V49.35V49.45L73.75 49.55H73.65V49.65V49.75V49.85L73.55 49.95L73.45 50.05H73.35V50.15H73.25V50.25H73.15V50.35H73.05H72.95H72.85H72.75V50.45H72.65H72.55V50.55H72.45V50.65H72.35V50.75H72.25V50.85V50.95H72.15V51.05V51.15H72.05V51.25V51.35V51.45H71.95V51.55H72.05V51.65V51.75H71.95V51.85V51.95L71.85 52.05V52.15V52.25H71.75V52.35V52.45H71.65L71.55 52.55H71.45V52.65H71.35V52.75H71.25V52.85V52.95H71.15V53.05H71.05V53.15H70.95V53.25H70.85V53.35H70.75H70.65V53.45H70.55V53.55H70.45H70.35V53.65V53.75H70.25H70.15L70.05 53.85H69.95V53.95L69.85 54.05V54.15V54.25V54.35H69.75H69.65V54.45V54.55H69.55V54.65H69.45V54.75H69.35V54.85L69.25 54.95L69.15 55.05V55.15M69.05 55.15V55.25H68.95M69.05 55.15H68.95V55.25M68.95 55.25V55.35H68.85V55.25H68.95ZM71.85 52.05H71.95M72.25 49.55H72.35V49.65H72.45V49.55H72.55L72.65 49.45V49.35H72.75V49.25H72.85H72.95V49.15H73.05H73.15H73.25V49.25M73.25 49.25V49.35V49.15M72.25 49.55V49.45M72.25 49.55H72.15H72.05V49.65H71.95V49.75V49.85V49.95H71.85H71.75V50.05H71.65H71.55V49.95L71.65 49.85L71.75 49.75V49.65L71.85 49.55V49.45H71.95V49.35V49.25V49.15V49.05V48.95L72.05 48.85V48.75V48.65V48.55V48.45L72.15 48.35V48.25V48.15H72.25V48.05V47.95V47.85L72.35 47.75L72.45 47.65V47.55L72.55 47.45V47.25V47.15V47.05V46.95H72.45M72.45 46.95V46.85M72.45 46.95V47.05H72.35L72.25 46.95V46.85H72.15V46.75V46.65V46.55V46.45V46.35V46.15V46.05V45.95V45.85V45.75V45.55V45.45V45.35V45.25L72.05 45.15L71.95 45.05L71.85 44.95H71.75V44.85H71.65V44.75H71.55L71.45 44.55H71.35V44.65V44.75L71.25 44.85L71.15 45.05V45.15L71.05 45.25V45.35L70.95 45.45L70.85 45.55L70.75 45.65V45.75V45.85L70.55 46.05V45.95V45.85M70.55 45.85H70.65M68.85 46.45V46.35H68.95V46.25H69.05V46.15V46.05L69.15 45.95H69.25V45.85H69.35V45.75L69.45 45.65V45.55L69.55 45.45V45.35H69.65V45.25V45.15V45.05H69.75L69.85 44.95V44.85H69.95V44.75H70.05V44.65H70.15V44.55H70.25V44.45H70.35V44.35H70.45V44.25H70.55V44.15H70.65H70.75V44.25V44.35V44.45V44.55V44.65V44.75H70.65V44.85L70.55 44.95V45.05H70.45V45.15V45.25L70.35 45.35V45.45L70.25 45.55H70.35V45.65V45.75V45.85V45.95H70.45V45.85V45.75L70.55 45.65V45.55V45.45H70.65L70.75 45.25V45.15H70.85V45.25V45.35V45.45H70.75L70.65 45.55V45.65V45.75H70.55V45.85M70.65 45.55H70.75M68.85 46.45V46.55H68.75V46.45M68.85 46.45H68.75M68.75 46.45V46.35M68.75 46.45H68.65V46.55L68.55 46.65H68.45V46.55H68.35H68.25H68.15V46.45H68.05M68.05 46.45V46.55H67.95V46.45M68.05 46.45H67.95M68.05 46.45L67.95 46.35V46.45M67.95 46.45H67.85M67.85 46.45V46.35M67.85 46.45H67.75V46.55H67.65H67.55V46.65M67.55 46.65H67.65M67.55 46.65V46.75H67.45L67.35 46.85H67.25V46.95L67.15 47.05H67.05V47.15H66.95V47.25L66.85 47.35H66.75L66.65 47.45V47.55H66.55V47.65H66.45V47.75H66.35V47.85V47.95H66.25V48.05H66.15V48.15L66.05 48.25V48.35H65.95V48.45V48.55H65.85V48.65V48.75H65.75V48.85V48.95H65.65V49.05V49.15H65.55V49.25V49.35H65.45V49.25M65.45 49.25V49.15M65.45 49.25H65.35V49.35H65.25L65.15 49.45H65.05V49.55H64.95V49.65H64.85V49.75V49.85H64.75V49.95V50.05H64.65V50.15V50.25V50.35L64.55 50.45H64.45V50.55V50.65V50.75V50.85H64.35V50.95H64.25H64.15V51.05V51.15H64.05V51.25H63.95V51.35H63.85V51.45V51.55V51.65V51.75V51.85H63.75V51.95L63.65 52.05V52.15V52.25V52.35V52.45L63.55 52.55V52.65V52.75V52.85V52.95H63.45H63.35L63.25 53.05V53.15V53.25M63.25 53.25H63.35M59.25 60.85V60.75V60.65V60.55V60.45V60.35H59.35V60.25H59.45V60.15H59.55V60.05V59.95H59.65V59.85V59.75H59.75V59.65L59.85 59.55H59.95V59.45V59.35L60.05 59.25V59.15V59.05V58.95H60.15V58.85H60.25L60.35 58.75H60.45V58.65H60.55H60.65V58.55H60.75V58.45H60.85V58.35H60.95V58.25H61.05L61.15 58.15H61.25V58.05H61.35V57.95H61.45L61.55 57.85L61.65 57.75V57.65H61.75V57.55V57.45V57.35H61.85V57.25L61.95 57.15V57.05H62.05V56.95H62.15H62.25V56.85H62.35V56.75V56.65V56.55V56.45L62.45 56.35V56.25H62.55V56.15H62.65V56.05H62.75V55.95V55.85H62.65V55.75V55.65H62.75V55.55V55.45V55.35V55.25H62.85V55.15V55.05V54.95H62.95V54.85V54.75H63.05V54.65H63.15V54.55V54.45V54.35V54.25V54.15H63.25V54.05V53.95V53.85V53.75V53.65V53.55V53.45V53.35V53.25M61.45 57.95V57.85M61.05 59.05V58.95L60.95 58.85H60.85V58.75L60.65 58.55M61.55 59.05H61.45L61.35 59.15H61.25L61.15 59.05H61.05L60.75 58.75H60.85M61.45 59.05V59.15L61.15 59.45H61.05V59.35L61.25 59.25L61.15 59.15L61.05 59.25V59.15L61.15 59.05M61.15 59.45V59.35M59.85 59.55V59.65H59.75M59.25 60.85V60.95M59.25 60.85L59.15 60.95H59.25M59.25 60.95V61.05H59.15H59.05V60.95H58.95L58.85 60.85H58.75V60.75H58.65H58.55H58.45H58.35H58.25V60.65V60.55L58.15 60.45L58.05 60.35V60.25L57.95 60.05H58.05V59.95V59.85H58.15V59.75L58.25 59.65L58.35 59.55V59.45L58.45 59.35L58.55 59.25V59.15H58.65V59.05V58.95H58.75V58.85H58.85V58.75V58.65H58.95V58.55H59.05V58.45L59.15 58.25V58.15V58.05H59.25V57.95H59.35L59.45 57.85H59.55V57.75H59.65V57.65H59.75H59.85V57.55L59.95 57.45H60.05V57.35H60.15V57.25L60.25 57.15V57.05H60.35V56.95H60.45V56.85V56.75L60.55 56.65V56.55V56.45L60.65 56.35L60.55 56.25V56.15V56.05V55.95H60.45V55.85H60.55V55.75V55.65V55.55L60.65 55.45V55.35H60.75V55.25H60.85H60.95V55.15H61.05V55.05H61.15V54.95H61.25L61.35 54.85L61.45 54.75H61.55V54.65H61.65V54.55H61.75V54.45H61.85V54.35L61.95 54.25V54.15H62.05V54.05L62.15 53.95V53.85L62.25 53.75V53.65L62.35 53.55V53.45H62.45V53.35V53.25V53.15V53.05H62.35H62.25V52.95V52.85H62.35V52.75L62.45 52.65L62.35 52.55H62.45V52.45V52.35V52.25H62.55V52.15V52.05L62.65 51.95V51.85L62.75 51.75V51.65V51.55V51.45V51.35V51.25L62.85 51.15L62.95 51.05V50.95V50.85H63.05V50.75L63.15 50.65V50.55H63.25V50.45V50.35H63.35V50.25V50.15L63.45 50.05L63.55 49.95L63.65 49.85V49.75H63.75V49.65H63.85L64.15 49.35V49.25H64.25V49.15H64.35V49.05L64.45 48.95H64.55V48.85L64.65 48.75H64.75V48.65H64.85V48.55L64.95 48.45V48.35H65.05V48.25H65.15V48.15L65.25 48.05V47.95H65.35V47.85L65.45 47.75V47.65H65.55L65.65 47.45H65.75V47.35H65.85V47.25V47.15H65.95V47.05H66.05V46.95L66.15 46.85V46.75H66.25V46.65H66.35V46.55H66.45V46.45L66.55 46.35V46.25H66.65V46.15H66.75V46.05H66.85V45.95H66.95V45.85H67.05V45.75H67.15V45.65H67.25L67.35 45.55H67.45H67.55V45.45H67.65L67.75 45.35L67.85 45.25L67.95 45.15H68.05V45.05H68.15L68.25 44.95V44.85H68.35V44.75H68.45V44.65H68.55V44.55H68.65V44.45V44.35H68.75V44.25L68.65 44.15L68.75 44.05H68.85H68.95V43.95H69.05H69.15V43.85H69.25H69.35V43.75H69.45L69.55 43.65H69.65V43.55H69.75L69.85 43.45L70.05 43.35V43.25H70.15L70.35 43.05L70.45 42.95H70.55V42.85H70.65V42.75V42.65H70.75L70.85 42.55H70.95H71.05V42.45H71.15V42.35H71.25V42.25H71.35H71.45V42.15H71.55V42.05H71.65V41.95H71.75H71.85L71.95 41.85H72.05L72.15 41.75H72.25L72.35 41.65H72.45L72.55 41.55H72.65V41.45H72.75H72.85L72.95 41.35H73.05H73.15V41.25H73.25L73.35 41.15H73.45H73.55V41.05H73.65L73.75 40.95H73.85L73.95 40.85H74.05L74.15 40.75H74.25V40.65H74.45L74.55 40.55H74.65L74.75 40.45H74.85L74.95 40.35L75.05 40.25H75.15L75.25 40.15H75.35L75.45 40.05H75.55L75.65 39.95H75.75H75.85V39.85H75.95L76.05 39.75H76.15V39.65H76.25L76.35 39.55V39.45H76.45V39.35H76.55V39.25H76.65H76.75V39.15H76.85H76.95V39.05H77.05L77.15 38.95H77.25V38.85H77.35H77.45H77.55V38.75H77.65V38.65H77.75H77.85V38.55H77.95V38.45H78.05L78.15 38.35H78.25V38.25L78.35 38.15V38.05H78.45H78.55V37.95H78.65V37.85H78.75L78.85 37.75L78.95 37.65H79.05V37.55H79.15L79.25 37.45H79.35L79.45 37.35H79.55V37.25H79.65V37.15H79.75V37.05H79.85V36.95H79.95V36.85H80.05V36.75L80.15 36.65V36.55H80.25V36.45H80.35V36.35L80.45 36.25V36.15V36.05H80.55V35.95V35.85V35.75V35.65V35.55V35.45H80.45V35.35H80.35H80.25V35.25V35.15L80.35 35.05V34.95H80.45V34.85V34.75H80.55V34.65V34.55H80.65V34.45L80.75 34.35V34.25H80.85V34.15H80.95H81.05V34.05H81.15H81.25L81.35 33.95H81.45V33.85H81.55H81.65V33.75H81.75H81.85V33.65H81.95V33.55H82.05V33.45L82.15 33.35H82.25V33.25V33.15H82.35V33.05H82.45H82.55V32.95H82.65V32.85H82.75V32.75H82.85L82.95 32.65V32.55H83.05V32.45H83.15V32.35H83.25V32.25H83.35V32.15V32.05H83.45V31.95V31.85H83.55V31.75V31.65V31.55V31.45V31.35H83.65V31.25H83.75V31.15H83.85H83.95V31.05H84.05V30.95H84.15V30.85H84.25H84.35V30.75H84.45L84.55 30.65L84.65 30.55H84.75V30.45H84.85V30.35L84.95 30.25V30.15H85.05H85.15V30.05H85.25V29.95M85.25 29.95H85.15M85.25 29.95V29.85H85.35V29.75H85.45V29.65H85.55V29.55V29.45H85.65V29.35L85.75 29.25V29.15H85.85V29.05H85.95V28.95H86.05V28.85H86.15V28.75H86.25V28.65H86.35V28.55H86.45V28.45H86.55V28.35H86.65V28.25L86.75 28.15L86.85 28.05L86.95 27.95V27.85H87.05V27.75V27.65H87.15H87.25V27.55V27.45H87.35L87.45 27.35V27.25H87.55L87.65 27.15H87.75V27.05H87.85V26.95H87.95V26.85H88.05V26.75H88.15L88.25 26.65V26.55H88.35H88.45V26.45H88.55V26.35V26.25H88.65V26.15H88.75V26.05H88.85V25.95H88.95V25.85H89.05V25.75H89.15L89.25 25.65L89.35 25.55H89.45V25.45L89.55 25.35L89.65 25.25H89.75V25.15H89.85V25.05H89.95V24.95H90.05L90.15 24.85H90.25L90.35 24.75H90.45L90.55 24.65H90.65L90.75 24.55H90.85V24.45H90.95L91.05 24.35H91.15L91.25 24.25H91.35V24.15H91.45V24.05H91.55L91.65 23.95H91.75V23.85H91.85V23.75H91.95V23.65H92.05V23.55H92.15V23.45H92.25V23.35H92.35V23.25H92.45V23.15H92.55V23.05H92.65V22.95H92.75V22.85H92.85V22.75H92.95V22.65H93.05V22.55H93.15L93.25 22.45L93.35 22.35L93.45 22.25H93.55V22.15H93.65V22.05H93.75V21.95H93.85V21.85V21.75H93.95V21.65H94.05V21.55V21.45H94.15V21.35L94.25 21.25H94.35V21.15V21.05H94.45V20.95V20.85H94.55V20.75H94.65V20.65H94.75V20.55H94.85V20.45H94.95V20.35H95.05V20.25H95.15V20.15H95.25V20.05L95.35 19.95V19.85H95.45V19.75H95.55V19.65V19.55H95.65V19.45V19.35H95.75V19.25H95.85V19.15H95.95V19.05L96.05 18.95V18.85H96.15V18.75H96.25V18.65H96.35V18.55V18.45H96.45V18.35H96.55V18.25V18.15H96.65V18.05V17.95H96.75V17.85H96.85V17.75L96.95 17.65V17.55H97.05V17.45V17.35H97.15V17.25V17.15H97.25V17.05V16.95H97.35V16.85H97.45L97.35 16.75H97.45V16.65V16.55H97.55V16.45H97.65V16.35V16.25H97.75V16.15H97.85V16.05H97.95V15.95H98.05V15.85H98.15V15.75L98.25 15.65V15.55H98.35V15.45H98.45V15.35H98.55V15.25H98.65V15.15H98.75V15.05H98.85V14.95H98.95V14.85H99.05V14.75V14.65H99.15V14.55V14.45H99.25V14.35H99.35V14.25H99.45V14.15H99.55L99.65 14.05H99.75V13.95H99.85H99.95V13.85H100.05V13.75L100.15 13.65V13.55H100.25V13.45H100.35L100.45 13.35V13.25H100.55H100.65V13.15H100.75V13.05H100.85M100.85 13.05H100.95M100.85 13.05L100.95 12.95H101.05V12.85H101.15V12.75H101.25V12.65H101.35V12.55L101.45 12.45V12.35H101.55V12.25H101.65V12.15L101.75 12.05V11.95H101.85V11.85H101.95V11.75V11.65H102.05L102.15 11.55H102.25V11.45H102.35M102.35 11.45V11.35M102.35 11.45H102.45V11.35H102.55H102.65V11.25H102.75H102.85V11.15H102.95V11.05H103.05V10.95H103.15V10.85H103.25L103.35 10.75H103.45H103.55V10.65H103.65H103.75V10.55H103.85H103.95V10.45H104.05H104.15V10.35H104.25H104.35H104.45V10.25H104.55H104.65L104.75 10.15H104.85H104.95V10.05H105.05H105.15H105.25V9.95001H105.35H105.45V9.84998H105.55H105.65L105.75 9.75H105.85H105.95L106.05 9.65002H106.15H106.25V9.54999H106.35H106.45L106.55 9.45001H106.65H106.75L106.85 9.34998H106.95H107.05L107.15 9.25H107.25H107.35L107.45 9.15002H107.55H107.65V9.04999H107.75H107.85L107.95 8.95001H108.05H108.15V8.84998H108.25H108.35V8.75H108.45H108.55H108.65V8.65002H108.75H108.85V8.54999H108.95H109.05V8.45001H109.15L109.25 8.34998H109.35L109.45 8.25H109.55V8.15002H109.65H109.75V8.04999H109.85V7.95001H109.95H110.05V7.84998H110.15V7.75H110.25V7.65002H110.35L110.45 7.54999V7.45001H110.55V7.34998V7.25H110.65V7.15002V7.04999V6.95001H110.75V6.84998H110.85V6.75V6.65002V6.54999V6.45001V6.34998V6.25V6.15002V6.04999V5.95001L110.95 5.84998V5.75H111.05V5.65002H111.15V5.54999L111.25 5.45001V5.34998V5.25H111.35V5.15002V5.04999V4.95001L111.45 4.84998V4.75V4.65002V4.54999H111.55V4.45001V4.34998V4.25V4.15002V4.04999V3.95001V3.84998V3.75M111.55 3.75H111.65" stroke="white" stroke-width="0.5" stroke-linecap="round" stroke-linejoin="round"/>
</svg>
